*
%FSLAX26Y26*%
%MOIN*%
%ADD10R,0.051310X0.051310*%
%ADD11R,0.025720X0.025720*%
%ADD12R,0.055200X0.055200*%
%ADD13R,0.067060X0.067060*%
%ADD14R,0.086740X0.086740*%
%ADD15R,0.055240X0.055240*%
%ADD16R,0.038000X0.038000*%
%ADD17R,0.024000X0.024000*%
%ADD18R,0.059180X0.059180*%
%ADD19R,0.048000X0.048000*%
%ADD20R,0.058000X0.058000*%
%ADD21R,0.031620X0.031620*%
%ADD22R,0.098000X0.098000*%
%ADD23R,0.043430X0.043430*%
%ADD24R,0.063120X0.063120*%
%ADD25C,0.063000*%
%ADD26C,0.068000*%
%ADD27R,0.068000X0.068000*%
%ADD28C,0.070000*%
%ADD29C,0.063300*%
%ADD30R,0.063300X0.063300*%
%ADD31R,0.040000X0.040000*%
%ADD32R,0.037750X0.037750*%
%ADD33R,0.028000X0.028000*%
%ADD34R,0.015870X0.015870*%
%ADD35R,0.016660X0.016660*%
%ADD36C,0.012000*%
%ADD37C,0.049339*%
%ADD38C,0.135953*%
%ADD39C,0.088709*%
%ADD40C,0.118110*%
%ADD41C,0.027685*%
%ADD42C,0.000750*%
%ADD43R,0.001750X0.001750*%
%ADD44R,0.001000X0.001000*%
%ADD45R,0.002500X0.002500*%
%ADD46R,0.005000X0.005000*%
%ADD47C,0.005000*%
%ADD48C,0.002600*%
%IPPOS*%
%LN02i31889.gts*%
%LPD*%
G75*
G54D10*
X2406004Y3245975D02*
Y3261725D01*
Y3126975D02*
Y3142725D01*
X2347004Y3126975D02*
Y3142725D01*
Y3245975D02*
Y3261725D01*
G54D11*
X1749019Y1931850D02*
X1750989D01*
X1749019Y1894850D02*
X1750989D01*
X1852019Y1931850D02*
X1853989D01*
X1852019Y1856850D02*
X1853989D01*
X1852019Y1894850D02*
X1853989D01*
X1749019Y1856850D02*
X1750989D01*
G54D12*
X1802004Y1879100D02*
Y1910600D01*
G54D13*
X765004Y1894260D02*
Y1945440D01*
X888004Y1894260D02*
Y1945440D01*
G54D14*
X2042004Y3326325D02*
Y3385375D01*
X1660004Y3326325D02*
Y3385375D01*
X2042004Y3129325D02*
Y3188375D01*
X1660004Y3129325D02*
Y3188375D01*
G54D15*
X1753574Y3400850D02*
X1950434D01*
G54D16*
X1699004Y944850D03*
X1754004D03*
X1724004Y1744850D03*
X1779004D03*
X1699004Y994850D03*
X1754004D03*
X874004Y1569850D03*
X929004D03*
X1754004Y2744850D03*
X1699004D03*
X754004Y2694850D03*
X699004D03*
X754004Y2744850D03*
X699004D03*
X1754004Y2794850D03*
X1699004D03*
X699004Y2844850D03*
X754004D03*
X529004Y2794850D03*
X474004D03*
X529004Y2869850D03*
X474004D03*
X529004Y2944850D03*
X474004D03*
X529004Y3019850D03*
X474004D03*
X754004Y2919850D03*
X699004D03*
X529004Y3169850D03*
X474004D03*
X1404004Y2319850D03*
X1349004D03*
X1404004Y2169850D03*
X1349004D03*
X1849004Y1744850D03*
X1904004D03*
X867004Y1693850D03*
X922004D03*
X1414004Y774850D03*
X1359004D03*
X1730004Y1394850D03*
X1675004D03*
X1404004Y2394850D03*
X1349004D03*
X1224004Y444850D03*
X1279004D03*
X1179004D03*
X1124004D03*
X979004Y404850D03*
X924004D03*
X1349004Y2244850D03*
X1404004D03*
X979004Y719850D03*
X924004D03*
X2054004Y2944850D03*
X1999004D03*
X2054004Y2994850D03*
X1999004D03*
X1504004Y2594850D03*
X1449004D03*
X754004Y2794850D03*
X699004D03*
G54D17*
X2064004Y2840850D02*
Y2854850D01*
X1989004Y2840850D02*
Y2854850D01*
X2027004Y2840850D02*
Y2854850D01*
X1989004Y2733850D02*
Y2747850D01*
X2064004Y2733850D02*
Y2747850D01*
G54D18*
X681194Y481850D02*
X704814D01*
X681194Y606850D02*
X704814D01*
X898194D02*
X921814D01*
X898194Y481850D02*
X921814D01*
G54D19*
X1514004Y2206850D02*
X1534004D01*
X1514004Y2381850D02*
X1534004D01*
X1869004D02*
X1889004D01*
X1869004Y2206850D02*
X1889004D01*
X1219004Y2381850D02*
X1239004D01*
X1219004Y2206850D02*
X1239004D01*
X864004D02*
X884004D01*
X864004Y2381850D02*
X884004D01*
G54D20*
X1127004Y1565850D02*
X1137004D01*
X1127004Y1675850D02*
X1137004D01*
X1397004Y2044850D02*
X1407004D01*
X1397004Y1934850D02*
X1407004D01*
G54D21*
X2477004Y2535355D02*
Y2598345D01*
X2327004Y2740355D02*
Y2803345D01*
X2427004Y2535355D02*
Y2598345D01*
X2377004Y2535355D02*
Y2598345D01*
X2427004Y2740355D02*
Y2803345D01*
X2377004Y2740355D02*
Y2803345D01*
X2327004Y2535355D02*
Y2598345D01*
X2477004Y2740355D02*
Y2803345D01*
G54D19*
X1007004Y1994850D02*
X1047004D01*
X1007004Y1901850D02*
X1047004D01*
X1007004Y2087850D02*
X1047004D01*
G54D22*
X1277004Y1979850D02*
Y2009850D01*
G54D11*
X1979054Y3044850D02*
X1984954D01*
X2069054D02*
X2074954D01*
X454054Y3094850D02*
X459954D01*
X544054D02*
X549954D01*
G54D16*
X2202004Y2996850D03*
Y2941850D03*
X1977004Y1866850D03*
Y1921850D03*
X2152004Y2941850D03*
Y2996850D03*
X2252004Y2941850D03*
Y2996850D03*
X1352004Y3141850D03*
Y3196850D03*
X1727004Y2941850D03*
Y2996850D03*
X1852004Y2941850D03*
Y2996850D03*
X1902004Y2941850D03*
Y2996850D03*
X1802004Y2941850D03*
Y2996850D03*
X2302004Y2941850D03*
Y2996850D03*
X2352004D03*
Y2941850D03*
X2402004Y2996850D03*
Y2941850D03*
X1102004Y3141850D03*
Y3196850D03*
X1052004Y716850D03*
Y771850D03*
X1202004Y716850D03*
Y771850D03*
X2227004Y2674850D03*
Y2619850D03*
X852004Y1046850D03*
Y991850D03*
X1252004Y716850D03*
Y771850D03*
X1152004D03*
Y716850D03*
X1102004Y771850D03*
Y716850D03*
X1152004Y3141850D03*
Y3196850D03*
X1402004D03*
Y3141850D03*
X1452004D03*
Y3196850D03*
X1677004Y1866850D03*
Y1921850D03*
X1927004Y1866850D03*
Y1921850D03*
X1627004Y1866850D03*
Y1921850D03*
X1052004Y1596850D03*
Y1541850D03*
X927004Y1046850D03*
Y991850D03*
X2002004Y2671850D03*
Y2616850D03*
X1927004Y2741850D03*
Y2796850D03*
X2077004Y2671850D03*
Y2616850D03*
X1127004Y2766850D03*
Y2821850D03*
X1277004Y3141850D03*
Y3196850D03*
X1652004Y2941850D03*
Y2996850D03*
X1852004Y2741850D03*
Y2796850D03*
X877004Y2816850D03*
Y2871850D03*
Y2771850D03*
Y2716850D03*
X227004Y2696850D03*
Y2641850D03*
G54D23*
X2151019Y2856850D02*
X2152989D01*
X2250019Y2819850D02*
X2251989D01*
X2151019Y2781850D02*
X2152989D01*
G54D24*
X747004Y2065125D02*
Y2074575D01*
X907004Y2065125D02*
Y2074575D01*
G54D11*
X2152004Y2596900D02*
Y2602800D01*
Y2686900D02*
Y2692800D01*
G54D20*
X1677004Y1314850D02*
Y1324850D01*
X1787004Y1314850D02*
Y1324850D01*
X1677004Y1214850D02*
Y1224850D01*
X1787004Y1214850D02*
Y1224850D01*
G36*
X1533904Y1326550D02*
X1458704Y1401750D01*
X1492104Y1435150D01*
X1567304Y1359950D01*
X1533904Y1326550D01*
G37*
G36*
X1060904Y853550D02*
X985704Y928750D01*
X1019104Y962150D01*
X1094304Y886950D01*
X1060904Y853550D01*
G37*
G36*
X1458704Y886950D02*
X1533904Y962150D01*
X1567304Y928750D01*
X1492104Y853550D01*
X1458704Y886950D01*
G37*
G36*
X985704Y1359950D02*
X1060904Y1435150D01*
X1094304Y1401750D01*
X1019104Y1326550D01*
X985704Y1359950D01*
G37*
G54D25*
X319504Y2894850D02*
X334504D01*
X419504Y1194850D02*
X434504D01*
X419504Y1294850D02*
X434504D01*
X219504Y1194850D02*
X234504D01*
X219504Y1294850D02*
X234504D01*
X119504D02*
X134504D01*
X2619504D02*
X2634504D01*
G54D26*
X1702004Y2069850D03*
X1802004D03*
X127004Y3294850D03*
Y3194850D03*
Y2694850D03*
Y2594850D03*
X2627004Y3194850D03*
Y3294850D03*
X477004Y2669850D03*
Y2569850D03*
X1402004Y3344850D03*
X1302004D03*
X1402004Y1819850D03*
X1302004D03*
G54D27*
X1902004Y2069850D03*
G54D28*
X1302004Y569850D03*
X1102004D03*
X1002004Y2893850D03*
Y2693850D03*
G54D26*
X1702004Y2069850D03*
G54D29*
X119504Y394850D02*
X134504D01*
X219504D02*
X234504D01*
X219504Y494850D02*
X234504D01*
X119504D02*
X134504D01*
X419504D02*
X434504D01*
X419504Y394850D02*
X434504D01*
G54D30*
X2319504D02*
X2334504D01*
G54D29*
X2319504Y494850D02*
X2334504D01*
X2519504D02*
X2534504D01*
X2519504Y394850D02*
X2534504D01*
X2619504D02*
X2634504D01*
X2619504Y494850D02*
X2634504D01*
X2619504Y594850D02*
X2634504D01*
X2519504D02*
X2534504D01*
X2519504Y694850D02*
X2534504D01*
X2519504Y794850D02*
X2534504D01*
X2519504Y894850D02*
X2534504D01*
X2519504Y994850D02*
X2534504D01*
X2519504Y1094850D02*
X2534504D01*
X2519504Y1194850D02*
X2534504D01*
X2519504Y1294850D02*
X2534504D01*
X2519504Y1394850D02*
X2534504D01*
X2519504Y1494850D02*
X2534504D01*
X2519504Y1594850D02*
X2534504D01*
X2519504Y1694850D02*
X2534504D01*
X2519504Y1794850D02*
X2534504D01*
X2519504Y1894850D02*
X2534504D01*
X2519504Y1994850D02*
X2534504D01*
X2519504Y2094850D02*
X2534504D01*
X2619504D02*
X2634504D01*
X2619504Y1994850D02*
X2634504D01*
X2619504Y1894850D02*
X2634504D01*
X2619504Y1794850D02*
X2634504D01*
X2619504Y1694850D02*
X2634504D01*
X2619504Y1594850D02*
X2634504D01*
X2619504Y1494850D02*
X2634504D01*
X2619504Y1394850D02*
X2634504D01*
X2619504Y1194850D02*
X2634504D01*
X2619504Y1094850D02*
X2634504D01*
X2619504Y994850D02*
X2634504D01*
X2619504Y894850D02*
X2634504D01*
X2619504Y794850D02*
X2634504D01*
X2619504Y694850D02*
X2634504D01*
X2319504D02*
X2334504D01*
X2319504Y794850D02*
X2334504D01*
X2319504Y894850D02*
X2334504D01*
X2319504Y994850D02*
X2334504D01*
X2319504Y1094850D02*
X2334504D01*
G54D30*
X2319504Y1254850D02*
X2334504D01*
G54D29*
X2319504Y1354850D02*
X2334504D01*
X2319504Y1454850D02*
X2334504D01*
X2319504Y1554850D02*
X2334504D01*
X2319504Y1654850D02*
X2334504D01*
X2319504Y1754850D02*
X2334504D01*
X2319504Y1854850D02*
X2334504D01*
X2319504Y1954850D02*
X2334504D01*
X2319504Y2054850D02*
X2334504D01*
X2319504Y594850D02*
X2334504D01*
G54D30*
X419504Y1794850D02*
X434504D01*
G54D29*
X419504Y1694850D02*
X434504D01*
X419504Y1594850D02*
X434504D01*
X419504Y1494850D02*
X434504D01*
X419504Y1394850D02*
X434504D01*
X419504Y1094850D02*
X434504D01*
G54D30*
X419504Y894850D02*
X434504D01*
G54D29*
X419504Y794850D02*
X434504D01*
X419504Y694850D02*
X434504D01*
X419504Y594850D02*
X434504D01*
X219504D02*
X234504D01*
X219504Y694850D02*
X234504D01*
X219504Y794850D02*
X234504D01*
X219504Y894850D02*
X234504D01*
X219504Y994850D02*
X234504D01*
X219504Y1094850D02*
X234504D01*
X219504Y1394850D02*
X234504D01*
X219504Y1494850D02*
X234504D01*
X219504Y1594850D02*
X234504D01*
X219504Y1694850D02*
X234504D01*
X219504Y1794850D02*
X234504D01*
X219504Y1894850D02*
X234504D01*
X219504Y1994850D02*
X234504D01*
X219504Y2094850D02*
X234504D01*
X119504D02*
X134504D01*
X119504Y1994850D02*
X134504D01*
X119504Y1894850D02*
X134504D01*
X119504Y1794850D02*
X134504D01*
X119504Y1694850D02*
X134504D01*
X119504Y1594850D02*
X134504D01*
X119504Y1494850D02*
X134504D01*
X119504Y1394850D02*
X134504D01*
X119504Y1194850D02*
X134504D01*
X119504Y1094850D02*
X134504D01*
X119504Y994850D02*
X134504D01*
X119504Y894850D02*
X134504D01*
X119504Y794850D02*
X134504D01*
X119504Y694850D02*
X134504D01*
X119504Y594850D02*
X134504D01*
G54D30*
X119504Y2194850D02*
X134504D01*
G54D29*
X219504D02*
X234504D01*
X319504Y2594850D02*
X334504D01*
X319504Y2694850D02*
X334504D01*
X319504Y2794850D02*
X334504D01*
X319504Y2994850D02*
X334504D01*
G54D30*
X319504Y3094850D02*
X334504D01*
G54D29*
X869504Y3044850D02*
X884504D01*
X869504Y3144850D02*
X884504D01*
X869504Y3244850D02*
X884504D01*
G54D30*
X869504Y3344850D02*
X884504D01*
G54D29*
X2619504Y2194850D02*
X2634504D01*
G54D30*
X2519504D02*
X2534504D01*
G54D29*
X2319504Y2154850D02*
X2334504D01*
G36*
X1601004Y1907850D02*
X1577004Y1883850D01*
X1553004Y1907850D01*
Y1917850D01*
X1601004D01*
Y1907850D01*
G37*
G36*
Y1867850D02*
X1553004D01*
Y1905850D01*
X1577004Y1881850D01*
X1601004Y1905850D01*
Y1867850D01*
G37*
G36*
X2576004Y2682850D02*
X2552004Y2658850D01*
X2528004Y2682850D01*
Y2692850D01*
X2576004D01*
Y2682850D01*
G37*
G36*
Y2642850D02*
X2528004D01*
Y2680850D01*
X2552004Y2656850D01*
X2576004Y2680850D01*
Y2642850D01*
G37*
G54D31*
X1573004Y1860850D02*
X1581004D01*
X1573004Y1927850D02*
X1581004D01*
X2548004Y2635850D02*
X2556004D01*
X2548004Y2702850D02*
X2556004D01*
G54D32*
X1573004Y1860850D02*
X1581004D01*
X1573004Y1927850D02*
X1581004D01*
X2548004Y2635850D02*
X2556004D01*
X2548004Y2702850D02*
X2556004D01*
G54D33*
X1788004Y3125575D02*
Y3196125D01*
X1820004Y3125575D02*
Y3196125D01*
X1851004Y3125575D02*
Y3196125D01*
X1883004Y3125575D02*
Y3196125D01*
X1914004Y3125575D02*
Y3196125D01*
G54D34*
X1386004Y2996100D02*
Y3027600D01*
X1406004Y2996100D02*
Y3027600D01*
X1465004Y2996100D02*
Y3027600D01*
X1445004Y2996100D02*
Y3027600D01*
X1426004Y2996100D02*
Y3027600D01*
X1386004Y2661100D02*
Y2692600D01*
X1288004Y2996100D02*
Y3027600D01*
X1406004Y2661100D02*
Y2692600D01*
X1465004Y2661100D02*
Y2692600D01*
X1288004Y2661100D02*
Y2692600D01*
X1347004Y2996100D02*
Y3027600D01*
X1485004Y2996100D02*
Y3027600D01*
X1308004Y2661100D02*
Y2692600D01*
X1347004Y2661100D02*
Y2692600D01*
X1327004Y2661100D02*
Y2692600D01*
X1268004Y2661100D02*
Y2692600D01*
X1367004Y2661100D02*
Y2692600D01*
X1268004Y2996100D02*
Y3027600D01*
X1308004Y2996100D02*
Y3027600D01*
X1426004Y2661100D02*
Y2692600D01*
X1367004Y2996100D02*
Y3027600D01*
X1327004Y2996100D02*
Y3027600D01*
X1445004Y2661100D02*
Y2692600D01*
X1485004Y2661100D02*
Y2692600D01*
X1193254Y2775850D02*
X1224754D01*
X1193254Y2814850D02*
X1224754D01*
X1528254Y2932850D02*
X1559754D01*
X1193254Y2893850D02*
X1224754D01*
X1193254Y2755850D02*
X1224754D01*
X1528254Y2834850D02*
X1559754D01*
X1193254Y2912850D02*
X1224754D01*
X1193254Y2932850D02*
X1224754D01*
X1528254Y2814850D02*
X1559754D01*
X1193254Y2873850D02*
X1224754D01*
X1193254Y2853850D02*
X1224754D01*
X1528254Y2912850D02*
X1559754D01*
X1193254Y2834850D02*
X1224754D01*
X1528254Y2755850D02*
X1559754D01*
X1528254Y2775850D02*
X1559754D01*
X1528254Y2735850D02*
X1559754D01*
X1193254D02*
X1224754D01*
X1528254Y2873850D02*
X1559754D01*
X1528254Y2893850D02*
X1559754D01*
X1528254Y2794850D02*
X1559754D01*
X1528254Y2853850D02*
X1559754D01*
X1193254Y2952850D02*
X1224754D01*
X1193254Y2794850D02*
X1224754D01*
X1528254Y2952850D02*
X1559754D01*
G54D35*
X1014869Y1291850D02*
X1073139D01*
X1014869Y1075850D02*
X1073139D01*
X1479869Y1252850D02*
X1538139D01*
X1479869Y1232850D02*
X1538139D01*
X1014869Y1272850D02*
X1073139D01*
X1014869Y996850D02*
X1073139D01*
X1014869Y1016850D02*
X1073139D01*
X1014869Y1035850D02*
X1073139D01*
X1014869Y1055850D02*
X1073139D01*
X1014869Y1094850D02*
X1073139D01*
X1014869Y1114850D02*
X1073139D01*
X1014869Y1134850D02*
X1073139D01*
X1014869Y1153850D02*
X1073139D01*
X1014869Y1173850D02*
X1073139D01*
X1014869Y1193850D02*
X1073139D01*
X1014869Y1213850D02*
X1073139D01*
X1014869Y1232850D02*
X1073139D01*
X1014869Y1252850D02*
X1073139D01*
X1479869Y1291850D02*
X1538139D01*
X1479869Y1271850D02*
X1538139D01*
X1479869Y1212850D02*
X1538139D01*
X1479869Y1193850D02*
X1538139D01*
X1479869Y1173850D02*
X1538139D01*
X1479869Y1153850D02*
X1538139D01*
X1479869Y1134850D02*
X1538139D01*
X1479869Y1114850D02*
X1538139D01*
X1479869Y1094850D02*
X1538139D01*
X1479869Y1074850D02*
X1538139D01*
X1479869Y1055850D02*
X1538139D01*
X1479869Y1035850D02*
X1538139D01*
X1479869Y1015850D02*
X1538139D01*
X1479869Y996850D02*
X1538139D01*
X1129004Y882715D02*
Y940985D01*
X1149004Y882715D02*
Y940985D01*
X1267004Y882715D02*
Y940985D01*
X1326004Y882715D02*
Y940985D01*
X1286004Y882715D02*
Y940985D01*
X1129004Y1347715D02*
Y1405985D01*
X1149004Y1347715D02*
Y1405985D01*
X1168004Y1347715D02*
Y1405985D01*
X1188004Y1347715D02*
Y1405985D01*
X1208004Y1347715D02*
Y1405985D01*
X1227004Y1347715D02*
Y1405985D01*
X1247004Y1347715D02*
Y1405985D01*
X1267004Y1347715D02*
Y1405985D01*
X1286004Y1347715D02*
Y1405985D01*
X1306004Y1347715D02*
Y1405985D01*
X1326004Y1347715D02*
Y1405985D01*
X1346004Y1347715D02*
Y1405985D01*
X1365004Y1347715D02*
Y1405985D01*
X1385004Y1347715D02*
Y1405985D01*
X1405004Y1347715D02*
Y1405985D01*
X1424004Y1347715D02*
Y1405985D01*
Y882715D02*
Y940985D01*
X1405004Y882715D02*
Y940985D01*
X1385004Y882715D02*
Y940985D01*
X1365004Y882715D02*
Y940985D01*
X1346004Y882715D02*
Y940985D01*
X1306004Y882715D02*
Y940985D01*
X1247004Y882715D02*
Y940985D01*
X1227004Y882715D02*
Y940985D01*
X1208004Y882715D02*
Y940985D01*
X1188004Y882715D02*
Y940985D01*
X1168004Y882715D02*
Y940985D01*
G54D36*
X1829004Y196850D02*
X1908004Y275850D01*
X1829004Y196850D03*
X530004D02*
X1829004D01*
X451004Y275850D02*
X530004Y196850D01*
X1908004Y275850D02*
X2676004D01*
X78004Y3443850D02*
X2676004D01*
X76004Y275850D02*
X451004Y275850D01*
X4Y2479850D02*
X610004D01*
X4Y2439850D02*
X609004D01*
X2125004D02*
X2754004D01*
X2125004Y2479850D02*
X2754004D01*
X4Y354850D02*
Y2439850D01*
Y2479850D02*
Y3364850D01*
X2754004Y354850D02*
Y2439850D01*
Y2479850D02*
Y3364850D01*
X4D02*
X413Y3373625D01*
X1803Y3382298D01*
X4157Y3390760D01*
X7444Y3398906D01*
X11623Y3406632D01*
X16642Y3413841D01*
X22437Y3420442D01*
X28935Y3426352D01*
X36054Y3431496D01*
X43706Y3435811D01*
X51792Y3439240D01*
X60212Y3441742D01*
X68859Y3443285D01*
X77625Y3443848D01*
X78004Y3443850D01*
X2754004Y3364850D02*
X2753688Y3373582D01*
X2752390Y3382223D01*
X2750127Y3390662D01*
X2746927Y3398793D01*
X2742832Y3406511D01*
X2737894Y3413719D01*
X2732175Y3420325D01*
X2725748Y3426244D01*
X2718695Y3431402D01*
X2711106Y3435732D01*
X2703078Y3439180D01*
X2694712Y3441701D01*
X2686116Y3443264D01*
X2677398Y3443848D01*
X2676004Y3443850D01*
Y275850D02*
X2684711Y276232D01*
X2693319Y277595D01*
X2701718Y279922D01*
X2709800Y283182D01*
X2717463Y287334D01*
X2724608Y292325D01*
X2731143Y298091D01*
X2736985Y304558D01*
X2742060Y311644D01*
X2746301Y319257D01*
X2749656Y327301D01*
X2752081Y335672D01*
X2753545Y344264D01*
X2754029Y352966D01*
X2754004Y354850D01*
X4D02*
X359Y346100D01*
X1696Y337444D01*
X3997Y328994D01*
X7234Y320856D01*
X11365Y313133D01*
X16337Y305923D01*
X22088Y299318D01*
X28545Y293401D01*
X35627Y288248D01*
X43242Y283923D01*
X51296Y280481D01*
X59685Y277967D01*
X68304Y276411D01*
X76004Y275850D01*
X610004Y2479850D02*
X614348Y2478931D01*
X618383Y2477079D01*
X621912Y2474384D01*
X624762Y2470978D01*
X626792Y2467029D01*
X627905Y2462731D01*
X628044Y2458293D01*
X627203Y2453932D01*
X625424Y2449864D01*
X622793Y2446287D01*
X619440Y2443376D01*
X615528Y2441275D01*
X611250Y2440085D01*
X609004Y2439850D01*
X2125004Y2479850D02*
X2120588Y2479447D01*
X2116369Y2478081D01*
X2112555Y2475819D01*
X2109333Y2472773D01*
X2106862Y2469091D01*
X2105262Y2464956D01*
X2104613Y2460569D01*
X2104945Y2456148D01*
X2106244Y2451908D01*
X2108445Y2448058D01*
X2111440Y2444788D01*
X2115081Y2442258D01*
X2119191Y2440593D01*
X2123566Y2439873D01*
X2125004Y2439850D01*
G54D37*
X1277004Y1021850D03*
Y1266850D03*
X1765004Y3269850D03*
X1938004D03*
G54D38*
X1727004Y294850D03*
X427004Y2344850D03*
X2327004Y2294850D03*
G36*
X747004Y2439850D02*
G02X747004Y2479850I79J20000D01*
G01X1496004D01*
G02X1495004Y2439850I-1386J-19978D01*
G01X747004D01*
G37*
G36*
X1676979Y2479850D02*
X1966004D01*
G02X1965004Y2439850I-988J-19988D01*
G01X1677004D01*
G02X1676979Y2479850I-25J20000D01*
G37*
G54D36*
X1677004Y2439850D02*
G01X1965004D01*
X1677004Y2479850D02*
X1966004D01*
X747004Y2439850D02*
X1495004D01*
X747004Y2479850D02*
X1496004D01*
X747004D02*
X742599Y2479342D01*
X738415Y2477875D01*
X734657Y2475522D01*
X731509Y2472400D01*
X729127Y2468660D01*
X727627Y2464488D01*
X727084Y2460087D01*
X727523Y2455675D01*
X728924Y2451469D01*
X731216Y2447674D01*
X734289Y2444477D01*
X737990Y2442036D01*
X742139Y2440471D01*
X746530Y2439858D01*
X747004Y2439850D01*
X1496004Y2479850D02*
X1500368Y2479055D01*
X1504451Y2477318D01*
X1508051Y2474725D01*
X1510991Y2471403D01*
X1513128Y2467514D01*
X1514356Y2463251D01*
X1514616Y2458822D01*
X1513894Y2454445D01*
X1512226Y2450334D01*
X1509693Y2446691D01*
X1506421Y2443695D01*
X1502569Y2441493D01*
X1498327Y2440193D01*
X1495004Y2439850D01*
X1677004Y2479850D02*
X1672597Y2479364D01*
X1668405Y2477919D01*
X1664635Y2475587D01*
X1661471Y2472480D01*
X1659069Y2468753D01*
X1657548Y2464589D01*
X1656981Y2460191D01*
X1657398Y2455777D01*
X1658776Y2451563D01*
X1661050Y2447756D01*
X1664106Y2444544D01*
X1667794Y2442084D01*
X1671934Y2440497D01*
X1676322Y2439861D01*
X1677004Y2439850D01*
X1966004Y2479850D02*
X1970382Y2479142D01*
X1974496Y2477487D01*
X1978145Y2474966D01*
X1981150Y2471703D01*
X1983361Y2467859D01*
X1984672Y2463622D01*
X1985017Y2459200D01*
X1984380Y2454811D01*
X1982792Y2450670D01*
X1980330Y2446980D01*
X1977117Y2443924D01*
X1973309Y2441650D01*
X1969094Y2440270D01*
X1965004Y2439850D01*
G54D10*
X5160032Y3245975D02*
Y3261725D01*
Y3126975D02*
Y3142725D01*
X5101032Y3126975D02*
Y3142725D01*
Y3245975D02*
Y3261725D01*
G54D11*
X4503047Y1931850D02*
X4505017D01*
X4503047Y1894850D02*
X4505017D01*
X4606047Y1931850D02*
X4608017D01*
X4606047Y1856850D02*
X4608017D01*
X4606047Y1894850D02*
X4608017D01*
X4503047Y1856850D02*
X4505017D01*
G54D12*
X4556032Y1879100D02*
Y1910600D01*
G54D13*
X3519032Y1894260D02*
Y1945440D01*
X3642032Y1894260D02*
Y1945440D01*
G54D14*
X4796032Y3326325D02*
Y3385375D01*
X4414032Y3326325D02*
Y3385375D01*
X4796032Y3129325D02*
Y3188375D01*
X4414032Y3129325D02*
Y3188375D01*
G54D15*
X4507602Y3400850D02*
X4704462D01*
G54D16*
X4453032Y944850D03*
X4508032D03*
X4478032Y1744850D03*
X4533032D03*
X4453032Y994850D03*
X4508032D03*
X3628032Y1569850D03*
X3683032D03*
X4508032Y2744850D03*
X4453032D03*
X3508032Y2694850D03*
X3453032D03*
X3508032Y2744850D03*
X3453032D03*
X4508032Y2794850D03*
X4453032D03*
X3453032Y2844850D03*
X3508032D03*
X3283032Y2794850D03*
X3228032D03*
X3283032Y2869850D03*
X3228032D03*
X3283032Y2944850D03*
X3228032D03*
X3283032Y3019850D03*
X3228032D03*
X3508032Y2919850D03*
X3453032D03*
X3283032Y3169850D03*
X3228032D03*
X4158032Y2319850D03*
X4103032D03*
X4158032Y2169850D03*
X4103032D03*
X4603032Y1744850D03*
X4658032D03*
X3621032Y1693850D03*
X3676032D03*
X4168032Y774850D03*
X4113032D03*
X4484032Y1394850D03*
X4429032D03*
X4158032Y2394850D03*
X4103032D03*
X3978032Y444850D03*
X4033032D03*
X3933032D03*
X3878032D03*
X3733032Y404850D03*
X3678032D03*
X4103032Y2244850D03*
X4158032D03*
X3733032Y719850D03*
X3678032D03*
X4808032Y2944850D03*
X4753032D03*
X4808032Y2994850D03*
X4753032D03*
X4258032Y2594850D03*
X4203032D03*
X3508032Y2794850D03*
X3453032D03*
G54D17*
X4818032Y2840850D02*
Y2854850D01*
X4743032Y2840850D02*
Y2854850D01*
X4781032Y2840850D02*
Y2854850D01*
X4743032Y2733850D02*
Y2747850D01*
X4818032Y2733850D02*
Y2747850D01*
G54D18*
X3435222Y481850D02*
X3458842D01*
X3435222Y606850D02*
X3458842D01*
X3652222D02*
X3675842D01*
X3652222Y481850D02*
X3675842D01*
G54D19*
X4268032Y2206850D02*
X4288032D01*
X4268032Y2381850D02*
X4288032D01*
X4623032D02*
X4643032D01*
X4623032Y2206850D02*
X4643032D01*
X3973032Y2381850D02*
X3993032D01*
X3973032Y2206850D02*
X3993032D01*
X3618032D02*
X3638032D01*
X3618032Y2381850D02*
X3638032D01*
G54D20*
X3881032Y1565850D02*
X3891032D01*
X3881032Y1675850D02*
X3891032D01*
X4151032Y2044850D02*
X4161032D01*
X4151032Y1934850D02*
X4161032D01*
G54D21*
X5231032Y2535355D02*
Y2598345D01*
X5081032Y2740355D02*
Y2803345D01*
X5181032Y2535355D02*
Y2598345D01*
X5131032Y2535355D02*
Y2598345D01*
X5181032Y2740355D02*
Y2803345D01*
X5131032Y2740355D02*
Y2803345D01*
X5081032Y2535355D02*
Y2598345D01*
X5231032Y2740355D02*
Y2803345D01*
G54D19*
X3761032Y1994850D02*
X3801032D01*
X3761032Y1901850D02*
X3801032D01*
X3761032Y2087850D02*
X3801032D01*
G54D22*
X4031032Y1979850D02*
Y2009850D01*
G54D11*
X4733082Y3044850D02*
X4738982D01*
X4823082D02*
X4828982D01*
X3208082Y3094850D02*
X3213982D01*
X3298082D02*
X3303982D01*
G54D16*
X4956032Y2996850D03*
Y2941850D03*
X4731032Y1866850D03*
Y1921850D03*
X4906032Y2941850D03*
Y2996850D03*
X5006032Y2941850D03*
Y2996850D03*
X4106032Y3141850D03*
Y3196850D03*
X4481032Y2941850D03*
Y2996850D03*
X4606032Y2941850D03*
Y2996850D03*
X4656032Y2941850D03*
Y2996850D03*
X4556032Y2941850D03*
Y2996850D03*
X5056032Y2941850D03*
Y2996850D03*
X5106032D03*
Y2941850D03*
X5156032Y2996850D03*
Y2941850D03*
X3856032Y3141850D03*
Y3196850D03*
X3806032Y716850D03*
Y771850D03*
X3956032Y716850D03*
Y771850D03*
X4981032Y2674850D03*
Y2619850D03*
X3606032Y1046850D03*
Y991850D03*
X4006032Y716850D03*
Y771850D03*
X3906032D03*
Y716850D03*
X3856032Y771850D03*
Y716850D03*
X3906032Y3141850D03*
Y3196850D03*
X4156032D03*
Y3141850D03*
X4206032D03*
Y3196850D03*
X4431032Y1866850D03*
Y1921850D03*
X4681032Y1866850D03*
Y1921850D03*
X4381032Y1866850D03*
Y1921850D03*
X3806032Y1596850D03*
Y1541850D03*
X3681032Y1046850D03*
Y991850D03*
X4756032Y2671850D03*
Y2616850D03*
X4681032Y2741850D03*
Y2796850D03*
X4831032Y2671850D03*
Y2616850D03*
X3881032Y2766850D03*
Y2821850D03*
X4031032Y3141850D03*
Y3196850D03*
X4406032Y2941850D03*
Y2996850D03*
X4606032Y2741850D03*
Y2796850D03*
X3631032Y2816850D03*
Y2871850D03*
Y2771850D03*
Y2716850D03*
X2981032Y2696850D03*
Y2641850D03*
G54D23*
X4905047Y2856850D02*
X4907017D01*
X5004047Y2819850D02*
X5006017D01*
X4905047Y2781850D02*
X4907017D01*
G54D24*
X3501032Y2065125D02*
Y2074575D01*
X3661032Y2065125D02*
Y2074575D01*
G54D11*
X4906032Y2596900D02*
Y2602800D01*
Y2686900D02*
Y2692800D01*
G54D20*
X4431032Y1314850D02*
Y1324850D01*
X4541032Y1314850D02*
Y1324850D01*
X4431032Y1214850D02*
Y1224850D01*
X4541032Y1214850D02*
Y1224850D01*
G36*
X4287932Y1326550D02*
X4212732Y1401750D01*
X4246132Y1435150D01*
X4321332Y1359950D01*
X4287932Y1326550D01*
G37*
G36*
X3814932Y853550D02*
X3739732Y928750D01*
X3773132Y962150D01*
X3848332Y886950D01*
X3814932Y853550D01*
G37*
G36*
X4212732Y886950D02*
X4287932Y962150D01*
X4321332Y928750D01*
X4246132Y853550D01*
X4212732Y886950D01*
G37*
G36*
X3739732Y1359950D02*
X3814932Y1435150D01*
X3848332Y1401750D01*
X3773132Y1326550D01*
X3739732Y1359950D01*
G37*
G54D25*
X3073532Y2894850D02*
X3088532D01*
X3173532Y1194850D02*
X3188532D01*
X3173532Y1294850D02*
X3188532D01*
X2973532Y1194850D02*
X2988532D01*
X2973532Y1294850D02*
X2988532D01*
X2873532D02*
X2888532D01*
X5373532D02*
X5388532D01*
G54D26*
X4456032Y2069850D03*
X4556032D03*
X2881032Y3294850D03*
Y3194850D03*
Y2694850D03*
Y2594850D03*
X5381032Y3194850D03*
Y3294850D03*
X3231032Y2669850D03*
Y2569850D03*
X4156032Y3344850D03*
X4056032D03*
X4156032Y1819850D03*
X4056032D03*
G54D27*
X4656032Y2069850D03*
G54D28*
X4056032Y569850D03*
X3856032D03*
X3756032Y2893850D03*
Y2693850D03*
G54D26*
X4456032Y2069850D03*
G54D29*
X2873532Y394850D02*
X2888532D01*
X2973532D02*
X2988532D01*
X2973532Y494850D02*
X2988532D01*
X2873532D02*
X2888532D01*
X3173532D02*
X3188532D01*
X3173532Y394850D02*
X3188532D01*
G54D30*
X5073532D02*
X5088532D01*
G54D29*
X5073532Y494850D02*
X5088532D01*
X5273532D02*
X5288532D01*
X5273532Y394850D02*
X5288532D01*
X5373532D02*
X5388532D01*
X5373532Y494850D02*
X5388532D01*
X5373532Y594850D02*
X5388532D01*
X5273532D02*
X5288532D01*
X5273532Y694850D02*
X5288532D01*
X5273532Y794850D02*
X5288532D01*
X5273532Y894850D02*
X5288532D01*
X5273532Y994850D02*
X5288532D01*
X5273532Y1094850D02*
X5288532D01*
X5273532Y1194850D02*
X5288532D01*
X5273532Y1294850D02*
X5288532D01*
X5273532Y1394850D02*
X5288532D01*
X5273532Y1494850D02*
X5288532D01*
X5273532Y1594850D02*
X5288532D01*
X5273532Y1694850D02*
X5288532D01*
X5273532Y1794850D02*
X5288532D01*
X5273532Y1894850D02*
X5288532D01*
X5273532Y1994850D02*
X5288532D01*
X5273532Y2094850D02*
X5288532D01*
X5373532D02*
X5388532D01*
X5373532Y1994850D02*
X5388532D01*
X5373532Y1894850D02*
X5388532D01*
X5373532Y1794850D02*
X5388532D01*
X5373532Y1694850D02*
X5388532D01*
X5373532Y1594850D02*
X5388532D01*
X5373532Y1494850D02*
X5388532D01*
X5373532Y1394850D02*
X5388532D01*
X5373532Y1194850D02*
X5388532D01*
X5373532Y1094850D02*
X5388532D01*
X5373532Y994850D02*
X5388532D01*
X5373532Y894850D02*
X5388532D01*
X5373532Y794850D02*
X5388532D01*
X5373532Y694850D02*
X5388532D01*
X5073532D02*
X5088532D01*
X5073532Y794850D02*
X5088532D01*
X5073532Y894850D02*
X5088532D01*
X5073532Y994850D02*
X5088532D01*
X5073532Y1094850D02*
X5088532D01*
G54D30*
X5073532Y1254850D02*
X5088532D01*
G54D29*
X5073532Y1354850D02*
X5088532D01*
X5073532Y1454850D02*
X5088532D01*
X5073532Y1554850D02*
X5088532D01*
X5073532Y1654850D02*
X5088532D01*
X5073532Y1754850D02*
X5088532D01*
X5073532Y1854850D02*
X5088532D01*
X5073532Y1954850D02*
X5088532D01*
X5073532Y2054850D02*
X5088532D01*
X5073532Y594850D02*
X5088532D01*
G54D30*
X3173532Y1794850D02*
X3188532D01*
G54D29*
X3173532Y1694850D02*
X3188532D01*
X3173532Y1594850D02*
X3188532D01*
X3173532Y1494850D02*
X3188532D01*
X3173532Y1394850D02*
X3188532D01*
X3173532Y1094850D02*
X3188532D01*
G54D30*
X3173532Y894850D02*
X3188532D01*
G54D29*
X3173532Y794850D02*
X3188532D01*
X3173532Y694850D02*
X3188532D01*
X3173532Y594850D02*
X3188532D01*
X2973532D02*
X2988532D01*
X2973532Y694850D02*
X2988532D01*
X2973532Y794850D02*
X2988532D01*
X2973532Y894850D02*
X2988532D01*
X2973532Y994850D02*
X2988532D01*
X2973532Y1094850D02*
X2988532D01*
X2973532Y1394850D02*
X2988532D01*
X2973532Y1494850D02*
X2988532D01*
X2973532Y1594850D02*
X2988532D01*
X2973532Y1694850D02*
X2988532D01*
X2973532Y1794850D02*
X2988532D01*
X2973532Y1894850D02*
X2988532D01*
X2973532Y1994850D02*
X2988532D01*
X2973532Y2094850D02*
X2988532D01*
X2873532D02*
X2888532D01*
X2873532Y1994850D02*
X2888532D01*
X2873532Y1894850D02*
X2888532D01*
X2873532Y1794850D02*
X2888532D01*
X2873532Y1694850D02*
X2888532D01*
X2873532Y1594850D02*
X2888532D01*
X2873532Y1494850D02*
X2888532D01*
X2873532Y1394850D02*
X2888532D01*
X2873532Y1194850D02*
X2888532D01*
X2873532Y1094850D02*
X2888532D01*
X2873532Y994850D02*
X2888532D01*
X2873532Y894850D02*
X2888532D01*
X2873532Y794850D02*
X2888532D01*
X2873532Y694850D02*
X2888532D01*
X2873532Y594850D02*
X2888532D01*
G54D30*
X2873532Y2194850D02*
X2888532D01*
G54D29*
X2973532D02*
X2988532D01*
X3073532Y2594850D02*
X3088532D01*
X3073532Y2694850D02*
X3088532D01*
X3073532Y2794850D02*
X3088532D01*
X3073532Y2994850D02*
X3088532D01*
G54D30*
X3073532Y3094850D02*
X3088532D01*
G54D29*
X3623532Y3044850D02*
X3638532D01*
X3623532Y3144850D02*
X3638532D01*
X3623532Y3244850D02*
X3638532D01*
G54D30*
X3623532Y3344850D02*
X3638532D01*
G54D29*
X5373532Y2194850D02*
X5388532D01*
G54D30*
X5273532D02*
X5288532D01*
G54D29*
X5073532Y2154850D02*
X5088532D01*
G36*
X4355032Y1907850D02*
X4331032Y1883850D01*
X4307032Y1907850D01*
Y1917850D01*
X4355032D01*
Y1907850D01*
G37*
G36*
Y1867850D02*
X4307032D01*
Y1905850D01*
X4331032Y1881850D01*
X4355032Y1905850D01*
Y1867850D01*
G37*
G36*
X5330032Y2682850D02*
X5306032Y2658850D01*
X5282032Y2682850D01*
Y2692850D01*
X5330032D01*
Y2682850D01*
G37*
G36*
Y2642850D02*
X5282032D01*
Y2680850D01*
X5306032Y2656850D01*
X5330032Y2680850D01*
Y2642850D01*
G37*
G54D31*
X4327032Y1860850D02*
X4335032D01*
X4327032Y1927850D02*
X4335032D01*
X5302032Y2635850D02*
X5310032D01*
X5302032Y2702850D02*
X5310032D01*
G54D32*
X4327032Y1860850D02*
X4335032D01*
X4327032Y1927850D02*
X4335032D01*
X5302032Y2635850D02*
X5310032D01*
X5302032Y2702850D02*
X5310032D01*
G54D33*
X4542032Y3125575D02*
Y3196125D01*
X4574032Y3125575D02*
Y3196125D01*
X4605032Y3125575D02*
Y3196125D01*
X4637032Y3125575D02*
Y3196125D01*
X4668032Y3125575D02*
Y3196125D01*
G54D34*
X4140032Y2996100D02*
Y3027600D01*
X4160032Y2996100D02*
Y3027600D01*
X4219032Y2996100D02*
Y3027600D01*
X4199032Y2996100D02*
Y3027600D01*
X4180032Y2996100D02*
Y3027600D01*
X4140032Y2661100D02*
Y2692600D01*
X4042032Y2996100D02*
Y3027600D01*
X4160032Y2661100D02*
Y2692600D01*
X4219032Y2661100D02*
Y2692600D01*
X4042032Y2661100D02*
Y2692600D01*
X4101032Y2996100D02*
Y3027600D01*
X4239032Y2996100D02*
Y3027600D01*
X4062032Y2661100D02*
Y2692600D01*
X4101032Y2661100D02*
Y2692600D01*
X4081032Y2661100D02*
Y2692600D01*
X4022032Y2661100D02*
Y2692600D01*
X4121032Y2661100D02*
Y2692600D01*
X4022032Y2996100D02*
Y3027600D01*
X4062032Y2996100D02*
Y3027600D01*
X4180032Y2661100D02*
Y2692600D01*
X4121032Y2996100D02*
Y3027600D01*
X4081032Y2996100D02*
Y3027600D01*
X4199032Y2661100D02*
Y2692600D01*
X4239032Y2661100D02*
Y2692600D01*
X3947282Y2775850D02*
X3978782D01*
X3947282Y2814850D02*
X3978782D01*
X4282282Y2932850D02*
X4313782D01*
X3947282Y2893850D02*
X3978782D01*
X3947282Y2755850D02*
X3978782D01*
X4282282Y2834850D02*
X4313782D01*
X3947282Y2912850D02*
X3978782D01*
X3947282Y2932850D02*
X3978782D01*
X4282282Y2814850D02*
X4313782D01*
X3947282Y2873850D02*
X3978782D01*
X3947282Y2853850D02*
X3978782D01*
X4282282Y2912850D02*
X4313782D01*
X3947282Y2834850D02*
X3978782D01*
X4282282Y2755850D02*
X4313782D01*
X4282282Y2775850D02*
X4313782D01*
X4282282Y2735850D02*
X4313782D01*
X3947282D02*
X3978782D01*
X4282282Y2873850D02*
X4313782D01*
X4282282Y2893850D02*
X4313782D01*
X4282282Y2794850D02*
X4313782D01*
X4282282Y2853850D02*
X4313782D01*
X3947282Y2952850D02*
X3978782D01*
X3947282Y2794850D02*
X3978782D01*
X4282282Y2952850D02*
X4313782D01*
G54D35*
X3768897Y1291850D02*
X3827167D01*
X3768897Y1075850D02*
X3827167D01*
X4233897Y1252850D02*
X4292167D01*
X4233897Y1232850D02*
X4292167D01*
X3768897Y1272850D02*
X3827167D01*
X3768897Y996850D02*
X3827167D01*
X3768897Y1016850D02*
X3827167D01*
X3768897Y1035850D02*
X3827167D01*
X3768897Y1055850D02*
X3827167D01*
X3768897Y1094850D02*
X3827167D01*
X3768897Y1114850D02*
X3827167D01*
X3768897Y1134850D02*
X3827167D01*
X3768897Y1153850D02*
X3827167D01*
X3768897Y1173850D02*
X3827167D01*
X3768897Y1193850D02*
X3827167D01*
X3768897Y1213850D02*
X3827167D01*
X3768897Y1232850D02*
X3827167D01*
X3768897Y1252850D02*
X3827167D01*
X4233897Y1291850D02*
X4292167D01*
X4233897Y1271850D02*
X4292167D01*
X4233897Y1212850D02*
X4292167D01*
X4233897Y1193850D02*
X4292167D01*
X4233897Y1173850D02*
X4292167D01*
X4233897Y1153850D02*
X4292167D01*
X4233897Y1134850D02*
X4292167D01*
X4233897Y1114850D02*
X4292167D01*
X4233897Y1094850D02*
X4292167D01*
X4233897Y1074850D02*
X4292167D01*
X4233897Y1055850D02*
X4292167D01*
X4233897Y1035850D02*
X4292167D01*
X4233897Y1015850D02*
X4292167D01*
X4233897Y996850D02*
X4292167D01*
X3883032Y882715D02*
Y940985D01*
X3903032Y882715D02*
Y940985D01*
X4021032Y882715D02*
Y940985D01*
X4080032Y882715D02*
Y940985D01*
X4040032Y882715D02*
Y940985D01*
X3883032Y1347715D02*
Y1405985D01*
X3903032Y1347715D02*
Y1405985D01*
X3922032Y1347715D02*
Y1405985D01*
X3942032Y1347715D02*
Y1405985D01*
X3962032Y1347715D02*
Y1405985D01*
X3981032Y1347715D02*
Y1405985D01*
X4001032Y1347715D02*
Y1405985D01*
X4021032Y1347715D02*
Y1405985D01*
X4040032Y1347715D02*
Y1405985D01*
X4060032Y1347715D02*
Y1405985D01*
X4080032Y1347715D02*
Y1405985D01*
X4100032Y1347715D02*
Y1405985D01*
X4119032Y1347715D02*
Y1405985D01*
X4139032Y1347715D02*
Y1405985D01*
X4159032Y1347715D02*
Y1405985D01*
X4178032Y1347715D02*
Y1405985D01*
Y882715D02*
Y940985D01*
X4159032Y882715D02*
Y940985D01*
X4139032Y882715D02*
Y940985D01*
X4119032Y882715D02*
Y940985D01*
X4100032Y882715D02*
Y940985D01*
X4060032Y882715D02*
Y940985D01*
X4001032Y882715D02*
Y940985D01*
X3981032Y882715D02*
Y940985D01*
X3962032Y882715D02*
Y940985D01*
X3942032Y882715D02*
Y940985D01*
X3922032Y882715D02*
Y940985D01*
G54D36*
X4583032Y196850D02*
X4662032Y275850D01*
X4583032Y196850D03*
X3284032D02*
X4583032D01*
X3205032Y275850D02*
X3284032Y196850D01*
X4662032Y275850D02*
X5430032D01*
X2832032Y3443850D02*
X5430032D01*
X2830032Y275850D02*
X3205032Y275850D01*
X2754032Y2479850D02*
X3364032D01*
X2754032Y2439850D02*
X3363032D01*
X4879032D02*
X5508032D01*
X4879032Y2479850D02*
X5508032D01*
X2754032Y354850D02*
Y2439850D01*
Y2479850D02*
Y3364850D01*
X5508032Y354850D02*
Y2439850D01*
Y2479850D02*
Y3364850D01*
X2754032D02*
X2754442Y3373625D01*
X2755832Y3382298D01*
X2758186Y3390760D01*
X2761473Y3398906D01*
X2765652Y3406632D01*
X2770670Y3413841D01*
X2776465Y3420442D01*
X2782963Y3426352D01*
X2790083Y3431496D01*
X2797734Y3435811D01*
X2805821Y3439240D01*
X2814241Y3441742D01*
X2822888Y3443285D01*
X2831654Y3443848D01*
X2832032Y3443850D01*
X5508032Y3364850D02*
X5507716Y3373582D01*
X5506418Y3382223D01*
X5504155Y3390662D01*
X5500956Y3398793D01*
X5496861Y3406511D01*
X5491923Y3413719D01*
X5486204Y3420325D01*
X5479777Y3426244D01*
X5472724Y3431402D01*
X5465135Y3435732D01*
X5457107Y3439180D01*
X5448741Y3441701D01*
X5440144Y3443264D01*
X5431426Y3443848D01*
X5430032Y3443850D01*
Y275850D02*
X5438739Y276232D01*
X5447347Y277595D01*
X5455746Y279922D01*
X5463829Y283182D01*
X5471492Y287334D01*
X5478636Y292325D01*
X5485172Y298091D01*
X5491014Y304558D01*
X5496088Y311644D01*
X5500330Y319257D01*
X5503685Y327301D01*
X5506110Y335672D01*
X5507573Y344264D01*
X5508057Y352966D01*
X5508032Y354850D01*
X2754032D02*
X2754388Y346100D01*
X2755725Y337444D01*
X2758026Y328994D01*
X2761263Y320856D01*
X2765393Y313133D01*
X2770366Y305923D01*
X2776117Y299318D01*
X2782574Y293401D01*
X2789655Y288248D01*
X2797271Y283923D01*
X2805325Y280481D01*
X2813714Y277967D01*
X2822333Y276411D01*
X2830032Y275850D01*
X3364032Y2479850D02*
X3368376Y2478931D01*
X3372412Y2477079D01*
X3375941Y2474384D01*
X3378790Y2470978D01*
X3380821Y2467029D01*
X3381933Y2462731D01*
X3382072Y2458293D01*
X3381232Y2453932D01*
X3379452Y2449864D01*
X3376822Y2446287D01*
X3373469Y2443376D01*
X3369557Y2441275D01*
X3365279Y2440085D01*
X3363032Y2439850D01*
X4879032Y2479850D02*
X4874616Y2479447D01*
X4870398Y2478081D01*
X4866584Y2475819D01*
X4863362Y2472773D01*
X4860891Y2469091D01*
X4859291Y2464956D01*
X4858641Y2460569D01*
X4858974Y2456148D01*
X4860273Y2451908D01*
X4862474Y2448058D01*
X4865468Y2444788D01*
X4869110Y2442258D01*
X4873219Y2440593D01*
X4877595Y2439873D01*
X4879032Y2439850D01*
G54D37*
X4031032Y1021850D03*
Y1266850D03*
X4519032Y3269850D03*
X4692032D03*
G54D38*
X4481032Y294850D03*
X3181032Y2344850D03*
X5081032Y2294850D03*
G36*
X3501032Y2439850D02*
G02X3501032Y2479850I79J20000D01*
G01X4250032D01*
G02X4249032Y2439850I-1386J-19978D01*
G01X3501032D01*
G37*
G36*
X4431007Y2479850D02*
X4720032D01*
G02X4719032Y2439850I-988J-19988D01*
G01X4431032D01*
G02X4431007Y2479850I-25J20000D01*
G37*
G54D36*
X4431032Y2439850D02*
G01X4719032D01*
X4431032Y2479850D02*
X4720032D01*
X3501032Y2439850D02*
X4249032D01*
X3501032Y2479850D02*
X4250032D01*
X3501032D02*
X3496628Y2479342D01*
X3492444Y2477875D01*
X3488686Y2475522D01*
X3485538Y2472400D01*
X3483156Y2468660D01*
X3481656Y2464488D01*
X3481113Y2460087D01*
X3481552Y2455675D01*
X3482952Y2451469D01*
X3485245Y2447674D01*
X3488318Y2444477D01*
X3492019Y2442036D01*
X3496167Y2440471D01*
X3500558Y2439858D01*
X3501032Y2439850D01*
X4250032Y2479850D02*
X4254397Y2479055D01*
X4258480Y2477318D01*
X4262079Y2474725D01*
X4265020Y2471403D01*
X4267157Y2467514D01*
X4268385Y2463251D01*
X4268645Y2458822D01*
X4267923Y2454445D01*
X4266254Y2450334D01*
X4263722Y2446691D01*
X4260450Y2443695D01*
X4256598Y2441493D01*
X4252356Y2440193D01*
X4249032Y2439850D01*
X4431032Y2479850D02*
X4426625Y2479364D01*
X4422434Y2477919D01*
X4418663Y2475587D01*
X4415500Y2472480D01*
X4413098Y2468753D01*
X4411577Y2464589D01*
X4411010Y2460191D01*
X4411426Y2455777D01*
X4412805Y2451563D01*
X4415078Y2447756D01*
X4418134Y2444544D01*
X4421823Y2442084D01*
X4425963Y2440497D01*
X4430351Y2439861D01*
X4431032Y2439850D01*
X4720032Y2479850D02*
X4724410Y2479142D01*
X4728525Y2477487D01*
X4732174Y2474966D01*
X4735178Y2471703D01*
X4737390Y2467859D01*
X4738700Y2463622D01*
X4739046Y2459200D01*
X4738408Y2454811D01*
X4736820Y2450670D01*
X4734359Y2446980D01*
X4731145Y2443924D01*
X4727338Y2441650D01*
X4723122Y2440270D01*
X4719032Y2439850D01*
G54D10*
X7914061Y3245975D02*
Y3261725D01*
Y3126975D02*
Y3142725D01*
X7855061Y3126975D02*
Y3142725D01*
Y3245975D02*
Y3261725D01*
G54D11*
X7257076Y1931850D02*
X7259046D01*
X7257076Y1894850D02*
X7259046D01*
X7360076Y1931850D02*
X7362046D01*
X7360076Y1856850D02*
X7362046D01*
X7360076Y1894850D02*
X7362046D01*
X7257076Y1856850D02*
X7259046D01*
G54D12*
X7310061Y1879100D02*
Y1910600D01*
G54D13*
X6273061Y1894260D02*
Y1945440D01*
X6396061Y1894260D02*
Y1945440D01*
G54D14*
X7550061Y3326325D02*
Y3385375D01*
X7168061Y3326325D02*
Y3385375D01*
X7550061Y3129325D02*
Y3188375D01*
X7168061Y3129325D02*
Y3188375D01*
G54D15*
X7261631Y3400850D02*
X7458491D01*
G54D16*
X7207061Y944850D03*
X7262061D03*
X7232061Y1744850D03*
X7287061D03*
X7207061Y994850D03*
X7262061D03*
X6382061Y1569850D03*
X6437061D03*
X7262061Y2744850D03*
X7207061D03*
X6262061Y2694850D03*
X6207061D03*
X6262061Y2744850D03*
X6207061D03*
X7262061Y2794850D03*
X7207061D03*
X6207061Y2844850D03*
X6262061D03*
X6037061Y2794850D03*
X5982061D03*
X6037061Y2869850D03*
X5982061D03*
X6037061Y2944850D03*
X5982061D03*
X6037061Y3019850D03*
X5982061D03*
X6262061Y2919850D03*
X6207061D03*
X6037061Y3169850D03*
X5982061D03*
X6912061Y2319850D03*
X6857061D03*
X6912061Y2169850D03*
X6857061D03*
X7357061Y1744850D03*
X7412061D03*
X6375061Y1693850D03*
X6430061D03*
X6922061Y774850D03*
X6867061D03*
X7238061Y1394850D03*
X7183061D03*
X6912061Y2394850D03*
X6857061D03*
X6732061Y444850D03*
X6787061D03*
X6687061D03*
X6632061D03*
X6487061Y404850D03*
X6432061D03*
X6857061Y2244850D03*
X6912061D03*
X6487061Y719850D03*
X6432061D03*
X7562061Y2944850D03*
X7507061D03*
X7562061Y2994850D03*
X7507061D03*
X7012061Y2594850D03*
X6957061D03*
X6262061Y2794850D03*
X6207061D03*
G54D17*
X7572061Y2840850D02*
Y2854850D01*
X7497061Y2840850D02*
Y2854850D01*
X7535061Y2840850D02*
Y2854850D01*
X7497061Y2733850D02*
Y2747850D01*
X7572061Y2733850D02*
Y2747850D01*
G54D18*
X6189251Y481850D02*
X6212871D01*
X6189251Y606850D02*
X6212871D01*
X6406251D02*
X6429871D01*
X6406251Y481850D02*
X6429871D01*
G54D19*
X7022061Y2206850D02*
X7042061D01*
X7022061Y2381850D02*
X7042061D01*
X7377061D02*
X7397061D01*
X7377061Y2206850D02*
X7397061D01*
X6727061Y2381850D02*
X6747061D01*
X6727061Y2206850D02*
X6747061D01*
X6372061D02*
X6392061D01*
X6372061Y2381850D02*
X6392061D01*
G54D20*
X6635061Y1565850D02*
X6645061D01*
X6635061Y1675850D02*
X6645061D01*
X6905061Y2044850D02*
X6915061D01*
X6905061Y1934850D02*
X6915061D01*
G54D21*
X7985061Y2535355D02*
Y2598345D01*
X7835061Y2740355D02*
Y2803345D01*
X7935061Y2535355D02*
Y2598345D01*
X7885061Y2535355D02*
Y2598345D01*
X7935061Y2740355D02*
Y2803345D01*
X7885061Y2740355D02*
Y2803345D01*
X7835061Y2535355D02*
Y2598345D01*
X7985061Y2740355D02*
Y2803345D01*
G54D19*
X6515061Y1994850D02*
X6555061D01*
X6515061Y1901850D02*
X6555061D01*
X6515061Y2087850D02*
X6555061D01*
G54D22*
X6785061Y1979850D02*
Y2009850D01*
G54D11*
X7487111Y3044850D02*
X7493011D01*
X7577111D02*
X7583011D01*
X5962111Y3094850D02*
X5968011D01*
X6052111D02*
X6058011D01*
G54D16*
X7710061Y2996850D03*
Y2941850D03*
X7485061Y1866850D03*
Y1921850D03*
X7660061Y2941850D03*
Y2996850D03*
X7760061Y2941850D03*
Y2996850D03*
X6860061Y3141850D03*
Y3196850D03*
X7235061Y2941850D03*
Y2996850D03*
X7360061Y2941850D03*
Y2996850D03*
X7410061Y2941850D03*
Y2996850D03*
X7310061Y2941850D03*
Y2996850D03*
X7810061Y2941850D03*
Y2996850D03*
X7860061D03*
Y2941850D03*
X7910061Y2996850D03*
Y2941850D03*
X6610061Y3141850D03*
Y3196850D03*
X6560061Y716850D03*
Y771850D03*
X6710061Y716850D03*
Y771850D03*
X7735061Y2674850D03*
Y2619850D03*
X6360061Y1046850D03*
Y991850D03*
X6760061Y716850D03*
Y771850D03*
X6660061D03*
Y716850D03*
X6610061Y771850D03*
Y716850D03*
X6660061Y3141850D03*
Y3196850D03*
X6910061D03*
Y3141850D03*
X6960061D03*
Y3196850D03*
X7185061Y1866850D03*
Y1921850D03*
X7435061Y1866850D03*
Y1921850D03*
X7135061Y1866850D03*
Y1921850D03*
X6560061Y1596850D03*
Y1541850D03*
X6435061Y1046850D03*
Y991850D03*
X7510061Y2671850D03*
Y2616850D03*
X7435061Y2741850D03*
Y2796850D03*
X7585061Y2671850D03*
Y2616850D03*
X6635061Y2766850D03*
Y2821850D03*
X6785061Y3141850D03*
Y3196850D03*
X7160061Y2941850D03*
Y2996850D03*
X7360061Y2741850D03*
Y2796850D03*
X6385061Y2816850D03*
Y2871850D03*
Y2771850D03*
Y2716850D03*
X5735061Y2696850D03*
Y2641850D03*
G54D23*
X7659076Y2856850D02*
X7661046D01*
X7758076Y2819850D02*
X7760046D01*
X7659076Y2781850D02*
X7661046D01*
G54D24*
X6255061Y2065125D02*
Y2074575D01*
X6415061Y2065125D02*
Y2074575D01*
G54D11*
X7660061Y2596900D02*
Y2602800D01*
Y2686900D02*
Y2692800D01*
G54D20*
X7185061Y1314850D02*
Y1324850D01*
X7295061Y1314850D02*
Y1324850D01*
X7185061Y1214850D02*
Y1224850D01*
X7295061Y1214850D02*
Y1224850D01*
G36*
X7041961Y1326550D02*
X6966761Y1401750D01*
X7000161Y1435150D01*
X7075361Y1359950D01*
X7041961Y1326550D01*
G37*
G36*
X6568961Y853550D02*
X6493761Y928750D01*
X6527161Y962150D01*
X6602361Y886950D01*
X6568961Y853550D01*
G37*
G36*
X6966761Y886950D02*
X7041961Y962150D01*
X7075361Y928750D01*
X7000161Y853550D01*
X6966761Y886950D01*
G37*
G36*
X6493761Y1359950D02*
X6568961Y1435150D01*
X6602361Y1401750D01*
X6527161Y1326550D01*
X6493761Y1359950D01*
G37*
G54D25*
X5827561Y2894850D02*
X5842561D01*
X5927561Y1194850D02*
X5942561D01*
X5927561Y1294850D02*
X5942561D01*
X5727561Y1194850D02*
X5742561D01*
X5727561Y1294850D02*
X5742561D01*
X5627561D02*
X5642561D01*
X8127561D02*
X8142561D01*
G54D26*
X7210061Y2069850D03*
X7310061D03*
X5635061Y3294850D03*
Y3194850D03*
Y2694850D03*
Y2594850D03*
X8135061Y3194850D03*
Y3294850D03*
X5985061Y2669850D03*
Y2569850D03*
X6910061Y3344850D03*
X6810061D03*
X6910061Y1819850D03*
X6810061D03*
G54D27*
X7410061Y2069850D03*
G54D28*
X6810061Y569850D03*
X6610061D03*
X6510061Y2893850D03*
Y2693850D03*
G54D26*
X7210061Y2069850D03*
G54D29*
X5627561Y394850D02*
X5642561D01*
X5727561D02*
X5742561D01*
X5727561Y494850D02*
X5742561D01*
X5627561D02*
X5642561D01*
X5927561D02*
X5942561D01*
X5927561Y394850D02*
X5942561D01*
G54D30*
X7827561D02*
X7842561D01*
G54D29*
X7827561Y494850D02*
X7842561D01*
X8027561D02*
X8042561D01*
X8027561Y394850D02*
X8042561D01*
X8127561D02*
X8142561D01*
X8127561Y494850D02*
X8142561D01*
X8127561Y594850D02*
X8142561D01*
X8027561D02*
X8042561D01*
X8027561Y694850D02*
X8042561D01*
X8027561Y794850D02*
X8042561D01*
X8027561Y894850D02*
X8042561D01*
X8027561Y994850D02*
X8042561D01*
X8027561Y1094850D02*
X8042561D01*
X8027561Y1194850D02*
X8042561D01*
X8027561Y1294850D02*
X8042561D01*
X8027561Y1394850D02*
X8042561D01*
X8027561Y1494850D02*
X8042561D01*
X8027561Y1594850D02*
X8042561D01*
X8027561Y1694850D02*
X8042561D01*
X8027561Y1794850D02*
X8042561D01*
X8027561Y1894850D02*
X8042561D01*
X8027561Y1994850D02*
X8042561D01*
X8027561Y2094850D02*
X8042561D01*
X8127561D02*
X8142561D01*
X8127561Y1994850D02*
X8142561D01*
X8127561Y1894850D02*
X8142561D01*
X8127561Y1794850D02*
X8142561D01*
X8127561Y1694850D02*
X8142561D01*
X8127561Y1594850D02*
X8142561D01*
X8127561Y1494850D02*
X8142561D01*
X8127561Y1394850D02*
X8142561D01*
X8127561Y1194850D02*
X8142561D01*
X8127561Y1094850D02*
X8142561D01*
X8127561Y994850D02*
X8142561D01*
X8127561Y894850D02*
X8142561D01*
X8127561Y794850D02*
X8142561D01*
X8127561Y694850D02*
X8142561D01*
X7827561D02*
X7842561D01*
X7827561Y794850D02*
X7842561D01*
X7827561Y894850D02*
X7842561D01*
X7827561Y994850D02*
X7842561D01*
X7827561Y1094850D02*
X7842561D01*
G54D30*
X7827561Y1254850D02*
X7842561D01*
G54D29*
X7827561Y1354850D02*
X7842561D01*
X7827561Y1454850D02*
X7842561D01*
X7827561Y1554850D02*
X7842561D01*
X7827561Y1654850D02*
X7842561D01*
X7827561Y1754850D02*
X7842561D01*
X7827561Y1854850D02*
X7842561D01*
X7827561Y1954850D02*
X7842561D01*
X7827561Y2054850D02*
X7842561D01*
X7827561Y594850D02*
X7842561D01*
G54D30*
X5927561Y1794850D02*
X5942561D01*
G54D29*
X5927561Y1694850D02*
X5942561D01*
X5927561Y1594850D02*
X5942561D01*
X5927561Y1494850D02*
X5942561D01*
X5927561Y1394850D02*
X5942561D01*
X5927561Y1094850D02*
X5942561D01*
G54D30*
X5927561Y894850D02*
X5942561D01*
G54D29*
X5927561Y794850D02*
X5942561D01*
X5927561Y694850D02*
X5942561D01*
X5927561Y594850D02*
X5942561D01*
X5727561D02*
X5742561D01*
X5727561Y694850D02*
X5742561D01*
X5727561Y794850D02*
X5742561D01*
X5727561Y894850D02*
X5742561D01*
X5727561Y994850D02*
X5742561D01*
X5727561Y1094850D02*
X5742561D01*
X5727561Y1394850D02*
X5742561D01*
X5727561Y1494850D02*
X5742561D01*
X5727561Y1594850D02*
X5742561D01*
X5727561Y1694850D02*
X5742561D01*
X5727561Y1794850D02*
X5742561D01*
X5727561Y1894850D02*
X5742561D01*
X5727561Y1994850D02*
X5742561D01*
X5727561Y2094850D02*
X5742561D01*
X5627561D02*
X5642561D01*
X5627561Y1994850D02*
X5642561D01*
X5627561Y1894850D02*
X5642561D01*
X5627561Y1794850D02*
X5642561D01*
X5627561Y1694850D02*
X5642561D01*
X5627561Y1594850D02*
X5642561D01*
X5627561Y1494850D02*
X5642561D01*
X5627561Y1394850D02*
X5642561D01*
X5627561Y1194850D02*
X5642561D01*
X5627561Y1094850D02*
X5642561D01*
X5627561Y994850D02*
X5642561D01*
X5627561Y894850D02*
X5642561D01*
X5627561Y794850D02*
X5642561D01*
X5627561Y694850D02*
X5642561D01*
X5627561Y594850D02*
X5642561D01*
G54D30*
X5627561Y2194850D02*
X5642561D01*
G54D29*
X5727561D02*
X5742561D01*
X5827561Y2594850D02*
X5842561D01*
X5827561Y2694850D02*
X5842561D01*
X5827561Y2794850D02*
X5842561D01*
X5827561Y2994850D02*
X5842561D01*
G54D30*
X5827561Y3094850D02*
X5842561D01*
G54D29*
X6377561Y3044850D02*
X6392561D01*
X6377561Y3144850D02*
X6392561D01*
X6377561Y3244850D02*
X6392561D01*
G54D30*
X6377561Y3344850D02*
X6392561D01*
G54D29*
X8127561Y2194850D02*
X8142561D01*
G54D30*
X8027561D02*
X8042561D01*
G54D29*
X7827561Y2154850D02*
X7842561D01*
G36*
X7109061Y1907850D02*
X7085061Y1883850D01*
X7061061Y1907850D01*
Y1917850D01*
X7109061D01*
Y1907850D01*
G37*
G36*
Y1867850D02*
X7061061D01*
Y1905850D01*
X7085061Y1881850D01*
X7109061Y1905850D01*
Y1867850D01*
G37*
G36*
X8084061Y2682850D02*
X8060061Y2658850D01*
X8036061Y2682850D01*
Y2692850D01*
X8084061D01*
Y2682850D01*
G37*
G36*
Y2642850D02*
X8036061D01*
Y2680850D01*
X8060061Y2656850D01*
X8084061Y2680850D01*
Y2642850D01*
G37*
G54D31*
X7081061Y1860850D02*
X7089061D01*
X7081061Y1927850D02*
X7089061D01*
X8056061Y2635850D02*
X8064061D01*
X8056061Y2702850D02*
X8064061D01*
G54D32*
X7081061Y1860850D02*
X7089061D01*
X7081061Y1927850D02*
X7089061D01*
X8056061Y2635850D02*
X8064061D01*
X8056061Y2702850D02*
X8064061D01*
G54D33*
X7296061Y3125575D02*
Y3196125D01*
X7328061Y3125575D02*
Y3196125D01*
X7359061Y3125575D02*
Y3196125D01*
X7391061Y3125575D02*
Y3196125D01*
X7422061Y3125575D02*
Y3196125D01*
G54D34*
X6894061Y2996100D02*
Y3027600D01*
X6914061Y2996100D02*
Y3027600D01*
X6973061Y2996100D02*
Y3027600D01*
X6953061Y2996100D02*
Y3027600D01*
X6934061Y2996100D02*
Y3027600D01*
X6894061Y2661100D02*
Y2692600D01*
X6796061Y2996100D02*
Y3027600D01*
X6914061Y2661100D02*
Y2692600D01*
X6973061Y2661100D02*
Y2692600D01*
X6796061Y2661100D02*
Y2692600D01*
X6855061Y2996100D02*
Y3027600D01*
X6993061Y2996100D02*
Y3027600D01*
X6816061Y2661100D02*
Y2692600D01*
X6855061Y2661100D02*
Y2692600D01*
X6835061Y2661100D02*
Y2692600D01*
X6776061Y2661100D02*
Y2692600D01*
X6875061Y2661100D02*
Y2692600D01*
X6776061Y2996100D02*
Y3027600D01*
X6816061Y2996100D02*
Y3027600D01*
X6934061Y2661100D02*
Y2692600D01*
X6875061Y2996100D02*
Y3027600D01*
X6835061Y2996100D02*
Y3027600D01*
X6953061Y2661100D02*
Y2692600D01*
X6993061Y2661100D02*
Y2692600D01*
X6701311Y2775850D02*
X6732811D01*
X6701311Y2814850D02*
X6732811D01*
X7036311Y2932850D02*
X7067811D01*
X6701311Y2893850D02*
X6732811D01*
X6701311Y2755850D02*
X6732811D01*
X7036311Y2834850D02*
X7067811D01*
X6701311Y2912850D02*
X6732811D01*
X6701311Y2932850D02*
X6732811D01*
X7036311Y2814850D02*
X7067811D01*
X6701311Y2873850D02*
X6732811D01*
X6701311Y2853850D02*
X6732811D01*
X7036311Y2912850D02*
X7067811D01*
X6701311Y2834850D02*
X6732811D01*
X7036311Y2755850D02*
X7067811D01*
X7036311Y2775850D02*
X7067811D01*
X7036311Y2735850D02*
X7067811D01*
X6701311D02*
X6732811D01*
X7036311Y2873850D02*
X7067811D01*
X7036311Y2893850D02*
X7067811D01*
X7036311Y2794850D02*
X7067811D01*
X7036311Y2853850D02*
X7067811D01*
X6701311Y2952850D02*
X6732811D01*
X6701311Y2794850D02*
X6732811D01*
X7036311Y2952850D02*
X7067811D01*
G54D35*
X6522926Y1291850D02*
X6581196D01*
X6522926Y1075850D02*
X6581196D01*
X6987926Y1252850D02*
X7046196D01*
X6987926Y1232850D02*
X7046196D01*
X6522926Y1272850D02*
X6581196D01*
X6522926Y996850D02*
X6581196D01*
X6522926Y1016850D02*
X6581196D01*
X6522926Y1035850D02*
X6581196D01*
X6522926Y1055850D02*
X6581196D01*
X6522926Y1094850D02*
X6581196D01*
X6522926Y1114850D02*
X6581196D01*
X6522926Y1134850D02*
X6581196D01*
X6522926Y1153850D02*
X6581196D01*
X6522926Y1173850D02*
X6581196D01*
X6522926Y1193850D02*
X6581196D01*
X6522926Y1213850D02*
X6581196D01*
X6522926Y1232850D02*
X6581196D01*
X6522926Y1252850D02*
X6581196D01*
X6987926Y1291850D02*
X7046196D01*
X6987926Y1271850D02*
X7046196D01*
X6987926Y1212850D02*
X7046196D01*
X6987926Y1193850D02*
X7046196D01*
X6987926Y1173850D02*
X7046196D01*
X6987926Y1153850D02*
X7046196D01*
X6987926Y1134850D02*
X7046196D01*
X6987926Y1114850D02*
X7046196D01*
X6987926Y1094850D02*
X7046196D01*
X6987926Y1074850D02*
X7046196D01*
X6987926Y1055850D02*
X7046196D01*
X6987926Y1035850D02*
X7046196D01*
X6987926Y1015850D02*
X7046196D01*
X6987926Y996850D02*
X7046196D01*
X6637061Y882715D02*
Y940985D01*
X6657061Y882715D02*
Y940985D01*
X6775061Y882715D02*
Y940985D01*
X6834061Y882715D02*
Y940985D01*
X6794061Y882715D02*
Y940985D01*
X6637061Y1347715D02*
Y1405985D01*
X6657061Y1347715D02*
Y1405985D01*
X6676061Y1347715D02*
Y1405985D01*
X6696061Y1347715D02*
Y1405985D01*
X6716061Y1347715D02*
Y1405985D01*
X6735061Y1347715D02*
Y1405985D01*
X6755061Y1347715D02*
Y1405985D01*
X6775061Y1347715D02*
Y1405985D01*
X6794061Y1347715D02*
Y1405985D01*
X6814061Y1347715D02*
Y1405985D01*
X6834061Y1347715D02*
Y1405985D01*
X6854061Y1347715D02*
Y1405985D01*
X6873061Y1347715D02*
Y1405985D01*
X6893061Y1347715D02*
Y1405985D01*
X6913061Y1347715D02*
Y1405985D01*
X6932061Y1347715D02*
Y1405985D01*
Y882715D02*
Y940985D01*
X6913061Y882715D02*
Y940985D01*
X6893061Y882715D02*
Y940985D01*
X6873061Y882715D02*
Y940985D01*
X6854061Y882715D02*
Y940985D01*
X6814061Y882715D02*
Y940985D01*
X6755061Y882715D02*
Y940985D01*
X6735061Y882715D02*
Y940985D01*
X6716061Y882715D02*
Y940985D01*
X6696061Y882715D02*
Y940985D01*
X6676061Y882715D02*
Y940985D01*
G54D36*
X7337061Y196850D02*
X7416061Y275850D01*
X7337061Y196850D03*
X6038061D02*
X7337061D01*
X5959061Y275850D02*
X6038061Y196850D01*
X7416061Y275850D02*
X8184061D01*
X5586061Y3443850D02*
X8184061D01*
X5584061Y275850D02*
X5959061Y275850D01*
X5508061Y2479850D02*
X6118061D01*
X5508061Y2439850D02*
X6117061D01*
X7633061D02*
X8262061D01*
X7633061Y2479850D02*
X8262061D01*
X5508061Y354850D02*
Y2439850D01*
Y2479850D02*
Y3364850D01*
X8262061Y354850D02*
Y2439850D01*
Y2479850D02*
Y3364850D01*
X5508061D02*
X5508470Y3373625D01*
X5509861Y3382298D01*
X5512214Y3390760D01*
X5515501Y3398906D01*
X5519680Y3406632D01*
X5524699Y3413841D01*
X5530494Y3420442D01*
X5536992Y3426352D01*
X5544112Y3431496D01*
X5551763Y3435811D01*
X5559849Y3439240D01*
X5568269Y3441742D01*
X5576916Y3443285D01*
X5585682Y3443848D01*
X5586061Y3443850D01*
X8262061Y3364850D02*
X8261745Y3373582D01*
X8260447Y3382223D01*
X8258184Y3390662D01*
X8254985Y3398793D01*
X8250890Y3406511D01*
X8245951Y3413719D01*
X8240232Y3420325D01*
X8233805Y3426244D01*
X8226753Y3431402D01*
X8219164Y3435732D01*
X8211135Y3439180D01*
X8202769Y3441701D01*
X8194173Y3443264D01*
X8185455Y3443848D01*
X8184061Y3443850D01*
Y275850D02*
X8192768Y276232D01*
X8201376Y277595D01*
X8209775Y279922D01*
X8217858Y283182D01*
X8225520Y287334D01*
X8232665Y292325D01*
X8239200Y298091D01*
X8245043Y304558D01*
X8250117Y311644D01*
X8254359Y319257D01*
X8257713Y327301D01*
X8260138Y335672D01*
X8261602Y344264D01*
X8262086Y352966D01*
X8262061Y354850D01*
X5508061D02*
X5508417Y346100D01*
X5509754Y337444D01*
X5512055Y328994D01*
X5515291Y320856D01*
X5519422Y313133D01*
X5524394Y305923D01*
X5530146Y299318D01*
X5536603Y293401D01*
X5543684Y288248D01*
X5551300Y283923D01*
X5559353Y280481D01*
X5567742Y277967D01*
X5576361Y276411D01*
X5584061Y275850D01*
X6118061Y2479850D02*
X6122405Y2478931D01*
X6126440Y2477079D01*
X6129969Y2474384D01*
X6132819Y2470978D01*
X6134850Y2467029D01*
X6135962Y2462731D01*
X6136101Y2458293D01*
X6135260Y2453932D01*
X6133481Y2449864D01*
X6130850Y2446287D01*
X6127497Y2443376D01*
X6123586Y2441275D01*
X6119308Y2440085D01*
X6117061Y2439850D01*
X7633061Y2479850D02*
X7628645Y2479447D01*
X7624427Y2478081D01*
X7620613Y2475819D01*
X7617391Y2472773D01*
X7614919Y2469091D01*
X7613319Y2464956D01*
X7612670Y2460569D01*
X7613003Y2456148D01*
X7614301Y2451908D01*
X7616502Y2448058D01*
X7619497Y2444788D01*
X7623139Y2442258D01*
X7627248Y2440593D01*
X7631624Y2439873D01*
X7633061Y2439850D01*
G54D37*
X6785061Y1021850D03*
Y1266850D03*
X7273061Y3269850D03*
X7446061D03*
G54D38*
X7235061Y294850D03*
X5935061Y2344850D03*
X7835061Y2294850D03*
G36*
X6255061Y2439850D02*
G02X6255061Y2479850I79J20000D01*
G01X7004061D01*
G02X7003061Y2439850I-1386J-19978D01*
G01X6255061D01*
G37*
G36*
X7185036Y2479850D02*
X7474061D01*
G02X7473061Y2439850I-988J-19988D01*
G01X7185061D01*
G02X7185036Y2479850I-25J20000D01*
G37*
G54D36*
X7185061Y2439850D02*
G01X7473061D01*
X7185061Y2479850D02*
X7474061D01*
X6255061Y2439850D02*
X7003061D01*
X6255061Y2479850D02*
X7004061D01*
X6255061D02*
X6250656Y2479342D01*
X6246472Y2477875D01*
X6242714Y2475522D01*
X6239567Y2472400D01*
X6237184Y2468660D01*
X6235685Y2464488D01*
X6235141Y2460087D01*
X6235580Y2455675D01*
X6236981Y2451469D01*
X6239274Y2447674D01*
X6242346Y2444477D01*
X6246048Y2442036D01*
X6250196Y2440471D01*
X6254587Y2439858D01*
X6255061Y2439850D01*
X7004061Y2479850D02*
X7008426Y2479055D01*
X7012508Y2477318D01*
X7016108Y2474725D01*
X7019049Y2471403D01*
X7021185Y2467514D01*
X7022414Y2463251D01*
X7022673Y2458822D01*
X7021951Y2454445D01*
X7020283Y2450334D01*
X7017751Y2446691D01*
X7014478Y2443695D01*
X7010627Y2441493D01*
X7006385Y2440193D01*
X7003061Y2439850D01*
X7185061Y2479850D02*
X7180654Y2479364D01*
X7176462Y2477919D01*
X7172692Y2475587D01*
X7169528Y2472480D01*
X7167127Y2468753D01*
X7165605Y2464589D01*
X7165039Y2460191D01*
X7165455Y2455777D01*
X7166834Y2451563D01*
X7169107Y2447756D01*
X7172163Y2444544D01*
X7175852Y2442084D01*
X7179992Y2440497D01*
X7184380Y2439861D01*
X7185061Y2439850D01*
X7474061Y2479850D02*
X7478439Y2479142D01*
X7482554Y2477487D01*
X7486203Y2474966D01*
X7489207Y2471703D01*
X7491418Y2467859D01*
X7492729Y2463622D01*
X7493074Y2459200D01*
X7492437Y2454811D01*
X7490849Y2450670D01*
X7488388Y2446980D01*
X7485174Y2443924D01*
X7481366Y2441650D01*
X7477151Y2440270D01*
X7473061Y2439850D01*
G54D10*
X10668090Y3245975D02*
Y3261725D01*
Y3126975D02*
Y3142725D01*
X10609090Y3126975D02*
Y3142725D01*
Y3245975D02*
Y3261725D01*
G54D11*
X10011105Y1931850D02*
X10013075D01*
X10011105Y1894850D02*
X10013075D01*
X10114105Y1931850D02*
X10116075D01*
X10114105Y1856850D02*
X10116075D01*
X10114105Y1894850D02*
X10116075D01*
X10011105Y1856850D02*
X10013075D01*
G54D12*
X10064090Y1879100D02*
Y1910600D01*
G54D13*
X9027090Y1894260D02*
Y1945440D01*
X9150090Y1894260D02*
Y1945440D01*
G54D14*
X10304090Y3326325D02*
Y3385375D01*
X9922090Y3326325D02*
Y3385375D01*
X10304090Y3129325D02*
Y3188375D01*
X9922090Y3129325D02*
Y3188375D01*
G54D15*
X10015660Y3400850D02*
X10212520D01*
G54D16*
X9961090Y944850D03*
X10016090D03*
X9986090Y1744850D03*
X10041090D03*
X9961090Y994850D03*
X10016090D03*
X9136090Y1569850D03*
X9191090D03*
X10016090Y2744850D03*
X9961090D03*
X9016090Y2694850D03*
X8961090D03*
X9016090Y2744850D03*
X8961090D03*
X10016090Y2794850D03*
X9961090D03*
X8961090Y2844850D03*
X9016090D03*
X8791090Y2794850D03*
X8736090D03*
X8791090Y2869850D03*
X8736090D03*
X8791090Y2944850D03*
X8736090D03*
X8791090Y3019850D03*
X8736090D03*
X9016090Y2919850D03*
X8961090D03*
X8791090Y3169850D03*
X8736090D03*
X9666090Y2319850D03*
X9611090D03*
X9666090Y2169850D03*
X9611090D03*
X10111090Y1744850D03*
X10166090D03*
X9129090Y1693850D03*
X9184090D03*
X9676090Y774850D03*
X9621090D03*
X9992090Y1394850D03*
X9937090D03*
X9666090Y2394850D03*
X9611090D03*
X9486090Y444850D03*
X9541090D03*
X9441090D03*
X9386090D03*
X9241090Y404850D03*
X9186090D03*
X9611090Y2244850D03*
X9666090D03*
X9241090Y719850D03*
X9186090D03*
X10316090Y2944850D03*
X10261090D03*
X10316090Y2994850D03*
X10261090D03*
X9766090Y2594850D03*
X9711090D03*
X9016090Y2794850D03*
X8961090D03*
G54D17*
X10326090Y2840850D02*
Y2854850D01*
X10251090Y2840850D02*
Y2854850D01*
X10289090Y2840850D02*
Y2854850D01*
X10251090Y2733850D02*
Y2747850D01*
X10326090Y2733850D02*
Y2747850D01*
G54D18*
X8943280Y481850D02*
X8966900D01*
X8943280Y606850D02*
X8966900D01*
X9160280D02*
X9183900D01*
X9160280Y481850D02*
X9183900D01*
G54D19*
X9776090Y2206850D02*
X9796090D01*
X9776090Y2381850D02*
X9796090D01*
X10131090D02*
X10151090D01*
X10131090Y2206850D02*
X10151090D01*
X9481090Y2381850D02*
X9501090D01*
X9481090Y2206850D02*
X9501090D01*
X9126090D02*
X9146090D01*
X9126090Y2381850D02*
X9146090D01*
G54D20*
X9389090Y1565850D02*
X9399090D01*
X9389090Y1675850D02*
X9399090D01*
X9659090Y2044850D02*
X9669090D01*
X9659090Y1934850D02*
X9669090D01*
G54D21*
X10739090Y2535355D02*
Y2598345D01*
X10589090Y2740355D02*
Y2803345D01*
X10689090Y2535355D02*
Y2598345D01*
X10639090Y2535355D02*
Y2598345D01*
X10689090Y2740355D02*
Y2803345D01*
X10639090Y2740355D02*
Y2803345D01*
X10589090Y2535355D02*
Y2598345D01*
X10739090Y2740355D02*
Y2803345D01*
G54D19*
X9269090Y1994850D02*
X9309090D01*
X9269090Y1901850D02*
X9309090D01*
X9269090Y2087850D02*
X9309090D01*
G54D22*
X9539090Y1979850D02*
Y2009850D01*
G54D11*
X10241140Y3044850D02*
X10247040D01*
X10331140D02*
X10337040D01*
X8716140Y3094850D02*
X8722040D01*
X8806140D02*
X8812040D01*
G54D16*
X10464090Y2996850D03*
Y2941850D03*
X10239090Y1866850D03*
Y1921850D03*
X10414090Y2941850D03*
Y2996850D03*
X10514090Y2941850D03*
Y2996850D03*
X9614090Y3141850D03*
Y3196850D03*
X9989090Y2941850D03*
Y2996850D03*
X10114090Y2941850D03*
Y2996850D03*
X10164090Y2941850D03*
Y2996850D03*
X10064090Y2941850D03*
Y2996850D03*
X10564090Y2941850D03*
Y2996850D03*
X10614090D03*
Y2941850D03*
X10664090Y2996850D03*
Y2941850D03*
X9364090Y3141850D03*
Y3196850D03*
X9314090Y716850D03*
Y771850D03*
X9464090Y716850D03*
Y771850D03*
X10489090Y2674850D03*
Y2619850D03*
X9114090Y1046850D03*
Y991850D03*
X9514090Y716850D03*
Y771850D03*
X9414090D03*
Y716850D03*
X9364090Y771850D03*
Y716850D03*
X9414090Y3141850D03*
Y3196850D03*
X9664090D03*
Y3141850D03*
X9714090D03*
Y3196850D03*
X9939090Y1866850D03*
Y1921850D03*
X10189090Y1866850D03*
Y1921850D03*
X9889090Y1866850D03*
Y1921850D03*
X9314090Y1596850D03*
Y1541850D03*
X9189090Y1046850D03*
Y991850D03*
X10264090Y2671850D03*
Y2616850D03*
X10189090Y2741850D03*
Y2796850D03*
X10339090Y2671850D03*
Y2616850D03*
X9389090Y2766850D03*
Y2821850D03*
X9539090Y3141850D03*
Y3196850D03*
X9914090Y2941850D03*
Y2996850D03*
X10114090Y2741850D03*
Y2796850D03*
X9139090Y2816850D03*
Y2871850D03*
Y2771850D03*
Y2716850D03*
X8489090Y2696850D03*
Y2641850D03*
G54D23*
X10413105Y2856850D02*
X10415075D01*
X10512105Y2819850D02*
X10514075D01*
X10413105Y2781850D02*
X10415075D01*
G54D24*
X9009090Y2065125D02*
Y2074575D01*
X9169090Y2065125D02*
Y2074575D01*
G54D11*
X10414090Y2596900D02*
Y2602800D01*
Y2686900D02*
Y2692800D01*
G54D20*
X9939090Y1314850D02*
Y1324850D01*
X10049090Y1314850D02*
Y1324850D01*
X9939090Y1214850D02*
Y1224850D01*
X10049090Y1214850D02*
Y1224850D01*
G36*
X9795990Y1326550D02*
X9720790Y1401750D01*
X9754190Y1435150D01*
X9829390Y1359950D01*
X9795990Y1326550D01*
G37*
G36*
X9322990Y853550D02*
X9247790Y928750D01*
X9281190Y962150D01*
X9356390Y886950D01*
X9322990Y853550D01*
G37*
G36*
X9720790Y886950D02*
X9795990Y962150D01*
X9829390Y928750D01*
X9754190Y853550D01*
X9720790Y886950D01*
G37*
G36*
X9247790Y1359950D02*
X9322990Y1435150D01*
X9356390Y1401750D01*
X9281190Y1326550D01*
X9247790Y1359950D01*
G37*
G54D25*
X8581590Y2894850D02*
X8596590D01*
X8681590Y1194850D02*
X8696590D01*
X8681590Y1294850D02*
X8696590D01*
X8481590Y1194850D02*
X8496590D01*
X8481590Y1294850D02*
X8496590D01*
X8381590D02*
X8396590D01*
X10881590D02*
X10896590D01*
G54D26*
X9964090Y2069850D03*
X10064090D03*
X8389090Y3294850D03*
Y3194850D03*
Y2694850D03*
Y2594850D03*
X10889090Y3194850D03*
Y3294850D03*
X8739090Y2669850D03*
Y2569850D03*
X9664090Y3344850D03*
X9564090D03*
X9664090Y1819850D03*
X9564090D03*
G54D27*
X10164090Y2069850D03*
G54D28*
X9564090Y569850D03*
X9364090D03*
X9264090Y2893850D03*
Y2693850D03*
G54D26*
X9964090Y2069850D03*
G54D29*
X8381590Y394850D02*
X8396590D01*
X8481590D02*
X8496590D01*
X8481590Y494850D02*
X8496590D01*
X8381590D02*
X8396590D01*
X8681590D02*
X8696590D01*
X8681590Y394850D02*
X8696590D01*
G54D30*
X10581590D02*
X10596590D01*
G54D29*
X10581590Y494850D02*
X10596590D01*
X10781590D02*
X10796590D01*
X10781590Y394850D02*
X10796590D01*
X10881590D02*
X10896590D01*
X10881590Y494850D02*
X10896590D01*
X10881590Y594850D02*
X10896590D01*
X10781590D02*
X10796590D01*
X10781590Y694850D02*
X10796590D01*
X10781590Y794850D02*
X10796590D01*
X10781590Y894850D02*
X10796590D01*
X10781590Y994850D02*
X10796590D01*
X10781590Y1094850D02*
X10796590D01*
X10781590Y1194850D02*
X10796590D01*
X10781590Y1294850D02*
X10796590D01*
X10781590Y1394850D02*
X10796590D01*
X10781590Y1494850D02*
X10796590D01*
X10781590Y1594850D02*
X10796590D01*
X10781590Y1694850D02*
X10796590D01*
X10781590Y1794850D02*
X10796590D01*
X10781590Y1894850D02*
X10796590D01*
X10781590Y1994850D02*
X10796590D01*
X10781590Y2094850D02*
X10796590D01*
X10881590D02*
X10896590D01*
X10881590Y1994850D02*
X10896590D01*
X10881590Y1894850D02*
X10896590D01*
X10881590Y1794850D02*
X10896590D01*
X10881590Y1694850D02*
X10896590D01*
X10881590Y1594850D02*
X10896590D01*
X10881590Y1494850D02*
X10896590D01*
X10881590Y1394850D02*
X10896590D01*
X10881590Y1194850D02*
X10896590D01*
X10881590Y1094850D02*
X10896590D01*
X10881590Y994850D02*
X10896590D01*
X10881590Y894850D02*
X10896590D01*
X10881590Y794850D02*
X10896590D01*
X10881590Y694850D02*
X10896590D01*
X10581590D02*
X10596590D01*
X10581590Y794850D02*
X10596590D01*
X10581590Y894850D02*
X10596590D01*
X10581590Y994850D02*
X10596590D01*
X10581590Y1094850D02*
X10596590D01*
G54D30*
X10581590Y1254850D02*
X10596590D01*
G54D29*
X10581590Y1354850D02*
X10596590D01*
X10581590Y1454850D02*
X10596590D01*
X10581590Y1554850D02*
X10596590D01*
X10581590Y1654850D02*
X10596590D01*
X10581590Y1754850D02*
X10596590D01*
X10581590Y1854850D02*
X10596590D01*
X10581590Y1954850D02*
X10596590D01*
X10581590Y2054850D02*
X10596590D01*
X10581590Y594850D02*
X10596590D01*
G54D30*
X8681590Y1794850D02*
X8696590D01*
G54D29*
X8681590Y1694850D02*
X8696590D01*
X8681590Y1594850D02*
X8696590D01*
X8681590Y1494850D02*
X8696590D01*
X8681590Y1394850D02*
X8696590D01*
X8681590Y1094850D02*
X8696590D01*
G54D30*
X8681590Y894850D02*
X8696590D01*
G54D29*
X8681590Y794850D02*
X8696590D01*
X8681590Y694850D02*
X8696590D01*
X8681590Y594850D02*
X8696590D01*
X8481590D02*
X8496590D01*
X8481590Y694850D02*
X8496590D01*
X8481590Y794850D02*
X8496590D01*
X8481590Y894850D02*
X8496590D01*
X8481590Y994850D02*
X8496590D01*
X8481590Y1094850D02*
X8496590D01*
X8481590Y1394850D02*
X8496590D01*
X8481590Y1494850D02*
X8496590D01*
X8481590Y1594850D02*
X8496590D01*
X8481590Y1694850D02*
X8496590D01*
X8481590Y1794850D02*
X8496590D01*
X8481590Y1894850D02*
X8496590D01*
X8481590Y1994850D02*
X8496590D01*
X8481590Y2094850D02*
X8496590D01*
X8381590D02*
X8396590D01*
X8381590Y1994850D02*
X8396590D01*
X8381590Y1894850D02*
X8396590D01*
X8381590Y1794850D02*
X8396590D01*
X8381590Y1694850D02*
X8396590D01*
X8381590Y1594850D02*
X8396590D01*
X8381590Y1494850D02*
X8396590D01*
X8381590Y1394850D02*
X8396590D01*
X8381590Y1194850D02*
X8396590D01*
X8381590Y1094850D02*
X8396590D01*
X8381590Y994850D02*
X8396590D01*
X8381590Y894850D02*
X8396590D01*
X8381590Y794850D02*
X8396590D01*
X8381590Y694850D02*
X8396590D01*
X8381590Y594850D02*
X8396590D01*
G54D30*
X8381590Y2194850D02*
X8396590D01*
G54D29*
X8481590D02*
X8496590D01*
X8581590Y2594850D02*
X8596590D01*
X8581590Y2694850D02*
X8596590D01*
X8581590Y2794850D02*
X8596590D01*
X8581590Y2994850D02*
X8596590D01*
G54D30*
X8581590Y3094850D02*
X8596590D01*
G54D29*
X9131590Y3044850D02*
X9146590D01*
X9131590Y3144850D02*
X9146590D01*
X9131590Y3244850D02*
X9146590D01*
G54D30*
X9131590Y3344850D02*
X9146590D01*
G54D29*
X10881590Y2194850D02*
X10896590D01*
G54D30*
X10781590D02*
X10796590D01*
G54D29*
X10581590Y2154850D02*
X10596590D01*
G36*
X9863090Y1907850D02*
X9839090Y1883850D01*
X9815090Y1907850D01*
Y1917850D01*
X9863090D01*
Y1907850D01*
G37*
G36*
Y1867850D02*
X9815090D01*
Y1905850D01*
X9839090Y1881850D01*
X9863090Y1905850D01*
Y1867850D01*
G37*
G36*
X10838090Y2682850D02*
X10814090Y2658850D01*
X10790090Y2682850D01*
Y2692850D01*
X10838090D01*
Y2682850D01*
G37*
G36*
Y2642850D02*
X10790090D01*
Y2680850D01*
X10814090Y2656850D01*
X10838090Y2680850D01*
Y2642850D01*
G37*
G54D31*
X9835090Y1860850D02*
X9843090D01*
X9835090Y1927850D02*
X9843090D01*
X10810090Y2635850D02*
X10818090D01*
X10810090Y2702850D02*
X10818090D01*
G54D32*
X9835090Y1860850D02*
X9843090D01*
X9835090Y1927850D02*
X9843090D01*
X10810090Y2635850D02*
X10818090D01*
X10810090Y2702850D02*
X10818090D01*
G54D33*
X10050090Y3125575D02*
Y3196125D01*
X10082090Y3125575D02*
Y3196125D01*
X10113090Y3125575D02*
Y3196125D01*
X10145090Y3125575D02*
Y3196125D01*
X10176090Y3125575D02*
Y3196125D01*
G54D34*
X9648090Y2996100D02*
Y3027600D01*
X9668090Y2996100D02*
Y3027600D01*
X9727090Y2996100D02*
Y3027600D01*
X9707090Y2996100D02*
Y3027600D01*
X9688090Y2996100D02*
Y3027600D01*
X9648090Y2661100D02*
Y2692600D01*
X9550090Y2996100D02*
Y3027600D01*
X9668090Y2661100D02*
Y2692600D01*
X9727090Y2661100D02*
Y2692600D01*
X9550090Y2661100D02*
Y2692600D01*
X9609090Y2996100D02*
Y3027600D01*
X9747090Y2996100D02*
Y3027600D01*
X9570090Y2661100D02*
Y2692600D01*
X9609090Y2661100D02*
Y2692600D01*
X9589090Y2661100D02*
Y2692600D01*
X9530090Y2661100D02*
Y2692600D01*
X9629090Y2661100D02*
Y2692600D01*
X9530090Y2996100D02*
Y3027600D01*
X9570090Y2996100D02*
Y3027600D01*
X9688090Y2661100D02*
Y2692600D01*
X9629090Y2996100D02*
Y3027600D01*
X9589090Y2996100D02*
Y3027600D01*
X9707090Y2661100D02*
Y2692600D01*
X9747090Y2661100D02*
Y2692600D01*
X9455340Y2775850D02*
X9486840D01*
X9455340Y2814850D02*
X9486840D01*
X9790340Y2932850D02*
X9821840D01*
X9455340Y2893850D02*
X9486840D01*
X9455340Y2755850D02*
X9486840D01*
X9790340Y2834850D02*
X9821840D01*
X9455340Y2912850D02*
X9486840D01*
X9455340Y2932850D02*
X9486840D01*
X9790340Y2814850D02*
X9821840D01*
X9455340Y2873850D02*
X9486840D01*
X9455340Y2853850D02*
X9486840D01*
X9790340Y2912850D02*
X9821840D01*
X9455340Y2834850D02*
X9486840D01*
X9790340Y2755850D02*
X9821840D01*
X9790340Y2775850D02*
X9821840D01*
X9790340Y2735850D02*
X9821840D01*
X9455340D02*
X9486840D01*
X9790340Y2873850D02*
X9821840D01*
X9790340Y2893850D02*
X9821840D01*
X9790340Y2794850D02*
X9821840D01*
X9790340Y2853850D02*
X9821840D01*
X9455340Y2952850D02*
X9486840D01*
X9455340Y2794850D02*
X9486840D01*
X9790340Y2952850D02*
X9821840D01*
G54D35*
X9276955Y1291850D02*
X9335225D01*
X9276955Y1075850D02*
X9335225D01*
X9741955Y1252850D02*
X9800225D01*
X9741955Y1232850D02*
X9800225D01*
X9276955Y1272850D02*
X9335225D01*
X9276955Y996850D02*
X9335225D01*
X9276955Y1016850D02*
X9335225D01*
X9276955Y1035850D02*
X9335225D01*
X9276955Y1055850D02*
X9335225D01*
X9276955Y1094850D02*
X9335225D01*
X9276955Y1114850D02*
X9335225D01*
X9276955Y1134850D02*
X9335225D01*
X9276955Y1153850D02*
X9335225D01*
X9276955Y1173850D02*
X9335225D01*
X9276955Y1193850D02*
X9335225D01*
X9276955Y1213850D02*
X9335225D01*
X9276955Y1232850D02*
X9335225D01*
X9276955Y1252850D02*
X9335225D01*
X9741955Y1291850D02*
X9800225D01*
X9741955Y1271850D02*
X9800225D01*
X9741955Y1212850D02*
X9800225D01*
X9741955Y1193850D02*
X9800225D01*
X9741955Y1173850D02*
X9800225D01*
X9741955Y1153850D02*
X9800225D01*
X9741955Y1134850D02*
X9800225D01*
X9741955Y1114850D02*
X9800225D01*
X9741955Y1094850D02*
X9800225D01*
X9741955Y1074850D02*
X9800225D01*
X9741955Y1055850D02*
X9800225D01*
X9741955Y1035850D02*
X9800225D01*
X9741955Y1015850D02*
X9800225D01*
X9741955Y996850D02*
X9800225D01*
X9391090Y882715D02*
Y940985D01*
X9411090Y882715D02*
Y940985D01*
X9529090Y882715D02*
Y940985D01*
X9588090Y882715D02*
Y940985D01*
X9548090Y882715D02*
Y940985D01*
X9391090Y1347715D02*
Y1405985D01*
X9411090Y1347715D02*
Y1405985D01*
X9430090Y1347715D02*
Y1405985D01*
X9450090Y1347715D02*
Y1405985D01*
X9470090Y1347715D02*
Y1405985D01*
X9489090Y1347715D02*
Y1405985D01*
X9509090Y1347715D02*
Y1405985D01*
X9529090Y1347715D02*
Y1405985D01*
X9548090Y1347715D02*
Y1405985D01*
X9568090Y1347715D02*
Y1405985D01*
X9588090Y1347715D02*
Y1405985D01*
X9608090Y1347715D02*
Y1405985D01*
X9627090Y1347715D02*
Y1405985D01*
X9647090Y1347715D02*
Y1405985D01*
X9667090Y1347715D02*
Y1405985D01*
X9686090Y1347715D02*
Y1405985D01*
Y882715D02*
Y940985D01*
X9667090Y882715D02*
Y940985D01*
X9647090Y882715D02*
Y940985D01*
X9627090Y882715D02*
Y940985D01*
X9608090Y882715D02*
Y940985D01*
X9568090Y882715D02*
Y940985D01*
X9509090Y882715D02*
Y940985D01*
X9489090Y882715D02*
Y940985D01*
X9470090Y882715D02*
Y940985D01*
X9450090Y882715D02*
Y940985D01*
X9430090Y882715D02*
Y940985D01*
G54D36*
X10091090Y196850D02*
X10170090Y275850D01*
X10091090Y196850D03*
X8792090D02*
X10091090D01*
X8713090Y275850D02*
X8792090Y196850D01*
X10170090Y275850D02*
X10938090D01*
X8340090Y3443850D02*
X10938090D01*
X8338090Y275850D02*
X8713090Y275850D01*
X8262090Y2479850D02*
X8872090D01*
X8262090Y2439850D02*
X8871090D01*
X10387090D02*
X11016090D01*
X10387090Y2479850D02*
X11016090D01*
X8262090Y354850D02*
Y2439850D01*
Y2479850D02*
Y3364850D01*
X11016090Y354850D02*
Y2439850D01*
Y2479850D02*
Y3364850D01*
X8262090D02*
X8262499Y3373625D01*
X8263889Y3382298D01*
X8266243Y3390760D01*
X8269530Y3398906D01*
X8273709Y3406632D01*
X8278728Y3413841D01*
X8284522Y3420442D01*
X8291021Y3426352D01*
X8298140Y3431496D01*
X8305791Y3435811D01*
X8313878Y3439240D01*
X8322298Y3441742D01*
X8330945Y3443285D01*
X8339711Y3443848D01*
X8340090Y3443850D01*
X11016090Y3364850D02*
X11015773Y3373582D01*
X11014476Y3382223D01*
X11012213Y3390662D01*
X11009013Y3398793D01*
X11004918Y3406511D01*
X10999980Y3413719D01*
X10994261Y3420325D01*
X10987834Y3426244D01*
X10980781Y3431402D01*
X10973192Y3435732D01*
X10965164Y3439180D01*
X10956798Y3441701D01*
X10948202Y3443264D01*
X10939484Y3443848D01*
X10938090Y3443850D01*
Y275850D02*
X10946797Y276232D01*
X10955405Y277595D01*
X10963804Y279922D01*
X10971886Y283182D01*
X10979549Y287334D01*
X10986694Y292325D01*
X10993229Y298091D01*
X10999071Y304558D01*
X11004146Y311644D01*
X11008387Y319257D01*
X11011742Y327301D01*
X11014167Y335672D01*
X11015631Y344264D01*
X11016115Y352966D01*
X11016090Y354850D01*
X8262090D02*
X8262445Y346100D01*
X8263782Y337444D01*
X8266083Y328994D01*
X8269320Y320856D01*
X8273450Y313133D01*
X8278423Y305923D01*
X8284174Y299318D01*
X8290631Y293401D01*
X8297713Y288248D01*
X8305328Y283923D01*
X8313382Y280481D01*
X8321771Y277967D01*
X8330390Y276411D01*
X8338090Y275850D01*
X8872090Y2479850D02*
X8876434Y2478931D01*
X8880469Y2477079D01*
X8883998Y2474384D01*
X8886848Y2470978D01*
X8888878Y2467029D01*
X8889991Y2462731D01*
X8890130Y2458293D01*
X8889289Y2453932D01*
X8887510Y2449864D01*
X8884879Y2446287D01*
X8881526Y2443376D01*
X8877614Y2441275D01*
X8873336Y2440085D01*
X8871090Y2439850D01*
X10387090Y2479850D02*
X10382674Y2479447D01*
X10378455Y2478081D01*
X10374641Y2475819D01*
X10371419Y2472773D01*
X10368948Y2469091D01*
X10367348Y2464956D01*
X10366699Y2460569D01*
X10367031Y2456148D01*
X10368330Y2451908D01*
X10370531Y2448058D01*
X10373526Y2444788D01*
X10377167Y2442258D01*
X10381277Y2440593D01*
X10385652Y2439873D01*
X10387090Y2439850D01*
G54D37*
X9539090Y1021850D03*
Y1266850D03*
X10027090Y3269850D03*
X10200090D03*
G54D38*
X9989090Y294850D03*
X8689090Y2344850D03*
X10589090Y2294850D03*
G36*
X9009090Y2439850D02*
G02X9009090Y2479850I79J20000D01*
G01X9758090D01*
G02X9757090Y2439850I-1386J-19978D01*
G01X9009090D01*
G37*
G36*
X9939065Y2479850D02*
X10228090D01*
G02X10227090Y2439850I-988J-19988D01*
G01X9939090D01*
G02X9939065Y2479850I-25J20000D01*
G37*
G54D36*
X9939090Y2439850D02*
G01X10227090D01*
X9939090Y2479850D02*
X10228090D01*
X9009090Y2439850D02*
X9757090D01*
X9009090Y2479850D02*
X9758090D01*
X9009090D02*
X9004685Y2479342D01*
X9000501Y2477875D01*
X8996743Y2475522D01*
X8993595Y2472400D01*
X8991213Y2468660D01*
X8989713Y2464488D01*
X8989170Y2460087D01*
X8989609Y2455675D01*
X8991009Y2451469D01*
X8993302Y2447674D01*
X8996375Y2444477D01*
X9000076Y2442036D01*
X9004225Y2440471D01*
X9008616Y2439858D01*
X9009090Y2439850D01*
X9758090Y2479850D02*
X9762454Y2479055D01*
X9766537Y2477318D01*
X9770137Y2474725D01*
X9773077Y2471403D01*
X9775214Y2467514D01*
X9776442Y2463251D01*
X9776702Y2458822D01*
X9775980Y2454445D01*
X9774312Y2450334D01*
X9771779Y2446691D01*
X9768507Y2443695D01*
X9764655Y2441493D01*
X9760413Y2440193D01*
X9757090Y2439850D01*
X9939090Y2479850D02*
X9934682Y2479364D01*
X9930491Y2477919D01*
X9926720Y2475587D01*
X9923557Y2472480D01*
X9921155Y2468753D01*
X9919634Y2464589D01*
X9919067Y2460191D01*
X9919484Y2455777D01*
X9920862Y2451563D01*
X9923136Y2447756D01*
X9926192Y2444544D01*
X9929880Y2442084D01*
X9934020Y2440497D01*
X9938408Y2439861D01*
X9939090Y2439850D01*
X10228090Y2479850D02*
X10232468Y2479142D01*
X10236582Y2477487D01*
X10240231Y2474966D01*
X10243235Y2471703D01*
X10245447Y2467859D01*
X10246758Y2463622D01*
X10247103Y2459200D01*
X10246466Y2454811D01*
X10244877Y2450670D01*
X10242416Y2446980D01*
X10239203Y2443924D01*
X10235395Y2441650D01*
X10231180Y2440270D01*
X10227090Y2439850D01*
G54D39*
X196850Y98425D03*
X10819252D03*
Y3542244D03*
X196850D03*
G54D40*
X393701Y98425D03*
X10622402Y3542244D03*
X393701D03*
G54D36*
X0Y19685D02*
Y157480D01*
X19685Y3640669D02*
X10996417D01*
X11016102Y157480D02*
Y19685D01*
X10996417Y0D02*
X19685D01*
X78004Y3443850D02*
Y3483220D01*
X0D01*
X530004Y196850D02*
Y157480D01*
X0D01*
X1829004Y196850D02*
Y157480D01*
X3284032Y196850D02*
Y157480D01*
X1829004D01*
X4583032Y196850D02*
Y157480D01*
X6038061Y196850D02*
Y157480D01*
X4583032D01*
X7337061Y196850D02*
Y157480D01*
X8792090Y196850D02*
Y157480D01*
X7337061D01*
X10091090Y196850D02*
Y157480D01*
X11016102D02*
X10091090D01*
X8184061Y3443850D02*
Y3483220D01*
X8340090Y3443850D02*
Y3483220D01*
X8184061D02*
X8340090D01*
X10938090Y3443850D02*
Y3483220D01*
X11016102D01*
X5430032Y3443850D02*
Y3483220D01*
X5586061Y3443850D02*
Y3483220D01*
X5430032D02*
X5586061D01*
X2676004Y3443850D02*
Y3483220D01*
X2832032Y3443850D02*
Y3483220D01*
X2676004D02*
X2832032D01*
X0Y3620984D02*
Y3483220D01*
X11016102Y3620984D02*
Y3483220D01*
G54D41*
X2754181Y313008D03*
X5508210D03*
X8262239D03*
X2754194Y3406346D03*
X5508223D03*
X8262251D03*
G54D36*
X2754004Y3483220D02*
Y3640669D01*
Y157480D02*
Y0D01*
X5508032Y3483220D02*
Y3640669D01*
Y157480D02*
Y0D01*
X8262061Y3483220D02*
Y3640669D01*
Y157480D02*
Y0D01*
X10996417Y3640669D02*
X11000788Y3640178D01*
X11004941Y3638728D01*
X11008668Y3636393D01*
X11011784Y3633288D01*
X11014132Y3629568D01*
X11015596Y3625420D01*
X11016102Y3621051D01*
X11016102Y3620984D01*
Y19685D02*
X11015611Y15314D01*
X11014161Y11161D01*
X11011826Y7434D01*
X11008721Y4319D01*
X11005001Y1970D01*
X11000854Y506D01*
X10996484Y0D01*
X10996417Y0D01*
X0Y19685D02*
X491Y15314D01*
X1941Y11161D01*
X4277Y7434D01*
X7382Y4319D01*
X11101Y1970D01*
X15249Y506D01*
X19618Y0D01*
X19685Y0D01*
X0Y3620984D02*
X491Y3625355D01*
X1941Y3629508D01*
X4277Y3633235D01*
X7382Y3636351D01*
X11101Y3638699D01*
X15249Y3640163D01*
X19618Y3640669D01*
X19685Y3640669D01*
%LPC*%
G75*
X19685Y3640669D02*
G54D42*
X734495Y2901146D02*
X735601Y2900273D01*
G54D43*
X1958624Y1940480D02*
X1995384D01*
X1908624D02*
X1945384D01*
G54D42*
X2095596Y2597312D02*
X2096542Y2598258D01*
G54D44*
X715436Y2105893D02*
Y2033808D01*
G54D45*
X1018154Y961450D02*
X1020054D01*
G54D46*
X1804004Y3113830D02*
Y3207870D01*
X1835504Y3113830D02*
Y3207870D01*
X1867004Y3113830D02*
Y3207870D01*
X1898504Y3113830D02*
Y3207870D01*
X1396004Y2990420D02*
Y3033280D01*
X1376504D02*
Y2990420D01*
X1416004D02*
Y3033280D01*
X1455004D02*
Y2990420D01*
X1475004D02*
Y3033280D01*
X1435504D02*
Y2990420D01*
X1396004Y2655420D02*
Y2698280D01*
X1376504D02*
Y2655420D01*
X1278004Y3033280D02*
Y2990420D01*
X1298004D02*
Y3033280D01*
X1416004Y2655420D02*
Y2698280D01*
X1455004D02*
Y2655420D01*
X1475004D02*
Y2698280D01*
X1298004Y2655420D02*
Y2698280D01*
X1278004D02*
Y2655420D01*
X1357004Y2990420D02*
Y3033280D01*
X1337004D02*
Y2990420D01*
X1317504Y2655420D02*
Y2698280D01*
X1337004D02*
Y2655420D01*
X1357004D02*
Y2698280D01*
X1317504Y2990420D02*
Y3033280D01*
X1435504Y2655420D02*
Y2698280D01*
X1187574Y2765850D02*
X1230434D01*
Y2785350D02*
X1187574D01*
X1230434Y2824850D02*
X1187574D01*
Y2804850D02*
X1230434D01*
X1522574Y2922850D02*
X1565434D01*
Y2942850D02*
X1522574D01*
X1230434Y2903350D02*
X1187574D01*
Y2883850D02*
X1230434D01*
X1187574Y2745850D02*
X1230434D01*
X1522574Y2824850D02*
X1565434D01*
Y2844350D02*
X1522574D01*
X1230434Y2922850D02*
X1187574D01*
X1230434Y2942850D02*
X1187574D01*
X1522574Y2804850D02*
X1565434D01*
X1187574Y2863850D02*
X1230434D01*
X1187574Y2844350D02*
X1230434D01*
X1522574Y2903350D02*
X1565434D01*
Y2765850D02*
X1522574D01*
Y2745850D02*
X1565434D01*
Y2785350D02*
X1522574D01*
X1565434Y2883850D02*
X1522574D01*
Y2863850D02*
X1565434D01*
X1008794Y1282350D02*
X1079214D01*
X1008794Y1065850D02*
X1079214D01*
Y1085350D02*
X1008794D01*
X1473794Y1242850D02*
X1544214D01*
Y1262350D02*
X1473794D01*
Y1222850D02*
X1544214D01*
X1008794Y1262850D02*
X1079214D01*
Y1006850D02*
X1008794D01*
X1079214Y1026350D02*
X1008794D01*
X1079214Y1045850D02*
X1008794D01*
X1079214Y1104850D02*
X1008794D01*
X1079214Y1124850D02*
X1008794D01*
X1079214Y1144350D02*
X1008794D01*
X1079214Y1163850D02*
X1008794D01*
X1079214Y1183850D02*
X1008794D01*
X1079214Y1203850D02*
X1008794D01*
X1079214Y1223350D02*
X1008794D01*
X1079214Y1242850D02*
X1008794D01*
X1473794Y1281850D02*
X1544214D01*
X1473794Y1203350D02*
X1544214D01*
X1473794Y1183850D02*
X1544214D01*
X1473794Y1163850D02*
X1544214D01*
X1473794Y1144350D02*
X1544214D01*
X1473794Y1124850D02*
X1544214D01*
X1473794Y1104850D02*
X1544214D01*
X1473794Y1084850D02*
X1544214D01*
X1473794Y1065350D02*
X1544214D01*
X1473794Y1045850D02*
X1544214D01*
X1473794Y1025850D02*
X1544214D01*
X1473794Y1006350D02*
X1544214D01*
X1139004Y876640D02*
Y947060D01*
X1158504Y876640D02*
Y947060D01*
X1276504Y876640D02*
Y947060D01*
X1257004D02*
Y876640D01*
X1336004D02*
Y947060D01*
X1316004D02*
Y876640D01*
X1296004D02*
Y947060D01*
X1139004Y1341640D02*
Y1412060D01*
X1158504Y1341640D02*
Y1412060D01*
X1178004Y1341640D02*
Y1412060D01*
X1198004Y1341640D02*
Y1412060D01*
X1217504Y1341640D02*
Y1412060D01*
X1237004Y1341640D02*
Y1412060D01*
X1257004Y1341640D02*
Y1412060D01*
X1276504Y1341640D02*
Y1412060D01*
X1296004Y1341640D02*
Y1412060D01*
X1316004Y1341640D02*
Y1412060D01*
X1336004Y1341640D02*
Y1412060D01*
X1355504Y1341640D02*
Y1412060D01*
X1375004Y1341640D02*
Y1412060D01*
X1395004Y1341640D02*
Y1412060D01*
X1414504Y1341640D02*
Y1412060D01*
Y947060D02*
Y876640D01*
X1395004Y947060D02*
Y876640D01*
X1375004Y947060D02*
Y876640D01*
X1355504Y947060D02*
Y876640D01*
X1237004Y947060D02*
Y876640D01*
X1217504Y947060D02*
Y876640D01*
X1198004Y947060D02*
Y876640D01*
X1178004Y947060D02*
Y876640D01*
G54D47*
X2525467Y2684290D02*
X2551624Y2658133D01*
X2578345Y2684101D02*
X2552027Y2657783D01*
X1550467Y1909290D02*
X1576624Y1883133D01*
X1603345Y1909101D02*
X1577027Y1882783D01*
G54D48*
X1901372Y1940415D02*
X1997917D01*
X714129Y2871906D02*
X718712Y2865378D01*
Y2824089D01*
G54D42*
X3488524Y2901146D02*
X3489630Y2900273D01*
G54D43*
X4712652Y1940480D02*
X4749412D01*
X4662652D02*
X4699412D01*
G54D42*
X4849625Y2597312D02*
X4850570Y2598258D01*
G54D44*
X3469465Y2105893D02*
Y2033808D01*
G54D45*
X3772182Y961450D02*
X3774082D01*
G54D46*
X4558032Y3113830D02*
Y3207870D01*
X4589532Y3113830D02*
Y3207870D01*
X4621032Y3113830D02*
Y3207870D01*
X4652532Y3113830D02*
Y3207870D01*
X4150032Y2990420D02*
Y3033280D01*
X4130532D02*
Y2990420D01*
X4170032D02*
Y3033280D01*
X4209032D02*
Y2990420D01*
X4229032D02*
Y3033280D01*
X4189532D02*
Y2990420D01*
X4150032Y2655420D02*
Y2698280D01*
X4130532D02*
Y2655420D01*
X4032032Y3033280D02*
Y2990420D01*
X4052032D02*
Y3033280D01*
X4170032Y2655420D02*
Y2698280D01*
X4209032D02*
Y2655420D01*
X4229032D02*
Y2698280D01*
X4052032Y2655420D02*
Y2698280D01*
X4032032D02*
Y2655420D01*
X4111032Y2990420D02*
Y3033280D01*
X4091032D02*
Y2990420D01*
X4071532Y2655420D02*
Y2698280D01*
X4091032D02*
Y2655420D01*
X4111032D02*
Y2698280D01*
X4071532Y2990420D02*
Y3033280D01*
X4189532Y2655420D02*
Y2698280D01*
X3941602Y2765850D02*
X3984462D01*
Y2785350D02*
X3941602D01*
X3984462Y2824850D02*
X3941602D01*
Y2804850D02*
X3984462D01*
X4276602Y2922850D02*
X4319462D01*
Y2942850D02*
X4276602D01*
X3984462Y2903350D02*
X3941602D01*
Y2883850D02*
X3984462D01*
X3941602Y2745850D02*
X3984462D01*
X4276602Y2824850D02*
X4319462D01*
Y2844350D02*
X4276602D01*
X3984462Y2922850D02*
X3941602D01*
X3984462Y2942850D02*
X3941602D01*
X4276602Y2804850D02*
X4319462D01*
X3941602Y2863850D02*
X3984462D01*
X3941602Y2844350D02*
X3984462D01*
X4276602Y2903350D02*
X4319462D01*
Y2765850D02*
X4276602D01*
Y2745850D02*
X4319462D01*
Y2785350D02*
X4276602D01*
X4319462Y2883850D02*
X4276602D01*
Y2863850D02*
X4319462D01*
X3762822Y1282350D02*
X3833242D01*
X3762822Y1065850D02*
X3833242D01*
Y1085350D02*
X3762822D01*
X4227822Y1242850D02*
X4298242D01*
Y1262350D02*
X4227822D01*
Y1222850D02*
X4298242D01*
X3762822Y1262850D02*
X3833242D01*
Y1006850D02*
X3762822D01*
X3833242Y1026350D02*
X3762822D01*
X3833242Y1045850D02*
X3762822D01*
X3833242Y1104850D02*
X3762822D01*
X3833242Y1124850D02*
X3762822D01*
X3833242Y1144350D02*
X3762822D01*
X3833242Y1163850D02*
X3762822D01*
X3833242Y1183850D02*
X3762822D01*
X3833242Y1203850D02*
X3762822D01*
X3833242Y1223350D02*
X3762822D01*
X3833242Y1242850D02*
X3762822D01*
X4227822Y1281850D02*
X4298242D01*
X4227822Y1203350D02*
X4298242D01*
X4227822Y1183850D02*
X4298242D01*
X4227822Y1163850D02*
X4298242D01*
X4227822Y1144350D02*
X4298242D01*
X4227822Y1124850D02*
X4298242D01*
X4227822Y1104850D02*
X4298242D01*
X4227822Y1084850D02*
X4298242D01*
X4227822Y1065350D02*
X4298242D01*
X4227822Y1045850D02*
X4298242D01*
X4227822Y1025850D02*
X4298242D01*
X4227822Y1006350D02*
X4298242D01*
X3893032Y876640D02*
Y947060D01*
X3912532Y876640D02*
Y947060D01*
X4030532Y876640D02*
Y947060D01*
X4011032D02*
Y876640D01*
X4090032D02*
Y947060D01*
X4070032D02*
Y876640D01*
X4050032D02*
Y947060D01*
X3893032Y1341640D02*
Y1412060D01*
X3912532Y1341640D02*
Y1412060D01*
X3932032Y1341640D02*
Y1412060D01*
X3952032Y1341640D02*
Y1412060D01*
X3971532Y1341640D02*
Y1412060D01*
X3991032Y1341640D02*
Y1412060D01*
X4011032Y1341640D02*
Y1412060D01*
X4030532Y1341640D02*
Y1412060D01*
X4050032Y1341640D02*
Y1412060D01*
X4070032Y1341640D02*
Y1412060D01*
X4090032Y1341640D02*
Y1412060D01*
X4109532Y1341640D02*
Y1412060D01*
X4129032Y1341640D02*
Y1412060D01*
X4149032Y1341640D02*
Y1412060D01*
X4168532Y1341640D02*
Y1412060D01*
Y947060D02*
Y876640D01*
X4149032Y947060D02*
Y876640D01*
X4129032Y947060D02*
Y876640D01*
X4109532Y947060D02*
Y876640D01*
X3991032Y947060D02*
Y876640D01*
X3971532Y947060D02*
Y876640D01*
X3952032Y947060D02*
Y876640D01*
X3932032Y947060D02*
Y876640D01*
G54D47*
X5279496Y2684290D02*
X5305653Y2658133D01*
X5332374Y2684101D02*
X5306056Y2657783D01*
X4304496Y1909290D02*
X4330653Y1883133D01*
X4357374Y1909101D02*
X4331056Y1882783D01*
G54D48*
X4655400Y1940415D02*
X4751945D01*
X3468157Y2871906D02*
X3472740Y2865378D01*
Y2824089D01*
G54D42*
X6242552Y2901146D02*
X6243659Y2900273D01*
G54D43*
X7466681Y1940480D02*
X7503441D01*
X7416681D02*
X7453441D01*
G54D42*
X7603654Y2597312D02*
X7604599Y2598258D01*
G54D44*
X6223494Y2105893D02*
Y2033808D01*
G54D45*
X6526211Y961450D02*
X6528111D01*
G54D46*
X7312061Y3113830D02*
Y3207870D01*
X7343561Y3113830D02*
Y3207870D01*
X7375061Y3113830D02*
Y3207870D01*
X7406561Y3113830D02*
Y3207870D01*
X6904061Y2990420D02*
Y3033280D01*
X6884561D02*
Y2990420D01*
X6924061D02*
Y3033280D01*
X6963061D02*
Y2990420D01*
X6983061D02*
Y3033280D01*
X6943561D02*
Y2990420D01*
X6904061Y2655420D02*
Y2698280D01*
X6884561D02*
Y2655420D01*
X6786061Y3033280D02*
Y2990420D01*
X6806061D02*
Y3033280D01*
X6924061Y2655420D02*
Y2698280D01*
X6963061D02*
Y2655420D01*
X6983061D02*
Y2698280D01*
X6806061Y2655420D02*
Y2698280D01*
X6786061D02*
Y2655420D01*
X6865061Y2990420D02*
Y3033280D01*
X6845061D02*
Y2990420D01*
X6825561Y2655420D02*
Y2698280D01*
X6845061D02*
Y2655420D01*
X6865061D02*
Y2698280D01*
X6825561Y2990420D02*
Y3033280D01*
X6943561Y2655420D02*
Y2698280D01*
X6695631Y2765850D02*
X6738491D01*
Y2785350D02*
X6695631D01*
X6738491Y2824850D02*
X6695631D01*
Y2804850D02*
X6738491D01*
X7030631Y2922850D02*
X7073491D01*
Y2942850D02*
X7030631D01*
X6738491Y2903350D02*
X6695631D01*
Y2883850D02*
X6738491D01*
X6695631Y2745850D02*
X6738491D01*
X7030631Y2824850D02*
X7073491D01*
Y2844350D02*
X7030631D01*
X6738491Y2922850D02*
X6695631D01*
X6738491Y2942850D02*
X6695631D01*
X7030631Y2804850D02*
X7073491D01*
X6695631Y2863850D02*
X6738491D01*
X6695631Y2844350D02*
X6738491D01*
X7030631Y2903350D02*
X7073491D01*
Y2765850D02*
X7030631D01*
Y2745850D02*
X7073491D01*
Y2785350D02*
X7030631D01*
X7073491Y2883850D02*
X7030631D01*
Y2863850D02*
X7073491D01*
X6516851Y1282350D02*
X6587271D01*
X6516851Y1065850D02*
X6587271D01*
Y1085350D02*
X6516851D01*
X6981851Y1242850D02*
X7052271D01*
Y1262350D02*
X6981851D01*
Y1222850D02*
X7052271D01*
X6516851Y1262850D02*
X6587271D01*
Y1006850D02*
X6516851D01*
X6587271Y1026350D02*
X6516851D01*
X6587271Y1045850D02*
X6516851D01*
X6587271Y1104850D02*
X6516851D01*
X6587271Y1124850D02*
X6516851D01*
X6587271Y1144350D02*
X6516851D01*
X6587271Y1163850D02*
X6516851D01*
X6587271Y1183850D02*
X6516851D01*
X6587271Y1203850D02*
X6516851D01*
X6587271Y1223350D02*
X6516851D01*
X6587271Y1242850D02*
X6516851D01*
X6981851Y1281850D02*
X7052271D01*
X6981851Y1203350D02*
X7052271D01*
X6981851Y1183850D02*
X7052271D01*
X6981851Y1163850D02*
X7052271D01*
X6981851Y1144350D02*
X7052271D01*
X6981851Y1124850D02*
X7052271D01*
X6981851Y1104850D02*
X7052271D01*
X6981851Y1084850D02*
X7052271D01*
X6981851Y1065350D02*
X7052271D01*
X6981851Y1045850D02*
X7052271D01*
X6981851Y1025850D02*
X7052271D01*
X6981851Y1006350D02*
X7052271D01*
X6647061Y876640D02*
Y947060D01*
X6666561Y876640D02*
Y947060D01*
X6784561Y876640D02*
Y947060D01*
X6765061D02*
Y876640D01*
X6844061D02*
Y947060D01*
X6824061D02*
Y876640D01*
X6804061D02*
Y947060D01*
X6647061Y1341640D02*
Y1412060D01*
X6666561Y1341640D02*
Y1412060D01*
X6686061Y1341640D02*
Y1412060D01*
X6706061Y1341640D02*
Y1412060D01*
X6725561Y1341640D02*
Y1412060D01*
X6745061Y1341640D02*
Y1412060D01*
X6765061Y1341640D02*
Y1412060D01*
X6784561Y1341640D02*
Y1412060D01*
X6804061Y1341640D02*
Y1412060D01*
X6824061Y1341640D02*
Y1412060D01*
X6844061Y1341640D02*
Y1412060D01*
X6863561Y1341640D02*
Y1412060D01*
X6883061Y1341640D02*
Y1412060D01*
X6903061Y1341640D02*
Y1412060D01*
X6922561Y1341640D02*
Y1412060D01*
Y947060D02*
Y876640D01*
X6903061Y947060D02*
Y876640D01*
X6883061Y947060D02*
Y876640D01*
X6863561Y947060D02*
Y876640D01*
X6745061Y947060D02*
Y876640D01*
X6725561Y947060D02*
Y876640D01*
X6706061Y947060D02*
Y876640D01*
X6686061Y947060D02*
Y876640D01*
G54D47*
X8033525Y2684290D02*
X8059682Y2658133D01*
X8086402Y2684101D02*
X8060084Y2657783D01*
X7058525Y1909290D02*
X7084682Y1883133D01*
X7111402Y1909101D02*
X7085084Y1882783D01*
G54D48*
X7409429Y1940415D02*
X7505974D01*
X6222186Y2871906D02*
X6226769Y2865378D01*
Y2824089D01*
G54D42*
X8996581Y2901146D02*
X8997687Y2900273D01*
G54D43*
X10220710Y1940480D02*
X10257470D01*
X10170710D02*
X10207470D01*
G54D42*
X10357682Y2597312D02*
X10358628Y2598258D01*
G54D44*
X8977522Y2105893D02*
Y2033808D01*
G54D45*
X9280239Y961450D02*
X9282140D01*
G54D46*
X10066090Y3113830D02*
Y3207870D01*
X10097590Y3113830D02*
Y3207870D01*
X10129090Y3113830D02*
Y3207870D01*
X10160590Y3113830D02*
Y3207870D01*
X9658090Y2990420D02*
Y3033280D01*
X9638590D02*
Y2990420D01*
X9678090D02*
Y3033280D01*
X9717090D02*
Y2990420D01*
X9737090D02*
Y3033280D01*
X9697590D02*
Y2990420D01*
X9658090Y2655420D02*
Y2698280D01*
X9638590D02*
Y2655420D01*
X9540090Y3033280D02*
Y2990420D01*
X9560090D02*
Y3033280D01*
X9678090Y2655420D02*
Y2698280D01*
X9717090D02*
Y2655420D01*
X9737090D02*
Y2698280D01*
X9560090Y2655420D02*
Y2698280D01*
X9540090D02*
Y2655420D01*
X9619090Y2990420D02*
Y3033280D01*
X9599090D02*
Y2990420D01*
X9579590Y2655420D02*
Y2698280D01*
X9599090D02*
Y2655420D01*
X9619090D02*
Y2698280D01*
X9579590Y2990420D02*
Y3033280D01*
X9697590Y2655420D02*
Y2698280D01*
X9449660Y2765850D02*
X9492519D01*
Y2785350D02*
X9449660D01*
X9492519Y2824850D02*
X9449660D01*
Y2804850D02*
X9492519D01*
X9784660Y2922850D02*
X9827519D01*
Y2942850D02*
X9784660D01*
X9492519Y2903350D02*
X9449660D01*
Y2883850D02*
X9492519D01*
X9449660Y2745850D02*
X9492519D01*
X9784660Y2824850D02*
X9827519D01*
Y2844350D02*
X9784660D01*
X9492519Y2922850D02*
X9449660D01*
X9492519Y2942850D02*
X9449660D01*
X9784660Y2804850D02*
X9827519D01*
X9449660Y2863850D02*
X9492519D01*
X9449660Y2844350D02*
X9492519D01*
X9784660Y2903350D02*
X9827519D01*
Y2765850D02*
X9784660D01*
Y2745850D02*
X9827519D01*
Y2785350D02*
X9784660D01*
X9827519Y2883850D02*
X9784660D01*
Y2863850D02*
X9827519D01*
X9270880Y1282350D02*
X9341300D01*
X9270880Y1065850D02*
X9341300D01*
Y1085350D02*
X9270880D01*
X9735880Y1242850D02*
X9806300D01*
Y1262350D02*
X9735880D01*
Y1222850D02*
X9806300D01*
X9270880Y1262850D02*
X9341300D01*
Y1006850D02*
X9270880D01*
X9341300Y1026350D02*
X9270880D01*
X9341300Y1045850D02*
X9270880D01*
X9341300Y1104850D02*
X9270880D01*
X9341300Y1124850D02*
X9270880D01*
X9341300Y1144350D02*
X9270880D01*
X9341300Y1163850D02*
X9270880D01*
X9341300Y1183850D02*
X9270880D01*
X9341300Y1203850D02*
X9270880D01*
X9341300Y1223350D02*
X9270880D01*
X9341300Y1242850D02*
X9270880D01*
X9735880Y1281850D02*
X9806300D01*
X9735880Y1203350D02*
X9806300D01*
X9735880Y1183850D02*
X9806300D01*
X9735880Y1163850D02*
X9806300D01*
X9735880Y1144350D02*
X9806300D01*
X9735880Y1124850D02*
X9806300D01*
X9735880Y1104850D02*
X9806300D01*
X9735880Y1084850D02*
X9806300D01*
X9735880Y1065350D02*
X9806300D01*
X9735880Y1045850D02*
X9806300D01*
X9735880Y1025850D02*
X9806300D01*
X9735880Y1006350D02*
X9806300D01*
X9401090Y876640D02*
Y947060D01*
X9420590Y876640D02*
Y947060D01*
X9538590Y876640D02*
Y947060D01*
X9519090D02*
Y876640D01*
X9598090D02*
Y947060D01*
X9578090D02*
Y876640D01*
X9558090D02*
Y947060D01*
X9401090Y1341640D02*
Y1412060D01*
X9420590Y1341640D02*
Y1412060D01*
X9440090Y1341640D02*
Y1412060D01*
X9460090Y1341640D02*
Y1412060D01*
X9479590Y1341640D02*
Y1412060D01*
X9499090Y1341640D02*
Y1412060D01*
X9519090Y1341640D02*
Y1412060D01*
X9538590Y1341640D02*
Y1412060D01*
X9558090Y1341640D02*
Y1412060D01*
X9578090Y1341640D02*
Y1412060D01*
X9598090Y1341640D02*
Y1412060D01*
X9617590Y1341640D02*
Y1412060D01*
X9637090Y1341640D02*
Y1412060D01*
X9657090Y1341640D02*
Y1412060D01*
X9676590Y1341640D02*
Y1412060D01*
Y947060D02*
Y876640D01*
X9657090Y947060D02*
Y876640D01*
X9637090Y947060D02*
Y876640D01*
X9617590Y947060D02*
Y876640D01*
X9499090Y947060D02*
Y876640D01*
X9479590Y947060D02*
Y876640D01*
X9460090Y947060D02*
Y876640D01*
X9440090Y947060D02*
Y876640D01*
G54D47*
X10787553Y2684290D02*
X10813710Y2658133D01*
X10840431Y2684101D02*
X10814113Y2657783D01*
X9812553Y1909290D02*
X9838710Y1883133D01*
X9865431Y1909101D02*
X9839113Y1882783D01*
G54D48*
X10163457Y1940415D02*
X10260002D01*
X8976214Y2871906D02*
X8980798Y2865378D01*
Y2824089D01*
M02*
