*
%FSLAX26Y26*%
%MOIN*%
%ADD10R,0.043310X0.043310*%
%ADD11R,0.017720X0.017720*%
%ADD12R,0.047240X0.047240*%
%ADD13R,0.059060X0.059060*%
%ADD14R,0.078740X0.078740*%
%ADD15R,0.020000X0.020000*%
%ADD16R,0.030000X0.030000*%
%ADD17R,0.016000X0.016000*%
%ADD18R,0.051180X0.051180*%
%ADD19R,0.040000X0.040000*%
%ADD20R,0.050000X0.050000*%
%ADD21R,0.023620X0.023620*%
%ADD22R,0.090000X0.090000*%
%ADD23R,0.032000X0.032000*%
%ADD24R,0.035430X0.035430*%
%ADD25R,0.055120X0.055120*%
%ADD26R,0.007870X0.007870*%
%ADD27R,0.008660X0.008660*%
%ADD28C,0.005000*%
%IPPOS*%
%LN02i31889.gtp*%
%LPD*%
G75*
G36*
X1597004Y1907850D02*
X1577004Y1887850D01*
X1557004Y1907850D01*
Y1917850D01*
X1597004D01*
Y1907850D01*
G37*
G36*
Y1867850D02*
X1557004D01*
Y1897850D01*
X1577004Y1877850D01*
X1597004Y1897850D01*
Y1867850D01*
G37*
G36*
X2572004Y2682850D02*
X2552004Y2662850D01*
X2532004Y2682850D01*
Y2692850D01*
X2572004D01*
Y2682850D01*
G37*
G36*
Y2642850D02*
X2532004D01*
Y2672850D01*
X2552004Y2652850D01*
X2572004Y2672850D01*
Y2642850D01*
G37*
G54D10*
X2406004Y3245975D02*
Y3261725D01*
Y3126975D02*
Y3142725D01*
X2347004Y3126975D02*
Y3142725D01*
Y3245975D02*
Y3261725D01*
G54D11*
X1749019Y1931850D02*
X1750989D01*
X1749019Y1894850D02*
X1750989D01*
X1852019Y1931850D02*
X1853989D01*
X1852019Y1856850D02*
X1853989D01*
X1852019Y1894850D02*
X1853989D01*
X1749019Y1856850D02*
X1750989D01*
G54D12*
X1802004Y1879100D02*
Y1910600D01*
G54D13*
X765004Y1894260D02*
Y1945440D01*
X888004Y1894260D02*
Y1945440D01*
G54D14*
X2042004Y3326320D02*
Y3385380D01*
X1660004Y3326320D02*
Y3385380D01*
X2042004Y3129320D02*
Y3188380D01*
X1660004Y3129320D02*
Y3188380D01*
G54D12*
X1753574Y3400850D02*
X1950434D01*
G54D15*
X1788004Y3125575D02*
Y3196125D01*
X1820004Y3125575D02*
Y3196125D01*
X1851004Y3125575D02*
Y3196125D01*
X1883004Y3125575D02*
Y3196125D01*
X1914004Y3125575D02*
Y3196125D01*
G54D16*
X1699004Y944850D03*
X1754004D03*
X1724004Y1744850D03*
X1779004D03*
X1699004Y994850D03*
X1754004D03*
X874004Y1569850D03*
X929004D03*
X1754004Y2744850D03*
X1699004D03*
X754004Y2694850D03*
X699004D03*
X754004Y2744850D03*
X699004D03*
X1754004Y2794850D03*
X1699004D03*
X699004Y2844850D03*
X754004D03*
X529004Y2794850D03*
X474004D03*
X529004Y2869850D03*
X474004D03*
X529004Y2944850D03*
X474004D03*
X529004Y3019850D03*
X474004D03*
X754004Y2919850D03*
X699004D03*
X529004Y3169850D03*
X474004D03*
X1404004Y2319850D03*
X1349004D03*
X1404004Y2169850D03*
X1349004D03*
X1849004Y1744850D03*
X1904004D03*
X867004Y1693850D03*
X922004D03*
X1414004Y774850D03*
X1359004D03*
X1730004Y1394850D03*
X1675004D03*
X1404004Y2394850D03*
X1349004D03*
X1224004Y444850D03*
X1279004D03*
X1179004D03*
X1124004D03*
X979004Y404850D03*
X924004D03*
X1349004Y2244850D03*
X1404004D03*
X979004Y719850D03*
X924004D03*
X2054004Y2944850D03*
X1999004D03*
X2054004Y2994850D03*
X1999004D03*
X1504004Y2594850D03*
X1449004D03*
X754004Y2794850D03*
X699004D03*
G54D17*
X2064004Y2840850D02*
Y2854850D01*
X1989004Y2840850D02*
Y2854850D01*
X2027004Y2840850D02*
Y2854850D01*
X1989004Y2733850D02*
Y2747850D01*
X2064004Y2733850D02*
Y2747850D01*
G54D18*
X681194Y481850D02*
X704814D01*
X681194Y606850D02*
X704814D01*
X898194D02*
X921814D01*
X898194Y481850D02*
X921814D01*
G54D19*
X1514004Y2206850D02*
X1534004D01*
X1514004Y2381850D02*
X1534004D01*
X1869004D02*
X1889004D01*
X1869004Y2206850D02*
X1889004D01*
X1219004Y2381850D02*
X1239004D01*
X1219004Y2206850D02*
X1239004D01*
X864004D02*
X884004D01*
X864004Y2381850D02*
X884004D01*
G54D20*
X1127004Y1565850D02*
X1137004D01*
X1127004Y1675850D02*
X1137004D01*
X1397004Y2044850D02*
X1407004D01*
X1397004Y1934850D02*
X1407004D01*
G54D21*
X2477004Y2535355D02*
Y2598345D01*
X2327004Y2740355D02*
Y2803345D01*
X2427004Y2535355D02*
Y2598345D01*
X2377004Y2535355D02*
Y2598345D01*
X2427004Y2740355D02*
Y2803345D01*
X2377004Y2740355D02*
Y2803345D01*
X2327004Y2535355D02*
Y2598345D01*
X2477004Y2740355D02*
Y2803345D01*
G54D19*
X1007004Y1994850D02*
X1047004D01*
X1007004Y1901850D02*
X1047004D01*
X1007004Y2087850D02*
X1047004D01*
G54D22*
X1277004Y1979850D02*
Y2009850D01*
G54D23*
X1573004Y1860850D02*
X1581004D01*
X1573004Y1927850D02*
X1581004D01*
X2548004Y2635850D02*
X2556004D01*
X2548004Y2702850D02*
X2556004D01*
G54D11*
X1979054Y3044850D02*
X1984954D01*
X2069054D02*
X2074954D01*
X454054Y3094850D02*
X459954D01*
X544054D02*
X549954D01*
G54D16*
X2202004Y2996850D03*
Y2941850D03*
X1977004Y1866850D03*
Y1921850D03*
X2152004Y2941850D03*
Y2996850D03*
X2252004Y2941850D03*
Y2996850D03*
X1352004Y3141850D03*
Y3196850D03*
X1727004Y2941850D03*
Y2996850D03*
X1852004Y2941850D03*
Y2996850D03*
X1902004Y2941850D03*
Y2996850D03*
X1802004Y2941850D03*
Y2996850D03*
X2302004Y2941850D03*
Y2996850D03*
X2352004D03*
Y2941850D03*
X2402004Y2996850D03*
Y2941850D03*
X1102004Y3141850D03*
Y3196850D03*
X1052004Y716850D03*
Y771850D03*
X1202004Y716850D03*
Y771850D03*
X2227004Y2674850D03*
Y2619850D03*
X852004Y1046850D03*
Y991850D03*
X1252004Y716850D03*
Y771850D03*
X1152004D03*
Y716850D03*
X1102004Y771850D03*
Y716850D03*
X1152004Y3141850D03*
Y3196850D03*
X1402004D03*
Y3141850D03*
X1452004D03*
Y3196850D03*
X1677004Y1866850D03*
Y1921850D03*
X1927004Y1866850D03*
Y1921850D03*
X1627004Y1866850D03*
Y1921850D03*
X1052004Y1596850D03*
Y1541850D03*
X927004Y1046850D03*
Y991850D03*
X2002004Y2671850D03*
Y2616850D03*
X1927004Y2741850D03*
Y2796850D03*
X2077004Y2671850D03*
Y2616850D03*
X1127004Y2766850D03*
Y2821850D03*
X1277004Y3141850D03*
Y3196850D03*
X1652004Y2941850D03*
Y2996850D03*
X1852004Y2741850D03*
Y2796850D03*
X877004Y2816850D03*
Y2871850D03*
Y2771850D03*
Y2716850D03*
X227004Y2696850D03*
Y2641850D03*
G54D24*
X2151019Y2856850D02*
X2152989D01*
X2250019Y2819850D02*
X2251989D01*
X2151019Y2781850D02*
X2152989D01*
G54D25*
X747004Y2065125D02*
Y2074575D01*
X907004Y2065125D02*
Y2074575D01*
G54D11*
X2152004Y2596900D02*
Y2602800D01*
Y2686900D02*
Y2692800D01*
G54D20*
X1677004Y1314850D02*
Y1324850D01*
X1787004Y1314850D02*
Y1324850D01*
X1677004Y1214850D02*
Y1224850D01*
X1787004Y1214850D02*
Y1224850D01*
G54D26*
X1386004Y2996100D02*
Y3027600D01*
X1406004Y2996100D02*
Y3027600D01*
X1465004Y2996100D02*
Y3027600D01*
X1445004Y2996100D02*
Y3027600D01*
X1426004Y2996100D02*
Y3027600D01*
X1386004Y2661100D02*
Y2692600D01*
X1288004Y2996100D02*
Y3027600D01*
X1406004Y2661100D02*
Y2692600D01*
X1465004Y2661100D02*
Y2692600D01*
X1288004Y2661100D02*
Y2692600D01*
X1347004Y2996100D02*
Y3027600D01*
X1485004Y2996100D02*
Y3027600D01*
X1308004Y2661100D02*
Y2692600D01*
X1347004Y2661100D02*
Y2692600D01*
X1327004Y2661100D02*
Y2692600D01*
X1268004Y2661100D02*
Y2692600D01*
X1367004Y2661100D02*
Y2692600D01*
X1268004Y2996100D02*
Y3027600D01*
X1308004Y2996100D02*
Y3027600D01*
X1426004Y2661100D02*
Y2692600D01*
X1367004Y2996100D02*
Y3027600D01*
X1327004Y2996100D02*
Y3027600D01*
X1445004Y2661100D02*
Y2692600D01*
X1485004Y2661100D02*
Y2692600D01*
X1193254Y2775850D02*
X1224754D01*
X1193254Y2814850D02*
X1224754D01*
X1528254Y2932850D02*
X1559754D01*
X1193254Y2893850D02*
X1224754D01*
X1193254Y2755850D02*
X1224754D01*
X1528254Y2834850D02*
X1559754D01*
X1193254Y2912850D02*
X1224754D01*
X1193254Y2932850D02*
X1224754D01*
X1528254Y2814850D02*
X1559754D01*
X1193254Y2873850D02*
X1224754D01*
X1193254Y2853850D02*
X1224754D01*
X1528254Y2912850D02*
X1559754D01*
X1193254Y2834850D02*
X1224754D01*
X1528254Y2755850D02*
X1559754D01*
X1528254Y2775850D02*
X1559754D01*
X1528254Y2735850D02*
X1559754D01*
X1193254D02*
X1224754D01*
X1528254Y2873850D02*
X1559754D01*
X1528254Y2893850D02*
X1559754D01*
X1528254Y2794850D02*
X1559754D01*
X1528254Y2853850D02*
X1559754D01*
X1193254Y2952850D02*
X1224754D01*
X1193254Y2794850D02*
X1224754D01*
X1528254Y2952850D02*
X1559754D01*
G54D27*
X1014869Y1291850D02*
X1073139D01*
X1014869Y1075850D02*
X1073139D01*
X1479869Y1252850D02*
X1538139D01*
X1479869Y1232850D02*
X1538139D01*
X1014869Y1272850D02*
X1073139D01*
X1014869Y996850D02*
X1073139D01*
X1014869Y1016850D02*
X1073139D01*
X1014869Y1035850D02*
X1073139D01*
X1014869Y1055850D02*
X1073139D01*
X1014869Y1094850D02*
X1073139D01*
X1014869Y1114850D02*
X1073139D01*
X1014869Y1134850D02*
X1073139D01*
X1014869Y1153850D02*
X1073139D01*
X1014869Y1173850D02*
X1073139D01*
X1014869Y1193850D02*
X1073139D01*
X1014869Y1213850D02*
X1073139D01*
X1014869Y1232850D02*
X1073139D01*
X1014869Y1252850D02*
X1073139D01*
X1479869Y1291850D02*
X1538139D01*
X1479869Y1271850D02*
X1538139D01*
X1479869Y1212850D02*
X1538139D01*
X1479869Y1193850D02*
X1538139D01*
X1479869Y1173850D02*
X1538139D01*
X1479869Y1153850D02*
X1538139D01*
X1479869Y1134850D02*
X1538139D01*
X1479869Y1114850D02*
X1538139D01*
X1479869Y1094850D02*
X1538139D01*
X1479869Y1074850D02*
X1538139D01*
X1479869Y1055850D02*
X1538139D01*
X1479869Y1035850D02*
X1538139D01*
X1479869Y1015850D02*
X1538139D01*
X1479869Y996850D02*
X1538139D01*
X1129004Y882715D02*
Y940985D01*
X1149004Y882715D02*
Y940985D01*
X1267004Y882715D02*
Y940985D01*
X1326004Y882715D02*
Y940985D01*
X1286004Y882715D02*
Y940985D01*
X1129004Y1347715D02*
Y1405985D01*
X1149004Y1347715D02*
Y1405985D01*
X1168004Y1347715D02*
Y1405985D01*
X1188004Y1347715D02*
Y1405985D01*
X1208004Y1347715D02*
Y1405985D01*
X1227004Y1347715D02*
Y1405985D01*
X1247004Y1347715D02*
Y1405985D01*
X1267004Y1347715D02*
Y1405985D01*
X1286004Y1347715D02*
Y1405985D01*
X1306004Y1347715D02*
Y1405985D01*
X1326004Y1347715D02*
Y1405985D01*
X1346004Y1347715D02*
Y1405985D01*
X1365004Y1347715D02*
Y1405985D01*
X1385004Y1347715D02*
Y1405985D01*
X1405004Y1347715D02*
Y1405985D01*
X1424004Y1347715D02*
Y1405985D01*
Y882715D02*
Y940985D01*
X1405004Y882715D02*
Y940985D01*
X1385004Y882715D02*
Y940985D01*
X1365004Y882715D02*
Y940985D01*
X1346004Y882715D02*
Y940985D01*
X1306004Y882715D02*
Y940985D01*
X1247004Y882715D02*
Y940985D01*
X1227004Y882715D02*
Y940985D01*
X1208004Y882715D02*
Y940985D01*
X1188004Y882715D02*
Y940985D01*
X1168004Y882715D02*
Y940985D01*
G36*
X1533904Y1332250D02*
X1464404Y1401750D01*
X1492104Y1429450D01*
X1561604Y1359950D01*
X1533904Y1332250D01*
G37*
G36*
X1060904Y859250D02*
X991404Y928750D01*
X1019104Y956450D01*
X1088604Y886950D01*
X1060904Y859250D01*
G37*
G36*
X1464404Y886950D02*
X1533904Y956450D01*
X1561604Y928750D01*
X1492104Y859250D01*
X1464404Y886950D01*
G37*
G36*
X991404Y1359950D02*
X1060904Y1429450D01*
X1088604Y1401750D01*
X1019104Y1332250D01*
X991404Y1359950D01*
G37*
G54D28*
X747004Y2479850D03*
X745004Y2478850D01*
X744004D01*
X742004D01*
X741004D01*
X740004Y2477850D01*
X739004D01*
X737004Y2476850D01*
X736004D01*
X735004Y2475850D01*
X734004Y2474850D01*
X733004Y2473850D01*
X732004Y2472850D01*
X731004Y2471850D01*
X730004Y2470850D01*
Y2469850D01*
X729004Y2467850D01*
X728004Y2466850D01*
Y2465850D01*
X727004Y2464850D01*
Y2462850D01*
Y2461850D01*
Y2460850D01*
Y2458850D01*
Y2457850D01*
Y2455850D01*
Y2454850D01*
X728004Y2453850D01*
Y2451850D01*
X729004Y2450850D01*
X730004Y2449850D01*
Y2448850D01*
X731004Y2447850D01*
X732004Y2446850D01*
X733004Y2445850D01*
X734004Y2444850D01*
X735004Y2443850D01*
X736004Y2442850D01*
X737004Y2441850D01*
X739004D01*
X740004Y2440850D01*
X741004D01*
X742004D01*
X744004Y2439850D01*
X745004D01*
X747004D01*
X1677004Y2479850D03*
X1675004Y2478850D01*
X1674004D01*
X1672004D01*
X1671004D01*
X1670004Y2477850D01*
X1668004D01*
X1667004Y2476850D01*
X1666004D01*
X1665004Y2475850D01*
X1664004Y2474850D01*
X1663004Y2473850D01*
X1662004Y2472850D01*
X1661004Y2471850D01*
X1660004Y2470850D01*
X1659004Y2469850D01*
Y2467850D01*
X1658004Y2466850D01*
Y2465850D01*
X1657004Y2464850D01*
Y2462850D01*
Y2461850D01*
Y2460850D01*
Y2458850D01*
Y2457850D01*
Y2455850D01*
Y2454850D01*
X1658004Y2453850D01*
Y2451850D01*
X1659004Y2450850D01*
Y2449850D01*
X1660004Y2448850D01*
X1661004Y2447850D01*
X1662004Y2446850D01*
X1663004Y2445850D01*
X1664004Y2444850D01*
X1665004Y2443850D01*
X1666004Y2442850D01*
X1667004Y2441850D01*
X1668004D01*
X1670004Y2440850D01*
X1671004D01*
X1672004D01*
X1674004Y2439850D01*
X1675004D01*
X1677004D01*
X1965004D03*
X1966004D01*
X1968004D01*
X1969004Y2440850D01*
X1971004D01*
X1972004D01*
X1973004Y2441850D01*
X1974004D01*
X1976004Y2442850D01*
X1977004Y2443850D01*
X1978004Y2444850D01*
X1979004Y2445850D01*
X1980004Y2446850D01*
X1981004Y2447850D01*
Y2448850D01*
X1982004Y2449850D01*
X1983004Y2450850D01*
Y2451850D01*
X1984004Y2453850D01*
Y2454850D01*
Y2455850D01*
X1985004Y2457850D01*
Y2458850D01*
Y2460850D01*
Y2461850D01*
X1984004Y2462850D01*
Y2464850D01*
Y2465850D01*
X1983004Y2466850D01*
Y2467850D01*
X1982004Y2469850D01*
X1981004Y2470850D01*
Y2471850D01*
X1980004Y2472850D01*
X1979004Y2473850D01*
X1978004Y2474850D01*
X1977004Y2475850D01*
X1976004Y2476850D01*
X1974004D01*
X1973004Y2477850D01*
X1972004D01*
X1971004Y2478850D01*
X1969004D01*
X1968004D01*
X1966004Y2479850D01*
X1965004D01*
X2125004D03*
X2123004Y2478850D01*
X2122004D01*
X2120004D01*
X2119004D01*
X2118004Y2477850D01*
X2117004D01*
X2115004Y2476850D01*
X2114004D01*
X2113004Y2475850D01*
X2112004Y2474850D01*
X2111004Y2473850D01*
X2110004Y2472850D01*
X2109004Y2471850D01*
X2108004Y2470850D01*
X2107004Y2469850D01*
Y2467850D01*
X2106004Y2466850D01*
Y2465850D01*
X2105004Y2464850D01*
Y2462850D01*
Y2461850D01*
Y2460850D01*
Y2458850D01*
Y2457850D01*
Y2455850D01*
Y2454850D01*
X2106004Y2453850D01*
Y2451850D01*
X2107004Y2450850D01*
Y2449850D01*
X2108004Y2448850D01*
X2109004Y2447850D01*
X2110004Y2446850D01*
X2111004Y2445850D01*
X2112004Y2444850D01*
X2113004Y2443850D01*
X2114004Y2442850D01*
X2115004Y2441850D01*
X2117004D01*
X2118004Y2440850D01*
X2119004D01*
X2120004D01*
X2122004Y2439850D01*
X2123004D01*
X2125004D01*
X609004D03*
X610004D01*
X612004D01*
X613004Y2440850D01*
X614004D01*
X616004D01*
X617004Y2441850D01*
X618004D01*
X619004Y2442850D01*
X620004Y2443850D01*
X621004Y2444850D01*
X622004Y2445850D01*
X623004Y2446850D01*
X624004Y2447850D01*
X625004Y2448850D01*
X626004Y2449850D01*
Y2450850D01*
X627004Y2451850D01*
X628004Y2453850D01*
Y2454850D01*
Y2455850D01*
Y2457850D01*
Y2458850D01*
Y2460850D01*
Y2461850D01*
Y2462850D01*
Y2464850D01*
Y2465850D01*
X627004Y2466850D01*
X626004Y2467850D01*
Y2469850D01*
X625004Y2470850D01*
X624004Y2471850D01*
X623004Y2472850D01*
X622004Y2473850D01*
X621004Y2474850D01*
X620004Y2475850D01*
X619004Y2476850D01*
X618004D01*
X617004Y2477850D01*
X616004D01*
X614004Y2478850D01*
X613004D01*
X612004D01*
X610004Y2479850D01*
X609004D01*
X1495004Y2439850D03*
X1496004D01*
X1497004D01*
X1499004Y2440850D01*
X1500004D01*
X1501004D01*
X1503004Y2441850D01*
X1504004D01*
X1505004Y2442850D01*
X1506004Y2443850D01*
X1507004Y2444850D01*
X1508004Y2445850D01*
X1509004Y2446850D01*
X1510004Y2447850D01*
X1511004Y2448850D01*
X1512004Y2449850D01*
Y2450850D01*
X1513004Y2451850D01*
Y2453850D01*
X1514004Y2454850D01*
Y2455850D01*
Y2457850D01*
Y2458850D01*
Y2460850D01*
Y2461850D01*
Y2462850D01*
Y2464850D01*
X1513004Y2465850D01*
Y2466850D01*
X1512004Y2467850D01*
Y2469850D01*
X1511004Y2470850D01*
X1510004Y2471850D01*
X1509004Y2472850D01*
X1508004Y2473850D01*
X1507004Y2474850D01*
X1506004Y2475850D01*
X1505004Y2476850D01*
X1504004D01*
X1503004Y2477850D01*
X1501004D01*
X1500004Y2478850D01*
X1499004D01*
X1497004D01*
X1496004Y2479850D01*
X1495004D01*
X78004Y3443850D03*
X73004D01*
X67004Y3442850D01*
X62004Y3441850D01*
X57004Y3440850D01*
X51004Y3438850D01*
X46004Y3436850D01*
X41004Y3434850D01*
X37004Y3431850D01*
X32004Y3428850D01*
X28004Y3425850D01*
X24004Y3421850D01*
X20004Y3417850D01*
X16004Y3413850D01*
X13004Y3408850D01*
X10004Y3404850D01*
X8004Y3399850D01*
X5004Y3394850D01*
X3004Y3389850D01*
X2004Y3383850D01*
X1004Y3378850D01*
X4Y3373850D01*
Y3367850D01*
Y3364850D01*
Y354850D03*
Y348850D01*
Y343850D01*
X1004Y337850D01*
X3004Y332850D01*
X4004Y327850D01*
X6004Y322850D01*
X9004Y317850D01*
X12004Y312850D01*
X15004Y307850D01*
X18004Y303850D01*
X22004Y299850D01*
X26004Y295850D01*
X30004Y292850D01*
X34004Y288850D01*
X39004Y285850D01*
X44004Y283850D01*
X49004Y281850D01*
X54004Y279850D01*
X59004Y277850D01*
X65004Y276850D01*
X70004Y275850D01*
X76004D01*
X78004D01*
X2754004Y3364850D03*
Y3370850D01*
Y3375850D01*
X2753004Y3381850D01*
X2751004Y3386850D01*
X2750004Y3391850D01*
X2748004Y3396850D01*
X2745004Y3401850D01*
X2742004Y3406850D01*
X2739004Y3411850D01*
X2736004Y3415850D01*
X2732004Y3419850D01*
X2728004Y3423850D01*
X2724004Y3426850D01*
X2720004Y3430850D01*
X2715004Y3433850D01*
X2710004Y3435850D01*
X2705004Y3437850D01*
X2700004Y3439850D01*
X2695004Y3441850D01*
X2689004Y3442850D01*
X2684004Y3443850D01*
X2678004D01*
X2676004D01*
Y275850D03*
X2681004D01*
X2687004Y276850D01*
X2692004Y277850D01*
X2697004Y278850D01*
X2703004Y280850D01*
X2708004Y282850D01*
X2713004Y284850D01*
X2717004Y287850D01*
X2722004Y290850D01*
X2726004Y293850D01*
X2730004Y297850D01*
X2734004Y301850D01*
X2738004Y305850D01*
X2741004Y310850D01*
X2744004Y314850D01*
X2746004Y319850D01*
X2749004Y324850D01*
X2751004Y329850D01*
X2752004Y335850D01*
X2753004Y340850D01*
X2754004Y345850D01*
Y351850D01*
Y354850D01*
X1829004Y196850D02*
X1908004Y275850D01*
X1829004Y196850D03*
X530004D02*
X1829004D01*
X451004Y275850D02*
X530004Y196850D01*
X446004Y275850D02*
X451004D01*
X1907004D02*
X2676004D01*
X1677004Y2439850D02*
X1965004D01*
X1677004Y2479850D02*
X1965004D01*
X78004Y3443850D02*
X2676004D01*
X78004Y275850D02*
X446004D01*
X4Y2479850D02*
X609004D01*
X4Y2439850D02*
X609004D01*
X747004D02*
X1495004D01*
X747004Y2479850D02*
X1495004D01*
X2125004Y2439850D02*
X2754004D01*
X2125004Y2479850D02*
X2754004D01*
X4Y354850D02*
Y2439850D01*
Y2479850D02*
Y3364850D01*
X2754004Y354850D02*
Y2439850D01*
Y2479850D02*
Y3364850D01*
G36*
X4351032Y1907850D02*
X4331032Y1887850D01*
X4311032Y1907850D01*
Y1917850D01*
X4351032D01*
Y1907850D01*
G37*
G36*
Y1867850D02*
X4311032D01*
Y1897850D01*
X4331032Y1877850D01*
X4351032Y1897850D01*
Y1867850D01*
G37*
G36*
X5326032Y2682850D02*
X5306032Y2662850D01*
X5286032Y2682850D01*
Y2692850D01*
X5326032D01*
Y2682850D01*
G37*
G36*
Y2642850D02*
X5286032D01*
Y2672850D01*
X5306032Y2652850D01*
X5326032Y2672850D01*
Y2642850D01*
G37*
G54D10*
X5160032Y3245975D02*
Y3261725D01*
Y3126975D02*
Y3142725D01*
X5101032Y3126975D02*
Y3142725D01*
Y3245975D02*
Y3261725D01*
G54D11*
X4503047Y1931850D02*
X4505017D01*
X4503047Y1894850D02*
X4505017D01*
X4606047Y1931850D02*
X4608017D01*
X4606047Y1856850D02*
X4608017D01*
X4606047Y1894850D02*
X4608017D01*
X4503047Y1856850D02*
X4505017D01*
G54D12*
X4556032Y1879100D02*
Y1910600D01*
G54D13*
X3519032Y1894260D02*
Y1945440D01*
X3642032Y1894260D02*
Y1945440D01*
G54D14*
X4796032Y3326320D02*
Y3385380D01*
X4414032Y3326320D02*
Y3385380D01*
X4796032Y3129320D02*
Y3188380D01*
X4414032Y3129320D02*
Y3188380D01*
G54D12*
X4507602Y3400850D02*
X4704462D01*
G54D15*
X4542032Y3125575D02*
Y3196125D01*
X4574032Y3125575D02*
Y3196125D01*
X4605032Y3125575D02*
Y3196125D01*
X4637032Y3125575D02*
Y3196125D01*
X4668032Y3125575D02*
Y3196125D01*
G54D16*
X4453032Y944850D03*
X4508032D03*
X4478032Y1744850D03*
X4533032D03*
X4453032Y994850D03*
X4508032D03*
X3628032Y1569850D03*
X3683032D03*
X4508032Y2744850D03*
X4453032D03*
X3508032Y2694850D03*
X3453032D03*
X3508032Y2744850D03*
X3453032D03*
X4508032Y2794850D03*
X4453032D03*
X3453032Y2844850D03*
X3508032D03*
X3283032Y2794850D03*
X3228032D03*
X3283032Y2869850D03*
X3228032D03*
X3283032Y2944850D03*
X3228032D03*
X3283032Y3019850D03*
X3228032D03*
X3508032Y2919850D03*
X3453032D03*
X3283032Y3169850D03*
X3228032D03*
X4158032Y2319850D03*
X4103032D03*
X4158032Y2169850D03*
X4103032D03*
X4603032Y1744850D03*
X4658032D03*
X3621032Y1693850D03*
X3676032D03*
X4168032Y774850D03*
X4113032D03*
X4484032Y1394850D03*
X4429032D03*
X4158032Y2394850D03*
X4103032D03*
X3978032Y444850D03*
X4033032D03*
X3933032D03*
X3878032D03*
X3733032Y404850D03*
X3678032D03*
X4103032Y2244850D03*
X4158032D03*
X3733032Y719850D03*
X3678032D03*
X4808032Y2944850D03*
X4753032D03*
X4808032Y2994850D03*
X4753032D03*
X4258032Y2594850D03*
X4203032D03*
X3508032Y2794850D03*
X3453032D03*
G54D17*
X4818032Y2840850D02*
Y2854850D01*
X4743032Y2840850D02*
Y2854850D01*
X4781032Y2840850D02*
Y2854850D01*
X4743032Y2733850D02*
Y2747850D01*
X4818032Y2733850D02*
Y2747850D01*
G54D18*
X3435222Y481850D02*
X3458842D01*
X3435222Y606850D02*
X3458842D01*
X3652222D02*
X3675842D01*
X3652222Y481850D02*
X3675842D01*
G54D19*
X4268032Y2206850D02*
X4288032D01*
X4268032Y2381850D02*
X4288032D01*
X4623032D02*
X4643032D01*
X4623032Y2206850D02*
X4643032D01*
X3973032Y2381850D02*
X3993032D01*
X3973032Y2206850D02*
X3993032D01*
X3618032D02*
X3638032D01*
X3618032Y2381850D02*
X3638032D01*
G54D20*
X3881032Y1565850D02*
X3891032D01*
X3881032Y1675850D02*
X3891032D01*
X4151032Y2044850D02*
X4161032D01*
X4151032Y1934850D02*
X4161032D01*
G54D21*
X5231032Y2535355D02*
Y2598345D01*
X5081032Y2740355D02*
Y2803345D01*
X5181032Y2535355D02*
Y2598345D01*
X5131032Y2535355D02*
Y2598345D01*
X5181032Y2740355D02*
Y2803345D01*
X5131032Y2740355D02*
Y2803345D01*
X5081032Y2535355D02*
Y2598345D01*
X5231032Y2740355D02*
Y2803345D01*
G54D19*
X3761032Y1994850D02*
X3801032D01*
X3761032Y1901850D02*
X3801032D01*
X3761032Y2087850D02*
X3801032D01*
G54D22*
X4031032Y1979850D02*
Y2009850D01*
G54D23*
X4327032Y1860850D02*
X4335032D01*
X4327032Y1927850D02*
X4335032D01*
X5302032Y2635850D02*
X5310032D01*
X5302032Y2702850D02*
X5310032D01*
G54D11*
X4733082Y3044850D02*
X4738982D01*
X4823082D02*
X4828982D01*
X3208082Y3094850D02*
X3213982D01*
X3298082D02*
X3303982D01*
G54D16*
X4956032Y2996850D03*
Y2941850D03*
X4731032Y1866850D03*
Y1921850D03*
X4906032Y2941850D03*
Y2996850D03*
X5006032Y2941850D03*
Y2996850D03*
X4106032Y3141850D03*
Y3196850D03*
X4481032Y2941850D03*
Y2996850D03*
X4606032Y2941850D03*
Y2996850D03*
X4656032Y2941850D03*
Y2996850D03*
X4556032Y2941850D03*
Y2996850D03*
X5056032Y2941850D03*
Y2996850D03*
X5106032D03*
Y2941850D03*
X5156032Y2996850D03*
Y2941850D03*
X3856032Y3141850D03*
Y3196850D03*
X3806032Y716850D03*
Y771850D03*
X3956032Y716850D03*
Y771850D03*
X4981032Y2674850D03*
Y2619850D03*
X3606032Y1046850D03*
Y991850D03*
X4006032Y716850D03*
Y771850D03*
X3906032D03*
Y716850D03*
X3856032Y771850D03*
Y716850D03*
X3906032Y3141850D03*
Y3196850D03*
X4156032D03*
Y3141850D03*
X4206032D03*
Y3196850D03*
X4431032Y1866850D03*
Y1921850D03*
X4681032Y1866850D03*
Y1921850D03*
X4381032Y1866850D03*
Y1921850D03*
X3806032Y1596850D03*
Y1541850D03*
X3681032Y1046850D03*
Y991850D03*
X4756032Y2671850D03*
Y2616850D03*
X4681032Y2741850D03*
Y2796850D03*
X4831032Y2671850D03*
Y2616850D03*
X3881032Y2766850D03*
Y2821850D03*
X4031032Y3141850D03*
Y3196850D03*
X4406032Y2941850D03*
Y2996850D03*
X4606032Y2741850D03*
Y2796850D03*
X3631032Y2816850D03*
Y2871850D03*
Y2771850D03*
Y2716850D03*
X2981032Y2696850D03*
Y2641850D03*
G54D24*
X4905047Y2856850D02*
X4907017D01*
X5004047Y2819850D02*
X5006017D01*
X4905047Y2781850D02*
X4907017D01*
G54D25*
X3501032Y2065125D02*
Y2074575D01*
X3661032Y2065125D02*
Y2074575D01*
G54D11*
X4906032Y2596900D02*
Y2602800D01*
Y2686900D02*
Y2692800D01*
G54D20*
X4431032Y1314850D02*
Y1324850D01*
X4541032Y1314850D02*
Y1324850D01*
X4431032Y1214850D02*
Y1224850D01*
X4541032Y1214850D02*
Y1224850D01*
G54D26*
X4140032Y2996100D02*
Y3027600D01*
X4160032Y2996100D02*
Y3027600D01*
X4219032Y2996100D02*
Y3027600D01*
X4199032Y2996100D02*
Y3027600D01*
X4180032Y2996100D02*
Y3027600D01*
X4140032Y2661100D02*
Y2692600D01*
X4042032Y2996100D02*
Y3027600D01*
X4160032Y2661100D02*
Y2692600D01*
X4219032Y2661100D02*
Y2692600D01*
X4042032Y2661100D02*
Y2692600D01*
X4101032Y2996100D02*
Y3027600D01*
X4239032Y2996100D02*
Y3027600D01*
X4062032Y2661100D02*
Y2692600D01*
X4101032Y2661100D02*
Y2692600D01*
X4081032Y2661100D02*
Y2692600D01*
X4022032Y2661100D02*
Y2692600D01*
X4121032Y2661100D02*
Y2692600D01*
X4022032Y2996100D02*
Y3027600D01*
X4062032Y2996100D02*
Y3027600D01*
X4180032Y2661100D02*
Y2692600D01*
X4121032Y2996100D02*
Y3027600D01*
X4081032Y2996100D02*
Y3027600D01*
X4199032Y2661100D02*
Y2692600D01*
X4239032Y2661100D02*
Y2692600D01*
X3947282Y2775850D02*
X3978782D01*
X3947282Y2814850D02*
X3978782D01*
X4282282Y2932850D02*
X4313782D01*
X3947282Y2893850D02*
X3978782D01*
X3947282Y2755850D02*
X3978782D01*
X4282282Y2834850D02*
X4313782D01*
X3947282Y2912850D02*
X3978782D01*
X3947282Y2932850D02*
X3978782D01*
X4282282Y2814850D02*
X4313782D01*
X3947282Y2873850D02*
X3978782D01*
X3947282Y2853850D02*
X3978782D01*
X4282282Y2912850D02*
X4313782D01*
X3947282Y2834850D02*
X3978782D01*
X4282282Y2755850D02*
X4313782D01*
X4282282Y2775850D02*
X4313782D01*
X4282282Y2735850D02*
X4313782D01*
X3947282D02*
X3978782D01*
X4282282Y2873850D02*
X4313782D01*
X4282282Y2893850D02*
X4313782D01*
X4282282Y2794850D02*
X4313782D01*
X4282282Y2853850D02*
X4313782D01*
X3947282Y2952850D02*
X3978782D01*
X3947282Y2794850D02*
X3978782D01*
X4282282Y2952850D02*
X4313782D01*
G54D27*
X3768897Y1291850D02*
X3827167D01*
X3768897Y1075850D02*
X3827167D01*
X4233897Y1252850D02*
X4292167D01*
X4233897Y1232850D02*
X4292167D01*
X3768897Y1272850D02*
X3827167D01*
X3768897Y996850D02*
X3827167D01*
X3768897Y1016850D02*
X3827167D01*
X3768897Y1035850D02*
X3827167D01*
X3768897Y1055850D02*
X3827167D01*
X3768897Y1094850D02*
X3827167D01*
X3768897Y1114850D02*
X3827167D01*
X3768897Y1134850D02*
X3827167D01*
X3768897Y1153850D02*
X3827167D01*
X3768897Y1173850D02*
X3827167D01*
X3768897Y1193850D02*
X3827167D01*
X3768897Y1213850D02*
X3827167D01*
X3768897Y1232850D02*
X3827167D01*
X3768897Y1252850D02*
X3827167D01*
X4233897Y1291850D02*
X4292167D01*
X4233897Y1271850D02*
X4292167D01*
X4233897Y1212850D02*
X4292167D01*
X4233897Y1193850D02*
X4292167D01*
X4233897Y1173850D02*
X4292167D01*
X4233897Y1153850D02*
X4292167D01*
X4233897Y1134850D02*
X4292167D01*
X4233897Y1114850D02*
X4292167D01*
X4233897Y1094850D02*
X4292167D01*
X4233897Y1074850D02*
X4292167D01*
X4233897Y1055850D02*
X4292167D01*
X4233897Y1035850D02*
X4292167D01*
X4233897Y1015850D02*
X4292167D01*
X4233897Y996850D02*
X4292167D01*
X3883032Y882715D02*
Y940985D01*
X3903032Y882715D02*
Y940985D01*
X4021032Y882715D02*
Y940985D01*
X4080032Y882715D02*
Y940985D01*
X4040032Y882715D02*
Y940985D01*
X3883032Y1347715D02*
Y1405985D01*
X3903032Y1347715D02*
Y1405985D01*
X3922032Y1347715D02*
Y1405985D01*
X3942032Y1347715D02*
Y1405985D01*
X3962032Y1347715D02*
Y1405985D01*
X3981032Y1347715D02*
Y1405985D01*
X4001032Y1347715D02*
Y1405985D01*
X4021032Y1347715D02*
Y1405985D01*
X4040032Y1347715D02*
Y1405985D01*
X4060032Y1347715D02*
Y1405985D01*
X4080032Y1347715D02*
Y1405985D01*
X4100032Y1347715D02*
Y1405985D01*
X4119032Y1347715D02*
Y1405985D01*
X4139032Y1347715D02*
Y1405985D01*
X4159032Y1347715D02*
Y1405985D01*
X4178032Y1347715D02*
Y1405985D01*
Y882715D02*
Y940985D01*
X4159032Y882715D02*
Y940985D01*
X4139032Y882715D02*
Y940985D01*
X4119032Y882715D02*
Y940985D01*
X4100032Y882715D02*
Y940985D01*
X4060032Y882715D02*
Y940985D01*
X4001032Y882715D02*
Y940985D01*
X3981032Y882715D02*
Y940985D01*
X3962032Y882715D02*
Y940985D01*
X3942032Y882715D02*
Y940985D01*
X3922032Y882715D02*
Y940985D01*
G36*
X4287932Y1332250D02*
X4218432Y1401750D01*
X4246132Y1429450D01*
X4315632Y1359950D01*
X4287932Y1332250D01*
G37*
G36*
X3814932Y859250D02*
X3745432Y928750D01*
X3773132Y956450D01*
X3842632Y886950D01*
X3814932Y859250D01*
G37*
G36*
X4218432Y886950D02*
X4287932Y956450D01*
X4315632Y928750D01*
X4246132Y859250D01*
X4218432Y886950D01*
G37*
G36*
X3745432Y1359950D02*
X3814932Y1429450D01*
X3842632Y1401750D01*
X3773132Y1332250D01*
X3745432Y1359950D01*
G37*
G54D28*
X3501032Y2479850D03*
X3499032Y2478850D01*
X3498032D01*
X3496032D01*
X3495032D01*
X3494032Y2477850D01*
X3493032D01*
X3491032Y2476850D01*
X3490032D01*
X3489032Y2475850D01*
X3488032Y2474850D01*
X3487032Y2473850D01*
X3486032Y2472850D01*
X3485032Y2471850D01*
X3484032Y2470850D01*
Y2469850D01*
X3483032Y2467850D01*
X3482032Y2466850D01*
Y2465850D01*
X3481032Y2464850D01*
Y2462850D01*
Y2461850D01*
Y2460850D01*
Y2458850D01*
Y2457850D01*
Y2455850D01*
Y2454850D01*
X3482032Y2453850D01*
Y2451850D01*
X3483032Y2450850D01*
X3484032Y2449850D01*
Y2448850D01*
X3485032Y2447850D01*
X3486032Y2446850D01*
X3487032Y2445850D01*
X3488032Y2444850D01*
X3489032Y2443850D01*
X3490032Y2442850D01*
X3491032Y2441850D01*
X3493032D01*
X3494032Y2440850D01*
X3495032D01*
X3496032D01*
X3498032Y2439850D01*
X3499032D01*
X3501032D01*
X4431032Y2479850D03*
X4429032Y2478850D01*
X4428032D01*
X4426032D01*
X4425032D01*
X4424032Y2477850D01*
X4422032D01*
X4421032Y2476850D01*
X4420032D01*
X4419032Y2475850D01*
X4418032Y2474850D01*
X4417032Y2473850D01*
X4416032Y2472850D01*
X4415032Y2471850D01*
X4414032Y2470850D01*
X4413032Y2469850D01*
Y2467850D01*
X4412032Y2466850D01*
Y2465850D01*
X4411032Y2464850D01*
Y2462850D01*
Y2461850D01*
Y2460850D01*
Y2458850D01*
Y2457850D01*
Y2455850D01*
Y2454850D01*
X4412032Y2453850D01*
Y2451850D01*
X4413032Y2450850D01*
Y2449850D01*
X4414032Y2448850D01*
X4415032Y2447850D01*
X4416032Y2446850D01*
X4417032Y2445850D01*
X4418032Y2444850D01*
X4419032Y2443850D01*
X4420032Y2442850D01*
X4421032Y2441850D01*
X4422032D01*
X4424032Y2440850D01*
X4425032D01*
X4426032D01*
X4428032Y2439850D01*
X4429032D01*
X4431032D01*
X4719032D03*
X4720032D01*
X4722032D01*
X4723032Y2440850D01*
X4725032D01*
X4726032D01*
X4727032Y2441850D01*
X4728032D01*
X4730032Y2442850D01*
X4731032Y2443850D01*
X4732032Y2444850D01*
X4733032Y2445850D01*
X4734032Y2446850D01*
X4735032Y2447850D01*
Y2448850D01*
X4736032Y2449850D01*
X4737032Y2450850D01*
Y2451850D01*
X4738032Y2453850D01*
Y2454850D01*
Y2455850D01*
X4739032Y2457850D01*
Y2458850D01*
Y2460850D01*
Y2461850D01*
X4738032Y2462850D01*
Y2464850D01*
Y2465850D01*
X4737032Y2466850D01*
Y2467850D01*
X4736032Y2469850D01*
X4735032Y2470850D01*
Y2471850D01*
X4734032Y2472850D01*
X4733032Y2473850D01*
X4732032Y2474850D01*
X4731032Y2475850D01*
X4730032Y2476850D01*
X4728032D01*
X4727032Y2477850D01*
X4726032D01*
X4725032Y2478850D01*
X4723032D01*
X4722032D01*
X4720032Y2479850D01*
X4719032D01*
X4879032D03*
X4877032Y2478850D01*
X4876032D01*
X4874032D01*
X4873032D01*
X4872032Y2477850D01*
X4871032D01*
X4869032Y2476850D01*
X4868032D01*
X4867032Y2475850D01*
X4866032Y2474850D01*
X4865032Y2473850D01*
X4864032Y2472850D01*
X4863032Y2471850D01*
X4862032Y2470850D01*
X4861032Y2469850D01*
Y2467850D01*
X4860032Y2466850D01*
Y2465850D01*
X4859032Y2464850D01*
Y2462850D01*
Y2461850D01*
Y2460850D01*
Y2458850D01*
Y2457850D01*
Y2455850D01*
Y2454850D01*
X4860032Y2453850D01*
Y2451850D01*
X4861032Y2450850D01*
Y2449850D01*
X4862032Y2448850D01*
X4863032Y2447850D01*
X4864032Y2446850D01*
X4865032Y2445850D01*
X4866032Y2444850D01*
X4867032Y2443850D01*
X4868032Y2442850D01*
X4869032Y2441850D01*
X4871032D01*
X4872032Y2440850D01*
X4873032D01*
X4874032D01*
X4876032Y2439850D01*
X4877032D01*
X4879032D01*
X3363032D03*
X3364032D01*
X3366032D01*
X3367032Y2440850D01*
X3368032D01*
X3370032D01*
X3371032Y2441850D01*
X3372032D01*
X3373032Y2442850D01*
X3374032Y2443850D01*
X3375032Y2444850D01*
X3376032Y2445850D01*
X3377032Y2446850D01*
X3378032Y2447850D01*
X3379032Y2448850D01*
X3380032Y2449850D01*
Y2450850D01*
X3381032Y2451850D01*
X3382032Y2453850D01*
Y2454850D01*
Y2455850D01*
Y2457850D01*
Y2458850D01*
Y2460850D01*
Y2461850D01*
Y2462850D01*
Y2464850D01*
Y2465850D01*
X3381032Y2466850D01*
X3380032Y2467850D01*
Y2469850D01*
X3379032Y2470850D01*
X3378032Y2471850D01*
X3377032Y2472850D01*
X3376032Y2473850D01*
X3375032Y2474850D01*
X3374032Y2475850D01*
X3373032Y2476850D01*
X3372032D01*
X3371032Y2477850D01*
X3370032D01*
X3368032Y2478850D01*
X3367032D01*
X3366032D01*
X3364032Y2479850D01*
X3363032D01*
X4249032Y2439850D03*
X4250032D01*
X4251032D01*
X4253032Y2440850D01*
X4254032D01*
X4255032D01*
X4257032Y2441850D01*
X4258032D01*
X4259032Y2442850D01*
X4260032Y2443850D01*
X4261032Y2444850D01*
X4262032Y2445850D01*
X4263032Y2446850D01*
X4264032Y2447850D01*
X4265032Y2448850D01*
X4266032Y2449850D01*
Y2450850D01*
X4267032Y2451850D01*
Y2453850D01*
X4268032Y2454850D01*
Y2455850D01*
Y2457850D01*
Y2458850D01*
Y2460850D01*
Y2461850D01*
Y2462850D01*
Y2464850D01*
X4267032Y2465850D01*
Y2466850D01*
X4266032Y2467850D01*
Y2469850D01*
X4265032Y2470850D01*
X4264032Y2471850D01*
X4263032Y2472850D01*
X4262032Y2473850D01*
X4261032Y2474850D01*
X4260032Y2475850D01*
X4259032Y2476850D01*
X4258032D01*
X4257032Y2477850D01*
X4255032D01*
X4254032Y2478850D01*
X4253032D01*
X4251032D01*
X4250032Y2479850D01*
X4249032D01*
X2832032Y3443850D03*
X2827032D01*
X2821032Y3442850D01*
X2816032Y3441850D01*
X2811032Y3440850D01*
X2805032Y3438850D01*
X2800032Y3436850D01*
X2795032Y3434850D01*
X2791032Y3431850D01*
X2786032Y3428850D01*
X2782032Y3425850D01*
X2778032Y3421850D01*
X2774032Y3417850D01*
X2770032Y3413850D01*
X2767032Y3408850D01*
X2764032Y3404850D01*
X2762032Y3399850D01*
X2759032Y3394850D01*
X2757032Y3389850D01*
X2756032Y3383850D01*
X2755032Y3378850D01*
X2754032Y3373850D01*
Y3367850D01*
Y3364850D01*
Y354850D03*
Y348850D01*
Y343850D01*
X2755032Y337850D01*
X2757032Y332850D01*
X2758032Y327850D01*
X2760032Y322850D01*
X2763032Y317850D01*
X2766032Y312850D01*
X2769032Y307850D01*
X2772032Y303850D01*
X2776032Y299850D01*
X2780032Y295850D01*
X2784032Y292850D01*
X2788032Y288850D01*
X2793032Y285850D01*
X2798032Y283850D01*
X2803032Y281850D01*
X2808032Y279850D01*
X2813032Y277850D01*
X2819032Y276850D01*
X2824032Y275850D01*
X2830032D01*
X2832032D01*
X5508032Y3364850D03*
Y3370850D01*
Y3375850D01*
X5507032Y3381850D01*
X5505032Y3386850D01*
X5504032Y3391850D01*
X5502032Y3396850D01*
X5499032Y3401850D01*
X5496032Y3406850D01*
X5493032Y3411850D01*
X5490032Y3415850D01*
X5486032Y3419850D01*
X5482032Y3423850D01*
X5478032Y3426850D01*
X5474032Y3430850D01*
X5469032Y3433850D01*
X5464032Y3435850D01*
X5459032Y3437850D01*
X5454032Y3439850D01*
X5449032Y3441850D01*
X5443032Y3442850D01*
X5438032Y3443850D01*
X5432032D01*
X5430032D01*
Y275850D03*
X5435032D01*
X5441032Y276850D01*
X5446032Y277850D01*
X5451032Y278850D01*
X5457032Y280850D01*
X5462032Y282850D01*
X5467032Y284850D01*
X5471032Y287850D01*
X5476032Y290850D01*
X5480032Y293850D01*
X5484032Y297850D01*
X5488032Y301850D01*
X5492032Y305850D01*
X5495032Y310850D01*
X5498032Y314850D01*
X5500032Y319850D01*
X5503032Y324850D01*
X5505032Y329850D01*
X5506032Y335850D01*
X5507032Y340850D01*
X5508032Y345850D01*
Y351850D01*
Y354850D01*
X4583032Y196850D02*
X4662032Y275850D01*
X4583032Y196850D03*
X3284032D02*
X4583032D01*
X3205032Y275850D02*
X3284032Y196850D01*
X3200032Y275850D02*
X3205032D01*
X4661032D02*
X5430032D01*
X4431032Y2439850D02*
X4719032D01*
X4431032Y2479850D02*
X4719032D01*
X2832032Y3443850D02*
X5430032D01*
X2832032Y275850D02*
X3200032D01*
X2754032Y2479850D02*
X3363032D01*
X2754032Y2439850D02*
X3363032D01*
X3501032D02*
X4249032D01*
X3501032Y2479850D02*
X4249032D01*
X4879032Y2439850D02*
X5508032D01*
X4879032Y2479850D02*
X5508032D01*
X2754032Y354850D02*
Y2439850D01*
Y2479850D02*
Y3364850D01*
X5508032Y354850D02*
Y2439850D01*
Y2479850D02*
Y3364850D01*
G36*
X7105061Y1907850D02*
X7085061Y1887850D01*
X7065061Y1907850D01*
Y1917850D01*
X7105061D01*
Y1907850D01*
G37*
G36*
Y1867850D02*
X7065061D01*
Y1897850D01*
X7085061Y1877850D01*
X7105061Y1897850D01*
Y1867850D01*
G37*
G36*
X8080061Y2682850D02*
X8060061Y2662850D01*
X8040061Y2682850D01*
Y2692850D01*
X8080061D01*
Y2682850D01*
G37*
G36*
Y2642850D02*
X8040061D01*
Y2672850D01*
X8060061Y2652850D01*
X8080061Y2672850D01*
Y2642850D01*
G37*
G54D10*
X7914061Y3245975D02*
Y3261725D01*
Y3126975D02*
Y3142725D01*
X7855061Y3126975D02*
Y3142725D01*
Y3245975D02*
Y3261725D01*
G54D11*
X7257076Y1931850D02*
X7259046D01*
X7257076Y1894850D02*
X7259046D01*
X7360076Y1931850D02*
X7362046D01*
X7360076Y1856850D02*
X7362046D01*
X7360076Y1894850D02*
X7362046D01*
X7257076Y1856850D02*
X7259046D01*
G54D12*
X7310061Y1879100D02*
Y1910600D01*
G54D13*
X6273061Y1894260D02*
Y1945440D01*
X6396061Y1894260D02*
Y1945440D01*
G54D14*
X7550061Y3326320D02*
Y3385380D01*
X7168061Y3326320D02*
Y3385380D01*
X7550061Y3129320D02*
Y3188380D01*
X7168061Y3129320D02*
Y3188380D01*
G54D12*
X7261631Y3400850D02*
X7458491D01*
G54D15*
X7296061Y3125575D02*
Y3196125D01*
X7328061Y3125575D02*
Y3196125D01*
X7359061Y3125575D02*
Y3196125D01*
X7391061Y3125575D02*
Y3196125D01*
X7422061Y3125575D02*
Y3196125D01*
G54D16*
X7207061Y944850D03*
X7262061D03*
X7232061Y1744850D03*
X7287061D03*
X7207061Y994850D03*
X7262061D03*
X6382061Y1569850D03*
X6437061D03*
X7262061Y2744850D03*
X7207061D03*
X6262061Y2694850D03*
X6207061D03*
X6262061Y2744850D03*
X6207061D03*
X7262061Y2794850D03*
X7207061D03*
X6207061Y2844850D03*
X6262061D03*
X6037061Y2794850D03*
X5982061D03*
X6037061Y2869850D03*
X5982061D03*
X6037061Y2944850D03*
X5982061D03*
X6037061Y3019850D03*
X5982061D03*
X6262061Y2919850D03*
X6207061D03*
X6037061Y3169850D03*
X5982061D03*
X6912061Y2319850D03*
X6857061D03*
X6912061Y2169850D03*
X6857061D03*
X7357061Y1744850D03*
X7412061D03*
X6375061Y1693850D03*
X6430061D03*
X6922061Y774850D03*
X6867061D03*
X7238061Y1394850D03*
X7183061D03*
X6912061Y2394850D03*
X6857061D03*
X6732061Y444850D03*
X6787061D03*
X6687061D03*
X6632061D03*
X6487061Y404850D03*
X6432061D03*
X6857061Y2244850D03*
X6912061D03*
X6487061Y719850D03*
X6432061D03*
X7562061Y2944850D03*
X7507061D03*
X7562061Y2994850D03*
X7507061D03*
X7012061Y2594850D03*
X6957061D03*
X6262061Y2794850D03*
X6207061D03*
G54D17*
X7572061Y2840850D02*
Y2854850D01*
X7497061Y2840850D02*
Y2854850D01*
X7535061Y2840850D02*
Y2854850D01*
X7497061Y2733850D02*
Y2747850D01*
X7572061Y2733850D02*
Y2747850D01*
G54D18*
X6189251Y481850D02*
X6212871D01*
X6189251Y606850D02*
X6212871D01*
X6406251D02*
X6429871D01*
X6406251Y481850D02*
X6429871D01*
G54D19*
X7022061Y2206850D02*
X7042061D01*
X7022061Y2381850D02*
X7042061D01*
X7377061D02*
X7397061D01*
X7377061Y2206850D02*
X7397061D01*
X6727061Y2381850D02*
X6747061D01*
X6727061Y2206850D02*
X6747061D01*
X6372061D02*
X6392061D01*
X6372061Y2381850D02*
X6392061D01*
G54D20*
X6635061Y1565850D02*
X6645061D01*
X6635061Y1675850D02*
X6645061D01*
X6905061Y2044850D02*
X6915061D01*
X6905061Y1934850D02*
X6915061D01*
G54D21*
X7985061Y2535355D02*
Y2598345D01*
X7835061Y2740355D02*
Y2803345D01*
X7935061Y2535355D02*
Y2598345D01*
X7885061Y2535355D02*
Y2598345D01*
X7935061Y2740355D02*
Y2803345D01*
X7885061Y2740355D02*
Y2803345D01*
X7835061Y2535355D02*
Y2598345D01*
X7985061Y2740355D02*
Y2803345D01*
G54D19*
X6515061Y1994850D02*
X6555061D01*
X6515061Y1901850D02*
X6555061D01*
X6515061Y2087850D02*
X6555061D01*
G54D22*
X6785061Y1979850D02*
Y2009850D01*
G54D23*
X7081061Y1860850D02*
X7089061D01*
X7081061Y1927850D02*
X7089061D01*
X8056061Y2635850D02*
X8064061D01*
X8056061Y2702850D02*
X8064061D01*
G54D11*
X7487111Y3044850D02*
X7493011D01*
X7577111D02*
X7583011D01*
X5962111Y3094850D02*
X5968011D01*
X6052111D02*
X6058011D01*
G54D16*
X7710061Y2996850D03*
Y2941850D03*
X7485061Y1866850D03*
Y1921850D03*
X7660061Y2941850D03*
Y2996850D03*
X7760061Y2941850D03*
Y2996850D03*
X6860061Y3141850D03*
Y3196850D03*
X7235061Y2941850D03*
Y2996850D03*
X7360061Y2941850D03*
Y2996850D03*
X7410061Y2941850D03*
Y2996850D03*
X7310061Y2941850D03*
Y2996850D03*
X7810061Y2941850D03*
Y2996850D03*
X7860061D03*
Y2941850D03*
X7910061Y2996850D03*
Y2941850D03*
X6610061Y3141850D03*
Y3196850D03*
X6560061Y716850D03*
Y771850D03*
X6710061Y716850D03*
Y771850D03*
X7735061Y2674850D03*
Y2619850D03*
X6360061Y1046850D03*
Y991850D03*
X6760061Y716850D03*
Y771850D03*
X6660061D03*
Y716850D03*
X6610061Y771850D03*
Y716850D03*
X6660061Y3141850D03*
Y3196850D03*
X6910061D03*
Y3141850D03*
X6960061D03*
Y3196850D03*
X7185061Y1866850D03*
Y1921850D03*
X7435061Y1866850D03*
Y1921850D03*
X7135061Y1866850D03*
Y1921850D03*
X6560061Y1596850D03*
Y1541850D03*
X6435061Y1046850D03*
Y991850D03*
X7510061Y2671850D03*
Y2616850D03*
X7435061Y2741850D03*
Y2796850D03*
X7585061Y2671850D03*
Y2616850D03*
X6635061Y2766850D03*
Y2821850D03*
X6785061Y3141850D03*
Y3196850D03*
X7160061Y2941850D03*
Y2996850D03*
X7360061Y2741850D03*
Y2796850D03*
X6385061Y2816850D03*
Y2871850D03*
Y2771850D03*
Y2716850D03*
X5735061Y2696850D03*
Y2641850D03*
G54D24*
X7659076Y2856850D02*
X7661046D01*
X7758076Y2819850D02*
X7760046D01*
X7659076Y2781850D02*
X7661046D01*
G54D25*
X6255061Y2065125D02*
Y2074575D01*
X6415061Y2065125D02*
Y2074575D01*
G54D11*
X7660061Y2596900D02*
Y2602800D01*
Y2686900D02*
Y2692800D01*
G54D20*
X7185061Y1314850D02*
Y1324850D01*
X7295061Y1314850D02*
Y1324850D01*
X7185061Y1214850D02*
Y1224850D01*
X7295061Y1214850D02*
Y1224850D01*
G54D26*
X6894061Y2996100D02*
Y3027600D01*
X6914061Y2996100D02*
Y3027600D01*
X6973061Y2996100D02*
Y3027600D01*
X6953061Y2996100D02*
Y3027600D01*
X6934061Y2996100D02*
Y3027600D01*
X6894061Y2661100D02*
Y2692600D01*
X6796061Y2996100D02*
Y3027600D01*
X6914061Y2661100D02*
Y2692600D01*
X6973061Y2661100D02*
Y2692600D01*
X6796061Y2661100D02*
Y2692600D01*
X6855061Y2996100D02*
Y3027600D01*
X6993061Y2996100D02*
Y3027600D01*
X6816061Y2661100D02*
Y2692600D01*
X6855061Y2661100D02*
Y2692600D01*
X6835061Y2661100D02*
Y2692600D01*
X6776061Y2661100D02*
Y2692600D01*
X6875061Y2661100D02*
Y2692600D01*
X6776061Y2996100D02*
Y3027600D01*
X6816061Y2996100D02*
Y3027600D01*
X6934061Y2661100D02*
Y2692600D01*
X6875061Y2996100D02*
Y3027600D01*
X6835061Y2996100D02*
Y3027600D01*
X6953061Y2661100D02*
Y2692600D01*
X6993061Y2661100D02*
Y2692600D01*
X6701311Y2775850D02*
X6732811D01*
X6701311Y2814850D02*
X6732811D01*
X7036311Y2932850D02*
X7067811D01*
X6701311Y2893850D02*
X6732811D01*
X6701311Y2755850D02*
X6732811D01*
X7036311Y2834850D02*
X7067811D01*
X6701311Y2912850D02*
X6732811D01*
X6701311Y2932850D02*
X6732811D01*
X7036311Y2814850D02*
X7067811D01*
X6701311Y2873850D02*
X6732811D01*
X6701311Y2853850D02*
X6732811D01*
X7036311Y2912850D02*
X7067811D01*
X6701311Y2834850D02*
X6732811D01*
X7036311Y2755850D02*
X7067811D01*
X7036311Y2775850D02*
X7067811D01*
X7036311Y2735850D02*
X7067811D01*
X6701311D02*
X6732811D01*
X7036311Y2873850D02*
X7067811D01*
X7036311Y2893850D02*
X7067811D01*
X7036311Y2794850D02*
X7067811D01*
X7036311Y2853850D02*
X7067811D01*
X6701311Y2952850D02*
X6732811D01*
X6701311Y2794850D02*
X6732811D01*
X7036311Y2952850D02*
X7067811D01*
G54D27*
X6522926Y1291850D02*
X6581196D01*
X6522926Y1075850D02*
X6581196D01*
X6987926Y1252850D02*
X7046196D01*
X6987926Y1232850D02*
X7046196D01*
X6522926Y1272850D02*
X6581196D01*
X6522926Y996850D02*
X6581196D01*
X6522926Y1016850D02*
X6581196D01*
X6522926Y1035850D02*
X6581196D01*
X6522926Y1055850D02*
X6581196D01*
X6522926Y1094850D02*
X6581196D01*
X6522926Y1114850D02*
X6581196D01*
X6522926Y1134850D02*
X6581196D01*
X6522926Y1153850D02*
X6581196D01*
X6522926Y1173850D02*
X6581196D01*
X6522926Y1193850D02*
X6581196D01*
X6522926Y1213850D02*
X6581196D01*
X6522926Y1232850D02*
X6581196D01*
X6522926Y1252850D02*
X6581196D01*
X6987926Y1291850D02*
X7046196D01*
X6987926Y1271850D02*
X7046196D01*
X6987926Y1212850D02*
X7046196D01*
X6987926Y1193850D02*
X7046196D01*
X6987926Y1173850D02*
X7046196D01*
X6987926Y1153850D02*
X7046196D01*
X6987926Y1134850D02*
X7046196D01*
X6987926Y1114850D02*
X7046196D01*
X6987926Y1094850D02*
X7046196D01*
X6987926Y1074850D02*
X7046196D01*
X6987926Y1055850D02*
X7046196D01*
X6987926Y1035850D02*
X7046196D01*
X6987926Y1015850D02*
X7046196D01*
X6987926Y996850D02*
X7046196D01*
X6637061Y882715D02*
Y940985D01*
X6657061Y882715D02*
Y940985D01*
X6775061Y882715D02*
Y940985D01*
X6834061Y882715D02*
Y940985D01*
X6794061Y882715D02*
Y940985D01*
X6637061Y1347715D02*
Y1405985D01*
X6657061Y1347715D02*
Y1405985D01*
X6676061Y1347715D02*
Y1405985D01*
X6696061Y1347715D02*
Y1405985D01*
X6716061Y1347715D02*
Y1405985D01*
X6735061Y1347715D02*
Y1405985D01*
X6755061Y1347715D02*
Y1405985D01*
X6775061Y1347715D02*
Y1405985D01*
X6794061Y1347715D02*
Y1405985D01*
X6814061Y1347715D02*
Y1405985D01*
X6834061Y1347715D02*
Y1405985D01*
X6854061Y1347715D02*
Y1405985D01*
X6873061Y1347715D02*
Y1405985D01*
X6893061Y1347715D02*
Y1405985D01*
X6913061Y1347715D02*
Y1405985D01*
X6932061Y1347715D02*
Y1405985D01*
Y882715D02*
Y940985D01*
X6913061Y882715D02*
Y940985D01*
X6893061Y882715D02*
Y940985D01*
X6873061Y882715D02*
Y940985D01*
X6854061Y882715D02*
Y940985D01*
X6814061Y882715D02*
Y940985D01*
X6755061Y882715D02*
Y940985D01*
X6735061Y882715D02*
Y940985D01*
X6716061Y882715D02*
Y940985D01*
X6696061Y882715D02*
Y940985D01*
X6676061Y882715D02*
Y940985D01*
G36*
X7041961Y1332250D02*
X6972461Y1401750D01*
X7000161Y1429450D01*
X7069661Y1359950D01*
X7041961Y1332250D01*
G37*
G36*
X6568961Y859250D02*
X6499461Y928750D01*
X6527161Y956450D01*
X6596661Y886950D01*
X6568961Y859250D01*
G37*
G36*
X6972461Y886950D02*
X7041961Y956450D01*
X7069661Y928750D01*
X7000161Y859250D01*
X6972461Y886950D01*
G37*
G36*
X6499461Y1359950D02*
X6568961Y1429450D01*
X6596661Y1401750D01*
X6527161Y1332250D01*
X6499461Y1359950D01*
G37*
G54D28*
X6255061Y2479850D03*
X6253061Y2478850D01*
X6252061D01*
X6250061D01*
X6249061D01*
X6248061Y2477850D01*
X6247061D01*
X6245061Y2476850D01*
X6244061D01*
X6243061Y2475850D01*
X6242061Y2474850D01*
X6241061Y2473850D01*
X6240061Y2472850D01*
X6239061Y2471850D01*
X6238061Y2470850D01*
Y2469850D01*
X6237061Y2467850D01*
X6236061Y2466850D01*
Y2465850D01*
X6235061Y2464850D01*
Y2462850D01*
Y2461850D01*
Y2460850D01*
Y2458850D01*
Y2457850D01*
Y2455850D01*
Y2454850D01*
X6236061Y2453850D01*
Y2451850D01*
X6237061Y2450850D01*
X6238061Y2449850D01*
Y2448850D01*
X6239061Y2447850D01*
X6240061Y2446850D01*
X6241061Y2445850D01*
X6242061Y2444850D01*
X6243061Y2443850D01*
X6244061Y2442850D01*
X6245061Y2441850D01*
X6247061D01*
X6248061Y2440850D01*
X6249061D01*
X6250061D01*
X6252061Y2439850D01*
X6253061D01*
X6255061D01*
X7185061Y2479850D03*
X7183061Y2478850D01*
X7182061D01*
X7180061D01*
X7179061D01*
X7178061Y2477850D01*
X7176061D01*
X7175061Y2476850D01*
X7174061D01*
X7173061Y2475850D01*
X7172061Y2474850D01*
X7171061Y2473850D01*
X7170061Y2472850D01*
X7169061Y2471850D01*
X7168061Y2470850D01*
X7167061Y2469850D01*
Y2467850D01*
X7166061Y2466850D01*
Y2465850D01*
X7165061Y2464850D01*
Y2462850D01*
Y2461850D01*
Y2460850D01*
Y2458850D01*
Y2457850D01*
Y2455850D01*
Y2454850D01*
X7166061Y2453850D01*
Y2451850D01*
X7167061Y2450850D01*
Y2449850D01*
X7168061Y2448850D01*
X7169061Y2447850D01*
X7170061Y2446850D01*
X7171061Y2445850D01*
X7172061Y2444850D01*
X7173061Y2443850D01*
X7174061Y2442850D01*
X7175061Y2441850D01*
X7176061D01*
X7178061Y2440850D01*
X7179061D01*
X7180061D01*
X7182061Y2439850D01*
X7183061D01*
X7185061D01*
X7473061D03*
X7474061D01*
X7476061D01*
X7477061Y2440850D01*
X7479061D01*
X7480061D01*
X7481061Y2441850D01*
X7482061D01*
X7484061Y2442850D01*
X7485061Y2443850D01*
X7486061Y2444850D01*
X7487061Y2445850D01*
X7488061Y2446850D01*
X7489061Y2447850D01*
Y2448850D01*
X7490061Y2449850D01*
X7491061Y2450850D01*
Y2451850D01*
X7492061Y2453850D01*
Y2454850D01*
Y2455850D01*
X7493061Y2457850D01*
Y2458850D01*
Y2460850D01*
Y2461850D01*
X7492061Y2462850D01*
Y2464850D01*
Y2465850D01*
X7491061Y2466850D01*
Y2467850D01*
X7490061Y2469850D01*
X7489061Y2470850D01*
Y2471850D01*
X7488061Y2472850D01*
X7487061Y2473850D01*
X7486061Y2474850D01*
X7485061Y2475850D01*
X7484061Y2476850D01*
X7482061D01*
X7481061Y2477850D01*
X7480061D01*
X7479061Y2478850D01*
X7477061D01*
X7476061D01*
X7474061Y2479850D01*
X7473061D01*
X7633061D03*
X7631061Y2478850D01*
X7630061D01*
X7628061D01*
X7627061D01*
X7626061Y2477850D01*
X7625061D01*
X7623061Y2476850D01*
X7622061D01*
X7621061Y2475850D01*
X7620061Y2474850D01*
X7619061Y2473850D01*
X7618061Y2472850D01*
X7617061Y2471850D01*
X7616061Y2470850D01*
X7615061Y2469850D01*
Y2467850D01*
X7614061Y2466850D01*
Y2465850D01*
X7613061Y2464850D01*
Y2462850D01*
Y2461850D01*
Y2460850D01*
Y2458850D01*
Y2457850D01*
Y2455850D01*
Y2454850D01*
X7614061Y2453850D01*
Y2451850D01*
X7615061Y2450850D01*
Y2449850D01*
X7616061Y2448850D01*
X7617061Y2447850D01*
X7618061Y2446850D01*
X7619061Y2445850D01*
X7620061Y2444850D01*
X7621061Y2443850D01*
X7622061Y2442850D01*
X7623061Y2441850D01*
X7625061D01*
X7626061Y2440850D01*
X7627061D01*
X7628061D01*
X7630061Y2439850D01*
X7631061D01*
X7633061D01*
X6117061D03*
X6118061D01*
X6120061D01*
X6121061Y2440850D01*
X6122061D01*
X6124061D01*
X6125061Y2441850D01*
X6126061D01*
X6127061Y2442850D01*
X6128061Y2443850D01*
X6129061Y2444850D01*
X6130061Y2445850D01*
X6131061Y2446850D01*
X6132061Y2447850D01*
X6133061Y2448850D01*
X6134061Y2449850D01*
Y2450850D01*
X6135061Y2451850D01*
X6136061Y2453850D01*
Y2454850D01*
Y2455850D01*
Y2457850D01*
Y2458850D01*
Y2460850D01*
Y2461850D01*
Y2462850D01*
Y2464850D01*
Y2465850D01*
X6135061Y2466850D01*
X6134061Y2467850D01*
Y2469850D01*
X6133061Y2470850D01*
X6132061Y2471850D01*
X6131061Y2472850D01*
X6130061Y2473850D01*
X6129061Y2474850D01*
X6128061Y2475850D01*
X6127061Y2476850D01*
X6126061D01*
X6125061Y2477850D01*
X6124061D01*
X6122061Y2478850D01*
X6121061D01*
X6120061D01*
X6118061Y2479850D01*
X6117061D01*
X7003061Y2439850D03*
X7004061D01*
X7005061D01*
X7007061Y2440850D01*
X7008061D01*
X7009061D01*
X7011061Y2441850D01*
X7012061D01*
X7013061Y2442850D01*
X7014061Y2443850D01*
X7015061Y2444850D01*
X7016061Y2445850D01*
X7017061Y2446850D01*
X7018061Y2447850D01*
X7019061Y2448850D01*
X7020061Y2449850D01*
Y2450850D01*
X7021061Y2451850D01*
Y2453850D01*
X7022061Y2454850D01*
Y2455850D01*
Y2457850D01*
Y2458850D01*
Y2460850D01*
Y2461850D01*
Y2462850D01*
Y2464850D01*
X7021061Y2465850D01*
Y2466850D01*
X7020061Y2467850D01*
Y2469850D01*
X7019061Y2470850D01*
X7018061Y2471850D01*
X7017061Y2472850D01*
X7016061Y2473850D01*
X7015061Y2474850D01*
X7014061Y2475850D01*
X7013061Y2476850D01*
X7012061D01*
X7011061Y2477850D01*
X7009061D01*
X7008061Y2478850D01*
X7007061D01*
X7005061D01*
X7004061Y2479850D01*
X7003061D01*
X5586061Y3443850D03*
X5581061D01*
X5575061Y3442850D01*
X5570061Y3441850D01*
X5565061Y3440850D01*
X5559061Y3438850D01*
X5554061Y3436850D01*
X5549061Y3434850D01*
X5545061Y3431850D01*
X5540061Y3428850D01*
X5536061Y3425850D01*
X5532061Y3421850D01*
X5528061Y3417850D01*
X5524061Y3413850D01*
X5521061Y3408850D01*
X5518061Y3404850D01*
X5516061Y3399850D01*
X5513061Y3394850D01*
X5511061Y3389850D01*
X5510061Y3383850D01*
X5509061Y3378850D01*
X5508061Y3373850D01*
Y3367850D01*
Y3364850D01*
Y354850D03*
Y348850D01*
Y343850D01*
X5509061Y337850D01*
X5511061Y332850D01*
X5512061Y327850D01*
X5514061Y322850D01*
X5517061Y317850D01*
X5520061Y312850D01*
X5523061Y307850D01*
X5526061Y303850D01*
X5530061Y299850D01*
X5534061Y295850D01*
X5538061Y292850D01*
X5542061Y288850D01*
X5547061Y285850D01*
X5552061Y283850D01*
X5557061Y281850D01*
X5562061Y279850D01*
X5567061Y277850D01*
X5573061Y276850D01*
X5578061Y275850D01*
X5584061D01*
X5586061D01*
X8262061Y3364850D03*
Y3370850D01*
Y3375850D01*
X8261061Y3381850D01*
X8259061Y3386850D01*
X8258061Y3391850D01*
X8256061Y3396850D01*
X8253061Y3401850D01*
X8250061Y3406850D01*
X8247061Y3411850D01*
X8244061Y3415850D01*
X8240061Y3419850D01*
X8236061Y3423850D01*
X8232061Y3426850D01*
X8228061Y3430850D01*
X8223061Y3433850D01*
X8218061Y3435850D01*
X8213061Y3437850D01*
X8208061Y3439850D01*
X8203061Y3441850D01*
X8197061Y3442850D01*
X8192061Y3443850D01*
X8186061D01*
X8184061D01*
Y275850D03*
X8189061D01*
X8195061Y276850D01*
X8200061Y277850D01*
X8205061Y278850D01*
X8211061Y280850D01*
X8216061Y282850D01*
X8221061Y284850D01*
X8225061Y287850D01*
X8230061Y290850D01*
X8234061Y293850D01*
X8238061Y297850D01*
X8242061Y301850D01*
X8246061Y305850D01*
X8249061Y310850D01*
X8252061Y314850D01*
X8254061Y319850D01*
X8257061Y324850D01*
X8259061Y329850D01*
X8260061Y335850D01*
X8261061Y340850D01*
X8262061Y345850D01*
Y351850D01*
Y354850D01*
X7337061Y196850D02*
X7416061Y275850D01*
X7337061Y196850D03*
X6038061D02*
X7337061D01*
X5959061Y275850D02*
X6038061Y196850D01*
X5954061Y275850D02*
X5959061D01*
X7415061D02*
X8184061D01*
X7185061Y2439850D02*
X7473061D01*
X7185061Y2479850D02*
X7473061D01*
X5586061Y3443850D02*
X8184061D01*
X5586061Y275850D02*
X5954061D01*
X5508061Y2479850D02*
X6117061D01*
X5508061Y2439850D02*
X6117061D01*
X6255061D02*
X7003061D01*
X6255061Y2479850D02*
X7003061D01*
X7633061Y2439850D02*
X8262061D01*
X7633061Y2479850D02*
X8262061D01*
X5508061Y354850D02*
Y2439850D01*
Y2479850D02*
Y3364850D01*
X8262061Y354850D02*
Y2439850D01*
Y2479850D02*
Y3364850D01*
G36*
X9859090Y1907850D02*
X9839090Y1887850D01*
X9819090Y1907850D01*
Y1917850D01*
X9859090D01*
Y1907850D01*
G37*
G36*
Y1867850D02*
X9819090D01*
Y1897850D01*
X9839090Y1877850D01*
X9859090Y1897850D01*
Y1867850D01*
G37*
G36*
X10834090Y2682850D02*
X10814090Y2662850D01*
X10794090Y2682850D01*
Y2692850D01*
X10834090D01*
Y2682850D01*
G37*
G36*
Y2642850D02*
X10794090D01*
Y2672850D01*
X10814090Y2652850D01*
X10834090Y2672850D01*
Y2642850D01*
G37*
G54D10*
X10668090Y3245975D02*
Y3261725D01*
Y3126975D02*
Y3142725D01*
X10609090Y3126975D02*
Y3142725D01*
Y3245975D02*
Y3261725D01*
G54D11*
X10011105Y1931850D02*
X10013075D01*
X10011105Y1894850D02*
X10013075D01*
X10114105Y1931850D02*
X10116075D01*
X10114105Y1856850D02*
X10116075D01*
X10114105Y1894850D02*
X10116075D01*
X10011105Y1856850D02*
X10013075D01*
G54D12*
X10064090Y1879100D02*
Y1910600D01*
G54D13*
X9027090Y1894260D02*
Y1945440D01*
X9150090Y1894260D02*
Y1945440D01*
G54D14*
X10304090Y3326320D02*
Y3385380D01*
X9922090Y3326320D02*
Y3385380D01*
X10304090Y3129320D02*
Y3188380D01*
X9922090Y3129320D02*
Y3188380D01*
G54D12*
X10015660Y3400850D02*
X10212520D01*
G54D15*
X10050090Y3125575D02*
Y3196125D01*
X10082090Y3125575D02*
Y3196125D01*
X10113090Y3125575D02*
Y3196125D01*
X10145090Y3125575D02*
Y3196125D01*
X10176090Y3125575D02*
Y3196125D01*
G54D16*
X9961090Y944850D03*
X10016090D03*
X9986090Y1744850D03*
X10041090D03*
X9961090Y994850D03*
X10016090D03*
X9136090Y1569850D03*
X9191090D03*
X10016090Y2744850D03*
X9961090D03*
X9016090Y2694850D03*
X8961090D03*
X9016090Y2744850D03*
X8961090D03*
X10016090Y2794850D03*
X9961090D03*
X8961090Y2844850D03*
X9016090D03*
X8791090Y2794850D03*
X8736090D03*
X8791090Y2869850D03*
X8736090D03*
X8791090Y2944850D03*
X8736090D03*
X8791090Y3019850D03*
X8736090D03*
X9016090Y2919850D03*
X8961090D03*
X8791090Y3169850D03*
X8736090D03*
X9666090Y2319850D03*
X9611090D03*
X9666090Y2169850D03*
X9611090D03*
X10111090Y1744850D03*
X10166090D03*
X9129090Y1693850D03*
X9184090D03*
X9676090Y774850D03*
X9621090D03*
X9992090Y1394850D03*
X9937090D03*
X9666090Y2394850D03*
X9611090D03*
X9486090Y444850D03*
X9541090D03*
X9441090D03*
X9386090D03*
X9241090Y404850D03*
X9186090D03*
X9611090Y2244850D03*
X9666090D03*
X9241090Y719850D03*
X9186090D03*
X10316090Y2944850D03*
X10261090D03*
X10316090Y2994850D03*
X10261090D03*
X9766090Y2594850D03*
X9711090D03*
X9016090Y2794850D03*
X8961090D03*
G54D17*
X10326090Y2840850D02*
Y2854850D01*
X10251090Y2840850D02*
Y2854850D01*
X10289090Y2840850D02*
Y2854850D01*
X10251090Y2733850D02*
Y2747850D01*
X10326090Y2733850D02*
Y2747850D01*
G54D18*
X8943280Y481850D02*
X8966900D01*
X8943280Y606850D02*
X8966900D01*
X9160280D02*
X9183900D01*
X9160280Y481850D02*
X9183900D01*
G54D19*
X9776090Y2206850D02*
X9796090D01*
X9776090Y2381850D02*
X9796090D01*
X10131090D02*
X10151090D01*
X10131090Y2206850D02*
X10151090D01*
X9481090Y2381850D02*
X9501090D01*
X9481090Y2206850D02*
X9501090D01*
X9126090D02*
X9146090D01*
X9126090Y2381850D02*
X9146090D01*
G54D20*
X9389090Y1565850D02*
X9399090D01*
X9389090Y1675850D02*
X9399090D01*
X9659090Y2044850D02*
X9669090D01*
X9659090Y1934850D02*
X9669090D01*
G54D21*
X10739090Y2535355D02*
Y2598345D01*
X10589090Y2740355D02*
Y2803345D01*
X10689090Y2535355D02*
Y2598345D01*
X10639090Y2535355D02*
Y2598345D01*
X10689090Y2740355D02*
Y2803345D01*
X10639090Y2740355D02*
Y2803345D01*
X10589090Y2535355D02*
Y2598345D01*
X10739090Y2740355D02*
Y2803345D01*
G54D19*
X9269090Y1994850D02*
X9309090D01*
X9269090Y1901850D02*
X9309090D01*
X9269090Y2087850D02*
X9309090D01*
G54D22*
X9539090Y1979850D02*
Y2009850D01*
G54D23*
X9835090Y1860850D02*
X9843090D01*
X9835090Y1927850D02*
X9843090D01*
X10810090Y2635850D02*
X10818090D01*
X10810090Y2702850D02*
X10818090D01*
G54D11*
X10241140Y3044850D02*
X10247040D01*
X10331140D02*
X10337040D01*
X8716140Y3094850D02*
X8722040D01*
X8806140D02*
X8812040D01*
G54D16*
X10464090Y2996850D03*
Y2941850D03*
X10239090Y1866850D03*
Y1921850D03*
X10414090Y2941850D03*
Y2996850D03*
X10514090Y2941850D03*
Y2996850D03*
X9614090Y3141850D03*
Y3196850D03*
X9989090Y2941850D03*
Y2996850D03*
X10114090Y2941850D03*
Y2996850D03*
X10164090Y2941850D03*
Y2996850D03*
X10064090Y2941850D03*
Y2996850D03*
X10564090Y2941850D03*
Y2996850D03*
X10614090D03*
Y2941850D03*
X10664090Y2996850D03*
Y2941850D03*
X9364090Y3141850D03*
Y3196850D03*
X9314090Y716850D03*
Y771850D03*
X9464090Y716850D03*
Y771850D03*
X10489090Y2674850D03*
Y2619850D03*
X9114090Y1046850D03*
Y991850D03*
X9514090Y716850D03*
Y771850D03*
X9414090D03*
Y716850D03*
X9364090Y771850D03*
Y716850D03*
X9414090Y3141850D03*
Y3196850D03*
X9664090D03*
Y3141850D03*
X9714090D03*
Y3196850D03*
X9939090Y1866850D03*
Y1921850D03*
X10189090Y1866850D03*
Y1921850D03*
X9889090Y1866850D03*
Y1921850D03*
X9314090Y1596850D03*
Y1541850D03*
X9189090Y1046850D03*
Y991850D03*
X10264090Y2671850D03*
Y2616850D03*
X10189090Y2741850D03*
Y2796850D03*
X10339090Y2671850D03*
Y2616850D03*
X9389090Y2766850D03*
Y2821850D03*
X9539090Y3141850D03*
Y3196850D03*
X9914090Y2941850D03*
Y2996850D03*
X10114090Y2741850D03*
Y2796850D03*
X9139090Y2816850D03*
Y2871850D03*
Y2771850D03*
Y2716850D03*
X8489090Y2696850D03*
Y2641850D03*
G54D24*
X10413105Y2856850D02*
X10415075D01*
X10512105Y2819850D02*
X10514075D01*
X10413105Y2781850D02*
X10415075D01*
G54D25*
X9009090Y2065125D02*
Y2074575D01*
X9169090Y2065125D02*
Y2074575D01*
G54D11*
X10414090Y2596900D02*
Y2602800D01*
Y2686900D02*
Y2692800D01*
G54D20*
X9939090Y1314850D02*
Y1324850D01*
X10049090Y1314850D02*
Y1324850D01*
X9939090Y1214850D02*
Y1224850D01*
X10049090Y1214850D02*
Y1224850D01*
G54D26*
X9648090Y2996100D02*
Y3027600D01*
X9668090Y2996100D02*
Y3027600D01*
X9727090Y2996100D02*
Y3027600D01*
X9707090Y2996100D02*
Y3027600D01*
X9688090Y2996100D02*
Y3027600D01*
X9648090Y2661100D02*
Y2692600D01*
X9550090Y2996100D02*
Y3027600D01*
X9668090Y2661100D02*
Y2692600D01*
X9727090Y2661100D02*
Y2692600D01*
X9550090Y2661100D02*
Y2692600D01*
X9609090Y2996100D02*
Y3027600D01*
X9747090Y2996100D02*
Y3027600D01*
X9570090Y2661100D02*
Y2692600D01*
X9609090Y2661100D02*
Y2692600D01*
X9589090Y2661100D02*
Y2692600D01*
X9530090Y2661100D02*
Y2692600D01*
X9629090Y2661100D02*
Y2692600D01*
X9530090Y2996100D02*
Y3027600D01*
X9570090Y2996100D02*
Y3027600D01*
X9688090Y2661100D02*
Y2692600D01*
X9629090Y2996100D02*
Y3027600D01*
X9589090Y2996100D02*
Y3027600D01*
X9707090Y2661100D02*
Y2692600D01*
X9747090Y2661100D02*
Y2692600D01*
X9455340Y2775850D02*
X9486840D01*
X9455340Y2814850D02*
X9486840D01*
X9790340Y2932850D02*
X9821840D01*
X9455340Y2893850D02*
X9486840D01*
X9455340Y2755850D02*
X9486840D01*
X9790340Y2834850D02*
X9821840D01*
X9455340Y2912850D02*
X9486840D01*
X9455340Y2932850D02*
X9486840D01*
X9790340Y2814850D02*
X9821840D01*
X9455340Y2873850D02*
X9486840D01*
X9455340Y2853850D02*
X9486840D01*
X9790340Y2912850D02*
X9821840D01*
X9455340Y2834850D02*
X9486840D01*
X9790340Y2755850D02*
X9821840D01*
X9790340Y2775850D02*
X9821840D01*
X9790340Y2735850D02*
X9821840D01*
X9455340D02*
X9486840D01*
X9790340Y2873850D02*
X9821840D01*
X9790340Y2893850D02*
X9821840D01*
X9790340Y2794850D02*
X9821840D01*
X9790340Y2853850D02*
X9821840D01*
X9455340Y2952850D02*
X9486840D01*
X9455340Y2794850D02*
X9486840D01*
X9790340Y2952850D02*
X9821840D01*
G54D27*
X9276955Y1291850D02*
X9335225D01*
X9276955Y1075850D02*
X9335225D01*
X9741955Y1252850D02*
X9800225D01*
X9741955Y1232850D02*
X9800225D01*
X9276955Y1272850D02*
X9335225D01*
X9276955Y996850D02*
X9335225D01*
X9276955Y1016850D02*
X9335225D01*
X9276955Y1035850D02*
X9335225D01*
X9276955Y1055850D02*
X9335225D01*
X9276955Y1094850D02*
X9335225D01*
X9276955Y1114850D02*
X9335225D01*
X9276955Y1134850D02*
X9335225D01*
X9276955Y1153850D02*
X9335225D01*
X9276955Y1173850D02*
X9335225D01*
X9276955Y1193850D02*
X9335225D01*
X9276955Y1213850D02*
X9335225D01*
X9276955Y1232850D02*
X9335225D01*
X9276955Y1252850D02*
X9335225D01*
X9741955Y1291850D02*
X9800225D01*
X9741955Y1271850D02*
X9800225D01*
X9741955Y1212850D02*
X9800225D01*
X9741955Y1193850D02*
X9800225D01*
X9741955Y1173850D02*
X9800225D01*
X9741955Y1153850D02*
X9800225D01*
X9741955Y1134850D02*
X9800225D01*
X9741955Y1114850D02*
X9800225D01*
X9741955Y1094850D02*
X9800225D01*
X9741955Y1074850D02*
X9800225D01*
X9741955Y1055850D02*
X9800225D01*
X9741955Y1035850D02*
X9800225D01*
X9741955Y1015850D02*
X9800225D01*
X9741955Y996850D02*
X9800225D01*
X9391090Y882715D02*
Y940985D01*
X9411090Y882715D02*
Y940985D01*
X9529090Y882715D02*
Y940985D01*
X9588090Y882715D02*
Y940985D01*
X9548090Y882715D02*
Y940985D01*
X9391090Y1347715D02*
Y1405985D01*
X9411090Y1347715D02*
Y1405985D01*
X9430090Y1347715D02*
Y1405985D01*
X9450090Y1347715D02*
Y1405985D01*
X9470090Y1347715D02*
Y1405985D01*
X9489090Y1347715D02*
Y1405985D01*
X9509090Y1347715D02*
Y1405985D01*
X9529090Y1347715D02*
Y1405985D01*
X9548090Y1347715D02*
Y1405985D01*
X9568090Y1347715D02*
Y1405985D01*
X9588090Y1347715D02*
Y1405985D01*
X9608090Y1347715D02*
Y1405985D01*
X9627090Y1347715D02*
Y1405985D01*
X9647090Y1347715D02*
Y1405985D01*
X9667090Y1347715D02*
Y1405985D01*
X9686090Y1347715D02*
Y1405985D01*
Y882715D02*
Y940985D01*
X9667090Y882715D02*
Y940985D01*
X9647090Y882715D02*
Y940985D01*
X9627090Y882715D02*
Y940985D01*
X9608090Y882715D02*
Y940985D01*
X9568090Y882715D02*
Y940985D01*
X9509090Y882715D02*
Y940985D01*
X9489090Y882715D02*
Y940985D01*
X9470090Y882715D02*
Y940985D01*
X9450090Y882715D02*
Y940985D01*
X9430090Y882715D02*
Y940985D01*
G36*
X9795990Y1332250D02*
X9726490Y1401750D01*
X9754190Y1429450D01*
X9823690Y1359950D01*
X9795990Y1332250D01*
G37*
G36*
X9322990Y859250D02*
X9253490Y928750D01*
X9281190Y956450D01*
X9350690Y886950D01*
X9322990Y859250D01*
G37*
G36*
X9726490Y886950D02*
X9795990Y956450D01*
X9823690Y928750D01*
X9754190Y859250D01*
X9726490Y886950D01*
G37*
G36*
X9253490Y1359950D02*
X9322990Y1429450D01*
X9350690Y1401750D01*
X9281190Y1332250D01*
X9253490Y1359950D01*
G37*
G54D28*
X9009090Y2479850D03*
X9007090Y2478850D01*
X9006090D01*
X9004090D01*
X9003090D01*
X9002090Y2477850D01*
X9001090D01*
X8999090Y2476850D01*
X8998090D01*
X8997090Y2475850D01*
X8996090Y2474850D01*
X8995090Y2473850D01*
X8994090Y2472850D01*
X8993090Y2471850D01*
X8992090Y2470850D01*
Y2469850D01*
X8991090Y2467850D01*
X8990090Y2466850D01*
Y2465850D01*
X8989090Y2464850D01*
Y2462850D01*
Y2461850D01*
Y2460850D01*
Y2458850D01*
Y2457850D01*
Y2455850D01*
Y2454850D01*
X8990090Y2453850D01*
Y2451850D01*
X8991090Y2450850D01*
X8992090Y2449850D01*
Y2448850D01*
X8993090Y2447850D01*
X8994090Y2446850D01*
X8995090Y2445850D01*
X8996090Y2444850D01*
X8997090Y2443850D01*
X8998090Y2442850D01*
X8999090Y2441850D01*
X9001090D01*
X9002090Y2440850D01*
X9003090D01*
X9004090D01*
X9006090Y2439850D01*
X9007090D01*
X9009090D01*
X9939090Y2479850D03*
X9937090Y2478850D01*
X9936090D01*
X9934090D01*
X9933090D01*
X9932090Y2477850D01*
X9930090D01*
X9929090Y2476850D01*
X9928090D01*
X9927090Y2475850D01*
X9926090Y2474850D01*
X9925090Y2473850D01*
X9924090Y2472850D01*
X9923090Y2471850D01*
X9922090Y2470850D01*
X9921090Y2469850D01*
Y2467850D01*
X9920090Y2466850D01*
Y2465850D01*
X9919090Y2464850D01*
Y2462850D01*
Y2461850D01*
Y2460850D01*
Y2458850D01*
Y2457850D01*
Y2455850D01*
Y2454850D01*
X9920090Y2453850D01*
Y2451850D01*
X9921090Y2450850D01*
Y2449850D01*
X9922090Y2448850D01*
X9923090Y2447850D01*
X9924090Y2446850D01*
X9925090Y2445850D01*
X9926090Y2444850D01*
X9927090Y2443850D01*
X9928090Y2442850D01*
X9929090Y2441850D01*
X9930090D01*
X9932090Y2440850D01*
X9933090D01*
X9934090D01*
X9936090Y2439850D01*
X9937090D01*
X9939090D01*
X10227090D03*
X10228090D01*
X10230090D01*
X10231090Y2440850D01*
X10233090D01*
X10234090D01*
X10235090Y2441850D01*
X10236090D01*
X10238090Y2442850D01*
X10239090Y2443850D01*
X10240090Y2444850D01*
X10241090Y2445850D01*
X10242090Y2446850D01*
X10243090Y2447850D01*
Y2448850D01*
X10244090Y2449850D01*
X10245090Y2450850D01*
Y2451850D01*
X10246090Y2453850D01*
Y2454850D01*
Y2455850D01*
X10247090Y2457850D01*
Y2458850D01*
Y2460850D01*
Y2461850D01*
X10246090Y2462850D01*
Y2464850D01*
Y2465850D01*
X10245090Y2466850D01*
Y2467850D01*
X10244090Y2469850D01*
X10243090Y2470850D01*
Y2471850D01*
X10242090Y2472850D01*
X10241090Y2473850D01*
X10240090Y2474850D01*
X10239090Y2475850D01*
X10238090Y2476850D01*
X10236090D01*
X10235090Y2477850D01*
X10234090D01*
X10233090Y2478850D01*
X10231090D01*
X10230090D01*
X10228090Y2479850D01*
X10227090D01*
X10387090D03*
X10385090Y2478850D01*
X10384090D01*
X10382090D01*
X10381090D01*
X10380090Y2477850D01*
X10379090D01*
X10377090Y2476850D01*
X10376090D01*
X10375090Y2475850D01*
X10374090Y2474850D01*
X10373090Y2473850D01*
X10372090Y2472850D01*
X10371090Y2471850D01*
X10370090Y2470850D01*
X10369090Y2469850D01*
Y2467850D01*
X10368090Y2466850D01*
Y2465850D01*
X10367090Y2464850D01*
Y2462850D01*
Y2461850D01*
Y2460850D01*
Y2458850D01*
Y2457850D01*
Y2455850D01*
Y2454850D01*
X10368090Y2453850D01*
Y2451850D01*
X10369090Y2450850D01*
Y2449850D01*
X10370090Y2448850D01*
X10371090Y2447850D01*
X10372090Y2446850D01*
X10373090Y2445850D01*
X10374090Y2444850D01*
X10375090Y2443850D01*
X10376090Y2442850D01*
X10377090Y2441850D01*
X10379090D01*
X10380090Y2440850D01*
X10381090D01*
X10382090D01*
X10384090Y2439850D01*
X10385090D01*
X10387090D01*
X8871090D03*
X8872090D01*
X8874090D01*
X8875090Y2440850D01*
X8876090D01*
X8878090D01*
X8879090Y2441850D01*
X8880090D01*
X8881090Y2442850D01*
X8882090Y2443850D01*
X8883090Y2444850D01*
X8884090Y2445850D01*
X8885090Y2446850D01*
X8886090Y2447850D01*
X8887090Y2448850D01*
X8888090Y2449850D01*
Y2450850D01*
X8889090Y2451850D01*
X8890090Y2453850D01*
Y2454850D01*
Y2455850D01*
Y2457850D01*
Y2458850D01*
Y2460850D01*
Y2461850D01*
Y2462850D01*
Y2464850D01*
Y2465850D01*
X8889090Y2466850D01*
X8888090Y2467850D01*
Y2469850D01*
X8887090Y2470850D01*
X8886090Y2471850D01*
X8885090Y2472850D01*
X8884090Y2473850D01*
X8883090Y2474850D01*
X8882090Y2475850D01*
X8881090Y2476850D01*
X8880090D01*
X8879090Y2477850D01*
X8878090D01*
X8876090Y2478850D01*
X8875090D01*
X8874090D01*
X8872090Y2479850D01*
X8871090D01*
X9757090Y2439850D03*
X9758090D01*
X9759090D01*
X9761090Y2440850D01*
X9762090D01*
X9763090D01*
X9765090Y2441850D01*
X9766090D01*
X9767090Y2442850D01*
X9768090Y2443850D01*
X9769090Y2444850D01*
X9770090Y2445850D01*
X9771090Y2446850D01*
X9772090Y2447850D01*
X9773090Y2448850D01*
X9774090Y2449850D01*
Y2450850D01*
X9775090Y2451850D01*
Y2453850D01*
X9776090Y2454850D01*
Y2455850D01*
Y2457850D01*
Y2458850D01*
Y2460850D01*
Y2461850D01*
Y2462850D01*
Y2464850D01*
X9775090Y2465850D01*
Y2466850D01*
X9774090Y2467850D01*
Y2469850D01*
X9773090Y2470850D01*
X9772090Y2471850D01*
X9771090Y2472850D01*
X9770090Y2473850D01*
X9769090Y2474850D01*
X9768090Y2475850D01*
X9767090Y2476850D01*
X9766090D01*
X9765090Y2477850D01*
X9763090D01*
X9762090Y2478850D01*
X9761090D01*
X9759090D01*
X9758090Y2479850D01*
X9757090D01*
X8340090Y3443850D03*
X8335090D01*
X8329090Y3442850D01*
X8324090Y3441850D01*
X8319090Y3440850D01*
X8313090Y3438850D01*
X8308090Y3436850D01*
X8303090Y3434850D01*
X8299090Y3431850D01*
X8294090Y3428850D01*
X8290090Y3425850D01*
X8286090Y3421850D01*
X8282090Y3417850D01*
X8278090Y3413850D01*
X8275090Y3408850D01*
X8272090Y3404850D01*
X8270090Y3399850D01*
X8267090Y3394850D01*
X8265090Y3389850D01*
X8264090Y3383850D01*
X8263090Y3378850D01*
X8262090Y3373850D01*
Y3367850D01*
Y3364850D01*
Y354850D03*
Y348850D01*
Y343850D01*
X8263090Y337850D01*
X8265090Y332850D01*
X8266090Y327850D01*
X8268090Y322850D01*
X8271090Y317850D01*
X8274090Y312850D01*
X8277090Y307850D01*
X8280090Y303850D01*
X8284090Y299850D01*
X8288090Y295850D01*
X8292090Y292850D01*
X8296090Y288850D01*
X8301090Y285850D01*
X8306090Y283850D01*
X8311090Y281850D01*
X8316090Y279850D01*
X8321090Y277850D01*
X8327090Y276850D01*
X8332090Y275850D01*
X8338090D01*
X8340090D01*
X11016090Y3364850D03*
Y3370850D01*
Y3375850D01*
X11015090Y3381850D01*
X11013090Y3386850D01*
X11012090Y3391850D01*
X11010090Y3396850D01*
X11007090Y3401850D01*
X11004090Y3406850D01*
X11001090Y3411850D01*
X10998090Y3415850D01*
X10994090Y3419850D01*
X10990090Y3423850D01*
X10986090Y3426850D01*
X10982090Y3430850D01*
X10977090Y3433850D01*
X10972090Y3435850D01*
X10967090Y3437850D01*
X10962090Y3439850D01*
X10957090Y3441850D01*
X10951090Y3442850D01*
X10946090Y3443850D01*
X10940090D01*
X10938090D01*
Y275850D03*
X10943090D01*
X10949090Y276850D01*
X10954090Y277850D01*
X10959090Y278850D01*
X10965090Y280850D01*
X10970090Y282850D01*
X10975090Y284850D01*
X10979090Y287850D01*
X10984090Y290850D01*
X10988090Y293850D01*
X10992090Y297850D01*
X10996090Y301850D01*
X11000090Y305850D01*
X11003090Y310850D01*
X11006090Y314850D01*
X11008090Y319850D01*
X11011090Y324850D01*
X11013090Y329850D01*
X11014090Y335850D01*
X11015090Y340850D01*
X11016090Y345850D01*
Y351850D01*
Y354850D01*
X10091090Y196850D02*
X10170090Y275850D01*
X10091090Y196850D03*
X8792090D02*
X10091090D01*
X8713090Y275850D02*
X8792090Y196850D01*
X8708090Y275850D02*
X8713090D01*
X10169090D02*
X10938090D01*
X9939090Y2439850D02*
X10227090D01*
X9939090Y2479850D02*
X10227090D01*
X8340090Y3443850D02*
X10938090D01*
X8340090Y275850D02*
X8708090D01*
X8262090Y2479850D02*
X8871090D01*
X8262090Y2439850D02*
X8871090D01*
X9009090D02*
X9757090D01*
X9009090Y2479850D02*
X9757090D01*
X10387090Y2439850D02*
X11016090D01*
X10387090Y2479850D02*
X11016090D01*
X8262090Y354850D02*
Y2439850D01*
Y2479850D02*
Y3364850D01*
X11016090Y354850D02*
Y2439850D01*
Y2479850D02*
Y3364850D01*
M02*
