*
%FSLAX26Y26*%
%MOIN*%
%ADD10C,0.009843*%
%ADD11C,0.015748*%
%ADD12C,0.031496*%
%ADD13C,0.043307*%
%ADD14C,0.041339*%
%ADD15C,0.127953*%
%ADD16C,0.080709*%
%ADD17C,0.019685*%
%IPPOS*%
%LN02i31889.drl*%
%LPD*%
G75*
G54D10*
X27004Y394850D03*
X317004Y314850D03*
X527004Y294850D03*
X617004Y494850D03*
X652004Y434850D03*
X677004Y409850D03*
X762004Y404850D03*
X852004D03*
X847004Y544850D03*
X767004D03*
X962004Y549850D03*
X1047004Y544850D03*
X1057004Y434850D03*
X1177004Y394850D03*
X1227004D03*
X1237004Y514850D03*
X1177004D03*
X1387004Y454850D03*
X1552004Y544850D03*
X1627004Y494850D03*
X1752004Y544850D03*
X1827004Y494850D03*
X1927004Y394850D03*
X1727004D03*
X1647004Y234850D03*
X1817004D03*
X1527004Y294850D03*
X1307004Y234850D03*
X1067004D03*
X887004D03*
X697004D03*
X2157004Y324850D03*
X2077004Y474850D03*
X2227004D03*
X2267004Y524850D03*
X2447004Y314850D03*
X2727004Y394850D03*
Y594850D03*
Y794850D03*
Y994850D03*
Y1194850D03*
Y1394850D03*
Y1594850D03*
Y1794850D03*
Y1994850D03*
X2217004Y1709850D03*
X2232004Y1564850D03*
X2207004Y1539850D03*
X2257004Y1434850D03*
X2392004Y1479850D03*
Y1514850D03*
X2437004Y1454850D03*
Y1374850D03*
X2417004Y1149850D03*
X2232004Y1109850D03*
X2247004Y934850D03*
X2207004Y699850D03*
X2427004Y744850D03*
X2142004D03*
X2067004D03*
X2087004Y804850D03*
X2032004Y864850D03*
X2007004Y879850D03*
X1982004Y864850D03*
X1937004Y854850D03*
X1917004Y969850D03*
Y1024850D03*
X1847004D03*
X1807004Y1059850D03*
X1782004Y1074850D03*
X1774004Y1132850D03*
X1737004Y1219850D03*
Y1344850D03*
X1877004Y1354850D03*
X1952004Y1319850D03*
Y1293850D03*
Y1219850D03*
Y1189850D03*
Y1094850D03*
X2002004D03*
X1977004Y1044850D03*
X2077004D03*
X2072004Y939850D03*
X2117004Y969850D03*
X2157004Y994850D03*
Y864850D03*
X1887004Y764850D03*
X1802004Y719850D03*
X1797004Y684850D03*
Y644850D03*
X1807004Y574850D03*
X1897004Y594850D03*
X1972004Y569850D03*
X2047004Y574850D03*
X1597004Y564850D03*
X1527004Y569850D03*
Y604850D03*
Y694850D03*
Y769850D03*
Y819850D03*
X1557004Y849850D03*
X1592004Y879850D03*
X1657004Y844850D03*
X1797004D03*
Y994850D03*
X1647004Y1039850D03*
X1617004Y1019850D03*
X1582004Y1179850D03*
X1622004Y1294850D03*
X1492004Y1319850D03*
X1422004Y1294850D03*
Y1254850D03*
X1427004Y1199850D03*
X1397004Y1174850D03*
Y1144850D03*
Y1114850D03*
Y1084850D03*
X1417004Y1004850D03*
X1317004Y1054850D03*
X1242004Y1079850D03*
X1167004Y1024850D03*
X1137004Y1204850D03*
Y1274850D03*
X1227004D03*
Y1204850D03*
X1277004D03*
X1266004Y845850D03*
X1277004Y819850D03*
X1227004Y815850D03*
X1202004Y829850D03*
X1152004Y809850D03*
X1102004D03*
X1017004Y714850D03*
X847004Y644850D03*
X767004Y664850D03*
X717004Y844850D03*
X787004Y904850D03*
X827004Y919850D03*
X807004Y994850D03*
X727004Y1024850D03*
X677004Y994850D03*
X687004Y954850D03*
X727004Y1144850D03*
X702004Y1344850D03*
X797004D03*
X877004Y1354850D03*
Y1484850D03*
X952004Y1494850D03*
X1037004D03*
X1052004Y1459850D03*
X1102004Y1497850D03*
X1149004Y1494850D03*
X1247004Y1574850D03*
X1287004Y1624850D03*
X1337004Y1669850D03*
X1362004Y1654850D03*
X1202004Y1649850D03*
X1227004Y1854850D03*
X1347004Y1934850D03*
X1402004Y1979850D03*
X1482004Y1989850D03*
X1462004Y1934850D03*
Y2054850D03*
X1347004Y2079850D03*
X1622004Y2029850D03*
Y1969850D03*
X1732004Y1974850D03*
X1757004Y2029850D03*
X1792004Y1914850D03*
X1817004D03*
Y1874850D03*
X1792004D03*
X1887004Y1859850D03*
X1892004Y1924850D03*
X1927004Y1949850D03*
X1977004D03*
X1987004Y1774850D03*
X1942004Y1744850D03*
X1972004Y1684850D03*
X1802004Y1694850D03*
X1677004Y1744850D03*
Y1834850D03*
X2067004Y1824850D03*
X2167004Y1904850D03*
X2117004Y2044850D03*
X2187004Y1719850D03*
X2132004Y1594850D03*
X2052004Y1574850D03*
Y1419850D03*
X2117004Y1444850D03*
X2192004Y1419850D03*
X2162004Y1354850D03*
X2157004Y1244850D03*
X2102004Y1294850D03*
X2077004Y1319850D03*
X2052004Y1199850D03*
X2027004Y1219850D03*
X1952004Y1444850D03*
X1652004Y1454850D03*
X1622004Y1464850D03*
X1597004Y1489850D03*
X1567004Y1429850D03*
X1417004Y729850D03*
X1387004Y614850D03*
X1227004Y654850D03*
X977004Y994850D03*
X969004Y1046850D03*
X967004Y1144850D03*
X717004Y1454850D03*
Y1584850D03*
X652004Y1569850D03*
X727004Y1684850D03*
X832004D03*
X767004Y1809850D03*
X827004Y1919850D03*
Y1994850D03*
X942004Y1949850D03*
X702004Y2094850D03*
X567004Y1894850D03*
X602004Y1719850D03*
X627004Y1544850D03*
X602004Y1444850D03*
Y1344850D03*
X547004Y1204850D03*
X637004Y1164850D03*
X577004Y1094850D03*
X497004Y974850D03*
X337004Y924850D03*
X297004Y1004850D03*
X27004Y994850D03*
Y794850D03*
Y594850D03*
X492004Y574850D03*
X552004Y644850D03*
X617004Y659850D03*
Y704850D03*
X602004Y844850D03*
X552004Y819850D03*
X27004Y1194850D03*
Y1394850D03*
Y1594850D03*
Y1794850D03*
Y1994850D03*
Y2194850D03*
Y2394850D03*
X227004D03*
Y2594850D03*
X262004Y2639850D03*
X387004Y2664850D03*
X382004Y2519850D03*
X607004Y2524850D03*
X612004Y2594850D03*
X597004Y2619850D03*
X637004Y2579850D03*
X577004Y2694850D03*
Y2769850D03*
X457004Y2744850D03*
X427004Y2834850D03*
X227004Y2794850D03*
X27004D03*
Y2594850D03*
Y2994850D03*
Y3194850D03*
X127004Y3394850D03*
X327004D03*
X527004D03*
X577004Y3169850D03*
X617004Y3054850D03*
X607004Y2984850D03*
X227004Y2994850D03*
X327004Y3194850D03*
X527004Y2394850D03*
Y2194850D03*
X327004D03*
X712004Y2199850D03*
X782004Y2204850D03*
X752004Y2294850D03*
X687004Y2274850D03*
X737004Y2404850D03*
X727004Y2534850D03*
X692004Y2539850D03*
X662004D03*
X712004Y2579850D03*
X767004Y2524850D03*
X662004Y2744850D03*
X647004Y2794850D03*
Y2869850D03*
X727004Y2889850D03*
X757004Y2879850D03*
X677004Y2969850D03*
X647004Y3019850D03*
X727004Y3394850D03*
X927004D03*
X1127004D03*
X1327004D03*
X1352004Y3239850D03*
X1227004Y3196850D03*
X1057004D03*
X1032004Y3194850D03*
X1017004Y2834850D03*
X1087004Y2824850D03*
X1162004D03*
X1252004Y2834850D03*
X1267004Y2764850D03*
X1347004Y2784850D03*
X1337004Y2884850D03*
X1327004Y2940850D03*
X1347004Y2964850D03*
X1237004Y3004850D03*
X1317004Y3089850D03*
X1427004Y3141850D03*
X1497004Y3084850D03*
X1577004Y3169850D03*
Y3204850D03*
Y3369850D03*
X1527004Y3394850D03*
X1467004Y3314850D03*
X1752004Y3219850D03*
Y3169850D03*
X1777004Y3094850D03*
X1707004Y3064850D03*
X1687004Y3024850D03*
X1694004Y2941850D03*
X1762004Y2944850D03*
X1802004Y2794850D03*
X1889004Y2779850D03*
X2027004Y2754850D03*
Y2714850D03*
X1949004Y2644850D03*
X1963004Y2605850D03*
X1877004Y2604850D03*
X1927004Y2514850D03*
X1997004Y2534850D03*
X1987004Y2404850D03*
X2127004Y2394850D03*
Y2294850D03*
X2192004Y2644850D03*
X2167004Y2734850D03*
X2117004Y2904850D03*
X2092004Y2964850D03*
X2112004Y2994850D03*
X2202004Y3039850D03*
X2127004Y3169850D03*
X1967004Y3154850D03*
X1982004Y2894850D03*
X2007004Y2908850D03*
X1662004Y2769850D03*
X1610004Y2765850D03*
X1492004Y2774850D03*
X1472004Y2754850D03*
X1447004Y2769850D03*
X1467004Y2884850D03*
X1452004Y2554850D03*
X1542004D03*
X1677004Y2604850D03*
Y2654850D03*
X1667004Y2404850D03*
X1817004D03*
X1717004Y2206850D03*
X1612004Y2159850D03*
X1537004D03*
X1512004Y2139850D03*
X1472004Y2144850D03*
X1440004Y2394850D03*
X1349004Y2359850D03*
X1337004Y2514850D03*
X1312004Y2574850D03*
X1332004Y2604850D03*
X1359004Y2626850D03*
X1377004Y2574850D03*
X1087004Y2694850D03*
X1047004Y2654850D03*
X957004Y2734850D03*
X927004Y2819850D03*
X1032004Y2381850D03*
X1852004Y3344850D03*
X2127004Y3369850D03*
X2227004Y3394850D03*
X2427004D03*
X2627004D03*
X2727004Y3294850D03*
Y3094850D03*
Y2894850D03*
Y2694850D03*
X2627004Y2594850D03*
X2607004Y2509850D03*
X2527004Y2394850D03*
Y2294850D03*
X2727004Y2394850D03*
Y2194850D03*
X2327004Y2394850D03*
X2287004Y2754850D03*
X2207004Y2824850D03*
X2257004Y2894850D03*
X2352004D03*
X2527004D03*
Y3094850D03*
X2277004Y3044850D03*
G54D11*
X722004Y1374850D03*
X762004D03*
X797004Y1404850D03*
X957004Y1359850D03*
X1002004Y1594850D03*
X1052004Y1684850D03*
Y1819850D03*
X952004D03*
Y1769850D03*
X1027004Y2044850D03*
X837004Y2079850D03*
Y2109850D03*
X1112004Y1029850D03*
X1417004Y694850D03*
X1527004Y644850D03*
X1647004Y2574850D03*
X1637004Y2654850D03*
X1692004Y2689850D03*
X1609004Y2941850D03*
X1537004Y3094850D03*
X2022004Y3029850D03*
X2027004Y2888850D03*
X1952004Y2919850D03*
X2039004Y2671850D03*
X2242004Y2759850D03*
X2377004Y2844850D03*
G54D12*
X1102004Y569850D03*
X1302004D03*
X1002004Y2693850D03*
Y2893850D03*
G54D13*
X127004Y394850D03*
X227004D03*
Y494850D03*
X127004D03*
X427004D03*
Y394850D03*
X2327004D03*
Y494850D03*
X2527004D03*
Y394850D03*
X2627004D03*
Y494850D03*
Y594850D03*
X2527004D03*
Y694850D03*
Y794850D03*
Y894850D03*
Y994850D03*
Y1094850D03*
Y1194850D03*
Y1294850D03*
Y1394850D03*
Y1494850D03*
Y1594850D03*
Y1694850D03*
Y1794850D03*
Y1894850D03*
Y1994850D03*
Y2094850D03*
X2627004D03*
Y1994850D03*
Y1894850D03*
Y1794850D03*
Y1694850D03*
Y1594850D03*
Y1494850D03*
Y1394850D03*
Y1294850D03*
Y1194850D03*
Y1094850D03*
Y994850D03*
Y894850D03*
Y794850D03*
Y694850D03*
X2327004D03*
Y794850D03*
Y894850D03*
Y994850D03*
Y1094850D03*
Y1254850D03*
Y1354850D03*
Y1454850D03*
Y1554850D03*
Y1654850D03*
Y1754850D03*
Y1854850D03*
Y1954850D03*
Y2054850D03*
Y594850D03*
X1902004Y2069850D03*
X1802004D03*
X1702004D03*
X1402004Y1819850D03*
X1302004D03*
X427004Y1794850D03*
Y1694850D03*
Y1594850D03*
Y1494850D03*
Y1394850D03*
Y1294850D03*
Y1194850D03*
Y1094850D03*
Y894850D03*
Y794850D03*
Y694850D03*
Y594850D03*
X227004D03*
Y694850D03*
Y794850D03*
Y894850D03*
Y994850D03*
Y1094850D03*
Y1194850D03*
Y1294850D03*
Y1394850D03*
Y1494850D03*
Y1594850D03*
Y1694850D03*
Y1794850D03*
Y1894850D03*
Y1994850D03*
Y2094850D03*
X127004D03*
Y1994850D03*
Y1894850D03*
Y1794850D03*
Y1694850D03*
Y1594850D03*
Y1494850D03*
Y1394850D03*
Y1294850D03*
Y1194850D03*
Y1094850D03*
Y994850D03*
Y894850D03*
Y794850D03*
Y694850D03*
Y594850D03*
Y2194850D03*
X227004D03*
X327004Y2594850D03*
Y2694850D03*
Y2794850D03*
Y2894850D03*
Y2994850D03*
Y3094850D03*
X127004Y3194850D03*
Y3294850D03*
Y2694850D03*
Y2594850D03*
X477004Y2569850D03*
Y2669850D03*
X877004Y3044850D03*
Y3144850D03*
Y3244850D03*
Y3344850D03*
X1302004D03*
X1402004D03*
X2627004Y3294850D03*
Y3194850D03*
Y2194850D03*
X2527004D03*
X2327004Y2154850D03*
G54D14*
X1277004Y1021850D03*
Y1266850D03*
X1765004Y3269850D03*
X1938004D03*
G54D15*
X1727004Y294850D03*
X427004Y2344850D03*
X2327004Y2294850D03*
G54D10*
X2781032Y394850D03*
X3071032Y314850D03*
X3281032Y294850D03*
X3371032Y494850D03*
X3406032Y434850D03*
X3431032Y409850D03*
X3516032Y404850D03*
X3606032D03*
X3601032Y544850D03*
X3521032D03*
X3716032Y549850D03*
X3801032Y544850D03*
X3811032Y434850D03*
X3931032Y394850D03*
X3981032D03*
X3991032Y514850D03*
X3931032D03*
X4141032Y454850D03*
X4306032Y544850D03*
X4381032Y494850D03*
X4506032Y544850D03*
X4581032Y494850D03*
X4681032Y394850D03*
X4481032D03*
X4401032Y234850D03*
X4571032D03*
X4281032Y294850D03*
X4061032Y234850D03*
X3821032D03*
X3641032D03*
X3451032D03*
X4911032Y324850D03*
X4831032Y474850D03*
X4981032D03*
X5021032Y524850D03*
X5201032Y314850D03*
X5481032Y394850D03*
Y594850D03*
Y794850D03*
Y994850D03*
Y1194850D03*
Y1394850D03*
Y1594850D03*
Y1794850D03*
Y1994850D03*
X4971032Y1709850D03*
X4986032Y1564850D03*
X4961032Y1539850D03*
X5011032Y1434850D03*
X5146032Y1479850D03*
Y1514850D03*
X5191032Y1454850D03*
Y1374850D03*
X5171032Y1149850D03*
X4986032Y1109850D03*
X5001032Y934850D03*
X4961032Y699850D03*
X5181032Y744850D03*
X4896032D03*
X4821032D03*
X4841032Y804850D03*
X4786032Y864850D03*
X4761032Y879850D03*
X4736032Y864850D03*
X4691032Y854850D03*
X4671032Y969850D03*
Y1024850D03*
X4601032D03*
X4561032Y1059850D03*
X4536032Y1074850D03*
X4528032Y1132850D03*
X4491032Y1219850D03*
Y1344850D03*
X4631032Y1354850D03*
X4706032Y1319850D03*
Y1293850D03*
Y1219850D03*
Y1189850D03*
Y1094850D03*
X4756032D03*
X4731032Y1044850D03*
X4831032D03*
X4826032Y939850D03*
X4871032Y969850D03*
X4911032Y994850D03*
Y864850D03*
X4641032Y764850D03*
X4556032Y719850D03*
X4551032Y684850D03*
Y644850D03*
X4561032Y574850D03*
X4651032Y594850D03*
X4726032Y569850D03*
X4801032Y574850D03*
X4351032Y564850D03*
X4281032Y569850D03*
Y604850D03*
Y694850D03*
Y769850D03*
Y819850D03*
X4311032Y849850D03*
X4346032Y879850D03*
X4411032Y844850D03*
X4551032D03*
Y994850D03*
X4401032Y1039850D03*
X4371032Y1019850D03*
X4336032Y1179850D03*
X4376032Y1294850D03*
X4246032Y1319850D03*
X4176032Y1294850D03*
Y1254850D03*
X4181032Y1199850D03*
X4151032Y1174850D03*
Y1144850D03*
Y1114850D03*
Y1084850D03*
X4171032Y1004850D03*
X4071032Y1054850D03*
X3996032Y1079850D03*
X3921032Y1024850D03*
X3891032Y1204850D03*
Y1274850D03*
X3981032D03*
Y1204850D03*
X4031032D03*
X4020032Y845850D03*
X4031032Y819850D03*
X3981032Y815850D03*
X3956032Y829850D03*
X3906032Y809850D03*
X3856032D03*
X3771032Y714850D03*
X3601032Y644850D03*
X3521032Y664850D03*
X3471032Y844850D03*
X3541032Y904850D03*
X3581032Y919850D03*
X3561032Y994850D03*
X3481032Y1024850D03*
X3431032Y994850D03*
X3441032Y954850D03*
X3481032Y1144850D03*
X3456032Y1344850D03*
X3551032D03*
X3631032Y1354850D03*
Y1484850D03*
X3706032Y1494850D03*
X3791032D03*
X3806032Y1459850D03*
X3856032Y1497850D03*
X3903032Y1494850D03*
X4001032Y1574850D03*
X4041032Y1624850D03*
X4091032Y1669850D03*
X4116032Y1654850D03*
X3956032Y1649850D03*
X3981032Y1854850D03*
X4101032Y1934850D03*
X4156032Y1979850D03*
X4236032Y1989850D03*
X4216032Y1934850D03*
Y2054850D03*
X4101032Y2079850D03*
X4376032Y2029850D03*
Y1969850D03*
X4486032Y1974850D03*
X4511032Y2029850D03*
X4546032Y1914850D03*
X4571032D03*
Y1874850D03*
X4546032D03*
X4641032Y1859850D03*
X4646032Y1924850D03*
X4681032Y1949850D03*
X4731032D03*
X4741032Y1774850D03*
X4696032Y1744850D03*
X4726032Y1684850D03*
X4556032Y1694850D03*
X4431032Y1744850D03*
Y1834850D03*
X4821032Y1824850D03*
X4921032Y1904850D03*
X4871032Y2044850D03*
X4941032Y1719850D03*
X4886032Y1594850D03*
X4806032Y1574850D03*
Y1419850D03*
X4871032Y1444850D03*
X4946032Y1419850D03*
X4916032Y1354850D03*
X4911032Y1244850D03*
X4856032Y1294850D03*
X4831032Y1319850D03*
X4806032Y1199850D03*
X4781032Y1219850D03*
X4706032Y1444850D03*
X4406032Y1454850D03*
X4376032Y1464850D03*
X4351032Y1489850D03*
X4321032Y1429850D03*
X4171032Y729850D03*
X4141032Y614850D03*
X3981032Y654850D03*
X3731032Y994850D03*
X3723032Y1046850D03*
X3721032Y1144850D03*
X3471032Y1454850D03*
Y1584850D03*
X3406032Y1569850D03*
X3481032Y1684850D03*
X3586032D03*
X3521032Y1809850D03*
X3581032Y1919850D03*
Y1994850D03*
X3696032Y1949850D03*
X3456032Y2094850D03*
X3321032Y1894850D03*
X3356032Y1719850D03*
X3381032Y1544850D03*
X3356032Y1444850D03*
Y1344850D03*
X3301032Y1204850D03*
X3391032Y1164850D03*
X3331032Y1094850D03*
X3251032Y974850D03*
X3091032Y924850D03*
X3051032Y1004850D03*
X2781032Y994850D03*
Y794850D03*
Y594850D03*
X3246032Y574850D03*
X3306032Y644850D03*
X3371032Y659850D03*
Y704850D03*
X3356032Y844850D03*
X3306032Y819850D03*
X2781032Y1194850D03*
Y1394850D03*
Y1594850D03*
Y1794850D03*
Y1994850D03*
Y2194850D03*
Y2394850D03*
X2981032D03*
Y2594850D03*
X3016032Y2639850D03*
X3141032Y2664850D03*
X3136032Y2519850D03*
X3361032Y2524850D03*
X3366032Y2594850D03*
X3351032Y2619850D03*
X3391032Y2579850D03*
X3331032Y2694850D03*
Y2769850D03*
X3211032Y2744850D03*
X3181032Y2834850D03*
X2981032Y2794850D03*
X2781032D03*
Y2594850D03*
Y2994850D03*
Y3194850D03*
X2881032Y3394850D03*
X3081032D03*
X3281032D03*
X3331032Y3169850D03*
X3371032Y3054850D03*
X3361032Y2984850D03*
X2981032Y2994850D03*
X3081032Y3194850D03*
X3281032Y2394850D03*
Y2194850D03*
X3081032D03*
X3466032Y2199850D03*
X3536032Y2204850D03*
X3506032Y2294850D03*
X3441032Y2274850D03*
X3491032Y2404850D03*
X3481032Y2534850D03*
X3446032Y2539850D03*
X3416032D03*
X3466032Y2579850D03*
X3521032Y2524850D03*
X3416032Y2744850D03*
X3401032Y2794850D03*
Y2869850D03*
X3481032Y2889850D03*
X3511032Y2879850D03*
X3431032Y2969850D03*
X3401032Y3019850D03*
X3481032Y3394850D03*
X3681032D03*
X3881032D03*
X4081032D03*
X4106032Y3239850D03*
X3981032Y3196850D03*
X3811032D03*
X3786032Y3194850D03*
X3771032Y2834850D03*
X3841032Y2824850D03*
X3916032D03*
X4006032Y2834850D03*
X4021032Y2764850D03*
X4101032Y2784850D03*
X4091032Y2884850D03*
X4081032Y2940850D03*
X4101032Y2964850D03*
X3991032Y3004850D03*
X4071032Y3089850D03*
X4181032Y3141850D03*
X4251032Y3084850D03*
X4331032Y3169850D03*
Y3204850D03*
Y3369850D03*
X4281032Y3394850D03*
X4221032Y3314850D03*
X4506032Y3219850D03*
Y3169850D03*
X4531032Y3094850D03*
X4461032Y3064850D03*
X4441032Y3024850D03*
X4448032Y2941850D03*
X4516032Y2944850D03*
X4556032Y2794850D03*
X4643032Y2779850D03*
X4781032Y2754850D03*
Y2714850D03*
X4703032Y2644850D03*
X4717032Y2605850D03*
X4631032Y2604850D03*
X4681032Y2514850D03*
X4751032Y2534850D03*
X4741032Y2404850D03*
X4881032Y2394850D03*
Y2294850D03*
X4946032Y2644850D03*
X4921032Y2734850D03*
X4871032Y2904850D03*
X4846032Y2964850D03*
X4866032Y2994850D03*
X4956032Y3039850D03*
X4881032Y3169850D03*
X4721032Y3154850D03*
X4736032Y2894850D03*
X4761032Y2908850D03*
X4416032Y2769850D03*
X4364032Y2765850D03*
X4246032Y2774850D03*
X4226032Y2754850D03*
X4201032Y2769850D03*
X4221032Y2884850D03*
X4206032Y2554850D03*
X4296032D03*
X4431032Y2604850D03*
Y2654850D03*
X4421032Y2404850D03*
X4571032D03*
X4471032Y2206850D03*
X4366032Y2159850D03*
X4291032D03*
X4266032Y2139850D03*
X4226032Y2144850D03*
X4194032Y2394850D03*
X4103032Y2359850D03*
X4091032Y2514850D03*
X4066032Y2574850D03*
X4086032Y2604850D03*
X4113032Y2626850D03*
X4131032Y2574850D03*
X3841032Y2694850D03*
X3801032Y2654850D03*
X3711032Y2734850D03*
X3681032Y2819850D03*
X3786032Y2381850D03*
X4606032Y3344850D03*
X4881032Y3369850D03*
X4981032Y3394850D03*
X5181032D03*
X5381032D03*
X5481032Y3294850D03*
Y3094850D03*
Y2894850D03*
Y2694850D03*
X5381032Y2594850D03*
X5361032Y2509850D03*
X5281032Y2394850D03*
Y2294850D03*
X5481032Y2394850D03*
Y2194850D03*
X5081032Y2394850D03*
X5041032Y2754850D03*
X4961032Y2824850D03*
X5011032Y2894850D03*
X5106032D03*
X5281032D03*
Y3094850D03*
X5031032Y3044850D03*
G54D11*
X3476032Y1374850D03*
X3516032D03*
X3551032Y1404850D03*
X3711032Y1359850D03*
X3756032Y1594850D03*
X3806032Y1684850D03*
Y1819850D03*
X3706032D03*
Y1769850D03*
X3781032Y2044850D03*
X3591032Y2079850D03*
Y2109850D03*
X3866032Y1029850D03*
X4171032Y694850D03*
X4281032Y644850D03*
X4401032Y2574850D03*
X4391032Y2654850D03*
X4446032Y2689850D03*
X4363032Y2941850D03*
X4291032Y3094850D03*
X4776032Y3029850D03*
X4781032Y2888850D03*
X4706032Y2919850D03*
X4793032Y2671850D03*
X4996032Y2759850D03*
X5131032Y2844850D03*
G54D12*
X3856032Y569850D03*
X4056032D03*
X3756032Y2693850D03*
Y2893850D03*
G54D13*
X2881032Y394850D03*
X2981032D03*
Y494850D03*
X2881032D03*
X3181032D03*
Y394850D03*
X5081032D03*
Y494850D03*
X5281032D03*
Y394850D03*
X5381032D03*
Y494850D03*
Y594850D03*
X5281032D03*
Y694850D03*
Y794850D03*
Y894850D03*
Y994850D03*
Y1094850D03*
Y1194850D03*
Y1294850D03*
Y1394850D03*
Y1494850D03*
Y1594850D03*
Y1694850D03*
Y1794850D03*
Y1894850D03*
Y1994850D03*
Y2094850D03*
X5381032D03*
Y1994850D03*
Y1894850D03*
Y1794850D03*
Y1694850D03*
Y1594850D03*
Y1494850D03*
Y1394850D03*
Y1294850D03*
Y1194850D03*
Y1094850D03*
Y994850D03*
Y894850D03*
Y794850D03*
Y694850D03*
X5081032D03*
Y794850D03*
Y894850D03*
Y994850D03*
Y1094850D03*
Y1254850D03*
Y1354850D03*
Y1454850D03*
Y1554850D03*
Y1654850D03*
Y1754850D03*
Y1854850D03*
Y1954850D03*
Y2054850D03*
Y594850D03*
X4656032Y2069850D03*
X4556032D03*
X4456032D03*
X4156032Y1819850D03*
X4056032D03*
X3181032Y1794850D03*
Y1694850D03*
Y1594850D03*
Y1494850D03*
Y1394850D03*
Y1294850D03*
Y1194850D03*
Y1094850D03*
Y894850D03*
Y794850D03*
Y694850D03*
Y594850D03*
X2981032D03*
Y694850D03*
Y794850D03*
Y894850D03*
Y994850D03*
Y1094850D03*
Y1194850D03*
Y1294850D03*
Y1394850D03*
Y1494850D03*
Y1594850D03*
Y1694850D03*
Y1794850D03*
Y1894850D03*
Y1994850D03*
Y2094850D03*
X2881032D03*
Y1994850D03*
Y1894850D03*
Y1794850D03*
Y1694850D03*
Y1594850D03*
Y1494850D03*
Y1394850D03*
Y1294850D03*
Y1194850D03*
Y1094850D03*
Y994850D03*
Y894850D03*
Y794850D03*
Y694850D03*
Y594850D03*
Y2194850D03*
X2981032D03*
X3081032Y2594850D03*
Y2694850D03*
Y2794850D03*
Y2894850D03*
Y2994850D03*
Y3094850D03*
X2881032Y3194850D03*
Y3294850D03*
Y2694850D03*
Y2594850D03*
X3231032Y2569850D03*
Y2669850D03*
X3631032Y3044850D03*
Y3144850D03*
Y3244850D03*
Y3344850D03*
X4056032D03*
X4156032D03*
X5381032Y3294850D03*
Y3194850D03*
Y2194850D03*
X5281032D03*
X5081032Y2154850D03*
G54D14*
X4031032Y1021850D03*
Y1266850D03*
X4519032Y3269850D03*
X4692032D03*
G54D15*
X4481032Y294850D03*
X3181032Y2344850D03*
X5081032Y2294850D03*
G54D10*
X5535061Y394850D03*
X5825061Y314850D03*
X6035061Y294850D03*
X6125061Y494850D03*
X6160061Y434850D03*
X6185061Y409850D03*
X6270061Y404850D03*
X6360061D03*
X6355061Y544850D03*
X6275061D03*
X6470061Y549850D03*
X6555061Y544850D03*
X6565061Y434850D03*
X6685061Y394850D03*
X6735061D03*
X6745061Y514850D03*
X6685061D03*
X6895061Y454850D03*
X7060061Y544850D03*
X7135061Y494850D03*
X7260061Y544850D03*
X7335061Y494850D03*
X7435061Y394850D03*
X7235061D03*
X7155061Y234850D03*
X7325061D03*
X7035061Y294850D03*
X6815061Y234850D03*
X6575061D03*
X6395061D03*
X6205061D03*
X7665061Y324850D03*
X7585061Y474850D03*
X7735061D03*
X7775061Y524850D03*
X7955061Y314850D03*
X8235061Y394850D03*
Y594850D03*
Y794850D03*
Y994850D03*
Y1194850D03*
Y1394850D03*
Y1594850D03*
Y1794850D03*
Y1994850D03*
X7725061Y1709850D03*
X7740061Y1564850D03*
X7715061Y1539850D03*
X7765061Y1434850D03*
X7900061Y1479850D03*
Y1514850D03*
X7945061Y1454850D03*
Y1374850D03*
X7925061Y1149850D03*
X7740061Y1109850D03*
X7755061Y934850D03*
X7715061Y699850D03*
X7935061Y744850D03*
X7650061D03*
X7575061D03*
X7595061Y804850D03*
X7540061Y864850D03*
X7515061Y879850D03*
X7490061Y864850D03*
X7445061Y854850D03*
X7425061Y969850D03*
Y1024850D03*
X7355061D03*
X7315061Y1059850D03*
X7290061Y1074850D03*
X7282061Y1132850D03*
X7245061Y1219850D03*
Y1344850D03*
X7385061Y1354850D03*
X7460061Y1319850D03*
Y1293850D03*
Y1219850D03*
Y1189850D03*
Y1094850D03*
X7510061D03*
X7485061Y1044850D03*
X7585061D03*
X7580061Y939850D03*
X7625061Y969850D03*
X7665061Y994850D03*
Y864850D03*
X7395061Y764850D03*
X7310061Y719850D03*
X7305061Y684850D03*
Y644850D03*
X7315061Y574850D03*
X7405061Y594850D03*
X7480061Y569850D03*
X7555061Y574850D03*
X7105061Y564850D03*
X7035061Y569850D03*
Y604850D03*
Y694850D03*
Y769850D03*
Y819850D03*
X7065061Y849850D03*
X7100061Y879850D03*
X7165061Y844850D03*
X7305061D03*
Y994850D03*
X7155061Y1039850D03*
X7125061Y1019850D03*
X7090061Y1179850D03*
X7130061Y1294850D03*
X7000061Y1319850D03*
X6930061Y1294850D03*
Y1254850D03*
X6935061Y1199850D03*
X6905061Y1174850D03*
Y1144850D03*
Y1114850D03*
Y1084850D03*
X6925061Y1004850D03*
X6825061Y1054850D03*
X6750061Y1079850D03*
X6675061Y1024850D03*
X6645061Y1204850D03*
Y1274850D03*
X6735061D03*
Y1204850D03*
X6785061D03*
X6774061Y845850D03*
X6785061Y819850D03*
X6735061Y815850D03*
X6710061Y829850D03*
X6660061Y809850D03*
X6610061D03*
X6525061Y714850D03*
X6355061Y644850D03*
X6275061Y664850D03*
X6225061Y844850D03*
X6295061Y904850D03*
X6335061Y919850D03*
X6315061Y994850D03*
X6235061Y1024850D03*
X6185061Y994850D03*
X6195061Y954850D03*
X6235061Y1144850D03*
X6210061Y1344850D03*
X6305061D03*
X6385061Y1354850D03*
Y1484850D03*
X6460061Y1494850D03*
X6545061D03*
X6560061Y1459850D03*
X6610061Y1497850D03*
X6657061Y1494850D03*
X6755061Y1574850D03*
X6795061Y1624850D03*
X6845061Y1669850D03*
X6870061Y1654850D03*
X6710061Y1649850D03*
X6735061Y1854850D03*
X6855061Y1934850D03*
X6910061Y1979850D03*
X6990061Y1989850D03*
X6970061Y1934850D03*
Y2054850D03*
X6855061Y2079850D03*
X7130061Y2029850D03*
Y1969850D03*
X7240061Y1974850D03*
X7265061Y2029850D03*
X7300061Y1914850D03*
X7325061D03*
Y1874850D03*
X7300061D03*
X7395061Y1859850D03*
X7400061Y1924850D03*
X7435061Y1949850D03*
X7485061D03*
X7495061Y1774850D03*
X7450061Y1744850D03*
X7480061Y1684850D03*
X7310061Y1694850D03*
X7185061Y1744850D03*
Y1834850D03*
X7575061Y1824850D03*
X7675061Y1904850D03*
X7625061Y2044850D03*
X7695061Y1719850D03*
X7640061Y1594850D03*
X7560061Y1574850D03*
Y1419850D03*
X7625061Y1444850D03*
X7700061Y1419850D03*
X7670061Y1354850D03*
X7665061Y1244850D03*
X7610061Y1294850D03*
X7585061Y1319850D03*
X7560061Y1199850D03*
X7535061Y1219850D03*
X7460061Y1444850D03*
X7160061Y1454850D03*
X7130061Y1464850D03*
X7105061Y1489850D03*
X7075061Y1429850D03*
X6925061Y729850D03*
X6895061Y614850D03*
X6735061Y654850D03*
X6485061Y994850D03*
X6477061Y1046850D03*
X6475061Y1144850D03*
X6225061Y1454850D03*
Y1584850D03*
X6160061Y1569850D03*
X6235061Y1684850D03*
X6340061D03*
X6275061Y1809850D03*
X6335061Y1919850D03*
Y1994850D03*
X6450061Y1949850D03*
X6210061Y2094850D03*
X6075061Y1894850D03*
X6110061Y1719850D03*
X6135061Y1544850D03*
X6110061Y1444850D03*
Y1344850D03*
X6055061Y1204850D03*
X6145061Y1164850D03*
X6085061Y1094850D03*
X6005061Y974850D03*
X5845061Y924850D03*
X5805061Y1004850D03*
X5535061Y994850D03*
Y794850D03*
Y594850D03*
X6000061Y574850D03*
X6060061Y644850D03*
X6125061Y659850D03*
Y704850D03*
X6110061Y844850D03*
X6060061Y819850D03*
X5535061Y1194850D03*
Y1394850D03*
Y1594850D03*
Y1794850D03*
Y1994850D03*
Y2194850D03*
Y2394850D03*
X5735061D03*
Y2594850D03*
X5770061Y2639850D03*
X5895061Y2664850D03*
X5890061Y2519850D03*
X6115061Y2524850D03*
X6120061Y2594850D03*
X6105061Y2619850D03*
X6145061Y2579850D03*
X6085061Y2694850D03*
Y2769850D03*
X5965061Y2744850D03*
X5935061Y2834850D03*
X5735061Y2794850D03*
X5535061D03*
Y2594850D03*
Y2994850D03*
Y3194850D03*
X5635061Y3394850D03*
X5835061D03*
X6035061D03*
X6085061Y3169850D03*
X6125061Y3054850D03*
X6115061Y2984850D03*
X5735061Y2994850D03*
X5835061Y3194850D03*
X6035061Y2394850D03*
Y2194850D03*
X5835061D03*
X6220061Y2199850D03*
X6290061Y2204850D03*
X6260061Y2294850D03*
X6195061Y2274850D03*
X6245061Y2404850D03*
X6235061Y2534850D03*
X6200061Y2539850D03*
X6170061D03*
X6220061Y2579850D03*
X6275061Y2524850D03*
X6170061Y2744850D03*
X6155061Y2794850D03*
Y2869850D03*
X6235061Y2889850D03*
X6265061Y2879850D03*
X6185061Y2969850D03*
X6155061Y3019850D03*
X6235061Y3394850D03*
X6435061D03*
X6635061D03*
X6835061D03*
X6860061Y3239850D03*
X6735061Y3196850D03*
X6565061D03*
X6540061Y3194850D03*
X6525061Y2834850D03*
X6595061Y2824850D03*
X6670061D03*
X6760061Y2834850D03*
X6775061Y2764850D03*
X6855061Y2784850D03*
X6845061Y2884850D03*
X6835061Y2940850D03*
X6855061Y2964850D03*
X6745061Y3004850D03*
X6825061Y3089850D03*
X6935061Y3141850D03*
X7005061Y3084850D03*
X7085061Y3169850D03*
Y3204850D03*
Y3369850D03*
X7035061Y3394850D03*
X6975061Y3314850D03*
X7260061Y3219850D03*
Y3169850D03*
X7285061Y3094850D03*
X7215061Y3064850D03*
X7195061Y3024850D03*
X7202061Y2941850D03*
X7270061Y2944850D03*
X7310061Y2794850D03*
X7397061Y2779850D03*
X7535061Y2754850D03*
Y2714850D03*
X7457061Y2644850D03*
X7471061Y2605850D03*
X7385061Y2604850D03*
X7435061Y2514850D03*
X7505061Y2534850D03*
X7495061Y2404850D03*
X7635061Y2394850D03*
Y2294850D03*
X7700061Y2644850D03*
X7675061Y2734850D03*
X7625061Y2904850D03*
X7600061Y2964850D03*
X7620061Y2994850D03*
X7710061Y3039850D03*
X7635061Y3169850D03*
X7475061Y3154850D03*
X7490061Y2894850D03*
X7515061Y2908850D03*
X7170061Y2769850D03*
X7118061Y2765850D03*
X7000061Y2774850D03*
X6980061Y2754850D03*
X6955061Y2769850D03*
X6975061Y2884850D03*
X6960061Y2554850D03*
X7050061D03*
X7185061Y2604850D03*
Y2654850D03*
X7175061Y2404850D03*
X7325061D03*
X7225061Y2206850D03*
X7120061Y2159850D03*
X7045061D03*
X7020061Y2139850D03*
X6980061Y2144850D03*
X6948061Y2394850D03*
X6857061Y2359850D03*
X6845061Y2514850D03*
X6820061Y2574850D03*
X6840061Y2604850D03*
X6867061Y2626850D03*
X6885061Y2574850D03*
X6595061Y2694850D03*
X6555061Y2654850D03*
X6465061Y2734850D03*
X6435061Y2819850D03*
X6540061Y2381850D03*
X7360061Y3344850D03*
X7635061Y3369850D03*
X7735061Y3394850D03*
X7935061D03*
X8135061D03*
X8235061Y3294850D03*
Y3094850D03*
Y2894850D03*
Y2694850D03*
X8135061Y2594850D03*
X8115061Y2509850D03*
X8035061Y2394850D03*
Y2294850D03*
X8235061Y2394850D03*
Y2194850D03*
X7835061Y2394850D03*
X7795061Y2754850D03*
X7715061Y2824850D03*
X7765061Y2894850D03*
X7860061D03*
X8035061D03*
Y3094850D03*
X7785061Y3044850D03*
G54D11*
X6230061Y1374850D03*
X6270061D03*
X6305061Y1404850D03*
X6465061Y1359850D03*
X6510061Y1594850D03*
X6560061Y1684850D03*
Y1819850D03*
X6460061D03*
Y1769850D03*
X6535061Y2044850D03*
X6345061Y2079850D03*
Y2109850D03*
X6620061Y1029850D03*
X6925061Y694850D03*
X7035061Y644850D03*
X7155061Y2574850D03*
X7145061Y2654850D03*
X7200061Y2689850D03*
X7117061Y2941850D03*
X7045061Y3094850D03*
X7530061Y3029850D03*
X7535061Y2888850D03*
X7460061Y2919850D03*
X7547061Y2671850D03*
X7750061Y2759850D03*
X7885061Y2844850D03*
G54D12*
X6610061Y569850D03*
X6810061D03*
X6510061Y2693850D03*
Y2893850D03*
G54D13*
X5635061Y394850D03*
X5735061D03*
Y494850D03*
X5635061D03*
X5935061D03*
Y394850D03*
X7835061D03*
Y494850D03*
X8035061D03*
Y394850D03*
X8135061D03*
Y494850D03*
Y594850D03*
X8035061D03*
Y694850D03*
Y794850D03*
Y894850D03*
Y994850D03*
Y1094850D03*
Y1194850D03*
Y1294850D03*
Y1394850D03*
Y1494850D03*
Y1594850D03*
Y1694850D03*
Y1794850D03*
Y1894850D03*
Y1994850D03*
Y2094850D03*
X8135061D03*
Y1994850D03*
Y1894850D03*
Y1794850D03*
Y1694850D03*
Y1594850D03*
Y1494850D03*
Y1394850D03*
Y1294850D03*
Y1194850D03*
Y1094850D03*
Y994850D03*
Y894850D03*
Y794850D03*
Y694850D03*
X7835061D03*
Y794850D03*
Y894850D03*
Y994850D03*
Y1094850D03*
Y1254850D03*
Y1354850D03*
Y1454850D03*
Y1554850D03*
Y1654850D03*
Y1754850D03*
Y1854850D03*
Y1954850D03*
Y2054850D03*
Y594850D03*
X7410061Y2069850D03*
X7310061D03*
X7210061D03*
X6910061Y1819850D03*
X6810061D03*
X5935061Y1794850D03*
Y1694850D03*
Y1594850D03*
Y1494850D03*
Y1394850D03*
Y1294850D03*
Y1194850D03*
Y1094850D03*
Y894850D03*
Y794850D03*
Y694850D03*
Y594850D03*
X5735061D03*
Y694850D03*
Y794850D03*
Y894850D03*
Y994850D03*
Y1094850D03*
Y1194850D03*
Y1294850D03*
Y1394850D03*
Y1494850D03*
Y1594850D03*
Y1694850D03*
Y1794850D03*
Y1894850D03*
Y1994850D03*
Y2094850D03*
X5635061D03*
Y1994850D03*
Y1894850D03*
Y1794850D03*
Y1694850D03*
Y1594850D03*
Y1494850D03*
Y1394850D03*
Y1294850D03*
Y1194850D03*
Y1094850D03*
Y994850D03*
Y894850D03*
Y794850D03*
Y694850D03*
Y594850D03*
Y2194850D03*
X5735061D03*
X5835061Y2594850D03*
Y2694850D03*
Y2794850D03*
Y2894850D03*
Y2994850D03*
Y3094850D03*
X5635061Y3194850D03*
Y3294850D03*
Y2694850D03*
Y2594850D03*
X5985061Y2569850D03*
Y2669850D03*
X6385061Y3044850D03*
Y3144850D03*
Y3244850D03*
Y3344850D03*
X6810061D03*
X6910061D03*
X8135061Y3294850D03*
Y3194850D03*
Y2194850D03*
X8035061D03*
X7835061Y2154850D03*
G54D14*
X6785061Y1021850D03*
Y1266850D03*
X7273061Y3269850D03*
X7446061D03*
G54D15*
X7235061Y294850D03*
X5935061Y2344850D03*
X7835061Y2294850D03*
G54D10*
X8289090Y394850D03*
X8579090Y314850D03*
X8789090Y294850D03*
X8879090Y494850D03*
X8914090Y434850D03*
X8939090Y409850D03*
X9024090Y404850D03*
X9114090D03*
X9109090Y544850D03*
X9029090D03*
X9224090Y549850D03*
X9309090Y544850D03*
X9319090Y434850D03*
X9439090Y394850D03*
X9489090D03*
X9499090Y514850D03*
X9439090D03*
X9649090Y454850D03*
X9814090Y544850D03*
X9889090Y494850D03*
X10014090Y544850D03*
X10089090Y494850D03*
X10189090Y394850D03*
X9989090D03*
X9909090Y234850D03*
X10079090D03*
X9789090Y294850D03*
X9569090Y234850D03*
X9329090D03*
X9149090D03*
X8959090D03*
X10419090Y324850D03*
X10339090Y474850D03*
X10489090D03*
X10529090Y524850D03*
X10709090Y314850D03*
X10989090Y394850D03*
Y594850D03*
Y794850D03*
Y994850D03*
Y1194850D03*
Y1394850D03*
Y1594850D03*
Y1794850D03*
Y1994850D03*
X10479090Y1709850D03*
X10494090Y1564850D03*
X10469090Y1539850D03*
X10519090Y1434850D03*
X10654090Y1479850D03*
Y1514850D03*
X10699090Y1454850D03*
Y1374850D03*
X10679090Y1149850D03*
X10494090Y1109850D03*
X10509090Y934850D03*
X10469090Y699850D03*
X10689090Y744850D03*
X10404090D03*
X10329090D03*
X10349090Y804850D03*
X10294090Y864850D03*
X10269090Y879850D03*
X10244090Y864850D03*
X10199090Y854850D03*
X10179090Y969850D03*
Y1024850D03*
X10109090D03*
X10069090Y1059850D03*
X10044090Y1074850D03*
X10036090Y1132850D03*
X9999090Y1219850D03*
Y1344850D03*
X10139090Y1354850D03*
X10214090Y1319850D03*
Y1293850D03*
Y1219850D03*
Y1189850D03*
Y1094850D03*
X10264090D03*
X10239090Y1044850D03*
X10339090D03*
X10334090Y939850D03*
X10379090Y969850D03*
X10419090Y994850D03*
Y864850D03*
X10149090Y764850D03*
X10064090Y719850D03*
X10059090Y684850D03*
Y644850D03*
X10069090Y574850D03*
X10159090Y594850D03*
X10234090Y569850D03*
X10309090Y574850D03*
X9859090Y564850D03*
X9789090Y569850D03*
Y604850D03*
Y694850D03*
Y769850D03*
Y819850D03*
X9819090Y849850D03*
X9854090Y879850D03*
X9919090Y844850D03*
X10059090D03*
Y994850D03*
X9909090Y1039850D03*
X9879090Y1019850D03*
X9844090Y1179850D03*
X9884090Y1294850D03*
X9754090Y1319850D03*
X9684090Y1294850D03*
Y1254850D03*
X9689090Y1199850D03*
X9659090Y1174850D03*
Y1144850D03*
Y1114850D03*
Y1084850D03*
X9679090Y1004850D03*
X9579090Y1054850D03*
X9504090Y1079850D03*
X9429090Y1024850D03*
X9399090Y1204850D03*
Y1274850D03*
X9489090D03*
Y1204850D03*
X9539090D03*
X9528090Y845850D03*
X9539090Y819850D03*
X9489090Y815850D03*
X9464090Y829850D03*
X9414090Y809850D03*
X9364090D03*
X9279090Y714850D03*
X9109090Y644850D03*
X9029090Y664850D03*
X8979090Y844850D03*
X9049090Y904850D03*
X9089090Y919850D03*
X9069090Y994850D03*
X8989090Y1024850D03*
X8939090Y994850D03*
X8949090Y954850D03*
X8989090Y1144850D03*
X8964090Y1344850D03*
X9059090D03*
X9139090Y1354850D03*
Y1484850D03*
X9214090Y1494850D03*
X9299090D03*
X9314090Y1459850D03*
X9364090Y1497850D03*
X9411090Y1494850D03*
X9509090Y1574850D03*
X9549090Y1624850D03*
X9599090Y1669850D03*
X9624090Y1654850D03*
X9464090Y1649850D03*
X9489090Y1854850D03*
X9609090Y1934850D03*
X9664090Y1979850D03*
X9744090Y1989850D03*
X9724090Y1934850D03*
Y2054850D03*
X9609090Y2079850D03*
X9884090Y2029850D03*
Y1969850D03*
X9994090Y1974850D03*
X10019090Y2029850D03*
X10054090Y1914850D03*
X10079090D03*
Y1874850D03*
X10054090D03*
X10149090Y1859850D03*
X10154090Y1924850D03*
X10189090Y1949850D03*
X10239090D03*
X10249090Y1774850D03*
X10204090Y1744850D03*
X10234090Y1684850D03*
X10064090Y1694850D03*
X9939090Y1744850D03*
Y1834850D03*
X10329090Y1824850D03*
X10429090Y1904850D03*
X10379090Y2044850D03*
X10449090Y1719850D03*
X10394090Y1594850D03*
X10314090Y1574850D03*
Y1419850D03*
X10379090Y1444850D03*
X10454090Y1419850D03*
X10424090Y1354850D03*
X10419090Y1244850D03*
X10364090Y1294850D03*
X10339090Y1319850D03*
X10314090Y1199850D03*
X10289090Y1219850D03*
X10214090Y1444850D03*
X9914090Y1454850D03*
X9884090Y1464850D03*
X9859090Y1489850D03*
X9829090Y1429850D03*
X9679090Y729850D03*
X9649090Y614850D03*
X9489090Y654850D03*
X9239090Y994850D03*
X9231090Y1046850D03*
X9229090Y1144850D03*
X8979090Y1454850D03*
Y1584850D03*
X8914090Y1569850D03*
X8989090Y1684850D03*
X9094090D03*
X9029090Y1809850D03*
X9089090Y1919850D03*
Y1994850D03*
X9204090Y1949850D03*
X8964090Y2094850D03*
X8829090Y1894850D03*
X8864090Y1719850D03*
X8889090Y1544850D03*
X8864090Y1444850D03*
Y1344850D03*
X8809090Y1204850D03*
X8899090Y1164850D03*
X8839090Y1094850D03*
X8759090Y974850D03*
X8599090Y924850D03*
X8559090Y1004850D03*
X8289090Y994850D03*
Y794850D03*
Y594850D03*
X8754090Y574850D03*
X8814090Y644850D03*
X8879090Y659850D03*
Y704850D03*
X8864090Y844850D03*
X8814090Y819850D03*
X8289090Y1194850D03*
Y1394850D03*
Y1594850D03*
Y1794850D03*
Y1994850D03*
Y2194850D03*
Y2394850D03*
X8489090D03*
Y2594850D03*
X8524090Y2639850D03*
X8649090Y2664850D03*
X8644090Y2519850D03*
X8869090Y2524850D03*
X8874090Y2594850D03*
X8859090Y2619850D03*
X8899090Y2579850D03*
X8839090Y2694850D03*
Y2769850D03*
X8719090Y2744850D03*
X8689090Y2834850D03*
X8489090Y2794850D03*
X8289090D03*
Y2594850D03*
Y2994850D03*
Y3194850D03*
X8389090Y3394850D03*
X8589090D03*
X8789090D03*
X8839090Y3169850D03*
X8879090Y3054850D03*
X8869090Y2984850D03*
X8489090Y2994850D03*
X8589090Y3194850D03*
X8789090Y2394850D03*
Y2194850D03*
X8589090D03*
X8974090Y2199850D03*
X9044090Y2204850D03*
X9014090Y2294850D03*
X8949090Y2274850D03*
X8999090Y2404850D03*
X8989090Y2534850D03*
X8954090Y2539850D03*
X8924090D03*
X8974090Y2579850D03*
X9029090Y2524850D03*
X8924090Y2744850D03*
X8909090Y2794850D03*
Y2869850D03*
X8989090Y2889850D03*
X9019090Y2879850D03*
X8939090Y2969850D03*
X8909090Y3019850D03*
X8989090Y3394850D03*
X9189090D03*
X9389090D03*
X9589090D03*
X9614090Y3239850D03*
X9489090Y3196850D03*
X9319090D03*
X9294090Y3194850D03*
X9279090Y2834850D03*
X9349090Y2824850D03*
X9424090D03*
X9514090Y2834850D03*
X9529090Y2764850D03*
X9609090Y2784850D03*
X9599090Y2884850D03*
X9589090Y2940850D03*
X9609090Y2964850D03*
X9499090Y3004850D03*
X9579090Y3089850D03*
X9689090Y3141850D03*
X9759090Y3084850D03*
X9839090Y3169850D03*
Y3204850D03*
Y3369850D03*
X9789090Y3394850D03*
X9729090Y3314850D03*
X10014090Y3219850D03*
Y3169850D03*
X10039090Y3094850D03*
X9969090Y3064850D03*
X9949090Y3024850D03*
X9956090Y2941850D03*
X10024090Y2944850D03*
X10064090Y2794850D03*
X10151090Y2779850D03*
X10289090Y2754850D03*
Y2714850D03*
X10211090Y2644850D03*
X10225090Y2605850D03*
X10139090Y2604850D03*
X10189090Y2514850D03*
X10259090Y2534850D03*
X10249090Y2404850D03*
X10389090Y2394850D03*
Y2294850D03*
X10454090Y2644850D03*
X10429090Y2734850D03*
X10379090Y2904850D03*
X10354090Y2964850D03*
X10374090Y2994850D03*
X10464090Y3039850D03*
X10389090Y3169850D03*
X10229090Y3154850D03*
X10244090Y2894850D03*
X10269090Y2908850D03*
X9924090Y2769850D03*
X9872090Y2765850D03*
X9754090Y2774850D03*
X9734090Y2754850D03*
X9709090Y2769850D03*
X9729090Y2884850D03*
X9714090Y2554850D03*
X9804090D03*
X9939090Y2604850D03*
Y2654850D03*
X9929090Y2404850D03*
X10079090D03*
X9979090Y2206850D03*
X9874090Y2159850D03*
X9799090D03*
X9774090Y2139850D03*
X9734090Y2144850D03*
X9702090Y2394850D03*
X9611090Y2359850D03*
X9599090Y2514850D03*
X9574090Y2574850D03*
X9594090Y2604850D03*
X9621090Y2626850D03*
X9639090Y2574850D03*
X9349090Y2694850D03*
X9309090Y2654850D03*
X9219090Y2734850D03*
X9189090Y2819850D03*
X9294090Y2381850D03*
X10114090Y3344850D03*
X10389090Y3369850D03*
X10489090Y3394850D03*
X10689090D03*
X10889090D03*
X10989090Y3294850D03*
Y3094850D03*
Y2894850D03*
Y2694850D03*
X10889090Y2594850D03*
X10869090Y2509850D03*
X10789090Y2394850D03*
Y2294850D03*
X10989090Y2394850D03*
Y2194850D03*
X10589090Y2394850D03*
X10549090Y2754850D03*
X10469090Y2824850D03*
X10519090Y2894850D03*
X10614090D03*
X10789090D03*
Y3094850D03*
X10539090Y3044850D03*
G54D11*
X8984090Y1374850D03*
X9024090D03*
X9059090Y1404850D03*
X9219090Y1359850D03*
X9264090Y1594850D03*
X9314090Y1684850D03*
Y1819850D03*
X9214090D03*
Y1769850D03*
X9289090Y2044850D03*
X9099090Y2079850D03*
Y2109850D03*
X9374090Y1029850D03*
X9679090Y694850D03*
X9789090Y644850D03*
X9909090Y2574850D03*
X9899090Y2654850D03*
X9954090Y2689850D03*
X9871090Y2941850D03*
X9799090Y3094850D03*
X10284090Y3029850D03*
X10289090Y2888850D03*
X10214090Y2919850D03*
X10301090Y2671850D03*
X10504090Y2759850D03*
X10639090Y2844850D03*
G54D12*
X9364090Y569850D03*
X9564090D03*
X9264090Y2693850D03*
Y2893850D03*
G54D13*
X8389090Y394850D03*
X8489090D03*
Y494850D03*
X8389090D03*
X8689090D03*
Y394850D03*
X10589090D03*
Y494850D03*
X10789090D03*
Y394850D03*
X10889090D03*
Y494850D03*
Y594850D03*
X10789090D03*
Y694850D03*
Y794850D03*
Y894850D03*
Y994850D03*
Y1094850D03*
Y1194850D03*
Y1294850D03*
Y1394850D03*
Y1494850D03*
Y1594850D03*
Y1694850D03*
Y1794850D03*
Y1894850D03*
Y1994850D03*
Y2094850D03*
X10889090D03*
Y1994850D03*
Y1894850D03*
Y1794850D03*
Y1694850D03*
Y1594850D03*
Y1494850D03*
Y1394850D03*
Y1294850D03*
Y1194850D03*
Y1094850D03*
Y994850D03*
Y894850D03*
Y794850D03*
Y694850D03*
X10589090D03*
Y794850D03*
Y894850D03*
Y994850D03*
Y1094850D03*
Y1254850D03*
Y1354850D03*
Y1454850D03*
Y1554850D03*
Y1654850D03*
Y1754850D03*
Y1854850D03*
Y1954850D03*
Y2054850D03*
Y594850D03*
X10164090Y2069850D03*
X10064090D03*
X9964090D03*
X9664090Y1819850D03*
X9564090D03*
X8689090Y1794850D03*
Y1694850D03*
Y1594850D03*
Y1494850D03*
Y1394850D03*
Y1294850D03*
Y1194850D03*
Y1094850D03*
Y894850D03*
Y794850D03*
Y694850D03*
Y594850D03*
X8489090D03*
Y694850D03*
Y794850D03*
Y894850D03*
Y994850D03*
Y1094850D03*
Y1194850D03*
Y1294850D03*
Y1394850D03*
Y1494850D03*
Y1594850D03*
Y1694850D03*
Y1794850D03*
Y1894850D03*
Y1994850D03*
Y2094850D03*
X8389090D03*
Y1994850D03*
Y1894850D03*
Y1794850D03*
Y1694850D03*
Y1594850D03*
Y1494850D03*
Y1394850D03*
Y1294850D03*
Y1194850D03*
Y1094850D03*
Y994850D03*
Y894850D03*
Y794850D03*
Y694850D03*
Y594850D03*
Y2194850D03*
X8489090D03*
X8589090Y2594850D03*
Y2694850D03*
Y2794850D03*
Y2894850D03*
Y2994850D03*
Y3094850D03*
X8389090Y3194850D03*
Y3294850D03*
Y2694850D03*
Y2594850D03*
X8739090Y2569850D03*
Y2669850D03*
X9139090Y3044850D03*
Y3144850D03*
Y3244850D03*
Y3344850D03*
X9564090D03*
X9664090D03*
X10889090Y3294850D03*
Y3194850D03*
Y2194850D03*
X10789090D03*
X10589090Y2154850D03*
G54D14*
X9539090Y1021850D03*
Y1266850D03*
X10027090Y3269850D03*
X10200090D03*
G54D15*
X9989090Y294850D03*
X8689090Y2344850D03*
X10589090Y2294850D03*
G54D16*
X196850Y98425D03*
X10819252D03*
Y3542244D03*
X196850D03*
G54D17*
X2754181Y313008D03*
X5508210D03*
X8262239D03*
X2754194Y3406346D03*
X5508223D03*
X8262251D03*
M02*
