G04 #@! TF.GenerationSoftware,KiCad,Pcbnew,(5.1.4-0-10_14)*
G04 #@! TF.CreationDate,2020-03-11T12:16:04+01:00*
G04 #@! TF.ProjectId,CanSat2020Probe,43616e53-6174-4323-9032-3050726f6265,v01*
G04 #@! TF.SameCoordinates,Original*
G04 #@! TF.FileFunction,Legend,Top*
G04 #@! TF.FilePolarity,Positive*
%FSLAX46Y46*%
G04 Gerber Fmt 4.6, Leading zero omitted, Abs format (unit mm)*
G04 Created by KiCad (PCBNEW (5.1.4-0-10_14)) date 2020-03-11 12:16:04*
%MOMM*%
%LPD*%
G04 APERTURE LIST*
%ADD10C,0.300000*%
%ADD11C,0.150000*%
%ADD12C,0.120000*%
%ADD13C,0.100000*%
%ADD14C,0.200000*%
%ADD15C,0.254000*%
G04 APERTURE END LIST*
D10*
X123778571Y-92057142D02*
X124921428Y-92057142D01*
X124350000Y-92628571D02*
X124350000Y-91485714D01*
D11*
X139540476Y-97511904D02*
X139997619Y-97511904D01*
X139769047Y-98311904D02*
X139769047Y-97511904D01*
X140188095Y-97511904D02*
X140721428Y-98311904D01*
X140721428Y-97511904D02*
X140188095Y-98311904D01*
X141716666Y-96911904D02*
X141450000Y-96530952D01*
X141259523Y-96911904D02*
X141259523Y-96111904D01*
X141564285Y-96111904D01*
X141640476Y-96150000D01*
X141678571Y-96188095D01*
X141716666Y-96264285D01*
X141716666Y-96378571D01*
X141678571Y-96454761D01*
X141640476Y-96492857D01*
X141564285Y-96530952D01*
X141259523Y-96530952D01*
X141983333Y-96111904D02*
X142516666Y-96911904D01*
X142516666Y-96111904D02*
X141983333Y-96911904D01*
X142940476Y-94850000D02*
X142864285Y-94811904D01*
X142750000Y-94811904D01*
X142635714Y-94850000D01*
X142559523Y-94926190D01*
X142521428Y-95002380D01*
X142483333Y-95154761D01*
X142483333Y-95269047D01*
X142521428Y-95421428D01*
X142559523Y-95497619D01*
X142635714Y-95573809D01*
X142750000Y-95611904D01*
X142826190Y-95611904D01*
X142940476Y-95573809D01*
X142978571Y-95535714D01*
X142978571Y-95269047D01*
X142826190Y-95269047D01*
X143321428Y-95611904D02*
X143321428Y-94811904D01*
X143778571Y-95611904D01*
X143778571Y-94811904D01*
X144159523Y-95611904D02*
X144159523Y-94811904D01*
X144350000Y-94811904D01*
X144464285Y-94850000D01*
X144540476Y-94926190D01*
X144578571Y-95002380D01*
X144616666Y-95154761D01*
X144616666Y-95269047D01*
X144578571Y-95421428D01*
X144540476Y-95497619D01*
X144464285Y-95573809D01*
X144350000Y-95611904D01*
X144159523Y-95611904D01*
X166054761Y-89073809D02*
X166169047Y-89111904D01*
X166359523Y-89111904D01*
X166435714Y-89073809D01*
X166473809Y-89035714D01*
X166511904Y-88959523D01*
X166511904Y-88883333D01*
X166473809Y-88807142D01*
X166435714Y-88769047D01*
X166359523Y-88730952D01*
X166207142Y-88692857D01*
X166130952Y-88654761D01*
X166092857Y-88616666D01*
X166054761Y-88540476D01*
X166054761Y-88464285D01*
X166092857Y-88388095D01*
X166130952Y-88350000D01*
X166207142Y-88311904D01*
X166397619Y-88311904D01*
X166511904Y-88350000D01*
X166778571Y-88311904D02*
X166969047Y-89111904D01*
X167121428Y-88540476D01*
X167273809Y-89111904D01*
X167464285Y-88311904D01*
X167769047Y-89111904D02*
X167769047Y-88311904D01*
X167959523Y-88311904D01*
X168073809Y-88350000D01*
X168150000Y-88426190D01*
X168188095Y-88502380D01*
X168226190Y-88654761D01*
X168226190Y-88769047D01*
X168188095Y-88921428D01*
X168150000Y-88997619D01*
X168073809Y-89073809D01*
X167959523Y-89111904D01*
X167769047Y-89111904D01*
X168569047Y-89111904D02*
X168569047Y-88311904D01*
X169102380Y-88311904D02*
X169254761Y-88311904D01*
X169330952Y-88350000D01*
X169407142Y-88426190D01*
X169445238Y-88578571D01*
X169445238Y-88845238D01*
X169407142Y-88997619D01*
X169330952Y-89073809D01*
X169254761Y-89111904D01*
X169102380Y-89111904D01*
X169026190Y-89073809D01*
X168950000Y-88997619D01*
X168911904Y-88845238D01*
X168911904Y-88578571D01*
X168950000Y-88426190D01*
X169026190Y-88350000D01*
X169102380Y-88311904D01*
X164540476Y-86907142D02*
X165150000Y-86907142D01*
X164845238Y-87211904D02*
X164845238Y-86602380D01*
X165454761Y-86411904D02*
X165950000Y-86411904D01*
X165683333Y-86716666D01*
X165797619Y-86716666D01*
X165873809Y-86754761D01*
X165911904Y-86792857D01*
X165950000Y-86869047D01*
X165950000Y-87059523D01*
X165911904Y-87135714D01*
X165873809Y-87173809D01*
X165797619Y-87211904D01*
X165569047Y-87211904D01*
X165492857Y-87173809D01*
X165454761Y-87135714D01*
X166178571Y-86411904D02*
X166445238Y-87211904D01*
X166711904Y-86411904D01*
X166902380Y-86411904D02*
X167397619Y-86411904D01*
X167130952Y-86716666D01*
X167245238Y-86716666D01*
X167321428Y-86754761D01*
X167359523Y-86792857D01*
X167397619Y-86869047D01*
X167397619Y-87059523D01*
X167359523Y-87135714D01*
X167321428Y-87173809D01*
X167245238Y-87211904D01*
X167016666Y-87211904D01*
X166940476Y-87173809D01*
X166902380Y-87135714D01*
X164511904Y-85511904D02*
X164245238Y-85130952D01*
X164054761Y-85511904D02*
X164054761Y-84711904D01*
X164359523Y-84711904D01*
X164435714Y-84750000D01*
X164473809Y-84788095D01*
X164511904Y-84864285D01*
X164511904Y-84978571D01*
X164473809Y-85054761D01*
X164435714Y-85092857D01*
X164359523Y-85130952D01*
X164054761Y-85130952D01*
X164816666Y-85473809D02*
X164930952Y-85511904D01*
X165121428Y-85511904D01*
X165197619Y-85473809D01*
X165235714Y-85435714D01*
X165273809Y-85359523D01*
X165273809Y-85283333D01*
X165235714Y-85207142D01*
X165197619Y-85169047D01*
X165121428Y-85130952D01*
X164969047Y-85092857D01*
X164892857Y-85054761D01*
X164854761Y-85016666D01*
X164816666Y-84940476D01*
X164816666Y-84864285D01*
X164854761Y-84788095D01*
X164892857Y-84750000D01*
X164969047Y-84711904D01*
X165159523Y-84711904D01*
X165273809Y-84750000D01*
X165502380Y-84711904D02*
X165959523Y-84711904D01*
X165730952Y-85511904D02*
X165730952Y-84711904D01*
X161040476Y-83673809D02*
X161154761Y-83711904D01*
X161345238Y-83711904D01*
X161421428Y-83673809D01*
X161459523Y-83635714D01*
X161497619Y-83559523D01*
X161497619Y-83483333D01*
X161459523Y-83407142D01*
X161421428Y-83369047D01*
X161345238Y-83330952D01*
X161192857Y-83292857D01*
X161116666Y-83254761D01*
X161078571Y-83216666D01*
X161040476Y-83140476D01*
X161040476Y-83064285D01*
X161078571Y-82988095D01*
X161116666Y-82950000D01*
X161192857Y-82911904D01*
X161383333Y-82911904D01*
X161497619Y-82950000D01*
X161764285Y-82911904D02*
X161954761Y-83711904D01*
X162107142Y-83140476D01*
X162259523Y-83711904D01*
X162450000Y-82911904D01*
X163211904Y-83635714D02*
X163173809Y-83673809D01*
X163059523Y-83711904D01*
X162983333Y-83711904D01*
X162869047Y-83673809D01*
X162792857Y-83597619D01*
X162754761Y-83521428D01*
X162716666Y-83369047D01*
X162716666Y-83254761D01*
X162754761Y-83102380D01*
X162792857Y-83026190D01*
X162869047Y-82950000D01*
X162983333Y-82911904D01*
X163059523Y-82911904D01*
X163173809Y-82950000D01*
X163211904Y-82988095D01*
X163935714Y-83711904D02*
X163554761Y-83711904D01*
X163554761Y-82911904D01*
X164202380Y-83711904D02*
X164202380Y-82911904D01*
X164659523Y-83711904D02*
X164316666Y-83254761D01*
X164659523Y-82911904D02*
X164202380Y-83369047D01*
X160745238Y-81973809D02*
X160859523Y-82011904D01*
X161050000Y-82011904D01*
X161126190Y-81973809D01*
X161164285Y-81935714D01*
X161202380Y-81859523D01*
X161202380Y-81783333D01*
X161164285Y-81707142D01*
X161126190Y-81669047D01*
X161050000Y-81630952D01*
X160897619Y-81592857D01*
X160821428Y-81554761D01*
X160783333Y-81516666D01*
X160745238Y-81440476D01*
X160745238Y-81364285D01*
X160783333Y-81288095D01*
X160821428Y-81250000D01*
X160897619Y-81211904D01*
X161088095Y-81211904D01*
X161202380Y-81250000D01*
X161469047Y-81211904D02*
X161659523Y-82011904D01*
X161811904Y-81440476D01*
X161964285Y-82011904D01*
X162154761Y-81211904D01*
X162611904Y-81211904D02*
X162764285Y-81211904D01*
X162840476Y-81250000D01*
X162916666Y-81326190D01*
X162954761Y-81478571D01*
X162954761Y-81745238D01*
X162916666Y-81897619D01*
X162840476Y-81973809D01*
X162764285Y-82011904D01*
X162611904Y-82011904D01*
X162535714Y-81973809D01*
X162459523Y-81897619D01*
X162421428Y-81745238D01*
X162421428Y-81478571D01*
X162459523Y-81326190D01*
X162535714Y-81250000D01*
X162611904Y-81211904D01*
X160140476Y-79750000D02*
X160064285Y-79711904D01*
X159950000Y-79711904D01*
X159835714Y-79750000D01*
X159759523Y-79826190D01*
X159721428Y-79902380D01*
X159683333Y-80054761D01*
X159683333Y-80169047D01*
X159721428Y-80321428D01*
X159759523Y-80397619D01*
X159835714Y-80473809D01*
X159950000Y-80511904D01*
X160026190Y-80511904D01*
X160140476Y-80473809D01*
X160178571Y-80435714D01*
X160178571Y-80169047D01*
X160026190Y-80169047D01*
X160521428Y-80511904D02*
X160521428Y-79711904D01*
X160978571Y-80511904D01*
X160978571Y-79711904D01*
X161359523Y-80511904D02*
X161359523Y-79711904D01*
X161550000Y-79711904D01*
X161664285Y-79750000D01*
X161740476Y-79826190D01*
X161778571Y-79902380D01*
X161816666Y-80054761D01*
X161816666Y-80169047D01*
X161778571Y-80321428D01*
X161740476Y-80397619D01*
X161664285Y-80473809D01*
X161550000Y-80511904D01*
X161359523Y-80511904D01*
D12*
X132760000Y-90000000D02*
X125140000Y-90000000D01*
X132760000Y-90000000D02*
X132760000Y-108000000D01*
X125140000Y-90000000D02*
X125140000Y-108000000D01*
X132760000Y-108000000D02*
X125140000Y-108000000D01*
D13*
X159750000Y-101900000D02*
X159750000Y-111900000D01*
X143350000Y-101900000D02*
X143350000Y-102400000D01*
X143750000Y-101900000D02*
X143350000Y-101900000D01*
X143350000Y-121500000D02*
X143350000Y-122000000D01*
X143750000Y-122000000D02*
X143350000Y-122000000D01*
X159750000Y-121500000D02*
X159750000Y-122000000D01*
X159750000Y-122000000D02*
X159350000Y-122000000D01*
X159750000Y-101900000D02*
X159350000Y-101900000D01*
D12*
X174665000Y-97950000D02*
X174665000Y-98590000D01*
X174665000Y-100750000D02*
X174665000Y-100110000D01*
X174665000Y-98590000D02*
X174035000Y-98590000D01*
X177385000Y-98000000D02*
X177385000Y-100700000D01*
X147463621Y-96962847D02*
X145937908Y-94783903D01*
X143253180Y-99911030D02*
X147463621Y-96962847D01*
X141727466Y-97732086D02*
X145937908Y-94783903D01*
X143253180Y-99911030D02*
X141727466Y-97732086D01*
X142212857Y-100639472D02*
X141123384Y-101402329D01*
X141123384Y-101402329D02*
X140360528Y-100312857D01*
X162850529Y-76547489D02*
X160812851Y-78257304D01*
X171052499Y-86322216D02*
X162850529Y-76547489D01*
X169014821Y-88032031D02*
X160812851Y-78257304D01*
X171052499Y-86322216D02*
X169014821Y-88032031D01*
X171868839Y-87295092D02*
X172723747Y-88313932D01*
X172723747Y-88313932D02*
X171704908Y-89168839D01*
X142960000Y-103591422D02*
X142960000Y-104108578D01*
X141540000Y-103591422D02*
X141540000Y-104108578D01*
X151908578Y-80890000D02*
X151391422Y-80890000D01*
X151908578Y-82310000D02*
X151391422Y-82310000D01*
X157571078Y-75990000D02*
X157053922Y-75990000D01*
X157571078Y-77410000D02*
X157053922Y-77410000D01*
X161440000Y-100153922D02*
X161440000Y-100671078D01*
X162860000Y-100153922D02*
X162860000Y-100671078D01*
X136520000Y-101610000D02*
X133580000Y-101610000D01*
X133580000Y-101610000D02*
X133580000Y-107050000D01*
X133580000Y-107050000D02*
X136520000Y-107050000D01*
X136520000Y-107050000D02*
X136520000Y-101610000D01*
X135050000Y-100590000D02*
X135050000Y-101610000D01*
X135050000Y-108070000D02*
X135050000Y-107050000D01*
X136520000Y-102510000D02*
X133580000Y-102510000D01*
X136520000Y-102630000D02*
X133580000Y-102630000D01*
X136520000Y-102390000D02*
X133580000Y-102390000D01*
X139520000Y-119600000D02*
G75*
G03X139520000Y-119600000I-2620000J0D01*
G01*
X136900000Y-120640000D02*
X136900000Y-122180000D01*
X136900000Y-117020000D02*
X136900000Y-118560000D01*
X136940000Y-120640000D02*
X136940000Y-122180000D01*
X136940000Y-117020000D02*
X136940000Y-118560000D01*
X136980000Y-117021000D02*
X136980000Y-118560000D01*
X136980000Y-120640000D02*
X136980000Y-122179000D01*
X137020000Y-117022000D02*
X137020000Y-118560000D01*
X137020000Y-120640000D02*
X137020000Y-122178000D01*
X137060000Y-117024000D02*
X137060000Y-118560000D01*
X137060000Y-120640000D02*
X137060000Y-122176000D01*
X137100000Y-117027000D02*
X137100000Y-118560000D01*
X137100000Y-120640000D02*
X137100000Y-122173000D01*
X137140000Y-117031000D02*
X137140000Y-118560000D01*
X137140000Y-120640000D02*
X137140000Y-122169000D01*
X137180000Y-117035000D02*
X137180000Y-118560000D01*
X137180000Y-120640000D02*
X137180000Y-122165000D01*
X137220000Y-117039000D02*
X137220000Y-118560000D01*
X137220000Y-120640000D02*
X137220000Y-122161000D01*
X137260000Y-117044000D02*
X137260000Y-118560000D01*
X137260000Y-120640000D02*
X137260000Y-122156000D01*
X137300000Y-117050000D02*
X137300000Y-118560000D01*
X137300000Y-120640000D02*
X137300000Y-122150000D01*
X137340000Y-117057000D02*
X137340000Y-118560000D01*
X137340000Y-120640000D02*
X137340000Y-122143000D01*
X137380000Y-117064000D02*
X137380000Y-118560000D01*
X137380000Y-120640000D02*
X137380000Y-122136000D01*
X137420000Y-117072000D02*
X137420000Y-118560000D01*
X137420000Y-120640000D02*
X137420000Y-122128000D01*
X137460000Y-117080000D02*
X137460000Y-118560000D01*
X137460000Y-120640000D02*
X137460000Y-122120000D01*
X137500000Y-117089000D02*
X137500000Y-118560000D01*
X137500000Y-120640000D02*
X137500000Y-122111000D01*
X137540000Y-117099000D02*
X137540000Y-118560000D01*
X137540000Y-120640000D02*
X137540000Y-122101000D01*
X137580000Y-117109000D02*
X137580000Y-118560000D01*
X137580000Y-120640000D02*
X137580000Y-122091000D01*
X137621000Y-117120000D02*
X137621000Y-118560000D01*
X137621000Y-120640000D02*
X137621000Y-122080000D01*
X137661000Y-117132000D02*
X137661000Y-118560000D01*
X137661000Y-120640000D02*
X137661000Y-122068000D01*
X137701000Y-117145000D02*
X137701000Y-118560000D01*
X137701000Y-120640000D02*
X137701000Y-122055000D01*
X137741000Y-117158000D02*
X137741000Y-118560000D01*
X137741000Y-120640000D02*
X137741000Y-122042000D01*
X137781000Y-117172000D02*
X137781000Y-118560000D01*
X137781000Y-120640000D02*
X137781000Y-122028000D01*
X137821000Y-117186000D02*
X137821000Y-118560000D01*
X137821000Y-120640000D02*
X137821000Y-122014000D01*
X137861000Y-117202000D02*
X137861000Y-118560000D01*
X137861000Y-120640000D02*
X137861000Y-121998000D01*
X137901000Y-117218000D02*
X137901000Y-118560000D01*
X137901000Y-120640000D02*
X137901000Y-121982000D01*
X137941000Y-117235000D02*
X137941000Y-118560000D01*
X137941000Y-120640000D02*
X137941000Y-121965000D01*
X137981000Y-117252000D02*
X137981000Y-118560000D01*
X137981000Y-120640000D02*
X137981000Y-121948000D01*
X138021000Y-117271000D02*
X138021000Y-118560000D01*
X138021000Y-120640000D02*
X138021000Y-121929000D01*
X138061000Y-117290000D02*
X138061000Y-118560000D01*
X138061000Y-120640000D02*
X138061000Y-121910000D01*
X138101000Y-117310000D02*
X138101000Y-118560000D01*
X138101000Y-120640000D02*
X138101000Y-121890000D01*
X138141000Y-117332000D02*
X138141000Y-118560000D01*
X138141000Y-120640000D02*
X138141000Y-121868000D01*
X138181000Y-117353000D02*
X138181000Y-118560000D01*
X138181000Y-120640000D02*
X138181000Y-121847000D01*
X138221000Y-117376000D02*
X138221000Y-118560000D01*
X138221000Y-120640000D02*
X138221000Y-121824000D01*
X138261000Y-117400000D02*
X138261000Y-118560000D01*
X138261000Y-120640000D02*
X138261000Y-121800000D01*
X138301000Y-117425000D02*
X138301000Y-118560000D01*
X138301000Y-120640000D02*
X138301000Y-121775000D01*
X138341000Y-117451000D02*
X138341000Y-118560000D01*
X138341000Y-120640000D02*
X138341000Y-121749000D01*
X138381000Y-117478000D02*
X138381000Y-118560000D01*
X138381000Y-120640000D02*
X138381000Y-121722000D01*
X138421000Y-117505000D02*
X138421000Y-118560000D01*
X138421000Y-120640000D02*
X138421000Y-121695000D01*
X138461000Y-117535000D02*
X138461000Y-118560000D01*
X138461000Y-120640000D02*
X138461000Y-121665000D01*
X138501000Y-117565000D02*
X138501000Y-118560000D01*
X138501000Y-120640000D02*
X138501000Y-121635000D01*
X138541000Y-117596000D02*
X138541000Y-118560000D01*
X138541000Y-120640000D02*
X138541000Y-121604000D01*
X138581000Y-117629000D02*
X138581000Y-118560000D01*
X138581000Y-120640000D02*
X138581000Y-121571000D01*
X138621000Y-117663000D02*
X138621000Y-118560000D01*
X138621000Y-120640000D02*
X138621000Y-121537000D01*
X138661000Y-117699000D02*
X138661000Y-118560000D01*
X138661000Y-120640000D02*
X138661000Y-121501000D01*
X138701000Y-117736000D02*
X138701000Y-118560000D01*
X138701000Y-120640000D02*
X138701000Y-121464000D01*
X138741000Y-117774000D02*
X138741000Y-118560000D01*
X138741000Y-120640000D02*
X138741000Y-121426000D01*
X138781000Y-117815000D02*
X138781000Y-118560000D01*
X138781000Y-120640000D02*
X138781000Y-121385000D01*
X138821000Y-117857000D02*
X138821000Y-118560000D01*
X138821000Y-120640000D02*
X138821000Y-121343000D01*
X138861000Y-117901000D02*
X138861000Y-118560000D01*
X138861000Y-120640000D02*
X138861000Y-121299000D01*
X138901000Y-117947000D02*
X138901000Y-118560000D01*
X138901000Y-120640000D02*
X138901000Y-121253000D01*
X138941000Y-117995000D02*
X138941000Y-121205000D01*
X138981000Y-118046000D02*
X138981000Y-121154000D01*
X139021000Y-118100000D02*
X139021000Y-121100000D01*
X139061000Y-118157000D02*
X139061000Y-121043000D01*
X139101000Y-118217000D02*
X139101000Y-120983000D01*
X139141000Y-118281000D02*
X139141000Y-120919000D01*
X139181000Y-118349000D02*
X139181000Y-120851000D01*
X139221000Y-118422000D02*
X139221000Y-120778000D01*
X139261000Y-118502000D02*
X139261000Y-120698000D01*
X139301000Y-118589000D02*
X139301000Y-120611000D01*
X139341000Y-118685000D02*
X139341000Y-120515000D01*
X139381000Y-118795000D02*
X139381000Y-120405000D01*
X139421000Y-118923000D02*
X139421000Y-120277000D01*
X139461000Y-119082000D02*
X139461000Y-120118000D01*
X139501000Y-119316000D02*
X139501000Y-119884000D01*
X134095225Y-118125000D02*
X134595225Y-118125000D01*
X134345225Y-117875000D02*
X134345225Y-118375000D01*
X138940000Y-113858578D02*
X138940000Y-113341422D01*
X140360000Y-113858578D02*
X140360000Y-113341422D01*
X137695225Y-106825000D02*
X137695225Y-107325000D01*
X137445225Y-107075000D02*
X137945225Y-107075000D01*
X142851000Y-108266000D02*
X142851000Y-108834000D01*
X142811000Y-108032000D02*
X142811000Y-109068000D01*
X142771000Y-107873000D02*
X142771000Y-109227000D01*
X142731000Y-107745000D02*
X142731000Y-109355000D01*
X142691000Y-107635000D02*
X142691000Y-109465000D01*
X142651000Y-107539000D02*
X142651000Y-109561000D01*
X142611000Y-107452000D02*
X142611000Y-109648000D01*
X142571000Y-107372000D02*
X142571000Y-109728000D01*
X142531000Y-107299000D02*
X142531000Y-109801000D01*
X142491000Y-107231000D02*
X142491000Y-109869000D01*
X142451000Y-107167000D02*
X142451000Y-109933000D01*
X142411000Y-107107000D02*
X142411000Y-109993000D01*
X142371000Y-107050000D02*
X142371000Y-110050000D01*
X142331000Y-106996000D02*
X142331000Y-110104000D01*
X142291000Y-106945000D02*
X142291000Y-110155000D01*
X142251000Y-109590000D02*
X142251000Y-110203000D01*
X142251000Y-106897000D02*
X142251000Y-107510000D01*
X142211000Y-109590000D02*
X142211000Y-110249000D01*
X142211000Y-106851000D02*
X142211000Y-107510000D01*
X142171000Y-109590000D02*
X142171000Y-110293000D01*
X142171000Y-106807000D02*
X142171000Y-107510000D01*
X142131000Y-109590000D02*
X142131000Y-110335000D01*
X142131000Y-106765000D02*
X142131000Y-107510000D01*
X142091000Y-109590000D02*
X142091000Y-110376000D01*
X142091000Y-106724000D02*
X142091000Y-107510000D01*
X142051000Y-109590000D02*
X142051000Y-110414000D01*
X142051000Y-106686000D02*
X142051000Y-107510000D01*
X142011000Y-109590000D02*
X142011000Y-110451000D01*
X142011000Y-106649000D02*
X142011000Y-107510000D01*
X141971000Y-109590000D02*
X141971000Y-110487000D01*
X141971000Y-106613000D02*
X141971000Y-107510000D01*
X141931000Y-109590000D02*
X141931000Y-110521000D01*
X141931000Y-106579000D02*
X141931000Y-107510000D01*
X141891000Y-109590000D02*
X141891000Y-110554000D01*
X141891000Y-106546000D02*
X141891000Y-107510000D01*
X141851000Y-109590000D02*
X141851000Y-110585000D01*
X141851000Y-106515000D02*
X141851000Y-107510000D01*
X141811000Y-109590000D02*
X141811000Y-110615000D01*
X141811000Y-106485000D02*
X141811000Y-107510000D01*
X141771000Y-109590000D02*
X141771000Y-110645000D01*
X141771000Y-106455000D02*
X141771000Y-107510000D01*
X141731000Y-109590000D02*
X141731000Y-110672000D01*
X141731000Y-106428000D02*
X141731000Y-107510000D01*
X141691000Y-109590000D02*
X141691000Y-110699000D01*
X141691000Y-106401000D02*
X141691000Y-107510000D01*
X141651000Y-109590000D02*
X141651000Y-110725000D01*
X141651000Y-106375000D02*
X141651000Y-107510000D01*
X141611000Y-109590000D02*
X141611000Y-110750000D01*
X141611000Y-106350000D02*
X141611000Y-107510000D01*
X141571000Y-109590000D02*
X141571000Y-110774000D01*
X141571000Y-106326000D02*
X141571000Y-107510000D01*
X141531000Y-109590000D02*
X141531000Y-110797000D01*
X141531000Y-106303000D02*
X141531000Y-107510000D01*
X141491000Y-109590000D02*
X141491000Y-110818000D01*
X141491000Y-106282000D02*
X141491000Y-107510000D01*
X141451000Y-109590000D02*
X141451000Y-110840000D01*
X141451000Y-106260000D02*
X141451000Y-107510000D01*
X141411000Y-109590000D02*
X141411000Y-110860000D01*
X141411000Y-106240000D02*
X141411000Y-107510000D01*
X141371000Y-109590000D02*
X141371000Y-110879000D01*
X141371000Y-106221000D02*
X141371000Y-107510000D01*
X141331000Y-109590000D02*
X141331000Y-110898000D01*
X141331000Y-106202000D02*
X141331000Y-107510000D01*
X141291000Y-109590000D02*
X141291000Y-110915000D01*
X141291000Y-106185000D02*
X141291000Y-107510000D01*
X141251000Y-109590000D02*
X141251000Y-110932000D01*
X141251000Y-106168000D02*
X141251000Y-107510000D01*
X141211000Y-109590000D02*
X141211000Y-110948000D01*
X141211000Y-106152000D02*
X141211000Y-107510000D01*
X141171000Y-109590000D02*
X141171000Y-110964000D01*
X141171000Y-106136000D02*
X141171000Y-107510000D01*
X141131000Y-109590000D02*
X141131000Y-110978000D01*
X141131000Y-106122000D02*
X141131000Y-107510000D01*
X141091000Y-109590000D02*
X141091000Y-110992000D01*
X141091000Y-106108000D02*
X141091000Y-107510000D01*
X141051000Y-109590000D02*
X141051000Y-111005000D01*
X141051000Y-106095000D02*
X141051000Y-107510000D01*
X141011000Y-109590000D02*
X141011000Y-111018000D01*
X141011000Y-106082000D02*
X141011000Y-107510000D01*
X140971000Y-109590000D02*
X140971000Y-111030000D01*
X140971000Y-106070000D02*
X140971000Y-107510000D01*
X140930000Y-109590000D02*
X140930000Y-111041000D01*
X140930000Y-106059000D02*
X140930000Y-107510000D01*
X140890000Y-109590000D02*
X140890000Y-111051000D01*
X140890000Y-106049000D02*
X140890000Y-107510000D01*
X140850000Y-109590000D02*
X140850000Y-111061000D01*
X140850000Y-106039000D02*
X140850000Y-107510000D01*
X140810000Y-109590000D02*
X140810000Y-111070000D01*
X140810000Y-106030000D02*
X140810000Y-107510000D01*
X140770000Y-109590000D02*
X140770000Y-111078000D01*
X140770000Y-106022000D02*
X140770000Y-107510000D01*
X140730000Y-109590000D02*
X140730000Y-111086000D01*
X140730000Y-106014000D02*
X140730000Y-107510000D01*
X140690000Y-109590000D02*
X140690000Y-111093000D01*
X140690000Y-106007000D02*
X140690000Y-107510000D01*
X140650000Y-109590000D02*
X140650000Y-111100000D01*
X140650000Y-106000000D02*
X140650000Y-107510000D01*
X140610000Y-109590000D02*
X140610000Y-111106000D01*
X140610000Y-105994000D02*
X140610000Y-107510000D01*
X140570000Y-109590000D02*
X140570000Y-111111000D01*
X140570000Y-105989000D02*
X140570000Y-107510000D01*
X140530000Y-109590000D02*
X140530000Y-111115000D01*
X140530000Y-105985000D02*
X140530000Y-107510000D01*
X140490000Y-109590000D02*
X140490000Y-111119000D01*
X140490000Y-105981000D02*
X140490000Y-107510000D01*
X140450000Y-109590000D02*
X140450000Y-111123000D01*
X140450000Y-105977000D02*
X140450000Y-107510000D01*
X140410000Y-109590000D02*
X140410000Y-111126000D01*
X140410000Y-105974000D02*
X140410000Y-107510000D01*
X140370000Y-109590000D02*
X140370000Y-111128000D01*
X140370000Y-105972000D02*
X140370000Y-107510000D01*
X140330000Y-109590000D02*
X140330000Y-111129000D01*
X140330000Y-105971000D02*
X140330000Y-107510000D01*
X140290000Y-105970000D02*
X140290000Y-107510000D01*
X140290000Y-109590000D02*
X140290000Y-111130000D01*
X140250000Y-105970000D02*
X140250000Y-107510000D01*
X140250000Y-109590000D02*
X140250000Y-111130000D01*
X142870000Y-108550000D02*
G75*
G03X142870000Y-108550000I-2620000J0D01*
G01*
X141790000Y-87308578D02*
X141790000Y-86791422D01*
X143210000Y-87308578D02*
X143210000Y-86791422D01*
X143210000Y-91258578D02*
X143210000Y-90741422D01*
X141790000Y-91258578D02*
X141790000Y-90741422D01*
X140503922Y-76240000D02*
X141021078Y-76240000D01*
X140503922Y-77660000D02*
X141021078Y-77660000D01*
X155291422Y-99060000D02*
X155808578Y-99060000D01*
X155291422Y-97640000D02*
X155808578Y-97640000D01*
D14*
X165125000Y-91000000D02*
X171975000Y-91000000D01*
X171975000Y-91000000D02*
X171975000Y-101100000D01*
X171975000Y-101100000D02*
X165125000Y-101100000D01*
X165125000Y-101100000D02*
X165125000Y-91000000D01*
D15*
X163450000Y-90725000D02*
G75*
G03X163450000Y-90725000I-125000J0D01*
G01*
D12*
X146500000Y-126485000D02*
X143800000Y-126485000D01*
X145910000Y-123765000D02*
X145910000Y-123135000D01*
X143750000Y-123765000D02*
X144390000Y-123765000D01*
X146550000Y-123765000D02*
X145910000Y-123765000D01*
X146291422Y-81840000D02*
X146808578Y-81840000D01*
X146291422Y-83260000D02*
X146808578Y-83260000D01*
X156141422Y-81440000D02*
X156658578Y-81440000D01*
X156141422Y-82860000D02*
X156658578Y-82860000D01*
X156010000Y-95710000D02*
X156960000Y-95710000D01*
X156960000Y-95710000D02*
X156960000Y-94760000D01*
X147690000Y-95710000D02*
X146740000Y-95710000D01*
X146740000Y-95710000D02*
X146740000Y-94760000D01*
X156010000Y-85490000D02*
X156960000Y-85490000D01*
X156960000Y-85490000D02*
X156960000Y-86440000D01*
X147690000Y-85490000D02*
X146740000Y-85490000D01*
X146740000Y-85490000D02*
X146740000Y-86440000D01*
X146740000Y-86440000D02*
X145400000Y-86440000D01*
X136150000Y-83100000D02*
X136150000Y-95700000D01*
X136150000Y-95700000D02*
X141250000Y-95700000D01*
X141250000Y-95700000D02*
X141250000Y-83100000D01*
X159350000Y-78050000D02*
X134350000Y-78050000D01*
X159350000Y-78050000D02*
X159350000Y-93050000D01*
X134350000Y-78050000D02*
X134350000Y-93050000D01*
X159350000Y-93050000D02*
X134350000Y-93050000D01*
X134650000Y-115210000D02*
X136450000Y-115210000D01*
X136450000Y-111990000D02*
X134000000Y-111990000D01*
D11*
X128716666Y-93902380D02*
X128716666Y-94616666D01*
X128669047Y-94759523D01*
X128573809Y-94854761D01*
X128430952Y-94902380D01*
X128335714Y-94902380D01*
X129621428Y-94235714D02*
X129621428Y-94902380D01*
X129383333Y-93854761D02*
X129145238Y-94569047D01*
X129764285Y-94569047D01*
X160302380Y-105111904D02*
X161111904Y-105111904D01*
X161207142Y-105064285D01*
X161254761Y-105016666D01*
X161302380Y-104921428D01*
X161302380Y-104730952D01*
X161254761Y-104635714D01*
X161207142Y-104588095D01*
X161111904Y-104540476D01*
X160302380Y-104540476D01*
X160397619Y-104111904D02*
X160350000Y-104064285D01*
X160302380Y-103969047D01*
X160302380Y-103730952D01*
X160350000Y-103635714D01*
X160397619Y-103588095D01*
X160492857Y-103540476D01*
X160588095Y-103540476D01*
X160730952Y-103588095D01*
X161302380Y-104159523D01*
X161302380Y-103540476D01*
X175691666Y-95602380D02*
X175691666Y-96316666D01*
X175644047Y-96459523D01*
X175548809Y-96554761D01*
X175405952Y-96602380D01*
X175310714Y-96602380D01*
X176644047Y-95602380D02*
X176167857Y-95602380D01*
X176120238Y-96078571D01*
X176167857Y-96030952D01*
X176263095Y-95983333D01*
X176501190Y-95983333D01*
X176596428Y-96030952D01*
X176644047Y-96078571D01*
X176691666Y-96173809D01*
X176691666Y-96411904D01*
X176644047Y-96507142D01*
X176596428Y-96554761D01*
X176501190Y-96602380D01*
X176263095Y-96602380D01*
X176167857Y-96554761D01*
X176120238Y-96507142D01*
X139798767Y-100299280D02*
X139213658Y-100708978D01*
X139069323Y-100751910D01*
X138936682Y-100728522D01*
X138815736Y-100638813D01*
X138761109Y-100560799D01*
X139802773Y-101052193D02*
X139787153Y-100946865D01*
X139798848Y-100880545D01*
X139849549Y-100786911D01*
X139888556Y-100759598D01*
X139993884Y-100743979D01*
X140060204Y-100755673D01*
X140153838Y-100806375D01*
X140263090Y-100962404D01*
X140278709Y-101067731D01*
X140267015Y-101134052D01*
X140216314Y-101227685D01*
X140177307Y-101254998D01*
X140071979Y-101270617D01*
X140005659Y-101258923D01*
X139912025Y-101208222D01*
X139802773Y-101052193D01*
X139709139Y-101001492D01*
X139642819Y-100989798D01*
X139537491Y-101005417D01*
X139381462Y-101114669D01*
X139330761Y-101208303D01*
X139319067Y-101274623D01*
X139334686Y-101379951D01*
X139443938Y-101535980D01*
X139537572Y-101586681D01*
X139603892Y-101598375D01*
X139709220Y-101582756D01*
X139865249Y-101473504D01*
X139915950Y-101379870D01*
X139927644Y-101313550D01*
X139912025Y-101208222D01*
X171740344Y-89729646D02*
X172199478Y-90276820D01*
X172254826Y-90416864D01*
X172243087Y-90551038D01*
X172164261Y-90679344D01*
X172091305Y-90740561D01*
X172032170Y-89484774D02*
X172542866Y-89056249D01*
X172857349Y-90097774D01*
X141107142Y-103016666D02*
X141154761Y-103064285D01*
X141202380Y-103207142D01*
X141202380Y-103302380D01*
X141154761Y-103445238D01*
X141059523Y-103540476D01*
X140964285Y-103588095D01*
X140773809Y-103635714D01*
X140630952Y-103635714D01*
X140440476Y-103588095D01*
X140345238Y-103540476D01*
X140250000Y-103445238D01*
X140202380Y-103302380D01*
X140202380Y-103207142D01*
X140250000Y-103064285D01*
X140297619Y-103016666D01*
X140202380Y-102683333D02*
X140202380Y-102016666D01*
X141202380Y-102445238D01*
X149083333Y-82102380D02*
X148750000Y-81626190D01*
X148511904Y-82102380D02*
X148511904Y-81102380D01*
X148892857Y-81102380D01*
X148988095Y-81150000D01*
X149035714Y-81197619D01*
X149083333Y-81292857D01*
X149083333Y-81435714D01*
X149035714Y-81530952D01*
X148988095Y-81578571D01*
X148892857Y-81626190D01*
X148511904Y-81626190D01*
X150035714Y-82102380D02*
X149464285Y-82102380D01*
X149750000Y-82102380D02*
X149750000Y-81102380D01*
X149654761Y-81245238D01*
X149559523Y-81340476D01*
X149464285Y-81388095D01*
X156983333Y-75407142D02*
X156935714Y-75454761D01*
X156792857Y-75502380D01*
X156697619Y-75502380D01*
X156554761Y-75454761D01*
X156459523Y-75359523D01*
X156411904Y-75264285D01*
X156364285Y-75073809D01*
X156364285Y-74930952D01*
X156411904Y-74740476D01*
X156459523Y-74645238D01*
X156554761Y-74550000D01*
X156697619Y-74502380D01*
X156792857Y-74502380D01*
X156935714Y-74550000D01*
X156983333Y-74597619D01*
X157840476Y-74835714D02*
X157840476Y-75502380D01*
X157602380Y-74454761D02*
X157364285Y-75169047D01*
X157983333Y-75169047D01*
X162507142Y-102916666D02*
X162554761Y-102964285D01*
X162602380Y-103107142D01*
X162602380Y-103202380D01*
X162554761Y-103345238D01*
X162459523Y-103440476D01*
X162364285Y-103488095D01*
X162173809Y-103535714D01*
X162030952Y-103535714D01*
X161840476Y-103488095D01*
X161745238Y-103440476D01*
X161650000Y-103345238D01*
X161602380Y-103202380D01*
X161602380Y-103107142D01*
X161650000Y-102964285D01*
X161697619Y-102916666D01*
X162602380Y-101964285D02*
X162602380Y-102535714D01*
X162602380Y-102250000D02*
X161602380Y-102250000D01*
X161745238Y-102345238D01*
X161840476Y-102440476D01*
X161888095Y-102535714D01*
X137972380Y-105068095D02*
X136972380Y-105068095D01*
X136972380Y-104830000D01*
X137020000Y-104687142D01*
X137115238Y-104591904D01*
X137210476Y-104544285D01*
X137400952Y-104496666D01*
X137543809Y-104496666D01*
X137734285Y-104544285D01*
X137829523Y-104591904D01*
X137924761Y-104687142D01*
X137972380Y-104830000D01*
X137972380Y-105068095D01*
X137305714Y-103639523D02*
X137972380Y-103639523D01*
X136924761Y-103877619D02*
X137639047Y-104115714D01*
X137639047Y-103496666D01*
X137602380Y-99511904D02*
X136602380Y-99511904D01*
X137602380Y-98940476D02*
X137030952Y-99369047D01*
X136602380Y-98940476D02*
X137173809Y-99511904D01*
X133883333Y-117307142D02*
X133835714Y-117354761D01*
X133692857Y-117402380D01*
X133597619Y-117402380D01*
X133454761Y-117354761D01*
X133359523Y-117259523D01*
X133311904Y-117164285D01*
X133264285Y-116973809D01*
X133264285Y-116830952D01*
X133311904Y-116640476D01*
X133359523Y-116545238D01*
X133454761Y-116450000D01*
X133597619Y-116402380D01*
X133692857Y-116402380D01*
X133835714Y-116450000D01*
X133883333Y-116497619D01*
X134454761Y-116830952D02*
X134359523Y-116783333D01*
X134311904Y-116735714D01*
X134264285Y-116640476D01*
X134264285Y-116592857D01*
X134311904Y-116497619D01*
X134359523Y-116450000D01*
X134454761Y-116402380D01*
X134645238Y-116402380D01*
X134740476Y-116450000D01*
X134788095Y-116497619D01*
X134835714Y-116592857D01*
X134835714Y-116640476D01*
X134788095Y-116735714D01*
X134740476Y-116783333D01*
X134645238Y-116830952D01*
X134454761Y-116830952D01*
X134359523Y-116878571D01*
X134311904Y-116926190D01*
X134264285Y-117021428D01*
X134264285Y-117211904D01*
X134311904Y-117307142D01*
X134359523Y-117354761D01*
X134454761Y-117402380D01*
X134645238Y-117402380D01*
X134740476Y-117354761D01*
X134788095Y-117307142D01*
X134835714Y-117211904D01*
X134835714Y-117021428D01*
X134788095Y-116926190D01*
X134740476Y-116878571D01*
X134645238Y-116830952D01*
X141807142Y-113816666D02*
X141854761Y-113864285D01*
X141902380Y-114007142D01*
X141902380Y-114102380D01*
X141854761Y-114245238D01*
X141759523Y-114340476D01*
X141664285Y-114388095D01*
X141473809Y-114435714D01*
X141330952Y-114435714D01*
X141140476Y-114388095D01*
X141045238Y-114340476D01*
X140950000Y-114245238D01*
X140902380Y-114102380D01*
X140902380Y-114007142D01*
X140950000Y-113864285D01*
X140997619Y-113816666D01*
X141902380Y-113340476D02*
X141902380Y-113150000D01*
X141854761Y-113054761D01*
X141807142Y-113007142D01*
X141664285Y-112911904D01*
X141473809Y-112864285D01*
X141092857Y-112864285D01*
X140997619Y-112911904D01*
X140950000Y-112959523D01*
X140902380Y-113054761D01*
X140902380Y-113245238D01*
X140950000Y-113340476D01*
X140997619Y-113388095D01*
X141092857Y-113435714D01*
X141330952Y-113435714D01*
X141426190Y-113388095D01*
X141473809Y-113340476D01*
X141521428Y-113245238D01*
X141521428Y-113054761D01*
X141473809Y-112959523D01*
X141426190Y-112911904D01*
X141330952Y-112864285D01*
X139007142Y-105407142D02*
X138959523Y-105454761D01*
X138816666Y-105502380D01*
X138721428Y-105502380D01*
X138578571Y-105454761D01*
X138483333Y-105359523D01*
X138435714Y-105264285D01*
X138388095Y-105073809D01*
X138388095Y-104930952D01*
X138435714Y-104740476D01*
X138483333Y-104645238D01*
X138578571Y-104550000D01*
X138721428Y-104502380D01*
X138816666Y-104502380D01*
X138959523Y-104550000D01*
X139007142Y-104597619D01*
X139959523Y-105502380D02*
X139388095Y-105502380D01*
X139673809Y-105502380D02*
X139673809Y-104502380D01*
X139578571Y-104645238D01*
X139483333Y-104740476D01*
X139388095Y-104788095D01*
X140578571Y-104502380D02*
X140673809Y-104502380D01*
X140769047Y-104550000D01*
X140816666Y-104597619D01*
X140864285Y-104692857D01*
X140911904Y-104883333D01*
X140911904Y-105121428D01*
X140864285Y-105311904D01*
X140816666Y-105407142D01*
X140769047Y-105454761D01*
X140673809Y-105502380D01*
X140578571Y-105502380D01*
X140483333Y-105454761D01*
X140435714Y-105407142D01*
X140388095Y-105311904D01*
X140340476Y-105121428D01*
X140340476Y-104883333D01*
X140388095Y-104692857D01*
X140435714Y-104597619D01*
X140483333Y-104550000D01*
X140578571Y-104502380D01*
X144507142Y-87216666D02*
X144554761Y-87264285D01*
X144602380Y-87407142D01*
X144602380Y-87502380D01*
X144554761Y-87645238D01*
X144459523Y-87740476D01*
X144364285Y-87788095D01*
X144173809Y-87835714D01*
X144030952Y-87835714D01*
X143840476Y-87788095D01*
X143745238Y-87740476D01*
X143650000Y-87645238D01*
X143602380Y-87502380D01*
X143602380Y-87407142D01*
X143650000Y-87264285D01*
X143697619Y-87216666D01*
X143697619Y-86835714D02*
X143650000Y-86788095D01*
X143602380Y-86692857D01*
X143602380Y-86454761D01*
X143650000Y-86359523D01*
X143697619Y-86311904D01*
X143792857Y-86264285D01*
X143888095Y-86264285D01*
X144030952Y-86311904D01*
X144602380Y-86883333D01*
X144602380Y-86264285D01*
X144607142Y-91216666D02*
X144654761Y-91264285D01*
X144702380Y-91407142D01*
X144702380Y-91502380D01*
X144654761Y-91645238D01*
X144559523Y-91740476D01*
X144464285Y-91788095D01*
X144273809Y-91835714D01*
X144130952Y-91835714D01*
X143940476Y-91788095D01*
X143845238Y-91740476D01*
X143750000Y-91645238D01*
X143702380Y-91502380D01*
X143702380Y-91407142D01*
X143750000Y-91264285D01*
X143797619Y-91216666D01*
X143702380Y-90883333D02*
X143702380Y-90264285D01*
X144083333Y-90597619D01*
X144083333Y-90454761D01*
X144130952Y-90359523D01*
X144178571Y-90311904D01*
X144273809Y-90264285D01*
X144511904Y-90264285D01*
X144607142Y-90311904D01*
X144654761Y-90359523D01*
X144702380Y-90454761D01*
X144702380Y-90740476D01*
X144654761Y-90835714D01*
X144607142Y-90883333D01*
X140595833Y-75657142D02*
X140548214Y-75704761D01*
X140405357Y-75752380D01*
X140310119Y-75752380D01*
X140167261Y-75704761D01*
X140072023Y-75609523D01*
X140024404Y-75514285D01*
X139976785Y-75323809D01*
X139976785Y-75180952D01*
X140024404Y-74990476D01*
X140072023Y-74895238D01*
X140167261Y-74800000D01*
X140310119Y-74752380D01*
X140405357Y-74752380D01*
X140548214Y-74800000D01*
X140595833Y-74847619D01*
X141500595Y-74752380D02*
X141024404Y-74752380D01*
X140976785Y-75228571D01*
X141024404Y-75180952D01*
X141119642Y-75133333D01*
X141357738Y-75133333D01*
X141452976Y-75180952D01*
X141500595Y-75228571D01*
X141548214Y-75323809D01*
X141548214Y-75561904D01*
X141500595Y-75657142D01*
X141452976Y-75704761D01*
X141357738Y-75752380D01*
X141119642Y-75752380D01*
X141024404Y-75704761D01*
X140976785Y-75657142D01*
X154207142Y-100307142D02*
X154159523Y-100354761D01*
X154016666Y-100402380D01*
X153921428Y-100402380D01*
X153778571Y-100354761D01*
X153683333Y-100259523D01*
X153635714Y-100164285D01*
X153588095Y-99973809D01*
X153588095Y-99830952D01*
X153635714Y-99640476D01*
X153683333Y-99545238D01*
X153778571Y-99450000D01*
X153921428Y-99402380D01*
X154016666Y-99402380D01*
X154159523Y-99450000D01*
X154207142Y-99497619D01*
X155159523Y-100402380D02*
X154588095Y-100402380D01*
X154873809Y-100402380D02*
X154873809Y-99402380D01*
X154778571Y-99545238D01*
X154683333Y-99640476D01*
X154588095Y-99688095D01*
X156111904Y-100402380D02*
X155540476Y-100402380D01*
X155826190Y-100402380D02*
X155826190Y-99402380D01*
X155730952Y-99545238D01*
X155635714Y-99640476D01*
X155540476Y-99688095D01*
X167573809Y-102802380D02*
X167573809Y-101802380D01*
X168621428Y-102707142D02*
X168573809Y-102754761D01*
X168430952Y-102802380D01*
X168335714Y-102802380D01*
X168192857Y-102754761D01*
X168097619Y-102659523D01*
X168050000Y-102564285D01*
X168002380Y-102373809D01*
X168002380Y-102230952D01*
X168050000Y-102040476D01*
X168097619Y-101945238D01*
X168192857Y-101850000D01*
X168335714Y-101802380D01*
X168430952Y-101802380D01*
X168573809Y-101850000D01*
X168621428Y-101897619D01*
X169573809Y-102802380D02*
X169002380Y-102802380D01*
X169288095Y-102802380D02*
X169288095Y-101802380D01*
X169192857Y-101945238D01*
X169097619Y-102040476D01*
X169002380Y-102088095D01*
X141502380Y-124383333D02*
X142216666Y-124383333D01*
X142359523Y-124430952D01*
X142454761Y-124526190D01*
X142502380Y-124669047D01*
X142502380Y-124764285D01*
X141502380Y-123478571D02*
X141502380Y-123669047D01*
X141550000Y-123764285D01*
X141597619Y-123811904D01*
X141740476Y-123907142D01*
X141930952Y-123954761D01*
X142311904Y-123954761D01*
X142407142Y-123907142D01*
X142454761Y-123859523D01*
X142502380Y-123764285D01*
X142502380Y-123573809D01*
X142454761Y-123478571D01*
X142407142Y-123430952D01*
X142311904Y-123383333D01*
X142073809Y-123383333D01*
X141978571Y-123430952D01*
X141930952Y-123478571D01*
X141883333Y-123573809D01*
X141883333Y-123764285D01*
X141930952Y-123859523D01*
X141978571Y-123907142D01*
X142073809Y-123954761D01*
X143783333Y-83002380D02*
X143450000Y-82526190D01*
X143211904Y-83002380D02*
X143211904Y-82002380D01*
X143592857Y-82002380D01*
X143688095Y-82050000D01*
X143735714Y-82097619D01*
X143783333Y-82192857D01*
X143783333Y-82335714D01*
X143735714Y-82430952D01*
X143688095Y-82478571D01*
X143592857Y-82526190D01*
X143211904Y-82526190D01*
X144164285Y-82097619D02*
X144211904Y-82050000D01*
X144307142Y-82002380D01*
X144545238Y-82002380D01*
X144640476Y-82050000D01*
X144688095Y-82097619D01*
X144735714Y-82192857D01*
X144735714Y-82288095D01*
X144688095Y-82430952D01*
X144116666Y-83002380D01*
X144735714Y-83002380D01*
X153883333Y-82702380D02*
X153550000Y-82226190D01*
X153311904Y-82702380D02*
X153311904Y-81702380D01*
X153692857Y-81702380D01*
X153788095Y-81750000D01*
X153835714Y-81797619D01*
X153883333Y-81892857D01*
X153883333Y-82035714D01*
X153835714Y-82130952D01*
X153788095Y-82178571D01*
X153692857Y-82226190D01*
X153311904Y-82226190D01*
X154740476Y-81702380D02*
X154550000Y-81702380D01*
X154454761Y-81750000D01*
X154407142Y-81797619D01*
X154311904Y-81940476D01*
X154264285Y-82130952D01*
X154264285Y-82511904D01*
X154311904Y-82607142D01*
X154359523Y-82654761D01*
X154454761Y-82702380D01*
X154645238Y-82702380D01*
X154740476Y-82654761D01*
X154788095Y-82607142D01*
X154835714Y-82511904D01*
X154835714Y-82273809D01*
X154788095Y-82178571D01*
X154740476Y-82130952D01*
X154645238Y-82083333D01*
X154454761Y-82083333D01*
X154359523Y-82130952D01*
X154311904Y-82178571D01*
X154264285Y-82273809D01*
X157388095Y-84702380D02*
X157388095Y-85511904D01*
X157435714Y-85607142D01*
X157483333Y-85654761D01*
X157578571Y-85702380D01*
X157769047Y-85702380D01*
X157864285Y-85654761D01*
X157911904Y-85607142D01*
X157959523Y-85511904D01*
X157959523Y-84702380D01*
X158959523Y-85702380D02*
X158388095Y-85702380D01*
X158673809Y-85702380D02*
X158673809Y-84702380D01*
X158578571Y-84845238D01*
X158483333Y-84940476D01*
X158388095Y-84988095D01*
X135426190Y-89426190D02*
X135902380Y-89426190D01*
X134902380Y-89759523D02*
X135426190Y-89426190D01*
X134902380Y-89092857D01*
X135902380Y-88235714D02*
X135902380Y-88807142D01*
X135902380Y-88521428D02*
X134902380Y-88521428D01*
X135045238Y-88616666D01*
X135140476Y-88711904D01*
X135188095Y-88807142D01*
X153716666Y-76602380D02*
X153716666Y-77316666D01*
X153669047Y-77459523D01*
X153573809Y-77554761D01*
X153430952Y-77602380D01*
X153335714Y-77602380D01*
X154145238Y-76697619D02*
X154192857Y-76650000D01*
X154288095Y-76602380D01*
X154526190Y-76602380D01*
X154621428Y-76650000D01*
X154669047Y-76697619D01*
X154716666Y-76792857D01*
X154716666Y-76888095D01*
X154669047Y-77030952D01*
X154097619Y-77602380D01*
X154716666Y-77602380D01*
X131188095Y-113102380D02*
X131188095Y-113911904D01*
X131235714Y-114007142D01*
X131283333Y-114054761D01*
X131378571Y-114102380D01*
X131569047Y-114102380D01*
X131664285Y-114054761D01*
X131711904Y-114007142D01*
X131759523Y-113911904D01*
X131759523Y-113102380D01*
X132140476Y-113102380D02*
X132759523Y-113102380D01*
X132426190Y-113483333D01*
X132569047Y-113483333D01*
X132664285Y-113530952D01*
X132711904Y-113578571D01*
X132759523Y-113673809D01*
X132759523Y-113911904D01*
X132711904Y-114007142D01*
X132664285Y-114054761D01*
X132569047Y-114102380D01*
X132283333Y-114102380D01*
X132188095Y-114054761D01*
X132140476Y-114007142D01*
M02*
