M48
; DRILL file {KiCad (5.1.4-0-10_14)} date 2020 March 11, Wednesday 12:16:06
; FORMAT={-:-/ absolute / metric / decimal}
; #@! TF.CreationDate,2020-03-11T12:16:06+01:00
; #@! TF.GenerationSoftware,Kicad,Pcbnew,(5.1.4-0-10_14)
; #@! TF.FileFunction,Plated,1,2,PTH
FMAT,2
METRIC
T1C0.800
T2C1.000
T3C1.100
%
G90
G05
T1
X135.9Y-119.6
X137.9Y-119.6
X139.25Y-108.55
X141.25Y-108.55
T2
X138.15Y-101.05
X139.75Y-103.55
X141.55Y-118.75
X145.45Y-84.6
X146.85Y-99.25
X149.95Y-100.25
X151.25Y-98.55
X152.55Y-100.25
X157.05Y-100.35
X159.75Y-96.3
X159.85Y-98.95
X161.65Y-94.95
X161.65Y-97.55
X162.25Y-116.55
X162.35Y-89.65
X162.35Y-113.45
X163.15Y-108.85
X164.65Y-102.95
X164.85Y-110.65
X166.45Y-112.65
X139.9Y-79.35
X142.44Y-79.35
X144.98Y-79.35
X147.52Y-79.35
X162.687Y-78.421
X164.319Y-80.367
X165.952Y-82.313
X167.585Y-84.258
X169.217Y-86.204
X170.85Y-88.15
X127.56Y-87.5
X130.1Y-87.5
X132.64Y-87.5
X141.45Y-99.55
X145.611Y-96.636
X126.41Y-92.0
X128.95Y-92.0
X131.49Y-92.0
X143.531Y-98.093
X150.63Y-79.35
X153.17Y-79.35
X155.71Y-79.35
X158.25Y-79.35
T3
X135.05Y-99.25
X135.05Y-109.41
T0
M30
