G04 #@! TF.GenerationSoftware,KiCad,Pcbnew,(5.1.4-0-10_14)*
G04 #@! TF.CreationDate,2020-03-11T12:16:04+01:00*
G04 #@! TF.ProjectId,CanSat2020Probe,43616e53-6174-4323-9032-3050726f6265,v01*
G04 #@! TF.SameCoordinates,Original*
G04 #@! TF.FileFunction,Soldermask,Top*
G04 #@! TF.FilePolarity,Negative*
%FSLAX46Y46*%
G04 Gerber Fmt 4.6, Leading zero omitted, Abs format (unit mm)*
G04 Created by KiCad (PCBNEW (5.1.4-0-10_14)) date 2020-03-11 12:16:04*
%MOMM*%
%LPD*%
G04 APERTURE LIST*
%ADD10C,0.100000*%
G04 APERTURE END LIST*
D10*
G36*
X147201000Y-126276000D02*
G01*
X146049000Y-126276000D01*
X146049000Y-123974000D01*
X147201000Y-123974000D01*
X147201000Y-126276000D01*
X147201000Y-126276000D01*
G37*
G36*
X144251000Y-126276000D02*
G01*
X143099000Y-126276000D01*
X143099000Y-123974000D01*
X144251000Y-123974000D01*
X144251000Y-126276000D01*
X144251000Y-126276000D01*
G37*
G36*
X145701000Y-124176000D02*
G01*
X144599000Y-124176000D01*
X144599000Y-123024000D01*
X145701000Y-123024000D01*
X145701000Y-124176000D01*
X145701000Y-124176000D01*
G37*
G36*
X153101000Y-122351000D02*
G01*
X151999000Y-122351000D01*
X151999000Y-119749000D01*
X153101000Y-119749000D01*
X153101000Y-122351000D01*
X153101000Y-122351000D01*
G37*
G36*
X151101000Y-122351000D02*
G01*
X149999000Y-122351000D01*
X149999000Y-119749000D01*
X151101000Y-119749000D01*
X151101000Y-122351000D01*
X151101000Y-122351000D01*
G37*
G36*
X149101000Y-122351000D02*
G01*
X147999000Y-122351000D01*
X147999000Y-119749000D01*
X149101000Y-119749000D01*
X149101000Y-122351000D01*
X149101000Y-122351000D01*
G37*
G36*
X147101000Y-122351000D02*
G01*
X145999000Y-122351000D01*
X145999000Y-119749000D01*
X147101000Y-119749000D01*
X147101000Y-122351000D01*
X147101000Y-122351000D01*
G37*
G36*
X145101000Y-122351000D02*
G01*
X143999000Y-122351000D01*
X143999000Y-119749000D01*
X145101000Y-119749000D01*
X145101000Y-122351000D01*
X145101000Y-122351000D01*
G37*
G36*
X159101000Y-122351000D02*
G01*
X157999000Y-122351000D01*
X157999000Y-119749000D01*
X159101000Y-119749000D01*
X159101000Y-122351000D01*
X159101000Y-122351000D01*
G37*
G36*
X157101000Y-122351000D02*
G01*
X155999000Y-122351000D01*
X155999000Y-119749000D01*
X157101000Y-119749000D01*
X157101000Y-122351000D01*
X157101000Y-122351000D01*
G37*
G36*
X155101000Y-122351000D02*
G01*
X153999000Y-122351000D01*
X153999000Y-119749000D01*
X155101000Y-119749000D01*
X155101000Y-122351000D01*
X155101000Y-122351000D01*
G37*
G36*
X138148228Y-118781703D02*
G01*
X138303100Y-118845853D01*
X138442481Y-118938985D01*
X138561015Y-119057519D01*
X138654147Y-119196900D01*
X138718297Y-119351772D01*
X138751000Y-119516184D01*
X138751000Y-119683816D01*
X138718297Y-119848228D01*
X138654147Y-120003100D01*
X138561015Y-120142481D01*
X138442481Y-120261015D01*
X138303100Y-120354147D01*
X138148228Y-120418297D01*
X137983816Y-120451000D01*
X137816184Y-120451000D01*
X137651772Y-120418297D01*
X137496900Y-120354147D01*
X137357519Y-120261015D01*
X137238985Y-120142481D01*
X137145853Y-120003100D01*
X137081703Y-119848228D01*
X137049000Y-119683816D01*
X137049000Y-119516184D01*
X137081703Y-119351772D01*
X137145853Y-119196900D01*
X137238985Y-119057519D01*
X137357519Y-118938985D01*
X137496900Y-118845853D01*
X137651772Y-118781703D01*
X137816184Y-118749000D01*
X137983816Y-118749000D01*
X138148228Y-118781703D01*
X138148228Y-118781703D01*
G37*
G36*
X136751000Y-120451000D02*
G01*
X135049000Y-120451000D01*
X135049000Y-118749000D01*
X136751000Y-118749000D01*
X136751000Y-120451000D01*
X136751000Y-120451000D01*
G37*
G36*
X140234468Y-114003565D02*
G01*
X140273138Y-114015296D01*
X140308777Y-114034346D01*
X140340017Y-114059983D01*
X140365654Y-114091223D01*
X140384704Y-114126862D01*
X140396435Y-114165532D01*
X140401000Y-114211888D01*
X140401000Y-114863112D01*
X140396435Y-114909468D01*
X140384704Y-114948138D01*
X140365654Y-114983777D01*
X140340017Y-115015017D01*
X140308777Y-115040654D01*
X140273138Y-115059704D01*
X140234468Y-115071435D01*
X140188112Y-115076000D01*
X139111888Y-115076000D01*
X139065532Y-115071435D01*
X139026862Y-115059704D01*
X138991223Y-115040654D01*
X138959983Y-115015017D01*
X138934346Y-114983777D01*
X138915296Y-114948138D01*
X138903565Y-114909468D01*
X138899000Y-114863112D01*
X138899000Y-114211888D01*
X138903565Y-114165532D01*
X138915296Y-114126862D01*
X138934346Y-114091223D01*
X138959983Y-114059983D01*
X138991223Y-114034346D01*
X139026862Y-114015296D01*
X139065532Y-114003565D01*
X139111888Y-113999000D01*
X140188112Y-113999000D01*
X140234468Y-114003565D01*
X140234468Y-114003565D01*
G37*
G36*
X137731000Y-114926000D02*
G01*
X136069000Y-114926000D01*
X136069000Y-114174000D01*
X137731000Y-114174000D01*
X137731000Y-114926000D01*
X137731000Y-114926000D01*
G37*
G36*
X135031000Y-114926000D02*
G01*
X133369000Y-114926000D01*
X133369000Y-112274000D01*
X135031000Y-112274000D01*
X135031000Y-114926000D01*
X135031000Y-114926000D01*
G37*
G36*
X140234468Y-112128565D02*
G01*
X140273138Y-112140296D01*
X140308777Y-112159346D01*
X140340017Y-112184983D01*
X140365654Y-112216223D01*
X140384704Y-112251862D01*
X140396435Y-112290532D01*
X140401000Y-112336888D01*
X140401000Y-112988112D01*
X140396435Y-113034468D01*
X140384704Y-113073138D01*
X140365654Y-113108777D01*
X140340017Y-113140017D01*
X140308777Y-113165654D01*
X140273138Y-113184704D01*
X140234468Y-113196435D01*
X140188112Y-113201000D01*
X139111888Y-113201000D01*
X139065532Y-113196435D01*
X139026862Y-113184704D01*
X138991223Y-113165654D01*
X138959983Y-113140017D01*
X138934346Y-113108777D01*
X138915296Y-113073138D01*
X138903565Y-113034468D01*
X138899000Y-112988112D01*
X138899000Y-112336888D01*
X138903565Y-112290532D01*
X138915296Y-112251862D01*
X138934346Y-112216223D01*
X138959983Y-112184983D01*
X138991223Y-112159346D01*
X139026862Y-112140296D01*
X139065532Y-112128565D01*
X139111888Y-112124000D01*
X140188112Y-112124000D01*
X140234468Y-112128565D01*
X140234468Y-112128565D01*
G37*
G36*
X137731000Y-113026000D02*
G01*
X136069000Y-113026000D01*
X136069000Y-112274000D01*
X137731000Y-112274000D01*
X137731000Y-113026000D01*
X137731000Y-113026000D01*
G37*
G36*
X135219271Y-108270103D02*
G01*
X135275635Y-108275654D01*
X135492600Y-108341470D01*
X135492602Y-108341471D01*
X135692555Y-108448347D01*
X135867818Y-108592182D01*
X136011653Y-108767445D01*
X136110885Y-108953097D01*
X136118530Y-108967400D01*
X136184346Y-109184365D01*
X136202461Y-109368295D01*
X136206569Y-109410000D01*
X136184346Y-109635634D01*
X136118529Y-109852602D01*
X136011653Y-110052555D01*
X135867818Y-110227818D01*
X135692555Y-110371653D01*
X135492602Y-110478529D01*
X135492600Y-110478530D01*
X135275635Y-110544346D01*
X135219271Y-110549897D01*
X135106545Y-110561000D01*
X134993455Y-110561000D01*
X134880729Y-110549897D01*
X134824365Y-110544346D01*
X134607400Y-110478530D01*
X134607398Y-110478529D01*
X134407445Y-110371653D01*
X134232182Y-110227818D01*
X134088347Y-110052555D01*
X133981471Y-109852602D01*
X133915654Y-109635634D01*
X133893431Y-109410000D01*
X133897539Y-109368295D01*
X133915654Y-109184365D01*
X133981470Y-108967400D01*
X133989115Y-108953097D01*
X134088347Y-108767445D01*
X134232182Y-108592182D01*
X134407445Y-108448347D01*
X134607398Y-108341471D01*
X134607400Y-108341470D01*
X134824365Y-108275654D01*
X134880729Y-108270103D01*
X134993455Y-108259000D01*
X135106545Y-108259000D01*
X135219271Y-108270103D01*
X135219271Y-108270103D01*
G37*
G36*
X141498228Y-107731703D02*
G01*
X141653100Y-107795853D01*
X141792481Y-107888985D01*
X141911015Y-108007519D01*
X142004147Y-108146900D01*
X142068297Y-108301772D01*
X142101000Y-108466184D01*
X142101000Y-108633816D01*
X142068297Y-108798228D01*
X142004147Y-108953100D01*
X141911015Y-109092481D01*
X141792481Y-109211015D01*
X141653100Y-109304147D01*
X141498228Y-109368297D01*
X141333816Y-109401000D01*
X141166184Y-109401000D01*
X141001772Y-109368297D01*
X140846900Y-109304147D01*
X140707519Y-109211015D01*
X140588985Y-109092481D01*
X140495853Y-108953100D01*
X140431703Y-108798228D01*
X140399000Y-108633816D01*
X140399000Y-108466184D01*
X140431703Y-108301772D01*
X140495853Y-108146900D01*
X140588985Y-108007519D01*
X140707519Y-107888985D01*
X140846900Y-107795853D01*
X141001772Y-107731703D01*
X141166184Y-107699000D01*
X141333816Y-107699000D01*
X141498228Y-107731703D01*
X141498228Y-107731703D01*
G37*
G36*
X140101000Y-109401000D02*
G01*
X138399000Y-109401000D01*
X138399000Y-107699000D01*
X140101000Y-107699000D01*
X140101000Y-109401000D01*
X140101000Y-109401000D01*
G37*
G36*
X142834468Y-104253565D02*
G01*
X142873138Y-104265296D01*
X142908777Y-104284346D01*
X142940017Y-104309983D01*
X142965654Y-104341223D01*
X142984704Y-104376862D01*
X142996435Y-104415532D01*
X143001000Y-104461888D01*
X143001000Y-105113112D01*
X142996435Y-105159468D01*
X142984704Y-105198138D01*
X142965654Y-105233777D01*
X142940017Y-105265017D01*
X142908777Y-105290654D01*
X142873138Y-105309704D01*
X142834468Y-105321435D01*
X142788112Y-105326000D01*
X141711888Y-105326000D01*
X141665532Y-105321435D01*
X141626862Y-105309704D01*
X141591223Y-105290654D01*
X141559983Y-105265017D01*
X141534346Y-105233777D01*
X141515296Y-105198138D01*
X141503565Y-105159468D01*
X141499000Y-105113112D01*
X141499000Y-104461888D01*
X141503565Y-104415532D01*
X141515296Y-104376862D01*
X141534346Y-104341223D01*
X141559983Y-104309983D01*
X141591223Y-104284346D01*
X141626862Y-104265296D01*
X141665532Y-104253565D01*
X141711888Y-104249000D01*
X142788112Y-104249000D01*
X142834468Y-104253565D01*
X142834468Y-104253565D01*
G37*
G36*
X149101000Y-104151000D02*
G01*
X147999000Y-104151000D01*
X147999000Y-101549000D01*
X149101000Y-101549000D01*
X149101000Y-104151000D01*
X149101000Y-104151000D01*
G37*
G36*
X159101000Y-104151000D02*
G01*
X157999000Y-104151000D01*
X157999000Y-101549000D01*
X159101000Y-101549000D01*
X159101000Y-104151000D01*
X159101000Y-104151000D01*
G37*
G36*
X145101000Y-104151000D02*
G01*
X143999000Y-104151000D01*
X143999000Y-101549000D01*
X145101000Y-101549000D01*
X145101000Y-104151000D01*
X145101000Y-104151000D01*
G37*
G36*
X147101000Y-104151000D02*
G01*
X145999000Y-104151000D01*
X145999000Y-101549000D01*
X147101000Y-101549000D01*
X147101000Y-104151000D01*
X147101000Y-104151000D01*
G37*
G36*
X157101000Y-104151000D02*
G01*
X155999000Y-104151000D01*
X155999000Y-101549000D01*
X157101000Y-101549000D01*
X157101000Y-104151000D01*
X157101000Y-104151000D01*
G37*
G36*
X155101000Y-104151000D02*
G01*
X153999000Y-104151000D01*
X153999000Y-101549000D01*
X155101000Y-101549000D01*
X155101000Y-104151000D01*
X155101000Y-104151000D01*
G37*
G36*
X153101000Y-104151000D02*
G01*
X151999000Y-104151000D01*
X151999000Y-101549000D01*
X153101000Y-101549000D01*
X153101000Y-104151000D01*
X153101000Y-104151000D01*
G37*
G36*
X151101000Y-104151000D02*
G01*
X149999000Y-104151000D01*
X149999000Y-101549000D01*
X151101000Y-101549000D01*
X151101000Y-104151000D01*
X151101000Y-104151000D01*
G37*
G36*
X142834468Y-102378565D02*
G01*
X142873138Y-102390296D01*
X142908777Y-102409346D01*
X142940017Y-102434983D01*
X142965654Y-102466223D01*
X142984704Y-102501862D01*
X142996435Y-102540532D01*
X143001000Y-102586888D01*
X143001000Y-103238112D01*
X142996435Y-103284468D01*
X142984704Y-103323138D01*
X142965654Y-103358777D01*
X142940017Y-103390017D01*
X142908777Y-103415654D01*
X142873138Y-103434704D01*
X142834468Y-103446435D01*
X142788112Y-103451000D01*
X141711888Y-103451000D01*
X141665532Y-103446435D01*
X141626862Y-103434704D01*
X141591223Y-103415654D01*
X141559983Y-103390017D01*
X141534346Y-103358777D01*
X141515296Y-103323138D01*
X141503565Y-103284468D01*
X141499000Y-103238112D01*
X141499000Y-102586888D01*
X141503565Y-102540532D01*
X141515296Y-102501862D01*
X141534346Y-102466223D01*
X141559983Y-102434983D01*
X141591223Y-102409346D01*
X141626862Y-102390296D01*
X141665532Y-102378565D01*
X141711888Y-102374000D01*
X142788112Y-102374000D01*
X142834468Y-102378565D01*
X142834468Y-102378565D01*
G37*
G36*
X162734468Y-100816065D02*
G01*
X162773138Y-100827796D01*
X162808777Y-100846846D01*
X162840017Y-100872483D01*
X162865654Y-100903723D01*
X162884704Y-100939362D01*
X162896435Y-100978032D01*
X162901000Y-101024388D01*
X162901000Y-101675612D01*
X162896435Y-101721968D01*
X162884704Y-101760638D01*
X162865654Y-101796277D01*
X162840017Y-101827517D01*
X162808777Y-101853154D01*
X162773138Y-101872204D01*
X162734468Y-101883935D01*
X162688112Y-101888500D01*
X161611888Y-101888500D01*
X161565532Y-101883935D01*
X161526862Y-101872204D01*
X161491223Y-101853154D01*
X161459983Y-101827517D01*
X161434346Y-101796277D01*
X161415296Y-101760638D01*
X161403565Y-101721968D01*
X161399000Y-101675612D01*
X161399000Y-101024388D01*
X161403565Y-100978032D01*
X161415296Y-100939362D01*
X161434346Y-100903723D01*
X161459983Y-100872483D01*
X161491223Y-100846846D01*
X161526862Y-100827796D01*
X161565532Y-100816065D01*
X161611888Y-100811500D01*
X162688112Y-100811500D01*
X162734468Y-100816065D01*
X162734468Y-100816065D01*
G37*
G36*
X177176000Y-101401000D02*
G01*
X174874000Y-101401000D01*
X174874000Y-100249000D01*
X177176000Y-100249000D01*
X177176000Y-101401000D01*
X177176000Y-101401000D01*
G37*
G36*
X164826000Y-100926000D02*
G01*
X163274000Y-100926000D01*
X163274000Y-91174000D01*
X164826000Y-91174000D01*
X164826000Y-100926000D01*
X164826000Y-100926000D01*
G37*
G36*
X173826000Y-98674001D02*
G01*
X173828402Y-98698387D01*
X173835515Y-98721836D01*
X173847066Y-98743447D01*
X173862611Y-98762389D01*
X173881553Y-98777934D01*
X173903164Y-98789485D01*
X173926613Y-98796598D01*
X173950999Y-98799000D01*
X175076000Y-98799000D01*
X175076000Y-99901000D01*
X173950999Y-99901000D01*
X173926613Y-99903402D01*
X173903164Y-99910515D01*
X173881553Y-99922066D01*
X173862611Y-99937611D01*
X173847066Y-99956553D01*
X173835515Y-99978164D01*
X173828402Y-100001613D01*
X173826000Y-100025999D01*
X173826000Y-100926000D01*
X172274000Y-100926000D01*
X172274000Y-91174000D01*
X173826000Y-91174000D01*
X173826000Y-98674001D01*
X173826000Y-98674001D01*
G37*
G36*
X141560443Y-98655519D02*
G01*
X141626627Y-98662037D01*
X141796466Y-98713557D01*
X141952991Y-98797222D01*
X141955157Y-98799000D01*
X142090186Y-98909814D01*
X142159370Y-98994116D01*
X142202778Y-99047009D01*
X142286443Y-99203534D01*
X142337963Y-99373373D01*
X142355359Y-99550000D01*
X142337963Y-99726627D01*
X142286443Y-99896466D01*
X142202778Y-100052991D01*
X142173448Y-100088729D01*
X142090186Y-100190186D01*
X141988729Y-100273448D01*
X141952991Y-100302778D01*
X141796466Y-100386443D01*
X141626627Y-100437963D01*
X141560442Y-100444482D01*
X141494260Y-100451000D01*
X141405740Y-100451000D01*
X141339558Y-100444482D01*
X141273373Y-100437963D01*
X141103534Y-100386443D01*
X140947009Y-100302778D01*
X140911271Y-100273448D01*
X140809814Y-100190186D01*
X140726552Y-100088729D01*
X140697222Y-100052991D01*
X140613557Y-99896466D01*
X140562037Y-99726627D01*
X140544641Y-99550000D01*
X140562037Y-99373373D01*
X140613557Y-99203534D01*
X140697222Y-99047009D01*
X140740630Y-98994116D01*
X140809814Y-98909814D01*
X140944843Y-98799000D01*
X140947009Y-98797222D01*
X141103534Y-98713557D01*
X141273373Y-98662037D01*
X141339558Y-98655518D01*
X141405740Y-98649000D01*
X141494260Y-98649000D01*
X141560443Y-98655519D01*
X141560443Y-98655519D01*
G37*
G36*
X136201000Y-100401000D02*
G01*
X133899000Y-100401000D01*
X133899000Y-98099000D01*
X136201000Y-98099000D01*
X136201000Y-100401000D01*
X136201000Y-100401000D01*
G37*
G36*
X162734468Y-98941065D02*
G01*
X162773138Y-98952796D01*
X162808777Y-98971846D01*
X162840017Y-98997483D01*
X162865654Y-99028723D01*
X162884704Y-99064362D01*
X162896435Y-99103032D01*
X162901000Y-99149388D01*
X162901000Y-99800612D01*
X162896435Y-99846968D01*
X162884704Y-99885638D01*
X162865654Y-99921277D01*
X162840017Y-99952517D01*
X162808777Y-99978154D01*
X162773138Y-99997204D01*
X162734468Y-100008935D01*
X162688112Y-100013500D01*
X161611888Y-100013500D01*
X161565532Y-100008935D01*
X161526862Y-99997204D01*
X161491223Y-99978154D01*
X161459983Y-99952517D01*
X161434346Y-99921277D01*
X161415296Y-99885638D01*
X161403565Y-99846968D01*
X161399000Y-99800612D01*
X161399000Y-99149388D01*
X161403565Y-99103032D01*
X161415296Y-99064362D01*
X161434346Y-99028723D01*
X161459983Y-98997483D01*
X161491223Y-98971846D01*
X161526862Y-98952796D01*
X161565532Y-98941065D01*
X161611888Y-98936500D01*
X162688112Y-98936500D01*
X162734468Y-98941065D01*
X162734468Y-98941065D01*
G37*
G36*
X156859468Y-97603565D02*
G01*
X156898138Y-97615296D01*
X156933777Y-97634346D01*
X156965017Y-97659983D01*
X156990654Y-97691223D01*
X157009704Y-97726862D01*
X157021435Y-97765532D01*
X157026000Y-97811888D01*
X157026000Y-98888112D01*
X157021435Y-98934468D01*
X157009704Y-98973138D01*
X156990654Y-99008777D01*
X156965017Y-99040017D01*
X156933777Y-99065654D01*
X156898138Y-99084704D01*
X156859468Y-99096435D01*
X156813112Y-99101000D01*
X156161888Y-99101000D01*
X156115532Y-99096435D01*
X156076862Y-99084704D01*
X156041223Y-99065654D01*
X156009983Y-99040017D01*
X155984346Y-99008777D01*
X155965296Y-98973138D01*
X155953565Y-98934468D01*
X155949000Y-98888112D01*
X155949000Y-97811888D01*
X155953565Y-97765532D01*
X155965296Y-97726862D01*
X155984346Y-97691223D01*
X156009983Y-97659983D01*
X156041223Y-97634346D01*
X156076862Y-97615296D01*
X156115532Y-97603565D01*
X156161888Y-97599000D01*
X156813112Y-97599000D01*
X156859468Y-97603565D01*
X156859468Y-97603565D01*
G37*
G36*
X154984468Y-97603565D02*
G01*
X155023138Y-97615296D01*
X155058777Y-97634346D01*
X155090017Y-97659983D01*
X155115654Y-97691223D01*
X155134704Y-97726862D01*
X155146435Y-97765532D01*
X155151000Y-97811888D01*
X155151000Y-98888112D01*
X155146435Y-98934468D01*
X155134704Y-98973138D01*
X155115654Y-99008777D01*
X155090017Y-99040017D01*
X155058777Y-99065654D01*
X155023138Y-99084704D01*
X154984468Y-99096435D01*
X154938112Y-99101000D01*
X154286888Y-99101000D01*
X154240532Y-99096435D01*
X154201862Y-99084704D01*
X154166223Y-99065654D01*
X154134983Y-99040017D01*
X154109346Y-99008777D01*
X154090296Y-98973138D01*
X154078565Y-98934468D01*
X154074000Y-98888112D01*
X154074000Y-97811888D01*
X154078565Y-97765532D01*
X154090296Y-97726862D01*
X154109346Y-97691223D01*
X154134983Y-97659983D01*
X154166223Y-97634346D01*
X154201862Y-97615296D01*
X154240532Y-97603565D01*
X154286888Y-97599000D01*
X154938112Y-97599000D01*
X154984468Y-97603565D01*
X154984468Y-97603565D01*
G37*
G36*
X143641089Y-97198635D02*
G01*
X143707273Y-97205153D01*
X143877112Y-97256673D01*
X144033637Y-97340338D01*
X144069375Y-97369668D01*
X144170832Y-97452930D01*
X144240016Y-97537232D01*
X144283424Y-97590125D01*
X144367089Y-97746650D01*
X144418609Y-97916489D01*
X144436005Y-98093116D01*
X144418609Y-98269743D01*
X144367089Y-98439582D01*
X144283424Y-98596107D01*
X144254094Y-98631845D01*
X144170832Y-98733302D01*
X144069375Y-98816564D01*
X144033637Y-98845894D01*
X143877112Y-98929559D01*
X143707273Y-98981079D01*
X143641088Y-98987598D01*
X143574906Y-98994116D01*
X143486386Y-98994116D01*
X143420203Y-98987597D01*
X143354019Y-98981079D01*
X143184180Y-98929559D01*
X143027655Y-98845894D01*
X142991917Y-98816564D01*
X142890460Y-98733302D01*
X142807198Y-98631845D01*
X142777868Y-98596107D01*
X142694203Y-98439582D01*
X142642683Y-98269743D01*
X142625287Y-98093116D01*
X142642683Y-97916489D01*
X142694203Y-97746650D01*
X142777868Y-97590125D01*
X142821276Y-97537232D01*
X142890460Y-97452930D01*
X142991917Y-97369668D01*
X143027655Y-97340338D01*
X143184180Y-97256673D01*
X143354019Y-97205153D01*
X143420204Y-97198634D01*
X143486386Y-97192116D01*
X143574906Y-97192116D01*
X143641089Y-97198635D01*
X143641089Y-97198635D01*
G37*
G36*
X177176000Y-98451000D02*
G01*
X174874000Y-98451000D01*
X174874000Y-97299000D01*
X177176000Y-97299000D01*
X177176000Y-98451000D01*
X177176000Y-98451000D01*
G37*
G36*
X145721734Y-95741750D02*
G01*
X145787919Y-95748269D01*
X145957758Y-95799789D01*
X146114283Y-95883454D01*
X146150021Y-95912784D01*
X146251478Y-95996046D01*
X146334740Y-96097503D01*
X146364070Y-96133241D01*
X146447735Y-96289766D01*
X146499255Y-96459605D01*
X146516651Y-96636232D01*
X146499255Y-96812859D01*
X146447735Y-96982698D01*
X146364070Y-97139223D01*
X146334740Y-97174961D01*
X146251478Y-97276418D01*
X146173591Y-97340337D01*
X146114283Y-97389010D01*
X145957758Y-97472675D01*
X145787919Y-97524195D01*
X145721735Y-97530713D01*
X145655552Y-97537232D01*
X145567032Y-97537232D01*
X145500849Y-97530713D01*
X145434665Y-97524195D01*
X145264826Y-97472675D01*
X145108301Y-97389010D01*
X145048993Y-97340337D01*
X144971106Y-97276418D01*
X144887844Y-97174961D01*
X144858514Y-97139223D01*
X144774849Y-96982698D01*
X144723329Y-96812859D01*
X144705933Y-96636232D01*
X144723329Y-96459605D01*
X144774849Y-96289766D01*
X144858514Y-96133241D01*
X144887844Y-96097503D01*
X144971106Y-95996046D01*
X145072563Y-95912784D01*
X145108301Y-95883454D01*
X145264826Y-95799789D01*
X145434665Y-95748269D01*
X145500850Y-95741750D01*
X145567032Y-95735232D01*
X145655552Y-95735232D01*
X145721734Y-95741750D01*
X145721734Y-95741750D01*
G37*
G36*
X148270295Y-95450323D02*
G01*
X148277309Y-95452451D01*
X148291077Y-95459810D01*
X148313716Y-95469187D01*
X148337749Y-95473967D01*
X148362253Y-95473967D01*
X148386286Y-95469186D01*
X148408923Y-95459810D01*
X148422691Y-95452451D01*
X148429705Y-95450323D01*
X148443140Y-95449000D01*
X148756860Y-95449000D01*
X148770295Y-95450323D01*
X148777309Y-95452451D01*
X148791077Y-95459810D01*
X148813716Y-95469187D01*
X148837749Y-95473967D01*
X148862253Y-95473967D01*
X148886286Y-95469186D01*
X148908923Y-95459810D01*
X148922691Y-95452451D01*
X148929705Y-95450323D01*
X148943140Y-95449000D01*
X149256860Y-95449000D01*
X149270295Y-95450323D01*
X149277309Y-95452451D01*
X149291077Y-95459810D01*
X149313716Y-95469187D01*
X149337749Y-95473967D01*
X149362253Y-95473967D01*
X149386286Y-95469186D01*
X149408923Y-95459810D01*
X149422691Y-95452451D01*
X149429705Y-95450323D01*
X149443140Y-95449000D01*
X149756860Y-95449000D01*
X149770295Y-95450323D01*
X149777309Y-95452451D01*
X149791077Y-95459810D01*
X149813716Y-95469187D01*
X149837749Y-95473967D01*
X149862253Y-95473967D01*
X149886286Y-95469186D01*
X149908923Y-95459810D01*
X149922691Y-95452451D01*
X149929705Y-95450323D01*
X149943140Y-95449000D01*
X150256860Y-95449000D01*
X150270295Y-95450323D01*
X150277309Y-95452451D01*
X150291077Y-95459810D01*
X150313716Y-95469187D01*
X150337749Y-95473967D01*
X150362253Y-95473967D01*
X150386286Y-95469186D01*
X150408923Y-95459810D01*
X150422691Y-95452451D01*
X150429705Y-95450323D01*
X150443140Y-95449000D01*
X150756860Y-95449000D01*
X150770295Y-95450323D01*
X150777309Y-95452451D01*
X150791077Y-95459810D01*
X150813716Y-95469187D01*
X150837749Y-95473967D01*
X150862253Y-95473967D01*
X150886286Y-95469186D01*
X150908923Y-95459810D01*
X150922691Y-95452451D01*
X150929705Y-95450323D01*
X150943140Y-95449000D01*
X151256860Y-95449000D01*
X151270295Y-95450323D01*
X151277309Y-95452451D01*
X151291077Y-95459810D01*
X151313716Y-95469187D01*
X151337749Y-95473967D01*
X151362253Y-95473967D01*
X151386286Y-95469186D01*
X151408923Y-95459810D01*
X151422691Y-95452451D01*
X151429705Y-95450323D01*
X151443140Y-95449000D01*
X151756860Y-95449000D01*
X151770295Y-95450323D01*
X151777309Y-95452451D01*
X151791077Y-95459810D01*
X151813716Y-95469187D01*
X151837749Y-95473967D01*
X151862253Y-95473967D01*
X151886286Y-95469186D01*
X151908923Y-95459810D01*
X151922691Y-95452451D01*
X151929705Y-95450323D01*
X151943140Y-95449000D01*
X152256860Y-95449000D01*
X152270295Y-95450323D01*
X152277309Y-95452451D01*
X152291077Y-95459810D01*
X152313716Y-95469187D01*
X152337749Y-95473967D01*
X152362253Y-95473967D01*
X152386286Y-95469186D01*
X152408923Y-95459810D01*
X152422691Y-95452451D01*
X152429705Y-95450323D01*
X152443140Y-95449000D01*
X152756860Y-95449000D01*
X152770295Y-95450323D01*
X152777309Y-95452451D01*
X152791077Y-95459810D01*
X152813716Y-95469187D01*
X152837749Y-95473967D01*
X152862253Y-95473967D01*
X152886286Y-95469186D01*
X152908923Y-95459810D01*
X152922691Y-95452451D01*
X152929705Y-95450323D01*
X152943140Y-95449000D01*
X153256860Y-95449000D01*
X153270295Y-95450323D01*
X153277309Y-95452451D01*
X153291077Y-95459810D01*
X153313716Y-95469187D01*
X153337749Y-95473967D01*
X153362253Y-95473967D01*
X153386286Y-95469186D01*
X153408923Y-95459810D01*
X153422691Y-95452451D01*
X153429705Y-95450323D01*
X153443140Y-95449000D01*
X153756860Y-95449000D01*
X153770295Y-95450323D01*
X153777309Y-95452451D01*
X153791077Y-95459810D01*
X153813716Y-95469187D01*
X153837749Y-95473967D01*
X153862253Y-95473967D01*
X153886286Y-95469186D01*
X153908923Y-95459810D01*
X153922691Y-95452451D01*
X153929705Y-95450323D01*
X153943140Y-95449000D01*
X154256860Y-95449000D01*
X154270295Y-95450323D01*
X154277309Y-95452451D01*
X154291077Y-95459810D01*
X154313716Y-95469187D01*
X154337749Y-95473967D01*
X154362253Y-95473967D01*
X154386286Y-95469186D01*
X154408923Y-95459810D01*
X154422691Y-95452451D01*
X154429705Y-95450323D01*
X154443140Y-95449000D01*
X154756860Y-95449000D01*
X154770295Y-95450323D01*
X154777309Y-95452451D01*
X154791077Y-95459810D01*
X154813716Y-95469187D01*
X154837749Y-95473967D01*
X154862253Y-95473967D01*
X154886286Y-95469186D01*
X154908923Y-95459810D01*
X154922691Y-95452451D01*
X154929705Y-95450323D01*
X154943140Y-95449000D01*
X155256860Y-95449000D01*
X155270295Y-95450323D01*
X155277309Y-95452451D01*
X155291077Y-95459810D01*
X155313716Y-95469187D01*
X155337749Y-95473967D01*
X155362253Y-95473967D01*
X155386286Y-95469186D01*
X155408923Y-95459810D01*
X155422691Y-95452451D01*
X155429705Y-95450323D01*
X155443140Y-95449000D01*
X155756860Y-95449000D01*
X155770295Y-95450323D01*
X155777310Y-95452451D01*
X155783776Y-95455908D01*
X155789442Y-95460558D01*
X155794092Y-95466224D01*
X155797549Y-95472690D01*
X155799677Y-95479705D01*
X155801000Y-95493140D01*
X155801000Y-97056860D01*
X155799677Y-97070295D01*
X155797549Y-97077310D01*
X155794092Y-97083776D01*
X155789442Y-97089442D01*
X155783776Y-97094092D01*
X155777310Y-97097549D01*
X155770295Y-97099677D01*
X155756860Y-97101000D01*
X155443140Y-97101000D01*
X155429705Y-97099677D01*
X155422691Y-97097549D01*
X155408923Y-97090190D01*
X155386284Y-97080813D01*
X155362251Y-97076033D01*
X155337747Y-97076033D01*
X155313714Y-97080814D01*
X155291077Y-97090190D01*
X155277309Y-97097549D01*
X155270295Y-97099677D01*
X155256860Y-97101000D01*
X154943140Y-97101000D01*
X154929705Y-97099677D01*
X154922691Y-97097549D01*
X154908923Y-97090190D01*
X154886284Y-97080813D01*
X154862251Y-97076033D01*
X154837747Y-97076033D01*
X154813714Y-97080814D01*
X154791077Y-97090190D01*
X154777309Y-97097549D01*
X154770295Y-97099677D01*
X154756860Y-97101000D01*
X154443140Y-97101000D01*
X154429705Y-97099677D01*
X154422691Y-97097549D01*
X154408923Y-97090190D01*
X154386284Y-97080813D01*
X154362251Y-97076033D01*
X154337747Y-97076033D01*
X154313714Y-97080814D01*
X154291077Y-97090190D01*
X154277309Y-97097549D01*
X154270295Y-97099677D01*
X154256860Y-97101000D01*
X153943140Y-97101000D01*
X153929705Y-97099677D01*
X153922691Y-97097549D01*
X153908923Y-97090190D01*
X153886284Y-97080813D01*
X153862251Y-97076033D01*
X153837747Y-97076033D01*
X153813714Y-97080814D01*
X153791077Y-97090190D01*
X153777309Y-97097549D01*
X153770295Y-97099677D01*
X153756860Y-97101000D01*
X153443140Y-97101000D01*
X153429705Y-97099677D01*
X153422691Y-97097549D01*
X153408923Y-97090190D01*
X153386284Y-97080813D01*
X153362251Y-97076033D01*
X153337747Y-97076033D01*
X153313714Y-97080814D01*
X153291077Y-97090190D01*
X153277309Y-97097549D01*
X153270295Y-97099677D01*
X153256860Y-97101000D01*
X152943140Y-97101000D01*
X152929705Y-97099677D01*
X152922691Y-97097549D01*
X152908923Y-97090190D01*
X152886284Y-97080813D01*
X152862251Y-97076033D01*
X152837747Y-97076033D01*
X152813714Y-97080814D01*
X152791077Y-97090190D01*
X152777309Y-97097549D01*
X152770295Y-97099677D01*
X152756860Y-97101000D01*
X152443140Y-97101000D01*
X152429705Y-97099677D01*
X152422691Y-97097549D01*
X152408923Y-97090190D01*
X152386284Y-97080813D01*
X152362251Y-97076033D01*
X152337747Y-97076033D01*
X152313714Y-97080814D01*
X152291077Y-97090190D01*
X152277309Y-97097549D01*
X152270295Y-97099677D01*
X152256860Y-97101000D01*
X151943140Y-97101000D01*
X151929705Y-97099677D01*
X151922691Y-97097549D01*
X151908923Y-97090190D01*
X151886284Y-97080813D01*
X151862251Y-97076033D01*
X151837747Y-97076033D01*
X151813714Y-97080814D01*
X151791077Y-97090190D01*
X151777309Y-97097549D01*
X151770295Y-97099677D01*
X151756860Y-97101000D01*
X151443140Y-97101000D01*
X151429705Y-97099677D01*
X151422691Y-97097549D01*
X151408923Y-97090190D01*
X151386284Y-97080813D01*
X151362251Y-97076033D01*
X151337747Y-97076033D01*
X151313714Y-97080814D01*
X151291077Y-97090190D01*
X151277309Y-97097549D01*
X151270295Y-97099677D01*
X151256860Y-97101000D01*
X150943140Y-97101000D01*
X150929705Y-97099677D01*
X150922691Y-97097549D01*
X150908923Y-97090190D01*
X150886284Y-97080813D01*
X150862251Y-97076033D01*
X150837747Y-97076033D01*
X150813714Y-97080814D01*
X150791077Y-97090190D01*
X150777309Y-97097549D01*
X150770295Y-97099677D01*
X150756860Y-97101000D01*
X150443140Y-97101000D01*
X150429705Y-97099677D01*
X150422691Y-97097549D01*
X150408923Y-97090190D01*
X150386284Y-97080813D01*
X150362251Y-97076033D01*
X150337747Y-97076033D01*
X150313714Y-97080814D01*
X150291077Y-97090190D01*
X150277309Y-97097549D01*
X150270295Y-97099677D01*
X150256860Y-97101000D01*
X149943140Y-97101000D01*
X149929705Y-97099677D01*
X149922691Y-97097549D01*
X149908923Y-97090190D01*
X149886284Y-97080813D01*
X149862251Y-97076033D01*
X149837747Y-97076033D01*
X149813714Y-97080814D01*
X149791077Y-97090190D01*
X149777309Y-97097549D01*
X149770295Y-97099677D01*
X149756860Y-97101000D01*
X149443140Y-97101000D01*
X149429705Y-97099677D01*
X149422691Y-97097549D01*
X149408923Y-97090190D01*
X149386284Y-97080813D01*
X149362251Y-97076033D01*
X149337747Y-97076033D01*
X149313714Y-97080814D01*
X149291077Y-97090190D01*
X149277309Y-97097549D01*
X149270295Y-97099677D01*
X149256860Y-97101000D01*
X148943140Y-97101000D01*
X148929705Y-97099677D01*
X148922691Y-97097549D01*
X148908923Y-97090190D01*
X148886284Y-97080813D01*
X148862251Y-97076033D01*
X148837747Y-97076033D01*
X148813714Y-97080814D01*
X148791077Y-97090190D01*
X148777309Y-97097549D01*
X148770295Y-97099677D01*
X148756860Y-97101000D01*
X148443140Y-97101000D01*
X148429705Y-97099677D01*
X148422691Y-97097549D01*
X148408923Y-97090190D01*
X148386284Y-97080813D01*
X148362251Y-97076033D01*
X148337747Y-97076033D01*
X148313714Y-97080814D01*
X148291077Y-97090190D01*
X148277309Y-97097549D01*
X148270295Y-97099677D01*
X148256860Y-97101000D01*
X147943140Y-97101000D01*
X147929705Y-97099677D01*
X147922690Y-97097549D01*
X147916224Y-97094092D01*
X147910558Y-97089442D01*
X147905908Y-97083776D01*
X147902451Y-97077310D01*
X147900323Y-97070295D01*
X147899000Y-97056860D01*
X147899000Y-95493140D01*
X147900323Y-95479705D01*
X147902451Y-95472690D01*
X147905908Y-95466224D01*
X147910558Y-95460558D01*
X147916224Y-95455908D01*
X147922690Y-95452451D01*
X147929705Y-95450323D01*
X147943140Y-95449000D01*
X148256860Y-95449000D01*
X148270295Y-95450323D01*
X148270295Y-95450323D01*
G37*
G36*
X139751000Y-95551000D02*
G01*
X137649000Y-95551000D01*
X137649000Y-90949000D01*
X139751000Y-90949000D01*
X139751000Y-95551000D01*
X139751000Y-95551000D01*
G37*
G36*
X146970295Y-86650323D02*
G01*
X146977310Y-86652451D01*
X146983776Y-86655908D01*
X146989442Y-86660558D01*
X146994092Y-86666224D01*
X146997549Y-86672690D01*
X146999677Y-86679705D01*
X147001000Y-86693140D01*
X147001000Y-87006860D01*
X146999677Y-87020295D01*
X146997549Y-87027309D01*
X146990190Y-87041077D01*
X146980813Y-87063716D01*
X146976033Y-87087749D01*
X146976033Y-87112253D01*
X146980814Y-87136286D01*
X146990190Y-87158923D01*
X146997549Y-87172691D01*
X146999677Y-87179705D01*
X147001000Y-87193140D01*
X147001000Y-87506860D01*
X146999677Y-87520295D01*
X146997549Y-87527309D01*
X146990190Y-87541077D01*
X146980813Y-87563716D01*
X146976033Y-87587749D01*
X146976033Y-87612253D01*
X146980814Y-87636286D01*
X146990190Y-87658923D01*
X146997549Y-87672691D01*
X146999677Y-87679705D01*
X147001000Y-87693140D01*
X147001000Y-88006860D01*
X146999677Y-88020295D01*
X146997549Y-88027309D01*
X146990190Y-88041077D01*
X146980813Y-88063716D01*
X146976033Y-88087749D01*
X146976033Y-88112253D01*
X146980814Y-88136286D01*
X146990190Y-88158923D01*
X146997549Y-88172691D01*
X146999677Y-88179705D01*
X147001000Y-88193140D01*
X147001000Y-88506860D01*
X146999677Y-88520295D01*
X146997549Y-88527309D01*
X146990190Y-88541077D01*
X146980813Y-88563716D01*
X146976033Y-88587749D01*
X146976033Y-88612253D01*
X146980814Y-88636286D01*
X146990190Y-88658923D01*
X146997549Y-88672691D01*
X146999677Y-88679705D01*
X147001000Y-88693140D01*
X147001000Y-89006860D01*
X146999677Y-89020295D01*
X146997549Y-89027309D01*
X146990190Y-89041077D01*
X146980813Y-89063716D01*
X146976033Y-89087749D01*
X146976033Y-89112253D01*
X146980814Y-89136286D01*
X146990190Y-89158923D01*
X146997549Y-89172691D01*
X146999677Y-89179705D01*
X147001000Y-89193140D01*
X147001000Y-89506860D01*
X146999677Y-89520295D01*
X146997549Y-89527309D01*
X146990190Y-89541077D01*
X146980813Y-89563716D01*
X146976033Y-89587749D01*
X146976033Y-89612253D01*
X146980814Y-89636286D01*
X146990190Y-89658923D01*
X146997549Y-89672691D01*
X146999677Y-89679705D01*
X147001000Y-89693140D01*
X147001000Y-90006860D01*
X146999677Y-90020295D01*
X146997549Y-90027309D01*
X146990190Y-90041077D01*
X146980813Y-90063716D01*
X146976033Y-90087749D01*
X146976033Y-90112253D01*
X146980814Y-90136286D01*
X146990190Y-90158923D01*
X146997549Y-90172691D01*
X146999677Y-90179705D01*
X147001000Y-90193140D01*
X147001000Y-90506860D01*
X146999677Y-90520295D01*
X146997549Y-90527309D01*
X146990190Y-90541077D01*
X146980813Y-90563716D01*
X146976033Y-90587749D01*
X146976033Y-90612253D01*
X146980814Y-90636286D01*
X146990190Y-90658923D01*
X146997549Y-90672691D01*
X146999677Y-90679705D01*
X147001000Y-90693140D01*
X147001000Y-91006860D01*
X146999677Y-91020295D01*
X146997549Y-91027309D01*
X146990190Y-91041077D01*
X146980813Y-91063716D01*
X146976033Y-91087749D01*
X146976033Y-91112253D01*
X146980814Y-91136286D01*
X146990190Y-91158923D01*
X146997549Y-91172691D01*
X146999677Y-91179705D01*
X147001000Y-91193140D01*
X147001000Y-91506860D01*
X146999677Y-91520295D01*
X146997549Y-91527309D01*
X146990190Y-91541077D01*
X146980813Y-91563716D01*
X146976033Y-91587749D01*
X146976033Y-91612253D01*
X146980814Y-91636286D01*
X146990190Y-91658923D01*
X146997549Y-91672691D01*
X146999677Y-91679705D01*
X147001000Y-91693140D01*
X147001000Y-92006860D01*
X146999677Y-92020295D01*
X146997549Y-92027309D01*
X146990190Y-92041077D01*
X146980813Y-92063716D01*
X146976033Y-92087749D01*
X146976033Y-92112253D01*
X146980814Y-92136286D01*
X146990190Y-92158923D01*
X146997549Y-92172691D01*
X146999677Y-92179705D01*
X147001000Y-92193140D01*
X147001000Y-92506860D01*
X146999677Y-92520295D01*
X146997549Y-92527309D01*
X146990190Y-92541077D01*
X146980813Y-92563716D01*
X146976033Y-92587749D01*
X146976033Y-92612253D01*
X146980814Y-92636286D01*
X146990190Y-92658923D01*
X146997549Y-92672691D01*
X146999677Y-92679705D01*
X147001000Y-92693140D01*
X147001000Y-93006860D01*
X146999677Y-93020295D01*
X146997549Y-93027309D01*
X146990190Y-93041077D01*
X146980813Y-93063716D01*
X146976033Y-93087749D01*
X146976033Y-93112253D01*
X146980814Y-93136286D01*
X146990190Y-93158923D01*
X146997549Y-93172691D01*
X146999677Y-93179705D01*
X147001000Y-93193140D01*
X147001000Y-93506860D01*
X146999677Y-93520295D01*
X146997549Y-93527309D01*
X146990190Y-93541077D01*
X146980813Y-93563716D01*
X146976033Y-93587749D01*
X146976033Y-93612253D01*
X146980814Y-93636286D01*
X146990190Y-93658923D01*
X146997549Y-93672691D01*
X146999677Y-93679705D01*
X147001000Y-93693140D01*
X147001000Y-94006860D01*
X146999677Y-94020295D01*
X146997549Y-94027309D01*
X146990190Y-94041077D01*
X146980813Y-94063716D01*
X146976033Y-94087749D01*
X146976033Y-94112253D01*
X146980814Y-94136286D01*
X146990190Y-94158923D01*
X146997549Y-94172691D01*
X146999677Y-94179705D01*
X147001000Y-94193140D01*
X147001000Y-94506860D01*
X146999677Y-94520295D01*
X146997549Y-94527310D01*
X146994092Y-94533776D01*
X146989442Y-94539442D01*
X146983776Y-94544092D01*
X146977310Y-94547549D01*
X146970295Y-94549677D01*
X146956860Y-94551000D01*
X145393140Y-94551000D01*
X145379705Y-94549677D01*
X145372690Y-94547549D01*
X145366224Y-94544092D01*
X145360558Y-94539442D01*
X145355908Y-94533776D01*
X145352451Y-94527310D01*
X145350323Y-94520295D01*
X145349000Y-94506860D01*
X145349000Y-94193140D01*
X145350323Y-94179705D01*
X145352451Y-94172691D01*
X145359810Y-94158923D01*
X145369187Y-94136284D01*
X145373967Y-94112251D01*
X145373967Y-94087747D01*
X145369186Y-94063714D01*
X145359810Y-94041077D01*
X145352451Y-94027309D01*
X145350323Y-94020295D01*
X145349000Y-94006860D01*
X145349000Y-93693140D01*
X145350323Y-93679705D01*
X145352451Y-93672691D01*
X145359810Y-93658923D01*
X145369187Y-93636284D01*
X145373967Y-93612251D01*
X145373967Y-93587747D01*
X145369186Y-93563714D01*
X145359810Y-93541077D01*
X145352451Y-93527309D01*
X145350323Y-93520295D01*
X145349000Y-93506860D01*
X145349000Y-93193140D01*
X145350323Y-93179705D01*
X145352451Y-93172691D01*
X145359810Y-93158923D01*
X145369187Y-93136284D01*
X145373967Y-93112251D01*
X145373967Y-93087747D01*
X145369186Y-93063714D01*
X145359810Y-93041077D01*
X145352451Y-93027309D01*
X145350323Y-93020295D01*
X145349000Y-93006860D01*
X145349000Y-92693140D01*
X145350323Y-92679705D01*
X145352451Y-92672691D01*
X145359810Y-92658923D01*
X145369187Y-92636284D01*
X145373967Y-92612251D01*
X145373967Y-92587747D01*
X145369186Y-92563714D01*
X145359810Y-92541077D01*
X145352451Y-92527309D01*
X145350323Y-92520295D01*
X145349000Y-92506860D01*
X145349000Y-92193140D01*
X145350323Y-92179705D01*
X145352451Y-92172691D01*
X145359810Y-92158923D01*
X145369187Y-92136284D01*
X145373967Y-92112251D01*
X145373967Y-92087747D01*
X145369186Y-92063714D01*
X145359810Y-92041077D01*
X145352451Y-92027309D01*
X145350323Y-92020295D01*
X145349000Y-92006860D01*
X145349000Y-91693140D01*
X145350323Y-91679705D01*
X145352451Y-91672691D01*
X145359810Y-91658923D01*
X145369187Y-91636284D01*
X145373967Y-91612251D01*
X145373967Y-91587747D01*
X145369186Y-91563714D01*
X145359810Y-91541077D01*
X145352451Y-91527309D01*
X145350323Y-91520295D01*
X145349000Y-91506860D01*
X145349000Y-91193140D01*
X145350323Y-91179705D01*
X145352451Y-91172691D01*
X145359810Y-91158923D01*
X145369187Y-91136284D01*
X145373967Y-91112251D01*
X145373967Y-91087747D01*
X145369186Y-91063714D01*
X145359810Y-91041077D01*
X145352451Y-91027309D01*
X145350323Y-91020295D01*
X145349000Y-91006860D01*
X145349000Y-90693140D01*
X145350323Y-90679705D01*
X145352451Y-90672691D01*
X145359810Y-90658923D01*
X145369187Y-90636284D01*
X145373967Y-90612251D01*
X145373967Y-90587747D01*
X145369186Y-90563714D01*
X145359810Y-90541077D01*
X145352451Y-90527309D01*
X145350323Y-90520295D01*
X145349000Y-90506860D01*
X145349000Y-90193140D01*
X145350323Y-90179705D01*
X145352451Y-90172691D01*
X145359810Y-90158923D01*
X145369187Y-90136284D01*
X145373967Y-90112251D01*
X145373967Y-90087747D01*
X145369186Y-90063714D01*
X145359810Y-90041077D01*
X145352451Y-90027309D01*
X145350323Y-90020295D01*
X145349000Y-90006860D01*
X145349000Y-89693140D01*
X145350323Y-89679705D01*
X145352451Y-89672691D01*
X145359810Y-89658923D01*
X145369187Y-89636284D01*
X145373967Y-89612251D01*
X145373967Y-89587747D01*
X145369186Y-89563714D01*
X145359810Y-89541077D01*
X145352451Y-89527309D01*
X145350323Y-89520295D01*
X145349000Y-89506860D01*
X145349000Y-89193140D01*
X145350323Y-89179705D01*
X145352451Y-89172691D01*
X145359810Y-89158923D01*
X145369187Y-89136284D01*
X145373967Y-89112251D01*
X145373967Y-89087747D01*
X145369186Y-89063714D01*
X145359810Y-89041077D01*
X145352451Y-89027309D01*
X145350323Y-89020295D01*
X145349000Y-89006860D01*
X145349000Y-88693140D01*
X145350323Y-88679705D01*
X145352451Y-88672691D01*
X145359810Y-88658923D01*
X145369187Y-88636284D01*
X145373967Y-88612251D01*
X145373967Y-88587747D01*
X145369186Y-88563714D01*
X145359810Y-88541077D01*
X145352451Y-88527309D01*
X145350323Y-88520295D01*
X145349000Y-88506860D01*
X145349000Y-88193140D01*
X145350323Y-88179705D01*
X145352451Y-88172691D01*
X145359810Y-88158923D01*
X145369187Y-88136284D01*
X145373967Y-88112251D01*
X145373967Y-88087747D01*
X145369186Y-88063714D01*
X145359810Y-88041077D01*
X145352451Y-88027309D01*
X145350323Y-88020295D01*
X145349000Y-88006860D01*
X145349000Y-87693140D01*
X145350323Y-87679705D01*
X145352451Y-87672691D01*
X145359810Y-87658923D01*
X145369187Y-87636284D01*
X145373967Y-87612251D01*
X145373967Y-87587747D01*
X145369186Y-87563714D01*
X145359810Y-87541077D01*
X145352451Y-87527309D01*
X145350323Y-87520295D01*
X145349000Y-87506860D01*
X145349000Y-87193140D01*
X145350323Y-87179705D01*
X145352451Y-87172691D01*
X145359810Y-87158923D01*
X145369187Y-87136284D01*
X145373967Y-87112251D01*
X145373967Y-87087747D01*
X145369186Y-87063714D01*
X145359810Y-87041077D01*
X145352451Y-87027309D01*
X145350323Y-87020295D01*
X145349000Y-87006860D01*
X145349000Y-86693140D01*
X145350323Y-86679705D01*
X145352451Y-86672690D01*
X145355908Y-86666224D01*
X145360558Y-86660558D01*
X145366224Y-86655908D01*
X145372690Y-86652451D01*
X145379705Y-86650323D01*
X145393140Y-86649000D01*
X146956860Y-86649000D01*
X146970295Y-86650323D01*
X146970295Y-86650323D01*
G37*
G36*
X158320295Y-86650323D02*
G01*
X158327310Y-86652451D01*
X158333776Y-86655908D01*
X158339442Y-86660558D01*
X158344092Y-86666224D01*
X158347549Y-86672690D01*
X158349677Y-86679705D01*
X158351000Y-86693140D01*
X158351000Y-87006860D01*
X158349677Y-87020295D01*
X158347549Y-87027309D01*
X158340190Y-87041077D01*
X158330813Y-87063716D01*
X158326033Y-87087749D01*
X158326033Y-87112253D01*
X158330814Y-87136286D01*
X158340190Y-87158923D01*
X158347549Y-87172691D01*
X158349677Y-87179705D01*
X158351000Y-87193140D01*
X158351000Y-87506860D01*
X158349677Y-87520295D01*
X158347549Y-87527309D01*
X158340190Y-87541077D01*
X158330813Y-87563716D01*
X158326033Y-87587749D01*
X158326033Y-87612253D01*
X158330814Y-87636286D01*
X158340190Y-87658923D01*
X158347549Y-87672691D01*
X158349677Y-87679705D01*
X158351000Y-87693140D01*
X158351000Y-88006860D01*
X158349677Y-88020295D01*
X158347549Y-88027309D01*
X158340190Y-88041077D01*
X158330813Y-88063716D01*
X158326033Y-88087749D01*
X158326033Y-88112253D01*
X158330814Y-88136286D01*
X158340190Y-88158923D01*
X158347549Y-88172691D01*
X158349677Y-88179705D01*
X158351000Y-88193140D01*
X158351000Y-88506860D01*
X158349677Y-88520295D01*
X158347549Y-88527309D01*
X158340190Y-88541077D01*
X158330813Y-88563716D01*
X158326033Y-88587749D01*
X158326033Y-88612253D01*
X158330814Y-88636286D01*
X158340190Y-88658923D01*
X158347549Y-88672691D01*
X158349677Y-88679705D01*
X158351000Y-88693140D01*
X158351000Y-89006860D01*
X158349677Y-89020295D01*
X158347549Y-89027309D01*
X158340190Y-89041077D01*
X158330813Y-89063716D01*
X158326033Y-89087749D01*
X158326033Y-89112253D01*
X158330814Y-89136286D01*
X158340190Y-89158923D01*
X158347549Y-89172691D01*
X158349677Y-89179705D01*
X158351000Y-89193140D01*
X158351000Y-89506860D01*
X158349677Y-89520295D01*
X158347549Y-89527309D01*
X158340190Y-89541077D01*
X158330813Y-89563716D01*
X158326033Y-89587749D01*
X158326033Y-89612253D01*
X158330814Y-89636286D01*
X158340190Y-89658923D01*
X158347549Y-89672691D01*
X158349677Y-89679705D01*
X158351000Y-89693140D01*
X158351000Y-90006860D01*
X158349677Y-90020295D01*
X158347549Y-90027309D01*
X158340190Y-90041077D01*
X158330813Y-90063716D01*
X158326033Y-90087749D01*
X158326033Y-90112253D01*
X158330814Y-90136286D01*
X158340190Y-90158923D01*
X158347549Y-90172691D01*
X158349677Y-90179705D01*
X158351000Y-90193140D01*
X158351000Y-90506860D01*
X158349677Y-90520295D01*
X158347549Y-90527309D01*
X158340190Y-90541077D01*
X158330813Y-90563716D01*
X158326033Y-90587749D01*
X158326033Y-90612253D01*
X158330814Y-90636286D01*
X158340190Y-90658923D01*
X158347549Y-90672691D01*
X158349677Y-90679705D01*
X158351000Y-90693140D01*
X158351000Y-91006860D01*
X158349677Y-91020295D01*
X158347549Y-91027309D01*
X158340190Y-91041077D01*
X158330813Y-91063716D01*
X158326033Y-91087749D01*
X158326033Y-91112253D01*
X158330814Y-91136286D01*
X158340190Y-91158923D01*
X158347549Y-91172691D01*
X158349677Y-91179705D01*
X158351000Y-91193140D01*
X158351000Y-91506860D01*
X158349677Y-91520295D01*
X158347549Y-91527309D01*
X158340190Y-91541077D01*
X158330813Y-91563716D01*
X158326033Y-91587749D01*
X158326033Y-91612253D01*
X158330814Y-91636286D01*
X158340190Y-91658923D01*
X158347549Y-91672691D01*
X158349677Y-91679705D01*
X158351000Y-91693140D01*
X158351000Y-92006860D01*
X158349677Y-92020295D01*
X158347549Y-92027309D01*
X158340190Y-92041077D01*
X158330813Y-92063716D01*
X158326033Y-92087749D01*
X158326033Y-92112253D01*
X158330814Y-92136286D01*
X158340190Y-92158923D01*
X158347549Y-92172691D01*
X158349677Y-92179705D01*
X158351000Y-92193140D01*
X158351000Y-92506860D01*
X158349677Y-92520295D01*
X158347549Y-92527309D01*
X158340190Y-92541077D01*
X158330813Y-92563716D01*
X158326033Y-92587749D01*
X158326033Y-92612253D01*
X158330814Y-92636286D01*
X158340190Y-92658923D01*
X158347549Y-92672691D01*
X158349677Y-92679705D01*
X158351000Y-92693140D01*
X158351000Y-93006860D01*
X158349677Y-93020295D01*
X158347549Y-93027309D01*
X158340190Y-93041077D01*
X158330813Y-93063716D01*
X158326033Y-93087749D01*
X158326033Y-93112253D01*
X158330814Y-93136286D01*
X158340190Y-93158923D01*
X158347549Y-93172691D01*
X158349677Y-93179705D01*
X158351000Y-93193140D01*
X158351000Y-93506860D01*
X158349677Y-93520295D01*
X158347549Y-93527309D01*
X158340190Y-93541077D01*
X158330813Y-93563716D01*
X158326033Y-93587749D01*
X158326033Y-93612253D01*
X158330814Y-93636286D01*
X158340190Y-93658923D01*
X158347549Y-93672691D01*
X158349677Y-93679705D01*
X158351000Y-93693140D01*
X158351000Y-94006860D01*
X158349677Y-94020295D01*
X158347549Y-94027309D01*
X158340190Y-94041077D01*
X158330813Y-94063716D01*
X158326033Y-94087749D01*
X158326033Y-94112253D01*
X158330814Y-94136286D01*
X158340190Y-94158923D01*
X158347549Y-94172691D01*
X158349677Y-94179705D01*
X158351000Y-94193140D01*
X158351000Y-94506860D01*
X158349677Y-94520295D01*
X158347549Y-94527310D01*
X158344092Y-94533776D01*
X158339442Y-94539442D01*
X158333776Y-94544092D01*
X158327310Y-94547549D01*
X158320295Y-94549677D01*
X158306860Y-94551000D01*
X156743140Y-94551000D01*
X156729705Y-94549677D01*
X156722690Y-94547549D01*
X156716224Y-94544092D01*
X156710558Y-94539442D01*
X156705908Y-94533776D01*
X156702451Y-94527310D01*
X156700323Y-94520295D01*
X156699000Y-94506860D01*
X156699000Y-94193140D01*
X156700323Y-94179705D01*
X156702451Y-94172691D01*
X156709810Y-94158923D01*
X156719187Y-94136284D01*
X156723967Y-94112251D01*
X156723967Y-94087747D01*
X156719186Y-94063714D01*
X156709810Y-94041077D01*
X156702451Y-94027309D01*
X156700323Y-94020295D01*
X156699000Y-94006860D01*
X156699000Y-93693140D01*
X156700323Y-93679705D01*
X156702451Y-93672691D01*
X156709810Y-93658923D01*
X156719187Y-93636284D01*
X156723967Y-93612251D01*
X156723967Y-93587747D01*
X156719186Y-93563714D01*
X156709810Y-93541077D01*
X156702451Y-93527309D01*
X156700323Y-93520295D01*
X156699000Y-93506860D01*
X156699000Y-93193140D01*
X156700323Y-93179705D01*
X156702451Y-93172691D01*
X156709810Y-93158923D01*
X156719187Y-93136284D01*
X156723967Y-93112251D01*
X156723967Y-93087747D01*
X156719186Y-93063714D01*
X156709810Y-93041077D01*
X156702451Y-93027309D01*
X156700323Y-93020295D01*
X156699000Y-93006860D01*
X156699000Y-92693140D01*
X156700323Y-92679705D01*
X156702451Y-92672691D01*
X156709810Y-92658923D01*
X156719187Y-92636284D01*
X156723967Y-92612251D01*
X156723967Y-92587747D01*
X156719186Y-92563714D01*
X156709810Y-92541077D01*
X156702451Y-92527309D01*
X156700323Y-92520295D01*
X156699000Y-92506860D01*
X156699000Y-92193140D01*
X156700323Y-92179705D01*
X156702451Y-92172691D01*
X156709810Y-92158923D01*
X156719187Y-92136284D01*
X156723967Y-92112251D01*
X156723967Y-92087747D01*
X156719186Y-92063714D01*
X156709810Y-92041077D01*
X156702451Y-92027309D01*
X156700323Y-92020295D01*
X156699000Y-92006860D01*
X156699000Y-91693140D01*
X156700323Y-91679705D01*
X156702451Y-91672691D01*
X156709810Y-91658923D01*
X156719187Y-91636284D01*
X156723967Y-91612251D01*
X156723967Y-91587747D01*
X156719186Y-91563714D01*
X156709810Y-91541077D01*
X156702451Y-91527309D01*
X156700323Y-91520295D01*
X156699000Y-91506860D01*
X156699000Y-91193140D01*
X156700323Y-91179705D01*
X156702451Y-91172691D01*
X156709810Y-91158923D01*
X156719187Y-91136284D01*
X156723967Y-91112251D01*
X156723967Y-91087747D01*
X156719186Y-91063714D01*
X156709810Y-91041077D01*
X156702451Y-91027309D01*
X156700323Y-91020295D01*
X156699000Y-91006860D01*
X156699000Y-90693140D01*
X156700323Y-90679705D01*
X156702451Y-90672691D01*
X156709810Y-90658923D01*
X156719187Y-90636284D01*
X156723967Y-90612251D01*
X156723967Y-90587747D01*
X156719186Y-90563714D01*
X156709810Y-90541077D01*
X156702451Y-90527309D01*
X156700323Y-90520295D01*
X156699000Y-90506860D01*
X156699000Y-90193140D01*
X156700323Y-90179705D01*
X156702451Y-90172691D01*
X156709810Y-90158923D01*
X156719187Y-90136284D01*
X156723967Y-90112251D01*
X156723967Y-90087747D01*
X156719186Y-90063714D01*
X156709810Y-90041077D01*
X156702451Y-90027309D01*
X156700323Y-90020295D01*
X156699000Y-90006860D01*
X156699000Y-89693140D01*
X156700323Y-89679705D01*
X156702451Y-89672691D01*
X156709810Y-89658923D01*
X156719187Y-89636284D01*
X156723967Y-89612251D01*
X156723967Y-89587747D01*
X156719186Y-89563714D01*
X156709810Y-89541077D01*
X156702451Y-89527309D01*
X156700323Y-89520295D01*
X156699000Y-89506860D01*
X156699000Y-89193140D01*
X156700323Y-89179705D01*
X156702451Y-89172691D01*
X156709810Y-89158923D01*
X156719187Y-89136284D01*
X156723967Y-89112251D01*
X156723967Y-89087747D01*
X156719186Y-89063714D01*
X156709810Y-89041077D01*
X156702451Y-89027309D01*
X156700323Y-89020295D01*
X156699000Y-89006860D01*
X156699000Y-88693140D01*
X156700323Y-88679705D01*
X156702451Y-88672691D01*
X156709810Y-88658923D01*
X156719187Y-88636284D01*
X156723967Y-88612251D01*
X156723967Y-88587747D01*
X156719186Y-88563714D01*
X156709810Y-88541077D01*
X156702451Y-88527309D01*
X156700323Y-88520295D01*
X156699000Y-88506860D01*
X156699000Y-88193140D01*
X156700323Y-88179705D01*
X156702451Y-88172691D01*
X156709810Y-88158923D01*
X156719187Y-88136284D01*
X156723967Y-88112251D01*
X156723967Y-88087747D01*
X156719186Y-88063714D01*
X156709810Y-88041077D01*
X156702451Y-88027309D01*
X156700323Y-88020295D01*
X156699000Y-88006860D01*
X156699000Y-87693140D01*
X156700323Y-87679705D01*
X156702451Y-87672691D01*
X156709810Y-87658923D01*
X156719187Y-87636284D01*
X156723967Y-87612251D01*
X156723967Y-87587747D01*
X156719186Y-87563714D01*
X156709810Y-87541077D01*
X156702451Y-87527309D01*
X156700323Y-87520295D01*
X156699000Y-87506860D01*
X156699000Y-87193140D01*
X156700323Y-87179705D01*
X156702451Y-87172691D01*
X156709810Y-87158923D01*
X156719187Y-87136284D01*
X156723967Y-87112251D01*
X156723967Y-87087747D01*
X156719186Y-87063714D01*
X156709810Y-87041077D01*
X156702451Y-87027309D01*
X156700323Y-87020295D01*
X156699000Y-87006860D01*
X156699000Y-86693140D01*
X156700323Y-86679705D01*
X156702451Y-86672690D01*
X156705908Y-86666224D01*
X156710558Y-86660558D01*
X156716224Y-86655908D01*
X156722690Y-86652451D01*
X156729705Y-86650323D01*
X156743140Y-86649000D01*
X158306860Y-86649000D01*
X158320295Y-86650323D01*
X158320295Y-86650323D01*
G37*
G36*
X129063512Y-91103927D02*
G01*
X129212812Y-91133624D01*
X129376784Y-91201544D01*
X129524354Y-91300147D01*
X129649853Y-91425646D01*
X129748456Y-91573216D01*
X129816376Y-91737188D01*
X129851000Y-91911259D01*
X129851000Y-92088741D01*
X129816376Y-92262812D01*
X129748456Y-92426784D01*
X129649853Y-92574354D01*
X129524354Y-92699853D01*
X129376784Y-92798456D01*
X129212812Y-92866376D01*
X129063512Y-92896073D01*
X129038742Y-92901000D01*
X128861258Y-92901000D01*
X128836488Y-92896073D01*
X128687188Y-92866376D01*
X128523216Y-92798456D01*
X128375646Y-92699853D01*
X128250147Y-92574354D01*
X128151544Y-92426784D01*
X128083624Y-92262812D01*
X128049000Y-92088741D01*
X128049000Y-91911259D01*
X128083624Y-91737188D01*
X128151544Y-91573216D01*
X128250147Y-91425646D01*
X128375646Y-91300147D01*
X128523216Y-91201544D01*
X128687188Y-91133624D01*
X128836488Y-91103927D01*
X128861258Y-91099000D01*
X129038742Y-91099000D01*
X129063512Y-91103927D01*
X129063512Y-91103927D01*
G37*
G36*
X126523512Y-91103927D02*
G01*
X126672812Y-91133624D01*
X126836784Y-91201544D01*
X126984354Y-91300147D01*
X127109853Y-91425646D01*
X127208456Y-91573216D01*
X127276376Y-91737188D01*
X127311000Y-91911259D01*
X127311000Y-92088741D01*
X127276376Y-92262812D01*
X127208456Y-92426784D01*
X127109853Y-92574354D01*
X126984354Y-92699853D01*
X126836784Y-92798456D01*
X126672812Y-92866376D01*
X126523512Y-92896073D01*
X126498742Y-92901000D01*
X126321258Y-92901000D01*
X126296488Y-92896073D01*
X126147188Y-92866376D01*
X125983216Y-92798456D01*
X125835646Y-92699853D01*
X125710147Y-92574354D01*
X125611544Y-92426784D01*
X125543624Y-92262812D01*
X125509000Y-92088741D01*
X125509000Y-91911259D01*
X125543624Y-91737188D01*
X125611544Y-91573216D01*
X125710147Y-91425646D01*
X125835646Y-91300147D01*
X125983216Y-91201544D01*
X126147188Y-91133624D01*
X126296488Y-91103927D01*
X126321258Y-91099000D01*
X126498742Y-91099000D01*
X126523512Y-91103927D01*
X126523512Y-91103927D01*
G37*
G36*
X131603512Y-91103927D02*
G01*
X131752812Y-91133624D01*
X131916784Y-91201544D01*
X132064354Y-91300147D01*
X132189853Y-91425646D01*
X132288456Y-91573216D01*
X132356376Y-91737188D01*
X132391000Y-91911259D01*
X132391000Y-92088741D01*
X132356376Y-92262812D01*
X132288456Y-92426784D01*
X132189853Y-92574354D01*
X132064354Y-92699853D01*
X131916784Y-92798456D01*
X131752812Y-92866376D01*
X131603512Y-92896073D01*
X131578742Y-92901000D01*
X131401258Y-92901000D01*
X131376488Y-92896073D01*
X131227188Y-92866376D01*
X131063216Y-92798456D01*
X130915646Y-92699853D01*
X130790147Y-92574354D01*
X130691544Y-92426784D01*
X130623624Y-92262812D01*
X130589000Y-92088741D01*
X130589000Y-91911259D01*
X130623624Y-91737188D01*
X130691544Y-91573216D01*
X130790147Y-91425646D01*
X130915646Y-91300147D01*
X131063216Y-91201544D01*
X131227188Y-91133624D01*
X131376488Y-91103927D01*
X131401258Y-91099000D01*
X131578742Y-91099000D01*
X131603512Y-91103927D01*
X131603512Y-91103927D01*
G37*
G36*
X143084468Y-91403565D02*
G01*
X143123138Y-91415296D01*
X143158777Y-91434346D01*
X143190017Y-91459983D01*
X143215654Y-91491223D01*
X143234704Y-91526862D01*
X143246435Y-91565532D01*
X143251000Y-91611888D01*
X143251000Y-92263112D01*
X143246435Y-92309468D01*
X143234704Y-92348138D01*
X143215654Y-92383777D01*
X143190017Y-92415017D01*
X143158777Y-92440654D01*
X143123138Y-92459704D01*
X143084468Y-92471435D01*
X143038112Y-92476000D01*
X141961888Y-92476000D01*
X141915532Y-92471435D01*
X141876862Y-92459704D01*
X141841223Y-92440654D01*
X141809983Y-92415017D01*
X141784346Y-92383777D01*
X141765296Y-92348138D01*
X141753565Y-92309468D01*
X141749000Y-92263112D01*
X141749000Y-91611888D01*
X141753565Y-91565532D01*
X141765296Y-91526862D01*
X141784346Y-91491223D01*
X141809983Y-91459983D01*
X141841223Y-91434346D01*
X141876862Y-91415296D01*
X141915532Y-91403565D01*
X141961888Y-91399000D01*
X143038112Y-91399000D01*
X143084468Y-91403565D01*
X143084468Y-91403565D01*
G37*
G36*
X143084468Y-89528565D02*
G01*
X143123138Y-89540296D01*
X143158777Y-89559346D01*
X143190017Y-89584983D01*
X143215654Y-89616223D01*
X143234704Y-89651862D01*
X143246435Y-89690532D01*
X143251000Y-89736888D01*
X143251000Y-90388112D01*
X143246435Y-90434468D01*
X143234704Y-90473138D01*
X143215654Y-90508777D01*
X143190017Y-90540017D01*
X143158777Y-90565654D01*
X143123138Y-90584704D01*
X143084468Y-90596435D01*
X143038112Y-90601000D01*
X141961888Y-90601000D01*
X141915532Y-90596435D01*
X141876862Y-90584704D01*
X141841223Y-90565654D01*
X141809983Y-90540017D01*
X141784346Y-90508777D01*
X141765296Y-90473138D01*
X141753565Y-90434468D01*
X141749000Y-90388112D01*
X141749000Y-89736888D01*
X141753565Y-89690532D01*
X141765296Y-89651862D01*
X141784346Y-89616223D01*
X141809983Y-89584983D01*
X141841223Y-89559346D01*
X141876862Y-89540296D01*
X141915532Y-89528565D01*
X141961888Y-89524000D01*
X143038112Y-89524000D01*
X143084468Y-89528565D01*
X143084468Y-89528565D01*
G37*
G36*
X170963512Y-87253927D02*
G01*
X171112812Y-87283624D01*
X171276784Y-87351544D01*
X171424354Y-87450147D01*
X171549853Y-87575646D01*
X171648456Y-87723216D01*
X171716376Y-87887188D01*
X171746073Y-88036488D01*
X171748960Y-88051000D01*
X171751000Y-88061259D01*
X171751000Y-88238741D01*
X171716376Y-88412812D01*
X171648456Y-88576784D01*
X171549853Y-88724354D01*
X171424354Y-88849853D01*
X171276784Y-88948456D01*
X171112812Y-89016376D01*
X170977201Y-89043350D01*
X170938742Y-89051000D01*
X170761258Y-89051000D01*
X170722799Y-89043350D01*
X170587188Y-89016376D01*
X170423216Y-88948456D01*
X170275646Y-88849853D01*
X170150147Y-88724354D01*
X170051544Y-88576784D01*
X169983624Y-88412812D01*
X169949000Y-88238741D01*
X169949000Y-88061259D01*
X169951041Y-88051000D01*
X169953927Y-88036488D01*
X169983624Y-87887188D01*
X170051544Y-87723216D01*
X170150147Y-87575646D01*
X170275646Y-87450147D01*
X170423216Y-87351544D01*
X170587188Y-87283624D01*
X170736488Y-87253927D01*
X170761258Y-87249000D01*
X170938742Y-87249000D01*
X170963512Y-87253927D01*
X170963512Y-87253927D01*
G37*
G36*
X143084468Y-87453565D02*
G01*
X143123138Y-87465296D01*
X143158777Y-87484346D01*
X143190017Y-87509983D01*
X143215654Y-87541223D01*
X143234704Y-87576862D01*
X143246435Y-87615532D01*
X143251000Y-87661888D01*
X143251000Y-88313112D01*
X143246435Y-88359468D01*
X143234704Y-88398138D01*
X143215654Y-88433777D01*
X143190017Y-88465017D01*
X143158777Y-88490654D01*
X143123138Y-88509704D01*
X143084468Y-88521435D01*
X143038112Y-88526000D01*
X141961888Y-88526000D01*
X141915532Y-88521435D01*
X141876862Y-88509704D01*
X141841223Y-88490654D01*
X141809983Y-88465017D01*
X141784346Y-88433777D01*
X141765296Y-88398138D01*
X141753565Y-88359468D01*
X141749000Y-88313112D01*
X141749000Y-87661888D01*
X141753565Y-87615532D01*
X141765296Y-87576862D01*
X141784346Y-87541223D01*
X141809983Y-87509983D01*
X141841223Y-87484346D01*
X141876862Y-87465296D01*
X141915532Y-87453565D01*
X141961888Y-87449000D01*
X143038112Y-87449000D01*
X143084468Y-87453565D01*
X143084468Y-87453565D01*
G37*
G36*
X132753512Y-86603927D02*
G01*
X132902812Y-86633624D01*
X133066784Y-86701544D01*
X133214354Y-86800147D01*
X133339853Y-86925646D01*
X133438456Y-87073216D01*
X133506376Y-87237188D01*
X133541000Y-87411259D01*
X133541000Y-87588741D01*
X133506376Y-87762812D01*
X133438456Y-87926784D01*
X133339853Y-88074354D01*
X133214354Y-88199853D01*
X133066784Y-88298456D01*
X132902812Y-88366376D01*
X132753512Y-88396073D01*
X132728742Y-88401000D01*
X132551258Y-88401000D01*
X132526488Y-88396073D01*
X132377188Y-88366376D01*
X132213216Y-88298456D01*
X132065646Y-88199853D01*
X131940147Y-88074354D01*
X131841544Y-87926784D01*
X131773624Y-87762812D01*
X131739000Y-87588741D01*
X131739000Y-87411259D01*
X131773624Y-87237188D01*
X131841544Y-87073216D01*
X131940147Y-86925646D01*
X132065646Y-86800147D01*
X132213216Y-86701544D01*
X132377188Y-86633624D01*
X132526488Y-86603927D01*
X132551258Y-86599000D01*
X132728742Y-86599000D01*
X132753512Y-86603927D01*
X132753512Y-86603927D01*
G37*
G36*
X130213512Y-86603927D02*
G01*
X130362812Y-86633624D01*
X130526784Y-86701544D01*
X130674354Y-86800147D01*
X130799853Y-86925646D01*
X130898456Y-87073216D01*
X130966376Y-87237188D01*
X131001000Y-87411259D01*
X131001000Y-87588741D01*
X130966376Y-87762812D01*
X130898456Y-87926784D01*
X130799853Y-88074354D01*
X130674354Y-88199853D01*
X130526784Y-88298456D01*
X130362812Y-88366376D01*
X130213512Y-88396073D01*
X130188742Y-88401000D01*
X130011258Y-88401000D01*
X129986488Y-88396073D01*
X129837188Y-88366376D01*
X129673216Y-88298456D01*
X129525646Y-88199853D01*
X129400147Y-88074354D01*
X129301544Y-87926784D01*
X129233624Y-87762812D01*
X129199000Y-87588741D01*
X129199000Y-87411259D01*
X129233624Y-87237188D01*
X129301544Y-87073216D01*
X129400147Y-86925646D01*
X129525646Y-86800147D01*
X129673216Y-86701544D01*
X129837188Y-86633624D01*
X129986488Y-86603927D01*
X130011258Y-86599000D01*
X130188742Y-86599000D01*
X130213512Y-86603927D01*
X130213512Y-86603927D01*
G37*
G36*
X127673512Y-86603927D02*
G01*
X127822812Y-86633624D01*
X127986784Y-86701544D01*
X128134354Y-86800147D01*
X128259853Y-86925646D01*
X128358456Y-87073216D01*
X128426376Y-87237188D01*
X128461000Y-87411259D01*
X128461000Y-87588741D01*
X128426376Y-87762812D01*
X128358456Y-87926784D01*
X128259853Y-88074354D01*
X128134354Y-88199853D01*
X127986784Y-88298456D01*
X127822812Y-88366376D01*
X127673512Y-88396073D01*
X127648742Y-88401000D01*
X127471258Y-88401000D01*
X127446488Y-88396073D01*
X127297188Y-88366376D01*
X127133216Y-88298456D01*
X126985646Y-88199853D01*
X126860147Y-88074354D01*
X126761544Y-87926784D01*
X126693624Y-87762812D01*
X126659000Y-87588741D01*
X126659000Y-87411259D01*
X126693624Y-87237188D01*
X126761544Y-87073216D01*
X126860147Y-86925646D01*
X126985646Y-86800147D01*
X127133216Y-86701544D01*
X127297188Y-86633624D01*
X127446488Y-86603927D01*
X127471258Y-86599000D01*
X127648742Y-86599000D01*
X127673512Y-86603927D01*
X127673512Y-86603927D01*
G37*
G36*
X169327762Y-85309766D02*
G01*
X169393946Y-85316284D01*
X169563785Y-85367804D01*
X169720310Y-85451469D01*
X169756048Y-85480799D01*
X169857505Y-85564061D01*
X169930380Y-85652861D01*
X169970097Y-85701256D01*
X170053762Y-85857781D01*
X170105282Y-86027620D01*
X170122678Y-86204247D01*
X170105282Y-86380874D01*
X170053762Y-86550713D01*
X170053761Y-86550715D01*
X170032753Y-86590017D01*
X169970097Y-86707238D01*
X169951504Y-86729893D01*
X169857505Y-86844433D01*
X169758545Y-86925646D01*
X169720310Y-86957025D01*
X169563785Y-87040690D01*
X169393946Y-87092210D01*
X169327762Y-87098728D01*
X169261579Y-87105247D01*
X169173059Y-87105247D01*
X169106876Y-87098728D01*
X169040692Y-87092210D01*
X168870853Y-87040690D01*
X168714328Y-86957025D01*
X168676093Y-86925646D01*
X168577133Y-86844433D01*
X168483134Y-86729893D01*
X168464541Y-86707238D01*
X168401885Y-86590017D01*
X168380877Y-86550715D01*
X168380876Y-86550713D01*
X168329356Y-86380874D01*
X168311960Y-86204247D01*
X168329356Y-86027620D01*
X168380876Y-85857781D01*
X168464541Y-85701256D01*
X168504258Y-85652861D01*
X168577133Y-85564061D01*
X168678590Y-85480799D01*
X168714328Y-85451469D01*
X168870853Y-85367804D01*
X169040692Y-85316284D01*
X169106876Y-85309766D01*
X169173059Y-85303247D01*
X169261579Y-85303247D01*
X169327762Y-85309766D01*
X169327762Y-85309766D01*
G37*
G36*
X139751000Y-87051000D02*
G01*
X137649000Y-87051000D01*
X137649000Y-82449000D01*
X139751000Y-82449000D01*
X139751000Y-87051000D01*
X139751000Y-87051000D01*
G37*
G36*
X143084468Y-85578565D02*
G01*
X143123138Y-85590296D01*
X143158777Y-85609346D01*
X143190017Y-85634983D01*
X143215654Y-85666223D01*
X143234704Y-85701862D01*
X143246435Y-85740532D01*
X143251000Y-85786888D01*
X143251000Y-86438112D01*
X143246435Y-86484468D01*
X143234704Y-86523138D01*
X143215654Y-86558777D01*
X143190017Y-86590017D01*
X143158777Y-86615654D01*
X143123138Y-86634704D01*
X143084468Y-86646435D01*
X143038112Y-86651000D01*
X141961888Y-86651000D01*
X141915532Y-86646435D01*
X141876862Y-86634704D01*
X141841223Y-86615654D01*
X141809983Y-86590017D01*
X141784346Y-86558777D01*
X141765296Y-86523138D01*
X141753565Y-86484468D01*
X141749000Y-86438112D01*
X141749000Y-85786888D01*
X141753565Y-85740532D01*
X141765296Y-85701862D01*
X141784346Y-85666223D01*
X141809983Y-85634983D01*
X141841223Y-85609346D01*
X141876862Y-85590296D01*
X141915532Y-85578565D01*
X141961888Y-85574000D01*
X143038112Y-85574000D01*
X143084468Y-85578565D01*
X143084468Y-85578565D01*
G37*
G36*
X148270295Y-84100323D02*
G01*
X148277309Y-84102451D01*
X148291077Y-84109810D01*
X148313716Y-84119187D01*
X148337749Y-84123967D01*
X148362253Y-84123967D01*
X148386286Y-84119186D01*
X148408923Y-84109810D01*
X148422691Y-84102451D01*
X148429705Y-84100323D01*
X148443140Y-84099000D01*
X148756860Y-84099000D01*
X148770295Y-84100323D01*
X148777309Y-84102451D01*
X148791077Y-84109810D01*
X148813716Y-84119187D01*
X148837749Y-84123967D01*
X148862253Y-84123967D01*
X148886286Y-84119186D01*
X148908923Y-84109810D01*
X148922691Y-84102451D01*
X148929705Y-84100323D01*
X148943140Y-84099000D01*
X149256860Y-84099000D01*
X149270295Y-84100323D01*
X149277309Y-84102451D01*
X149291077Y-84109810D01*
X149313716Y-84119187D01*
X149337749Y-84123967D01*
X149362253Y-84123967D01*
X149386286Y-84119186D01*
X149408923Y-84109810D01*
X149422691Y-84102451D01*
X149429705Y-84100323D01*
X149443140Y-84099000D01*
X149756860Y-84099000D01*
X149770295Y-84100323D01*
X149777309Y-84102451D01*
X149791077Y-84109810D01*
X149813716Y-84119187D01*
X149837749Y-84123967D01*
X149862253Y-84123967D01*
X149886286Y-84119186D01*
X149908923Y-84109810D01*
X149922691Y-84102451D01*
X149929705Y-84100323D01*
X149943140Y-84099000D01*
X150256860Y-84099000D01*
X150270295Y-84100323D01*
X150277309Y-84102451D01*
X150291077Y-84109810D01*
X150313716Y-84119187D01*
X150337749Y-84123967D01*
X150362253Y-84123967D01*
X150386286Y-84119186D01*
X150408923Y-84109810D01*
X150422691Y-84102451D01*
X150429705Y-84100323D01*
X150443140Y-84099000D01*
X150756860Y-84099000D01*
X150770295Y-84100323D01*
X150777309Y-84102451D01*
X150791077Y-84109810D01*
X150813716Y-84119187D01*
X150837749Y-84123967D01*
X150862253Y-84123967D01*
X150886286Y-84119186D01*
X150908923Y-84109810D01*
X150922691Y-84102451D01*
X150929705Y-84100323D01*
X150943140Y-84099000D01*
X151256860Y-84099000D01*
X151270295Y-84100323D01*
X151277309Y-84102451D01*
X151291077Y-84109810D01*
X151313716Y-84119187D01*
X151337749Y-84123967D01*
X151362253Y-84123967D01*
X151386286Y-84119186D01*
X151408923Y-84109810D01*
X151422691Y-84102451D01*
X151429705Y-84100323D01*
X151443140Y-84099000D01*
X151756860Y-84099000D01*
X151770295Y-84100323D01*
X151777309Y-84102451D01*
X151791077Y-84109810D01*
X151813716Y-84119187D01*
X151837749Y-84123967D01*
X151862253Y-84123967D01*
X151886286Y-84119186D01*
X151908923Y-84109810D01*
X151922691Y-84102451D01*
X151929705Y-84100323D01*
X151943140Y-84099000D01*
X152256860Y-84099000D01*
X152270295Y-84100323D01*
X152277309Y-84102451D01*
X152291077Y-84109810D01*
X152313716Y-84119187D01*
X152337749Y-84123967D01*
X152362253Y-84123967D01*
X152386286Y-84119186D01*
X152408923Y-84109810D01*
X152422691Y-84102451D01*
X152429705Y-84100323D01*
X152443140Y-84099000D01*
X152756860Y-84099000D01*
X152770295Y-84100323D01*
X152777309Y-84102451D01*
X152791077Y-84109810D01*
X152813716Y-84119187D01*
X152837749Y-84123967D01*
X152862253Y-84123967D01*
X152886286Y-84119186D01*
X152908923Y-84109810D01*
X152922691Y-84102451D01*
X152929705Y-84100323D01*
X152943140Y-84099000D01*
X153256860Y-84099000D01*
X153270295Y-84100323D01*
X153277309Y-84102451D01*
X153291077Y-84109810D01*
X153313716Y-84119187D01*
X153337749Y-84123967D01*
X153362253Y-84123967D01*
X153386286Y-84119186D01*
X153408923Y-84109810D01*
X153422691Y-84102451D01*
X153429705Y-84100323D01*
X153443140Y-84099000D01*
X153756860Y-84099000D01*
X153770295Y-84100323D01*
X153777309Y-84102451D01*
X153791077Y-84109810D01*
X153813716Y-84119187D01*
X153837749Y-84123967D01*
X153862253Y-84123967D01*
X153886286Y-84119186D01*
X153908923Y-84109810D01*
X153922691Y-84102451D01*
X153929705Y-84100323D01*
X153943140Y-84099000D01*
X154256860Y-84099000D01*
X154270295Y-84100323D01*
X154277309Y-84102451D01*
X154291077Y-84109810D01*
X154313716Y-84119187D01*
X154337749Y-84123967D01*
X154362253Y-84123967D01*
X154386286Y-84119186D01*
X154408923Y-84109810D01*
X154422691Y-84102451D01*
X154429705Y-84100323D01*
X154443140Y-84099000D01*
X154756860Y-84099000D01*
X154770295Y-84100323D01*
X154777309Y-84102451D01*
X154791077Y-84109810D01*
X154813716Y-84119187D01*
X154837749Y-84123967D01*
X154862253Y-84123967D01*
X154886286Y-84119186D01*
X154908923Y-84109810D01*
X154922691Y-84102451D01*
X154929705Y-84100323D01*
X154943140Y-84099000D01*
X155256860Y-84099000D01*
X155270295Y-84100323D01*
X155277309Y-84102451D01*
X155291077Y-84109810D01*
X155313716Y-84119187D01*
X155337749Y-84123967D01*
X155362253Y-84123967D01*
X155386286Y-84119186D01*
X155408923Y-84109810D01*
X155422691Y-84102451D01*
X155429705Y-84100323D01*
X155443140Y-84099000D01*
X155756860Y-84099000D01*
X155770295Y-84100323D01*
X155777310Y-84102451D01*
X155783776Y-84105908D01*
X155789442Y-84110558D01*
X155794092Y-84116224D01*
X155797549Y-84122690D01*
X155799677Y-84129705D01*
X155801000Y-84143140D01*
X155801000Y-85706860D01*
X155799677Y-85720295D01*
X155797549Y-85727310D01*
X155794092Y-85733776D01*
X155789442Y-85739442D01*
X155783776Y-85744092D01*
X155777310Y-85747549D01*
X155770295Y-85749677D01*
X155756860Y-85751000D01*
X155443140Y-85751000D01*
X155429705Y-85749677D01*
X155422691Y-85747549D01*
X155408923Y-85740190D01*
X155386284Y-85730813D01*
X155362251Y-85726033D01*
X155337747Y-85726033D01*
X155313714Y-85730814D01*
X155291077Y-85740190D01*
X155277309Y-85747549D01*
X155270295Y-85749677D01*
X155256860Y-85751000D01*
X154943140Y-85751000D01*
X154929705Y-85749677D01*
X154922691Y-85747549D01*
X154908923Y-85740190D01*
X154886284Y-85730813D01*
X154862251Y-85726033D01*
X154837747Y-85726033D01*
X154813714Y-85730814D01*
X154791077Y-85740190D01*
X154777309Y-85747549D01*
X154770295Y-85749677D01*
X154756860Y-85751000D01*
X154443140Y-85751000D01*
X154429705Y-85749677D01*
X154422691Y-85747549D01*
X154408923Y-85740190D01*
X154386284Y-85730813D01*
X154362251Y-85726033D01*
X154337747Y-85726033D01*
X154313714Y-85730814D01*
X154291077Y-85740190D01*
X154277309Y-85747549D01*
X154270295Y-85749677D01*
X154256860Y-85751000D01*
X153943140Y-85751000D01*
X153929705Y-85749677D01*
X153922691Y-85747549D01*
X153908923Y-85740190D01*
X153886284Y-85730813D01*
X153862251Y-85726033D01*
X153837747Y-85726033D01*
X153813714Y-85730814D01*
X153791077Y-85740190D01*
X153777309Y-85747549D01*
X153770295Y-85749677D01*
X153756860Y-85751000D01*
X153443140Y-85751000D01*
X153429705Y-85749677D01*
X153422691Y-85747549D01*
X153408923Y-85740190D01*
X153386284Y-85730813D01*
X153362251Y-85726033D01*
X153337747Y-85726033D01*
X153313714Y-85730814D01*
X153291077Y-85740190D01*
X153277309Y-85747549D01*
X153270295Y-85749677D01*
X153256860Y-85751000D01*
X152943140Y-85751000D01*
X152929705Y-85749677D01*
X152922691Y-85747549D01*
X152908923Y-85740190D01*
X152886284Y-85730813D01*
X152862251Y-85726033D01*
X152837747Y-85726033D01*
X152813714Y-85730814D01*
X152791077Y-85740190D01*
X152777309Y-85747549D01*
X152770295Y-85749677D01*
X152756860Y-85751000D01*
X152443140Y-85751000D01*
X152429705Y-85749677D01*
X152422691Y-85747549D01*
X152408923Y-85740190D01*
X152386284Y-85730813D01*
X152362251Y-85726033D01*
X152337747Y-85726033D01*
X152313714Y-85730814D01*
X152291077Y-85740190D01*
X152277309Y-85747549D01*
X152270295Y-85749677D01*
X152256860Y-85751000D01*
X151943140Y-85751000D01*
X151929705Y-85749677D01*
X151922691Y-85747549D01*
X151908923Y-85740190D01*
X151886284Y-85730813D01*
X151862251Y-85726033D01*
X151837747Y-85726033D01*
X151813714Y-85730814D01*
X151791077Y-85740190D01*
X151777309Y-85747549D01*
X151770295Y-85749677D01*
X151756860Y-85751000D01*
X151443140Y-85751000D01*
X151429705Y-85749677D01*
X151422691Y-85747549D01*
X151408923Y-85740190D01*
X151386284Y-85730813D01*
X151362251Y-85726033D01*
X151337747Y-85726033D01*
X151313714Y-85730814D01*
X151291077Y-85740190D01*
X151277309Y-85747549D01*
X151270295Y-85749677D01*
X151256860Y-85751000D01*
X150943140Y-85751000D01*
X150929705Y-85749677D01*
X150922691Y-85747549D01*
X150908923Y-85740190D01*
X150886284Y-85730813D01*
X150862251Y-85726033D01*
X150837747Y-85726033D01*
X150813714Y-85730814D01*
X150791077Y-85740190D01*
X150777309Y-85747549D01*
X150770295Y-85749677D01*
X150756860Y-85751000D01*
X150443140Y-85751000D01*
X150429705Y-85749677D01*
X150422691Y-85747549D01*
X150408923Y-85740190D01*
X150386284Y-85730813D01*
X150362251Y-85726033D01*
X150337747Y-85726033D01*
X150313714Y-85730814D01*
X150291077Y-85740190D01*
X150277309Y-85747549D01*
X150270295Y-85749677D01*
X150256860Y-85751000D01*
X149943140Y-85751000D01*
X149929705Y-85749677D01*
X149922691Y-85747549D01*
X149908923Y-85740190D01*
X149886284Y-85730813D01*
X149862251Y-85726033D01*
X149837747Y-85726033D01*
X149813714Y-85730814D01*
X149791077Y-85740190D01*
X149777309Y-85747549D01*
X149770295Y-85749677D01*
X149756860Y-85751000D01*
X149443140Y-85751000D01*
X149429705Y-85749677D01*
X149422691Y-85747549D01*
X149408923Y-85740190D01*
X149386284Y-85730813D01*
X149362251Y-85726033D01*
X149337747Y-85726033D01*
X149313714Y-85730814D01*
X149291077Y-85740190D01*
X149277309Y-85747549D01*
X149270295Y-85749677D01*
X149256860Y-85751000D01*
X148943140Y-85751000D01*
X148929705Y-85749677D01*
X148922691Y-85747549D01*
X148908923Y-85740190D01*
X148886284Y-85730813D01*
X148862251Y-85726033D01*
X148837747Y-85726033D01*
X148813714Y-85730814D01*
X148791077Y-85740190D01*
X148777309Y-85747549D01*
X148770295Y-85749677D01*
X148756860Y-85751000D01*
X148443140Y-85751000D01*
X148429705Y-85749677D01*
X148422691Y-85747549D01*
X148408923Y-85740190D01*
X148386284Y-85730813D01*
X148362251Y-85726033D01*
X148337747Y-85726033D01*
X148313714Y-85730814D01*
X148291077Y-85740190D01*
X148277309Y-85747549D01*
X148270295Y-85749677D01*
X148256860Y-85751000D01*
X147943140Y-85751000D01*
X147929705Y-85749677D01*
X147922690Y-85747549D01*
X147916224Y-85744092D01*
X147910558Y-85739442D01*
X147905908Y-85733776D01*
X147902451Y-85727310D01*
X147900323Y-85720295D01*
X147899000Y-85706860D01*
X147899000Y-84143140D01*
X147900323Y-84129705D01*
X147902451Y-84122690D01*
X147905908Y-84116224D01*
X147910558Y-84110558D01*
X147916224Y-84105908D01*
X147922690Y-84102451D01*
X147929705Y-84100323D01*
X147943140Y-84099000D01*
X148256860Y-84099000D01*
X148270295Y-84100323D01*
X148270295Y-84100323D01*
G37*
G36*
X167695081Y-83364012D02*
G01*
X167761266Y-83370531D01*
X167931105Y-83422051D01*
X168087630Y-83505716D01*
X168123368Y-83535046D01*
X168224825Y-83618308D01*
X168308087Y-83719765D01*
X168337417Y-83755503D01*
X168421082Y-83912028D01*
X168472602Y-84081867D01*
X168489998Y-84258494D01*
X168472602Y-84435121D01*
X168421082Y-84604960D01*
X168337417Y-84761485D01*
X168308087Y-84797223D01*
X168224825Y-84898680D01*
X168123368Y-84981942D01*
X168087630Y-85011272D01*
X167931105Y-85094937D01*
X167761266Y-85146457D01*
X167695082Y-85152975D01*
X167628899Y-85159494D01*
X167540379Y-85159494D01*
X167474196Y-85152975D01*
X167408012Y-85146457D01*
X167238173Y-85094937D01*
X167081648Y-85011272D01*
X167045910Y-84981942D01*
X166944453Y-84898680D01*
X166861191Y-84797223D01*
X166831861Y-84761485D01*
X166748196Y-84604960D01*
X166696676Y-84435121D01*
X166679280Y-84258494D01*
X166696676Y-84081867D01*
X166748196Y-83912028D01*
X166831861Y-83755503D01*
X166861191Y-83719765D01*
X166944453Y-83618308D01*
X167045910Y-83535046D01*
X167081648Y-83505716D01*
X167238173Y-83422051D01*
X167408012Y-83370531D01*
X167474197Y-83364012D01*
X167540379Y-83357494D01*
X167628899Y-83357494D01*
X167695081Y-83364012D01*
X167695081Y-83364012D01*
G37*
G36*
X147859468Y-81803565D02*
G01*
X147898138Y-81815296D01*
X147933777Y-81834346D01*
X147965017Y-81859983D01*
X147990654Y-81891223D01*
X148009704Y-81926862D01*
X148021435Y-81965532D01*
X148026000Y-82011888D01*
X148026000Y-83088112D01*
X148021435Y-83134468D01*
X148009704Y-83173138D01*
X147990654Y-83208777D01*
X147965017Y-83240017D01*
X147933777Y-83265654D01*
X147898138Y-83284704D01*
X147859468Y-83296435D01*
X147813112Y-83301000D01*
X147161888Y-83301000D01*
X147115532Y-83296435D01*
X147076862Y-83284704D01*
X147041223Y-83265654D01*
X147009983Y-83240017D01*
X146984346Y-83208777D01*
X146965296Y-83173138D01*
X146953565Y-83134468D01*
X146949000Y-83088112D01*
X146949000Y-82011888D01*
X146953565Y-81965532D01*
X146965296Y-81926862D01*
X146984346Y-81891223D01*
X147009983Y-81859983D01*
X147041223Y-81834346D01*
X147076862Y-81815296D01*
X147115532Y-81803565D01*
X147161888Y-81799000D01*
X147813112Y-81799000D01*
X147859468Y-81803565D01*
X147859468Y-81803565D01*
G37*
G36*
X145984468Y-81803565D02*
G01*
X146023138Y-81815296D01*
X146058777Y-81834346D01*
X146090017Y-81859983D01*
X146115654Y-81891223D01*
X146134704Y-81926862D01*
X146146435Y-81965532D01*
X146151000Y-82011888D01*
X146151000Y-83088112D01*
X146146435Y-83134468D01*
X146134704Y-83173138D01*
X146115654Y-83208777D01*
X146090017Y-83240017D01*
X146058777Y-83265654D01*
X146023138Y-83284704D01*
X145984468Y-83296435D01*
X145938112Y-83301000D01*
X145286888Y-83301000D01*
X145240532Y-83296435D01*
X145201862Y-83284704D01*
X145166223Y-83265654D01*
X145134983Y-83240017D01*
X145109346Y-83208777D01*
X145090296Y-83173138D01*
X145078565Y-83134468D01*
X145074000Y-83088112D01*
X145074000Y-82011888D01*
X145078565Y-81965532D01*
X145090296Y-81926862D01*
X145109346Y-81891223D01*
X145134983Y-81859983D01*
X145166223Y-81834346D01*
X145201862Y-81815296D01*
X145240532Y-81803565D01*
X145286888Y-81799000D01*
X145938112Y-81799000D01*
X145984468Y-81803565D01*
X145984468Y-81803565D01*
G37*
G36*
X166062401Y-81418260D02*
G01*
X166128585Y-81424778D01*
X166298424Y-81476298D01*
X166298426Y-81476299D01*
X166376686Y-81518130D01*
X166454949Y-81559963D01*
X166490687Y-81589293D01*
X166592144Y-81672555D01*
X166675406Y-81774012D01*
X166704736Y-81809750D01*
X166788401Y-81966275D01*
X166839921Y-82136114D01*
X166857317Y-82312741D01*
X166839921Y-82489368D01*
X166788401Y-82659207D01*
X166704736Y-82815732D01*
X166675406Y-82851470D01*
X166592144Y-82952927D01*
X166496096Y-83031750D01*
X166454949Y-83065519D01*
X166454947Y-83065520D01*
X166325956Y-83134468D01*
X166298424Y-83149184D01*
X166128585Y-83200704D01*
X166062400Y-83207223D01*
X165996218Y-83213741D01*
X165907698Y-83213741D01*
X165841516Y-83207223D01*
X165775331Y-83200704D01*
X165605492Y-83149184D01*
X165577961Y-83134468D01*
X165448969Y-83065520D01*
X165448967Y-83065519D01*
X165407820Y-83031750D01*
X165311772Y-82952927D01*
X165228510Y-82851470D01*
X165199180Y-82815732D01*
X165115515Y-82659207D01*
X165063995Y-82489368D01*
X165046599Y-82312741D01*
X165063995Y-82136114D01*
X165115515Y-81966275D01*
X165199180Y-81809750D01*
X165228510Y-81774012D01*
X165311772Y-81672555D01*
X165413229Y-81589293D01*
X165448967Y-81559963D01*
X165527230Y-81518130D01*
X165605490Y-81476299D01*
X165605492Y-81476298D01*
X165775331Y-81424778D01*
X165841515Y-81418260D01*
X165907698Y-81411741D01*
X165996218Y-81411741D01*
X166062401Y-81418260D01*
X166062401Y-81418260D01*
G37*
G36*
X157709468Y-81403565D02*
G01*
X157748138Y-81415296D01*
X157783777Y-81434346D01*
X157815017Y-81459983D01*
X157840654Y-81491223D01*
X157859704Y-81526862D01*
X157871435Y-81565532D01*
X157876000Y-81611888D01*
X157876000Y-82688112D01*
X157871435Y-82734468D01*
X157859704Y-82773138D01*
X157840654Y-82808777D01*
X157815017Y-82840017D01*
X157783777Y-82865654D01*
X157748138Y-82884704D01*
X157709468Y-82896435D01*
X157663112Y-82901000D01*
X157011888Y-82901000D01*
X156965532Y-82896435D01*
X156926862Y-82884704D01*
X156891223Y-82865654D01*
X156859983Y-82840017D01*
X156834346Y-82808777D01*
X156815296Y-82773138D01*
X156803565Y-82734468D01*
X156799000Y-82688112D01*
X156799000Y-81611888D01*
X156803565Y-81565532D01*
X156815296Y-81526862D01*
X156834346Y-81491223D01*
X156859983Y-81459983D01*
X156891223Y-81434346D01*
X156926862Y-81415296D01*
X156965532Y-81403565D01*
X157011888Y-81399000D01*
X157663112Y-81399000D01*
X157709468Y-81403565D01*
X157709468Y-81403565D01*
G37*
G36*
X155834468Y-81403565D02*
G01*
X155873138Y-81415296D01*
X155908777Y-81434346D01*
X155940017Y-81459983D01*
X155965654Y-81491223D01*
X155984704Y-81526862D01*
X155996435Y-81565532D01*
X156001000Y-81611888D01*
X156001000Y-82688112D01*
X155996435Y-82734468D01*
X155984704Y-82773138D01*
X155965654Y-82808777D01*
X155940017Y-82840017D01*
X155908777Y-82865654D01*
X155873138Y-82884704D01*
X155834468Y-82896435D01*
X155788112Y-82901000D01*
X155136888Y-82901000D01*
X155090532Y-82896435D01*
X155051862Y-82884704D01*
X155016223Y-82865654D01*
X154984983Y-82840017D01*
X154959346Y-82808777D01*
X154940296Y-82773138D01*
X154928565Y-82734468D01*
X154924000Y-82688112D01*
X154924000Y-81611888D01*
X154928565Y-81565532D01*
X154940296Y-81526862D01*
X154959346Y-81491223D01*
X154984983Y-81459983D01*
X155016223Y-81434346D01*
X155051862Y-81415296D01*
X155090532Y-81403565D01*
X155136888Y-81399000D01*
X155788112Y-81399000D01*
X155834468Y-81403565D01*
X155834468Y-81403565D01*
G37*
G36*
X152959468Y-80853565D02*
G01*
X152998138Y-80865296D01*
X153033777Y-80884346D01*
X153065017Y-80909983D01*
X153090654Y-80941223D01*
X153109704Y-80976862D01*
X153121435Y-81015532D01*
X153126000Y-81061888D01*
X153126000Y-82138112D01*
X153121435Y-82184468D01*
X153109704Y-82223138D01*
X153090654Y-82258777D01*
X153065017Y-82290017D01*
X153033777Y-82315654D01*
X152998138Y-82334704D01*
X152959468Y-82346435D01*
X152913112Y-82351000D01*
X152261888Y-82351000D01*
X152215532Y-82346435D01*
X152176862Y-82334704D01*
X152141223Y-82315654D01*
X152109983Y-82290017D01*
X152084346Y-82258777D01*
X152065296Y-82223138D01*
X152053565Y-82184468D01*
X152049000Y-82138112D01*
X152049000Y-81061888D01*
X152053565Y-81015532D01*
X152065296Y-80976862D01*
X152084346Y-80941223D01*
X152109983Y-80909983D01*
X152141223Y-80884346D01*
X152176862Y-80865296D01*
X152215532Y-80853565D01*
X152261888Y-80849000D01*
X152913112Y-80849000D01*
X152959468Y-80853565D01*
X152959468Y-80853565D01*
G37*
G36*
X151084468Y-80853565D02*
G01*
X151123138Y-80865296D01*
X151158777Y-80884346D01*
X151190017Y-80909983D01*
X151215654Y-80941223D01*
X151234704Y-80976862D01*
X151246435Y-81015532D01*
X151251000Y-81061888D01*
X151251000Y-82138112D01*
X151246435Y-82184468D01*
X151234704Y-82223138D01*
X151215654Y-82258777D01*
X151190017Y-82290017D01*
X151158777Y-82315654D01*
X151123138Y-82334704D01*
X151084468Y-82346435D01*
X151038112Y-82351000D01*
X150386888Y-82351000D01*
X150340532Y-82346435D01*
X150301862Y-82334704D01*
X150266223Y-82315654D01*
X150234983Y-82290017D01*
X150209346Y-82258777D01*
X150190296Y-82223138D01*
X150178565Y-82184468D01*
X150174000Y-82138112D01*
X150174000Y-81061888D01*
X150178565Y-81015532D01*
X150190296Y-80976862D01*
X150209346Y-80941223D01*
X150234983Y-80909983D01*
X150266223Y-80884346D01*
X150301862Y-80865296D01*
X150340532Y-80853565D01*
X150386888Y-80849000D01*
X151038112Y-80849000D01*
X151084468Y-80853565D01*
X151084468Y-80853565D01*
G37*
G36*
X164429721Y-79472507D02*
G01*
X164495905Y-79479025D01*
X164665744Y-79530545D01*
X164822269Y-79614210D01*
X164858007Y-79643540D01*
X164959464Y-79726802D01*
X165042726Y-79828259D01*
X165072056Y-79863997D01*
X165155721Y-80020522D01*
X165207241Y-80190361D01*
X165224637Y-80366988D01*
X165207241Y-80543615D01*
X165155721Y-80713454D01*
X165072056Y-80869979D01*
X165060265Y-80884346D01*
X164959464Y-81007174D01*
X164858007Y-81090436D01*
X164822269Y-81119766D01*
X164665744Y-81203431D01*
X164495905Y-81254951D01*
X164429721Y-81261469D01*
X164363538Y-81267988D01*
X164275018Y-81267988D01*
X164208835Y-81261469D01*
X164142651Y-81254951D01*
X163972812Y-81203431D01*
X163816287Y-81119766D01*
X163780549Y-81090436D01*
X163679092Y-81007174D01*
X163578291Y-80884346D01*
X163566500Y-80869979D01*
X163482835Y-80713454D01*
X163431315Y-80543615D01*
X163413919Y-80366988D01*
X163431315Y-80190361D01*
X163482835Y-80020522D01*
X163566500Y-79863997D01*
X163595830Y-79828259D01*
X163679092Y-79726802D01*
X163780549Y-79643540D01*
X163816287Y-79614210D01*
X163972812Y-79530545D01*
X164142651Y-79479025D01*
X164208835Y-79472507D01*
X164275018Y-79465988D01*
X164363538Y-79465988D01*
X164429721Y-79472507D01*
X164429721Y-79472507D01*
G37*
G36*
X145093512Y-78453927D02*
G01*
X145242812Y-78483624D01*
X145406784Y-78551544D01*
X145554354Y-78650147D01*
X145679853Y-78775646D01*
X145778456Y-78923216D01*
X145846376Y-79087188D01*
X145881000Y-79261259D01*
X145881000Y-79438741D01*
X145846376Y-79612812D01*
X145778456Y-79776784D01*
X145679853Y-79924354D01*
X145554354Y-80049853D01*
X145406784Y-80148456D01*
X145242812Y-80216376D01*
X145093512Y-80246073D01*
X145068742Y-80251000D01*
X144891258Y-80251000D01*
X144866488Y-80246073D01*
X144717188Y-80216376D01*
X144553216Y-80148456D01*
X144405646Y-80049853D01*
X144280147Y-79924354D01*
X144181544Y-79776784D01*
X144113624Y-79612812D01*
X144079000Y-79438741D01*
X144079000Y-79261259D01*
X144113624Y-79087188D01*
X144181544Y-78923216D01*
X144280147Y-78775646D01*
X144405646Y-78650147D01*
X144553216Y-78551544D01*
X144717188Y-78483624D01*
X144866488Y-78453927D01*
X144891258Y-78449000D01*
X145068742Y-78449000D01*
X145093512Y-78453927D01*
X145093512Y-78453927D01*
G37*
G36*
X142553512Y-78453927D02*
G01*
X142702812Y-78483624D01*
X142866784Y-78551544D01*
X143014354Y-78650147D01*
X143139853Y-78775646D01*
X143238456Y-78923216D01*
X143306376Y-79087188D01*
X143341000Y-79261259D01*
X143341000Y-79438741D01*
X143306376Y-79612812D01*
X143238456Y-79776784D01*
X143139853Y-79924354D01*
X143014354Y-80049853D01*
X142866784Y-80148456D01*
X142702812Y-80216376D01*
X142553512Y-80246073D01*
X142528742Y-80251000D01*
X142351258Y-80251000D01*
X142326488Y-80246073D01*
X142177188Y-80216376D01*
X142013216Y-80148456D01*
X141865646Y-80049853D01*
X141740147Y-79924354D01*
X141641544Y-79776784D01*
X141573624Y-79612812D01*
X141539000Y-79438741D01*
X141539000Y-79261259D01*
X141573624Y-79087188D01*
X141641544Y-78923216D01*
X141740147Y-78775646D01*
X141865646Y-78650147D01*
X142013216Y-78551544D01*
X142177188Y-78483624D01*
X142326488Y-78453927D01*
X142351258Y-78449000D01*
X142528742Y-78449000D01*
X142553512Y-78453927D01*
X142553512Y-78453927D01*
G37*
G36*
X140013512Y-78453927D02*
G01*
X140162812Y-78483624D01*
X140326784Y-78551544D01*
X140474354Y-78650147D01*
X140599853Y-78775646D01*
X140698456Y-78923216D01*
X140766376Y-79087188D01*
X140801000Y-79261259D01*
X140801000Y-79438741D01*
X140766376Y-79612812D01*
X140698456Y-79776784D01*
X140599853Y-79924354D01*
X140474354Y-80049853D01*
X140326784Y-80148456D01*
X140162812Y-80216376D01*
X140013512Y-80246073D01*
X139988742Y-80251000D01*
X139811258Y-80251000D01*
X139786488Y-80246073D01*
X139637188Y-80216376D01*
X139473216Y-80148456D01*
X139325646Y-80049853D01*
X139200147Y-79924354D01*
X139101544Y-79776784D01*
X139033624Y-79612812D01*
X138999000Y-79438741D01*
X138999000Y-79261259D01*
X139033624Y-79087188D01*
X139101544Y-78923216D01*
X139200147Y-78775646D01*
X139325646Y-78650147D01*
X139473216Y-78551544D01*
X139637188Y-78483624D01*
X139786488Y-78453927D01*
X139811258Y-78449000D01*
X139988742Y-78449000D01*
X140013512Y-78453927D01*
X140013512Y-78453927D01*
G37*
G36*
X150743512Y-78453927D02*
G01*
X150892812Y-78483624D01*
X151056784Y-78551544D01*
X151204354Y-78650147D01*
X151329853Y-78775646D01*
X151428456Y-78923216D01*
X151496376Y-79087188D01*
X151531000Y-79261259D01*
X151531000Y-79438741D01*
X151496376Y-79612812D01*
X151428456Y-79776784D01*
X151329853Y-79924354D01*
X151204354Y-80049853D01*
X151056784Y-80148456D01*
X150892812Y-80216376D01*
X150743512Y-80246073D01*
X150718742Y-80251000D01*
X150541258Y-80251000D01*
X150516488Y-80246073D01*
X150367188Y-80216376D01*
X150203216Y-80148456D01*
X150055646Y-80049853D01*
X149930147Y-79924354D01*
X149831544Y-79776784D01*
X149763624Y-79612812D01*
X149729000Y-79438741D01*
X149729000Y-79261259D01*
X149763624Y-79087188D01*
X149831544Y-78923216D01*
X149930147Y-78775646D01*
X150055646Y-78650147D01*
X150203216Y-78551544D01*
X150367188Y-78483624D01*
X150516488Y-78453927D01*
X150541258Y-78449000D01*
X150718742Y-78449000D01*
X150743512Y-78453927D01*
X150743512Y-78453927D01*
G37*
G36*
X147633512Y-78453927D02*
G01*
X147782812Y-78483624D01*
X147946784Y-78551544D01*
X148094354Y-78650147D01*
X148219853Y-78775646D01*
X148318456Y-78923216D01*
X148386376Y-79087188D01*
X148421000Y-79261259D01*
X148421000Y-79438741D01*
X148386376Y-79612812D01*
X148318456Y-79776784D01*
X148219853Y-79924354D01*
X148094354Y-80049853D01*
X147946784Y-80148456D01*
X147782812Y-80216376D01*
X147633512Y-80246073D01*
X147608742Y-80251000D01*
X147431258Y-80251000D01*
X147406488Y-80246073D01*
X147257188Y-80216376D01*
X147093216Y-80148456D01*
X146945646Y-80049853D01*
X146820147Y-79924354D01*
X146721544Y-79776784D01*
X146653624Y-79612812D01*
X146619000Y-79438741D01*
X146619000Y-79261259D01*
X146653624Y-79087188D01*
X146721544Y-78923216D01*
X146820147Y-78775646D01*
X146945646Y-78650147D01*
X147093216Y-78551544D01*
X147257188Y-78483624D01*
X147406488Y-78453927D01*
X147431258Y-78449000D01*
X147608742Y-78449000D01*
X147633512Y-78453927D01*
X147633512Y-78453927D01*
G37*
G36*
X158363512Y-78453927D02*
G01*
X158512812Y-78483624D01*
X158676784Y-78551544D01*
X158824354Y-78650147D01*
X158949853Y-78775646D01*
X159048456Y-78923216D01*
X159116376Y-79087188D01*
X159151000Y-79261259D01*
X159151000Y-79438741D01*
X159116376Y-79612812D01*
X159048456Y-79776784D01*
X158949853Y-79924354D01*
X158824354Y-80049853D01*
X158676784Y-80148456D01*
X158512812Y-80216376D01*
X158363512Y-80246073D01*
X158338742Y-80251000D01*
X158161258Y-80251000D01*
X158136488Y-80246073D01*
X157987188Y-80216376D01*
X157823216Y-80148456D01*
X157675646Y-80049853D01*
X157550147Y-79924354D01*
X157451544Y-79776784D01*
X157383624Y-79612812D01*
X157349000Y-79438741D01*
X157349000Y-79261259D01*
X157383624Y-79087188D01*
X157451544Y-78923216D01*
X157550147Y-78775646D01*
X157675646Y-78650147D01*
X157823216Y-78551544D01*
X157987188Y-78483624D01*
X158136488Y-78453927D01*
X158161258Y-78449000D01*
X158338742Y-78449000D01*
X158363512Y-78453927D01*
X158363512Y-78453927D01*
G37*
G36*
X155823512Y-78453927D02*
G01*
X155972812Y-78483624D01*
X156136784Y-78551544D01*
X156284354Y-78650147D01*
X156409853Y-78775646D01*
X156508456Y-78923216D01*
X156576376Y-79087188D01*
X156611000Y-79261259D01*
X156611000Y-79438741D01*
X156576376Y-79612812D01*
X156508456Y-79776784D01*
X156409853Y-79924354D01*
X156284354Y-80049853D01*
X156136784Y-80148456D01*
X155972812Y-80216376D01*
X155823512Y-80246073D01*
X155798742Y-80251000D01*
X155621258Y-80251000D01*
X155596488Y-80246073D01*
X155447188Y-80216376D01*
X155283216Y-80148456D01*
X155135646Y-80049853D01*
X155010147Y-79924354D01*
X154911544Y-79776784D01*
X154843624Y-79612812D01*
X154809000Y-79438741D01*
X154809000Y-79261259D01*
X154843624Y-79087188D01*
X154911544Y-78923216D01*
X155010147Y-78775646D01*
X155135646Y-78650147D01*
X155283216Y-78551544D01*
X155447188Y-78483624D01*
X155596488Y-78453927D01*
X155621258Y-78449000D01*
X155798742Y-78449000D01*
X155823512Y-78453927D01*
X155823512Y-78453927D01*
G37*
G36*
X153283512Y-78453927D02*
G01*
X153432812Y-78483624D01*
X153596784Y-78551544D01*
X153744354Y-78650147D01*
X153869853Y-78775646D01*
X153968456Y-78923216D01*
X154036376Y-79087188D01*
X154071000Y-79261259D01*
X154071000Y-79438741D01*
X154036376Y-79612812D01*
X153968456Y-79776784D01*
X153869853Y-79924354D01*
X153744354Y-80049853D01*
X153596784Y-80148456D01*
X153432812Y-80216376D01*
X153283512Y-80246073D01*
X153258742Y-80251000D01*
X153081258Y-80251000D01*
X153056488Y-80246073D01*
X152907188Y-80216376D01*
X152743216Y-80148456D01*
X152595646Y-80049853D01*
X152470147Y-79924354D01*
X152371544Y-79776784D01*
X152303624Y-79612812D01*
X152269000Y-79438741D01*
X152269000Y-79261259D01*
X152303624Y-79087188D01*
X152371544Y-78923216D01*
X152470147Y-78775646D01*
X152595646Y-78650147D01*
X152743216Y-78551544D01*
X152907188Y-78483624D01*
X153056488Y-78453927D01*
X153081258Y-78449000D01*
X153258742Y-78449000D01*
X153283512Y-78453927D01*
X153283512Y-78453927D01*
G37*
G36*
X162797039Y-77526754D02*
G01*
X162863224Y-77533273D01*
X163033063Y-77584793D01*
X163189588Y-77668458D01*
X163222936Y-77695826D01*
X163326783Y-77781050D01*
X163410045Y-77882507D01*
X163439375Y-77918245D01*
X163523040Y-78074770D01*
X163574560Y-78244609D01*
X163591956Y-78421236D01*
X163574560Y-78597863D01*
X163523040Y-78767702D01*
X163439375Y-78924227D01*
X163410045Y-78959965D01*
X163326783Y-79061422D01*
X163225326Y-79144684D01*
X163189588Y-79174014D01*
X163033063Y-79257679D01*
X162863224Y-79309199D01*
X162797039Y-79315718D01*
X162730857Y-79322236D01*
X162642337Y-79322236D01*
X162576155Y-79315718D01*
X162509970Y-79309199D01*
X162340131Y-79257679D01*
X162183606Y-79174014D01*
X162147868Y-79144684D01*
X162046411Y-79061422D01*
X161963149Y-78959965D01*
X161933819Y-78924227D01*
X161850154Y-78767702D01*
X161798634Y-78597863D01*
X161781238Y-78421236D01*
X161798634Y-78244609D01*
X161850154Y-78074770D01*
X161933819Y-77918245D01*
X161963149Y-77882507D01*
X162046411Y-77781050D01*
X162150258Y-77695826D01*
X162183606Y-77668458D01*
X162340131Y-77584793D01*
X162509970Y-77533273D01*
X162576155Y-77526754D01*
X162642337Y-77520236D01*
X162730857Y-77520236D01*
X162797039Y-77526754D01*
X162797039Y-77526754D01*
G37*
G36*
X142071968Y-76203565D02*
G01*
X142110638Y-76215296D01*
X142146277Y-76234346D01*
X142177517Y-76259983D01*
X142203154Y-76291223D01*
X142222204Y-76326862D01*
X142233935Y-76365532D01*
X142238500Y-76411888D01*
X142238500Y-77488112D01*
X142233935Y-77534468D01*
X142222204Y-77573138D01*
X142203154Y-77608777D01*
X142177517Y-77640017D01*
X142146277Y-77665654D01*
X142110638Y-77684704D01*
X142071968Y-77696435D01*
X142025612Y-77701000D01*
X141374388Y-77701000D01*
X141328032Y-77696435D01*
X141289362Y-77684704D01*
X141253723Y-77665654D01*
X141222483Y-77640017D01*
X141196846Y-77608777D01*
X141177796Y-77573138D01*
X141166065Y-77534468D01*
X141161500Y-77488112D01*
X141161500Y-76411888D01*
X141166065Y-76365532D01*
X141177796Y-76326862D01*
X141196846Y-76291223D01*
X141222483Y-76259983D01*
X141253723Y-76234346D01*
X141289362Y-76215296D01*
X141328032Y-76203565D01*
X141374388Y-76199000D01*
X142025612Y-76199000D01*
X142071968Y-76203565D01*
X142071968Y-76203565D01*
G37*
G36*
X140196968Y-76203565D02*
G01*
X140235638Y-76215296D01*
X140271277Y-76234346D01*
X140302517Y-76259983D01*
X140328154Y-76291223D01*
X140347204Y-76326862D01*
X140358935Y-76365532D01*
X140363500Y-76411888D01*
X140363500Y-77488112D01*
X140358935Y-77534468D01*
X140347204Y-77573138D01*
X140328154Y-77608777D01*
X140302517Y-77640017D01*
X140271277Y-77665654D01*
X140235638Y-77684704D01*
X140196968Y-77696435D01*
X140150612Y-77701000D01*
X139499388Y-77701000D01*
X139453032Y-77696435D01*
X139414362Y-77684704D01*
X139378723Y-77665654D01*
X139347483Y-77640017D01*
X139321846Y-77608777D01*
X139302796Y-77573138D01*
X139291065Y-77534468D01*
X139286500Y-77488112D01*
X139286500Y-76411888D01*
X139291065Y-76365532D01*
X139302796Y-76326862D01*
X139321846Y-76291223D01*
X139347483Y-76259983D01*
X139378723Y-76234346D01*
X139414362Y-76215296D01*
X139453032Y-76203565D01*
X139499388Y-76199000D01*
X140150612Y-76199000D01*
X140196968Y-76203565D01*
X140196968Y-76203565D01*
G37*
G36*
X158621968Y-75953565D02*
G01*
X158660638Y-75965296D01*
X158696277Y-75984346D01*
X158727517Y-76009983D01*
X158753154Y-76041223D01*
X158772204Y-76076862D01*
X158783935Y-76115532D01*
X158788500Y-76161888D01*
X158788500Y-77238112D01*
X158783935Y-77284468D01*
X158772204Y-77323138D01*
X158753154Y-77358777D01*
X158727517Y-77390017D01*
X158696277Y-77415654D01*
X158660638Y-77434704D01*
X158621968Y-77446435D01*
X158575612Y-77451000D01*
X157924388Y-77451000D01*
X157878032Y-77446435D01*
X157839362Y-77434704D01*
X157803723Y-77415654D01*
X157772483Y-77390017D01*
X157746846Y-77358777D01*
X157727796Y-77323138D01*
X157716065Y-77284468D01*
X157711500Y-77238112D01*
X157711500Y-76161888D01*
X157716065Y-76115532D01*
X157727796Y-76076862D01*
X157746846Y-76041223D01*
X157772483Y-76009983D01*
X157803723Y-75984346D01*
X157839362Y-75965296D01*
X157878032Y-75953565D01*
X157924388Y-75949000D01*
X158575612Y-75949000D01*
X158621968Y-75953565D01*
X158621968Y-75953565D01*
G37*
G36*
X156746968Y-75953565D02*
G01*
X156785638Y-75965296D01*
X156821277Y-75984346D01*
X156852517Y-76009983D01*
X156878154Y-76041223D01*
X156897204Y-76076862D01*
X156908935Y-76115532D01*
X156913500Y-76161888D01*
X156913500Y-77238112D01*
X156908935Y-77284468D01*
X156897204Y-77323138D01*
X156878154Y-77358777D01*
X156852517Y-77390017D01*
X156821277Y-77415654D01*
X156785638Y-77434704D01*
X156746968Y-77446435D01*
X156700612Y-77451000D01*
X156049388Y-77451000D01*
X156003032Y-77446435D01*
X155964362Y-77434704D01*
X155928723Y-77415654D01*
X155897483Y-77390017D01*
X155871846Y-77358777D01*
X155852796Y-77323138D01*
X155841065Y-77284468D01*
X155836500Y-77238112D01*
X155836500Y-76161888D01*
X155841065Y-76115532D01*
X155852796Y-76076862D01*
X155871846Y-76041223D01*
X155897483Y-76009983D01*
X155928723Y-75984346D01*
X155964362Y-75965296D01*
X156003032Y-75953565D01*
X156049388Y-75949000D01*
X156700612Y-75949000D01*
X156746968Y-75953565D01*
X156746968Y-75953565D01*
G37*
M02*
