G04 #@! TF.GenerationSoftware,KiCad,Pcbnew,(5.1.4-0-10_14)*
G04 #@! TF.CreationDate,2020-03-11T12:16:04+01:00*
G04 #@! TF.ProjectId,CanSat2020Probe,43616e53-6174-4323-9032-3050726f6265,v01*
G04 #@! TF.SameCoordinates,Original*
G04 #@! TF.FileFunction,Legend,Bot*
G04 #@! TF.FilePolarity,Positive*
%FSLAX46Y46*%
G04 Gerber Fmt 4.6, Leading zero omitted, Abs format (unit mm)*
G04 Created by KiCad (PCBNEW (5.1.4-0-10_14)) date 2020-03-11 12:16:04*
%MOMM*%
%LPD*%
G04 APERTURE LIST*
%ADD10C,0.300000*%
%ADD11C,0.010000*%
%ADD12C,0.120000*%
%ADD13C,0.150000*%
G04 APERTURE END LIST*
D10*
X174707142Y-99778571D02*
X174707142Y-100464285D01*
X174707142Y-100121428D02*
X175907142Y-100121428D01*
X175735714Y-100235714D01*
X175621428Y-100350000D01*
X175564285Y-100464285D01*
X175792857Y-97492857D02*
X175850000Y-97435714D01*
X175907142Y-97321428D01*
X175907142Y-97035714D01*
X175850000Y-96921428D01*
X175792857Y-96864285D01*
X175678571Y-96807142D01*
X175564285Y-96807142D01*
X175392857Y-96864285D01*
X174707142Y-97550000D01*
X174707142Y-96807142D01*
X175907142Y-94578571D02*
X175907142Y-93835714D01*
X175450000Y-94235714D01*
X175450000Y-94064285D01*
X175392857Y-93950000D01*
X175335714Y-93892857D01*
X175221428Y-93835714D01*
X174935714Y-93835714D01*
X174821428Y-93892857D01*
X174764285Y-93950000D01*
X174707142Y-94064285D01*
X174707142Y-94407142D01*
X174764285Y-94521428D01*
X174821428Y-94578571D01*
D11*
G36*
X151185303Y-93135873D02*
G01*
X151194763Y-93142688D01*
X151217446Y-93157263D01*
X151252450Y-93179056D01*
X151298870Y-93207521D01*
X151355805Y-93242117D01*
X151422349Y-93282298D01*
X151497599Y-93327522D01*
X151580653Y-93377245D01*
X151670606Y-93430924D01*
X151766556Y-93488015D01*
X151867598Y-93547974D01*
X151972829Y-93610258D01*
X152028064Y-93642888D01*
X152247490Y-93772439D01*
X152453226Y-93893933D01*
X152645705Y-94007631D01*
X152825357Y-94113790D01*
X152992615Y-94212670D01*
X153147909Y-94304530D01*
X153291672Y-94389629D01*
X153424334Y-94468227D01*
X153546328Y-94540581D01*
X153658084Y-94606951D01*
X153760035Y-94667597D01*
X153852611Y-94722777D01*
X153936245Y-94772750D01*
X154011367Y-94817775D01*
X154078409Y-94858112D01*
X154137802Y-94894020D01*
X154189979Y-94925757D01*
X154235371Y-94953582D01*
X154274408Y-94977755D01*
X154307523Y-94998535D01*
X154335147Y-95016180D01*
X154357711Y-95030951D01*
X154375647Y-95043105D01*
X154389387Y-95052902D01*
X154399362Y-95060600D01*
X154406003Y-95066460D01*
X154409742Y-95070740D01*
X154410994Y-95073541D01*
X154409274Y-95092173D01*
X154402801Y-95102219D01*
X154399835Y-95103159D01*
X154393512Y-95103990D01*
X154383254Y-95104708D01*
X154368485Y-95105309D01*
X154348628Y-95105789D01*
X154323107Y-95106143D01*
X154291344Y-95106368D01*
X154252765Y-95106459D01*
X154206791Y-95106413D01*
X154152846Y-95106224D01*
X154090354Y-95105890D01*
X154018738Y-95105406D01*
X153937422Y-95104768D01*
X153845828Y-95103971D01*
X153743381Y-95103012D01*
X153629504Y-95101887D01*
X153503619Y-95100591D01*
X153365151Y-95099121D01*
X153213523Y-95097472D01*
X153048159Y-95095640D01*
X152868481Y-95093622D01*
X152673913Y-95091412D01*
X152463879Y-95089007D01*
X152331448Y-95087483D01*
X151221446Y-95074691D01*
X151202787Y-95096383D01*
X151197659Y-95102656D01*
X151193568Y-95109455D01*
X151190399Y-95118580D01*
X151188032Y-95131835D01*
X151186351Y-95151019D01*
X151185239Y-95177936D01*
X151184578Y-95214387D01*
X151184251Y-95262174D01*
X151184140Y-95323097D01*
X151184129Y-95382803D01*
X151184166Y-95455756D01*
X151184351Y-95514127D01*
X151184790Y-95559720D01*
X151185590Y-95594341D01*
X151186858Y-95619793D01*
X151188701Y-95637883D01*
X151191226Y-95650414D01*
X151194540Y-95659191D01*
X151198751Y-95666020D01*
X151201110Y-95669121D01*
X151218092Y-95690710D01*
X155720498Y-95690710D01*
X155738313Y-95671746D01*
X155743070Y-95666303D01*
X155746895Y-95660018D01*
X155749889Y-95651169D01*
X155752154Y-95638037D01*
X155753791Y-95618899D01*
X155754903Y-95592036D01*
X155755592Y-95555726D01*
X155755957Y-95508249D01*
X155756103Y-95447884D01*
X155756129Y-95372909D01*
X155756129Y-95370151D01*
X155755977Y-95289088D01*
X155755491Y-95223135D01*
X155754628Y-95171018D01*
X155753343Y-95131461D01*
X155751593Y-95103191D01*
X155749332Y-95084932D01*
X155746517Y-95075411D01*
X155745887Y-95074447D01*
X155743508Y-95071786D01*
X155739843Y-95068484D01*
X155734350Y-95064225D01*
X155726488Y-95058694D01*
X155715717Y-95051577D01*
X155701496Y-95042560D01*
X155683283Y-95031327D01*
X155660539Y-95017564D01*
X155632722Y-95000956D01*
X155599290Y-94981188D01*
X155559705Y-94957946D01*
X155513424Y-94930915D01*
X155459906Y-94899780D01*
X155398612Y-94864227D01*
X155328999Y-94823940D01*
X155250528Y-94778606D01*
X155162656Y-94727909D01*
X155064845Y-94671534D01*
X154956551Y-94609167D01*
X154837236Y-94540494D01*
X154706357Y-94465199D01*
X154563374Y-94382968D01*
X154407746Y-94293486D01*
X154238933Y-94196439D01*
X154076451Y-94103040D01*
X153888362Y-93994893D01*
X153714134Y-93894646D01*
X153553392Y-93802080D01*
X153405762Y-93716977D01*
X153270869Y-93639120D01*
X153148340Y-93568288D01*
X153037800Y-93504265D01*
X152938875Y-93446832D01*
X152851190Y-93395771D01*
X152774371Y-93350863D01*
X152708045Y-93311890D01*
X152651835Y-93278634D01*
X152605369Y-93250876D01*
X152568271Y-93228399D01*
X152540168Y-93210983D01*
X152520686Y-93198411D01*
X152509449Y-93190465D01*
X152506114Y-93187218D01*
X152506414Y-93172044D01*
X152510923Y-93159951D01*
X152519818Y-93143330D01*
X155712370Y-93153368D01*
X155726056Y-93133828D01*
X155729797Y-93127000D01*
X155732797Y-93117185D01*
X155735136Y-93102662D01*
X155736893Y-93081714D01*
X155738148Y-93052620D01*
X155738981Y-93013662D01*
X155739471Y-92963120D01*
X155739697Y-92899275D01*
X155739742Y-92837996D01*
X155739724Y-92763495D01*
X155739598Y-92703676D01*
X155739257Y-92656836D01*
X155738594Y-92621269D01*
X155737501Y-92595270D01*
X155735871Y-92577137D01*
X155733596Y-92565163D01*
X155730570Y-92557646D01*
X155726683Y-92552879D01*
X155721831Y-92549158D01*
X155721531Y-92548948D01*
X155718550Y-92547651D01*
X155713066Y-92546444D01*
X155704515Y-92545323D01*
X155692333Y-92544286D01*
X155675955Y-92543330D01*
X155654818Y-92542450D01*
X155628358Y-92541645D01*
X155596010Y-92540911D01*
X155557211Y-92540244D01*
X155511395Y-92539642D01*
X155458000Y-92539101D01*
X155396461Y-92538619D01*
X155326213Y-92538191D01*
X155246693Y-92537816D01*
X155157336Y-92537489D01*
X155057579Y-92537207D01*
X154946857Y-92536968D01*
X154824606Y-92536768D01*
X154690263Y-92536604D01*
X154543262Y-92536472D01*
X154383040Y-92536371D01*
X154209032Y-92536295D01*
X154020675Y-92536243D01*
X153817404Y-92536211D01*
X153598656Y-92536196D01*
X153456923Y-92536194D01*
X153229960Y-92536195D01*
X153018807Y-92536204D01*
X152822890Y-92536223D01*
X152641632Y-92536256D01*
X152474456Y-92536308D01*
X152320788Y-92536382D01*
X152180049Y-92536482D01*
X152051666Y-92536613D01*
X151935061Y-92536778D01*
X151829659Y-92536982D01*
X151734883Y-92537228D01*
X151650157Y-92537520D01*
X151574906Y-92537862D01*
X151508553Y-92538259D01*
X151450522Y-92538714D01*
X151400237Y-92539231D01*
X151357123Y-92539814D01*
X151320602Y-92540468D01*
X151290099Y-92541195D01*
X151265038Y-92542001D01*
X151244843Y-92542889D01*
X151228937Y-92543863D01*
X151216746Y-92544927D01*
X151207691Y-92546085D01*
X151201199Y-92547342D01*
X151196691Y-92548700D01*
X151193593Y-92550164D01*
X151191329Y-92551738D01*
X151191187Y-92551852D01*
X151171849Y-92567511D01*
X151168921Y-92841250D01*
X151165994Y-93114990D01*
X151185303Y-93135873D01*
X151185303Y-93135873D01*
G37*
X151185303Y-93135873D02*
X151194763Y-93142688D01*
X151217446Y-93157263D01*
X151252450Y-93179056D01*
X151298870Y-93207521D01*
X151355805Y-93242117D01*
X151422349Y-93282298D01*
X151497599Y-93327522D01*
X151580653Y-93377245D01*
X151670606Y-93430924D01*
X151766556Y-93488015D01*
X151867598Y-93547974D01*
X151972829Y-93610258D01*
X152028064Y-93642888D01*
X152247490Y-93772439D01*
X152453226Y-93893933D01*
X152645705Y-94007631D01*
X152825357Y-94113790D01*
X152992615Y-94212670D01*
X153147909Y-94304530D01*
X153291672Y-94389629D01*
X153424334Y-94468227D01*
X153546328Y-94540581D01*
X153658084Y-94606951D01*
X153760035Y-94667597D01*
X153852611Y-94722777D01*
X153936245Y-94772750D01*
X154011367Y-94817775D01*
X154078409Y-94858112D01*
X154137802Y-94894020D01*
X154189979Y-94925757D01*
X154235371Y-94953582D01*
X154274408Y-94977755D01*
X154307523Y-94998535D01*
X154335147Y-95016180D01*
X154357711Y-95030951D01*
X154375647Y-95043105D01*
X154389387Y-95052902D01*
X154399362Y-95060600D01*
X154406003Y-95066460D01*
X154409742Y-95070740D01*
X154410994Y-95073541D01*
X154409274Y-95092173D01*
X154402801Y-95102219D01*
X154399835Y-95103159D01*
X154393512Y-95103990D01*
X154383254Y-95104708D01*
X154368485Y-95105309D01*
X154348628Y-95105789D01*
X154323107Y-95106143D01*
X154291344Y-95106368D01*
X154252765Y-95106459D01*
X154206791Y-95106413D01*
X154152846Y-95106224D01*
X154090354Y-95105890D01*
X154018738Y-95105406D01*
X153937422Y-95104768D01*
X153845828Y-95103971D01*
X153743381Y-95103012D01*
X153629504Y-95101887D01*
X153503619Y-95100591D01*
X153365151Y-95099121D01*
X153213523Y-95097472D01*
X153048159Y-95095640D01*
X152868481Y-95093622D01*
X152673913Y-95091412D01*
X152463879Y-95089007D01*
X152331448Y-95087483D01*
X151221446Y-95074691D01*
X151202787Y-95096383D01*
X151197659Y-95102656D01*
X151193568Y-95109455D01*
X151190399Y-95118580D01*
X151188032Y-95131835D01*
X151186351Y-95151019D01*
X151185239Y-95177936D01*
X151184578Y-95214387D01*
X151184251Y-95262174D01*
X151184140Y-95323097D01*
X151184129Y-95382803D01*
X151184166Y-95455756D01*
X151184351Y-95514127D01*
X151184790Y-95559720D01*
X151185590Y-95594341D01*
X151186858Y-95619793D01*
X151188701Y-95637883D01*
X151191226Y-95650414D01*
X151194540Y-95659191D01*
X151198751Y-95666020D01*
X151201110Y-95669121D01*
X151218092Y-95690710D01*
X155720498Y-95690710D01*
X155738313Y-95671746D01*
X155743070Y-95666303D01*
X155746895Y-95660018D01*
X155749889Y-95651169D01*
X155752154Y-95638037D01*
X155753791Y-95618899D01*
X155754903Y-95592036D01*
X155755592Y-95555726D01*
X155755957Y-95508249D01*
X155756103Y-95447884D01*
X155756129Y-95372909D01*
X155756129Y-95370151D01*
X155755977Y-95289088D01*
X155755491Y-95223135D01*
X155754628Y-95171018D01*
X155753343Y-95131461D01*
X155751593Y-95103191D01*
X155749332Y-95084932D01*
X155746517Y-95075411D01*
X155745887Y-95074447D01*
X155743508Y-95071786D01*
X155739843Y-95068484D01*
X155734350Y-95064225D01*
X155726488Y-95058694D01*
X155715717Y-95051577D01*
X155701496Y-95042560D01*
X155683283Y-95031327D01*
X155660539Y-95017564D01*
X155632722Y-95000956D01*
X155599290Y-94981188D01*
X155559705Y-94957946D01*
X155513424Y-94930915D01*
X155459906Y-94899780D01*
X155398612Y-94864227D01*
X155328999Y-94823940D01*
X155250528Y-94778606D01*
X155162656Y-94727909D01*
X155064845Y-94671534D01*
X154956551Y-94609167D01*
X154837236Y-94540494D01*
X154706357Y-94465199D01*
X154563374Y-94382968D01*
X154407746Y-94293486D01*
X154238933Y-94196439D01*
X154076451Y-94103040D01*
X153888362Y-93994893D01*
X153714134Y-93894646D01*
X153553392Y-93802080D01*
X153405762Y-93716977D01*
X153270869Y-93639120D01*
X153148340Y-93568288D01*
X153037800Y-93504265D01*
X152938875Y-93446832D01*
X152851190Y-93395771D01*
X152774371Y-93350863D01*
X152708045Y-93311890D01*
X152651835Y-93278634D01*
X152605369Y-93250876D01*
X152568271Y-93228399D01*
X152540168Y-93210983D01*
X152520686Y-93198411D01*
X152509449Y-93190465D01*
X152506114Y-93187218D01*
X152506414Y-93172044D01*
X152510923Y-93159951D01*
X152519818Y-93143330D01*
X155712370Y-93153368D01*
X155726056Y-93133828D01*
X155729797Y-93127000D01*
X155732797Y-93117185D01*
X155735136Y-93102662D01*
X155736893Y-93081714D01*
X155738148Y-93052620D01*
X155738981Y-93013662D01*
X155739471Y-92963120D01*
X155739697Y-92899275D01*
X155739742Y-92837996D01*
X155739724Y-92763495D01*
X155739598Y-92703676D01*
X155739257Y-92656836D01*
X155738594Y-92621269D01*
X155737501Y-92595270D01*
X155735871Y-92577137D01*
X155733596Y-92565163D01*
X155730570Y-92557646D01*
X155726683Y-92552879D01*
X155721831Y-92549158D01*
X155721531Y-92548948D01*
X155718550Y-92547651D01*
X155713066Y-92546444D01*
X155704515Y-92545323D01*
X155692333Y-92544286D01*
X155675955Y-92543330D01*
X155654818Y-92542450D01*
X155628358Y-92541645D01*
X155596010Y-92540911D01*
X155557211Y-92540244D01*
X155511395Y-92539642D01*
X155458000Y-92539101D01*
X155396461Y-92538619D01*
X155326213Y-92538191D01*
X155246693Y-92537816D01*
X155157336Y-92537489D01*
X155057579Y-92537207D01*
X154946857Y-92536968D01*
X154824606Y-92536768D01*
X154690263Y-92536604D01*
X154543262Y-92536472D01*
X154383040Y-92536371D01*
X154209032Y-92536295D01*
X154020675Y-92536243D01*
X153817404Y-92536211D01*
X153598656Y-92536196D01*
X153456923Y-92536194D01*
X153229960Y-92536195D01*
X153018807Y-92536204D01*
X152822890Y-92536223D01*
X152641632Y-92536256D01*
X152474456Y-92536308D01*
X152320788Y-92536382D01*
X152180049Y-92536482D01*
X152051666Y-92536613D01*
X151935061Y-92536778D01*
X151829659Y-92536982D01*
X151734883Y-92537228D01*
X151650157Y-92537520D01*
X151574906Y-92537862D01*
X151508553Y-92538259D01*
X151450522Y-92538714D01*
X151400237Y-92539231D01*
X151357123Y-92539814D01*
X151320602Y-92540468D01*
X151290099Y-92541195D01*
X151265038Y-92542001D01*
X151244843Y-92542889D01*
X151228937Y-92543863D01*
X151216746Y-92544927D01*
X151207691Y-92546085D01*
X151201199Y-92547342D01*
X151196691Y-92548700D01*
X151193593Y-92550164D01*
X151191329Y-92551738D01*
X151191187Y-92551852D01*
X151171849Y-92567511D01*
X151168921Y-92841250D01*
X151165994Y-93114990D01*
X151185303Y-93135873D01*
G36*
X151157279Y-88235534D02*
G01*
X151160192Y-88303771D01*
X151164650Y-88360703D01*
X151166153Y-88373871D01*
X151197989Y-88566133D01*
X151244906Y-88753931D01*
X151306468Y-88936174D01*
X151382239Y-89111767D01*
X151471784Y-89279619D01*
X151574664Y-89438636D01*
X151611147Y-89488560D01*
X151643057Y-89529782D01*
X151677955Y-89572949D01*
X151711713Y-89613057D01*
X151740203Y-89645104D01*
X151741304Y-89646286D01*
X151769670Y-89675772D01*
X151790372Y-89694690D01*
X151806167Y-89705120D01*
X151819813Y-89709140D01*
X151825056Y-89709419D01*
X151832847Y-89708182D01*
X151842582Y-89703753D01*
X151855458Y-89695057D01*
X151872676Y-89681022D01*
X151895431Y-89660571D01*
X151924924Y-89632630D01*
X151962353Y-89596126D01*
X152008915Y-89549983D01*
X152061859Y-89497082D01*
X152118430Y-89440251D01*
X152164309Y-89393704D01*
X152200539Y-89356283D01*
X152228159Y-89326832D01*
X152248212Y-89304193D01*
X152261739Y-89287211D01*
X152269780Y-89274726D01*
X152273377Y-89265584D01*
X152273839Y-89261518D01*
X152269879Y-89245384D01*
X152257318Y-89222444D01*
X152235077Y-89190956D01*
X152211207Y-89160452D01*
X152110320Y-89022905D01*
X152024488Y-88880213D01*
X151953861Y-88733061D01*
X151898586Y-88582136D01*
X151858813Y-88428125D01*
X151834689Y-88271714D01*
X151826365Y-88113589D01*
X151833987Y-87954438D01*
X151857705Y-87794947D01*
X151888216Y-87668113D01*
X151938590Y-87516407D01*
X152001728Y-87374321D01*
X152078366Y-87240580D01*
X152169244Y-87113908D01*
X152275101Y-86993032D01*
X152285601Y-86982175D01*
X152406721Y-86868631D01*
X152534245Y-86770040D01*
X152668738Y-86686043D01*
X152810766Y-86616282D01*
X152939773Y-86567265D01*
X153097252Y-86523320D01*
X153256035Y-86495421D01*
X153415126Y-86483388D01*
X153573532Y-86487042D01*
X153730257Y-86506203D01*
X153884308Y-86540692D01*
X154034689Y-86590329D01*
X154180407Y-86654935D01*
X154320466Y-86734330D01*
X154453873Y-86828335D01*
X154473838Y-86844158D01*
X154518420Y-86882505D01*
X154568755Y-86929840D01*
X154621090Y-86982300D01*
X154671677Y-87036018D01*
X154716763Y-87087131D01*
X154751343Y-87130098D01*
X154840175Y-87261082D01*
X154915893Y-87399815D01*
X154977857Y-87544561D01*
X155025426Y-87693589D01*
X155057959Y-87845163D01*
X155074815Y-87997550D01*
X155075303Y-88006474D01*
X155078347Y-88134541D01*
X155073271Y-88254267D01*
X155059426Y-88369682D01*
X155036162Y-88484818D01*
X155002833Y-88603703D01*
X154958818Y-88730290D01*
X154907377Y-88856078D01*
X154853210Y-88966325D01*
X154795566Y-89061762D01*
X154733692Y-89143115D01*
X154666836Y-89211113D01*
X154594246Y-89266485D01*
X154515168Y-89309958D01*
X154428852Y-89342261D01*
X154334545Y-89364121D01*
X154298405Y-89369587D01*
X154252741Y-89374715D01*
X154220556Y-89375852D01*
X154199365Y-89372694D01*
X154186681Y-89364939D01*
X154181008Y-89355276D01*
X154182868Y-89345666D01*
X154189703Y-89322158D01*
X154201001Y-89286296D01*
X154216252Y-89239623D01*
X154234944Y-89183684D01*
X154256567Y-89120022D01*
X154280609Y-89050180D01*
X154306560Y-88975704D01*
X154307859Y-88972000D01*
X154339059Y-88882953D01*
X154365125Y-88808062D01*
X154386345Y-88746018D01*
X154403006Y-88695513D01*
X154415393Y-88655237D01*
X154423796Y-88623882D01*
X154428499Y-88600139D01*
X154429791Y-88582700D01*
X154427957Y-88570255D01*
X154423287Y-88561496D01*
X154416065Y-88555114D01*
X154406579Y-88549801D01*
X154401026Y-88547111D01*
X154379451Y-88540267D01*
X154359591Y-88544292D01*
X154356436Y-88545671D01*
X154346691Y-88551211D01*
X154324278Y-88564610D01*
X154290233Y-88585230D01*
X154245592Y-88612429D01*
X154191392Y-88645568D01*
X154128668Y-88684007D01*
X154058458Y-88727107D01*
X153981797Y-88774227D01*
X153899722Y-88824727D01*
X153813269Y-88877967D01*
X153723475Y-88933308D01*
X153631375Y-88990110D01*
X153538007Y-89047732D01*
X153444406Y-89105535D01*
X153351609Y-89162879D01*
X153260652Y-89219124D01*
X153172571Y-89273629D01*
X153088403Y-89325756D01*
X153009185Y-89374864D01*
X152935951Y-89420313D01*
X152869740Y-89461464D01*
X152811587Y-89497676D01*
X152762528Y-89528309D01*
X152723600Y-89552724D01*
X152695839Y-89570280D01*
X152680281Y-89580338D01*
X152677205Y-89582574D01*
X152684497Y-89586751D01*
X152705195Y-89598451D01*
X152738414Y-89617174D01*
X152783270Y-89642425D01*
X152838877Y-89673706D01*
X152904351Y-89710519D01*
X152978806Y-89752366D01*
X153061359Y-89798752D01*
X153151123Y-89849178D01*
X153247214Y-89903146D01*
X153348748Y-89960160D01*
X153454840Y-90019722D01*
X153520592Y-90056632D01*
X153665136Y-90137670D01*
X153795713Y-90210675D01*
X153912566Y-90275779D01*
X154015936Y-90333113D01*
X154106065Y-90382809D01*
X154183195Y-90424999D01*
X154247566Y-90459816D01*
X154299422Y-90487390D01*
X154339003Y-90507854D01*
X154366551Y-90521340D01*
X154382309Y-90527980D01*
X154385790Y-90528774D01*
X154413156Y-90522146D01*
X154430330Y-90503585D01*
X154435771Y-90475076D01*
X154434964Y-90465458D01*
X154431245Y-90451256D01*
X154422367Y-90423512D01*
X154408961Y-90384014D01*
X154391655Y-90334552D01*
X154371079Y-90276913D01*
X154347861Y-90212887D01*
X154322631Y-90144262D01*
X154310455Y-90111460D01*
X154284577Y-90041730D01*
X154260405Y-89976150D01*
X154238563Y-89916447D01*
X154219674Y-89864347D01*
X154204364Y-89821577D01*
X154193257Y-89789864D01*
X154186976Y-89770932D01*
X154185855Y-89766872D01*
X154184195Y-89749468D01*
X154188659Y-89737812D01*
X154201172Y-89731527D01*
X154223657Y-89730233D01*
X154258036Y-89733554D01*
X154306235Y-89741111D01*
X154311912Y-89742089D01*
X154408826Y-89760346D01*
X154492661Y-89779549D01*
X154566724Y-89800692D01*
X154634322Y-89824769D01*
X154698762Y-89852773D01*
X154727838Y-89867036D01*
X154821369Y-89919842D01*
X154900022Y-89976545D01*
X154965156Y-90038815D01*
X155018127Y-90108325D01*
X155060293Y-90186745D01*
X155093013Y-90275747D01*
X155108978Y-90336226D01*
X155111885Y-90356222D01*
X155114804Y-90389653D01*
X155117563Y-90433569D01*
X155119989Y-90485019D01*
X155121909Y-90541051D01*
X155122623Y-90569742D01*
X155123839Y-90635365D01*
X155124246Y-90687190D01*
X155123752Y-90727791D01*
X155122265Y-90759740D01*
X155119691Y-90785612D01*
X155115938Y-90807980D01*
X155113687Y-90818243D01*
X155082094Y-90918086D01*
X155035806Y-91013780D01*
X154976316Y-91103749D01*
X154905112Y-91186414D01*
X154823686Y-91260200D01*
X154733527Y-91323529D01*
X154636125Y-91374825D01*
X154559871Y-91404239D01*
X154526651Y-91414091D01*
X154484807Y-91425060D01*
X154441815Y-91435217D01*
X154428774Y-91438036D01*
X154419171Y-91439992D01*
X154409305Y-91441786D01*
X154398460Y-91443425D01*
X154385923Y-91444915D01*
X154370977Y-91446264D01*
X154352907Y-91447479D01*
X154331000Y-91448567D01*
X154304539Y-91449535D01*
X154272810Y-91450391D01*
X154235097Y-91451141D01*
X154190686Y-91451792D01*
X154138862Y-91452352D01*
X154078910Y-91452828D01*
X154010114Y-91453226D01*
X153931760Y-91453555D01*
X153843133Y-91453820D01*
X153743517Y-91454029D01*
X153632199Y-91454189D01*
X153508461Y-91454308D01*
X153371591Y-91454392D01*
X153220872Y-91454449D01*
X153055590Y-91454485D01*
X152875030Y-91454507D01*
X152768802Y-91454517D01*
X152579489Y-91454536D01*
X152405877Y-91454567D01*
X152247282Y-91454617D01*
X152103018Y-91454690D01*
X151972399Y-91454795D01*
X151854741Y-91454937D01*
X151749358Y-91455123D01*
X151655564Y-91455360D01*
X151572674Y-91455653D01*
X151500003Y-91456010D01*
X151436865Y-91456437D01*
X151382576Y-91456940D01*
X151336449Y-91457527D01*
X151297799Y-91458202D01*
X151265941Y-91458974D01*
X151240190Y-91459848D01*
X151219860Y-91460830D01*
X151204265Y-91461929D01*
X151192721Y-91463149D01*
X151184542Y-91464497D01*
X151179043Y-91465980D01*
X151175538Y-91467605D01*
X151173342Y-91469377D01*
X151173108Y-91469629D01*
X151169423Y-91475142D01*
X151166463Y-91483797D01*
X151164152Y-91497275D01*
X151162411Y-91517257D01*
X151161163Y-91545424D01*
X151160330Y-91583457D01*
X151159836Y-91633037D01*
X151159601Y-91695844D01*
X151159548Y-91763327D01*
X151159576Y-91838259D01*
X151159726Y-91898518D01*
X151160099Y-91945820D01*
X151160796Y-91981881D01*
X151161916Y-92008413D01*
X151163561Y-92027134D01*
X151165831Y-92039757D01*
X151168826Y-92047998D01*
X151172647Y-92053571D01*
X151176793Y-92057649D01*
X151179749Y-92059964D01*
X151183806Y-92062040D01*
X151189833Y-92063894D01*
X151198694Y-92065541D01*
X151211257Y-92066994D01*
X151228389Y-92068270D01*
X151250955Y-92069383D01*
X151279823Y-92070348D01*
X151315859Y-92071180D01*
X151359930Y-92071895D01*
X151412902Y-92072506D01*
X151475641Y-92073029D01*
X151549015Y-92073480D01*
X151633890Y-92073872D01*
X151731133Y-92074221D01*
X151841610Y-92074542D01*
X151966187Y-92074850D01*
X152105732Y-92075159D01*
X152203035Y-92075364D01*
X152346143Y-92075583D01*
X152495221Y-92075661D01*
X152648225Y-92075606D01*
X152803111Y-92075422D01*
X152957836Y-92075117D01*
X153110355Y-92074697D01*
X153258626Y-92074169D01*
X153400605Y-92073538D01*
X153534247Y-92072812D01*
X153657509Y-92071996D01*
X153768348Y-92071098D01*
X153859322Y-92070184D01*
X153981167Y-92068822D01*
X154087922Y-92067593D01*
X154180884Y-92066398D01*
X154261348Y-92065139D01*
X154330610Y-92063717D01*
X154389967Y-92062032D01*
X154440715Y-92059987D01*
X154484149Y-92057483D01*
X154521565Y-92054420D01*
X154554259Y-92050700D01*
X154583528Y-92046224D01*
X154610667Y-92040893D01*
X154636973Y-92034609D01*
X154663740Y-92027273D01*
X154692266Y-92018786D01*
X154723846Y-92009050D01*
X154744225Y-92002744D01*
X154880154Y-91952381D01*
X155010865Y-91887308D01*
X155135132Y-91808707D01*
X155251730Y-91717760D01*
X155359432Y-91615651D01*
X155457013Y-91503562D01*
X155543246Y-91382675D01*
X155616906Y-91254173D01*
X155676767Y-91119239D01*
X155686065Y-91094129D01*
X155723378Y-90970900D01*
X155750472Y-90839526D01*
X155766886Y-90704361D01*
X155772158Y-90569757D01*
X155765827Y-90440067D01*
X155760367Y-90393581D01*
X155731043Y-90238128D01*
X155686979Y-90089835D01*
X155628160Y-89948671D01*
X155554573Y-89814607D01*
X155466204Y-89687616D01*
X155364324Y-89569023D01*
X155338234Y-89541066D01*
X155316888Y-89517391D01*
X155302501Y-89500514D01*
X155297290Y-89492969D01*
X155301692Y-89484363D01*
X155313506Y-89465641D01*
X155330649Y-89440042D01*
X155341434Y-89424430D01*
X155436983Y-89274269D01*
X155521986Y-89113294D01*
X155595315Y-88944106D01*
X155655840Y-88769301D01*
X155701635Y-88595097D01*
X155734402Y-88409750D01*
X155751421Y-88221614D01*
X155752790Y-88032083D01*
X155738607Y-87842548D01*
X155708967Y-87654403D01*
X155663969Y-87469041D01*
X155611905Y-87309769D01*
X155572271Y-87212372D01*
X155523112Y-87108159D01*
X155466810Y-87001343D01*
X155405744Y-86896139D01*
X155342296Y-86796760D01*
X155278844Y-86707420D01*
X155252610Y-86673710D01*
X155129362Y-86532847D01*
X154994424Y-86402112D01*
X154849135Y-86282331D01*
X154694833Y-86174333D01*
X154532858Y-86078944D01*
X154364549Y-85996994D01*
X154191246Y-85929310D01*
X154014287Y-85876718D01*
X153932861Y-85857996D01*
X153760795Y-85829317D01*
X153582828Y-85813403D01*
X153402929Y-85810324D01*
X153225068Y-85820151D01*
X153055762Y-85842511D01*
X152869392Y-85883072D01*
X152688181Y-85938818D01*
X152512963Y-86009128D01*
X152344572Y-86093378D01*
X152183841Y-86190950D01*
X152031603Y-86301220D01*
X151888693Y-86423569D01*
X151755944Y-86557373D01*
X151634190Y-86702013D01*
X151524264Y-86856866D01*
X151426999Y-87021312D01*
X151397219Y-87078782D01*
X151317621Y-87254627D01*
X151253803Y-87432897D01*
X151205166Y-87615520D01*
X151171111Y-87804427D01*
X151170542Y-87808516D01*
X151164824Y-87862155D01*
X151160468Y-87928040D01*
X151157506Y-88002245D01*
X151155966Y-88080846D01*
X151155880Y-88159917D01*
X151157279Y-88235534D01*
X151157279Y-88235534D01*
G37*
X151157279Y-88235534D02*
X151160192Y-88303771D01*
X151164650Y-88360703D01*
X151166153Y-88373871D01*
X151197989Y-88566133D01*
X151244906Y-88753931D01*
X151306468Y-88936174D01*
X151382239Y-89111767D01*
X151471784Y-89279619D01*
X151574664Y-89438636D01*
X151611147Y-89488560D01*
X151643057Y-89529782D01*
X151677955Y-89572949D01*
X151711713Y-89613057D01*
X151740203Y-89645104D01*
X151741304Y-89646286D01*
X151769670Y-89675772D01*
X151790372Y-89694690D01*
X151806167Y-89705120D01*
X151819813Y-89709140D01*
X151825056Y-89709419D01*
X151832847Y-89708182D01*
X151842582Y-89703753D01*
X151855458Y-89695057D01*
X151872676Y-89681022D01*
X151895431Y-89660571D01*
X151924924Y-89632630D01*
X151962353Y-89596126D01*
X152008915Y-89549983D01*
X152061859Y-89497082D01*
X152118430Y-89440251D01*
X152164309Y-89393704D01*
X152200539Y-89356283D01*
X152228159Y-89326832D01*
X152248212Y-89304193D01*
X152261739Y-89287211D01*
X152269780Y-89274726D01*
X152273377Y-89265584D01*
X152273839Y-89261518D01*
X152269879Y-89245384D01*
X152257318Y-89222444D01*
X152235077Y-89190956D01*
X152211207Y-89160452D01*
X152110320Y-89022905D01*
X152024488Y-88880213D01*
X151953861Y-88733061D01*
X151898586Y-88582136D01*
X151858813Y-88428125D01*
X151834689Y-88271714D01*
X151826365Y-88113589D01*
X151833987Y-87954438D01*
X151857705Y-87794947D01*
X151888216Y-87668113D01*
X151938590Y-87516407D01*
X152001728Y-87374321D01*
X152078366Y-87240580D01*
X152169244Y-87113908D01*
X152275101Y-86993032D01*
X152285601Y-86982175D01*
X152406721Y-86868631D01*
X152534245Y-86770040D01*
X152668738Y-86686043D01*
X152810766Y-86616282D01*
X152939773Y-86567265D01*
X153097252Y-86523320D01*
X153256035Y-86495421D01*
X153415126Y-86483388D01*
X153573532Y-86487042D01*
X153730257Y-86506203D01*
X153884308Y-86540692D01*
X154034689Y-86590329D01*
X154180407Y-86654935D01*
X154320466Y-86734330D01*
X154453873Y-86828335D01*
X154473838Y-86844158D01*
X154518420Y-86882505D01*
X154568755Y-86929840D01*
X154621090Y-86982300D01*
X154671677Y-87036018D01*
X154716763Y-87087131D01*
X154751343Y-87130098D01*
X154840175Y-87261082D01*
X154915893Y-87399815D01*
X154977857Y-87544561D01*
X155025426Y-87693589D01*
X155057959Y-87845163D01*
X155074815Y-87997550D01*
X155075303Y-88006474D01*
X155078347Y-88134541D01*
X155073271Y-88254267D01*
X155059426Y-88369682D01*
X155036162Y-88484818D01*
X155002833Y-88603703D01*
X154958818Y-88730290D01*
X154907377Y-88856078D01*
X154853210Y-88966325D01*
X154795566Y-89061762D01*
X154733692Y-89143115D01*
X154666836Y-89211113D01*
X154594246Y-89266485D01*
X154515168Y-89309958D01*
X154428852Y-89342261D01*
X154334545Y-89364121D01*
X154298405Y-89369587D01*
X154252741Y-89374715D01*
X154220556Y-89375852D01*
X154199365Y-89372694D01*
X154186681Y-89364939D01*
X154181008Y-89355276D01*
X154182868Y-89345666D01*
X154189703Y-89322158D01*
X154201001Y-89286296D01*
X154216252Y-89239623D01*
X154234944Y-89183684D01*
X154256567Y-89120022D01*
X154280609Y-89050180D01*
X154306560Y-88975704D01*
X154307859Y-88972000D01*
X154339059Y-88882953D01*
X154365125Y-88808062D01*
X154386345Y-88746018D01*
X154403006Y-88695513D01*
X154415393Y-88655237D01*
X154423796Y-88623882D01*
X154428499Y-88600139D01*
X154429791Y-88582700D01*
X154427957Y-88570255D01*
X154423287Y-88561496D01*
X154416065Y-88555114D01*
X154406579Y-88549801D01*
X154401026Y-88547111D01*
X154379451Y-88540267D01*
X154359591Y-88544292D01*
X154356436Y-88545671D01*
X154346691Y-88551211D01*
X154324278Y-88564610D01*
X154290233Y-88585230D01*
X154245592Y-88612429D01*
X154191392Y-88645568D01*
X154128668Y-88684007D01*
X154058458Y-88727107D01*
X153981797Y-88774227D01*
X153899722Y-88824727D01*
X153813269Y-88877967D01*
X153723475Y-88933308D01*
X153631375Y-88990110D01*
X153538007Y-89047732D01*
X153444406Y-89105535D01*
X153351609Y-89162879D01*
X153260652Y-89219124D01*
X153172571Y-89273629D01*
X153088403Y-89325756D01*
X153009185Y-89374864D01*
X152935951Y-89420313D01*
X152869740Y-89461464D01*
X152811587Y-89497676D01*
X152762528Y-89528309D01*
X152723600Y-89552724D01*
X152695839Y-89570280D01*
X152680281Y-89580338D01*
X152677205Y-89582574D01*
X152684497Y-89586751D01*
X152705195Y-89598451D01*
X152738414Y-89617174D01*
X152783270Y-89642425D01*
X152838877Y-89673706D01*
X152904351Y-89710519D01*
X152978806Y-89752366D01*
X153061359Y-89798752D01*
X153151123Y-89849178D01*
X153247214Y-89903146D01*
X153348748Y-89960160D01*
X153454840Y-90019722D01*
X153520592Y-90056632D01*
X153665136Y-90137670D01*
X153795713Y-90210675D01*
X153912566Y-90275779D01*
X154015936Y-90333113D01*
X154106065Y-90382809D01*
X154183195Y-90424999D01*
X154247566Y-90459816D01*
X154299422Y-90487390D01*
X154339003Y-90507854D01*
X154366551Y-90521340D01*
X154382309Y-90527980D01*
X154385790Y-90528774D01*
X154413156Y-90522146D01*
X154430330Y-90503585D01*
X154435771Y-90475076D01*
X154434964Y-90465458D01*
X154431245Y-90451256D01*
X154422367Y-90423512D01*
X154408961Y-90384014D01*
X154391655Y-90334552D01*
X154371079Y-90276913D01*
X154347861Y-90212887D01*
X154322631Y-90144262D01*
X154310455Y-90111460D01*
X154284577Y-90041730D01*
X154260405Y-89976150D01*
X154238563Y-89916447D01*
X154219674Y-89864347D01*
X154204364Y-89821577D01*
X154193257Y-89789864D01*
X154186976Y-89770932D01*
X154185855Y-89766872D01*
X154184195Y-89749468D01*
X154188659Y-89737812D01*
X154201172Y-89731527D01*
X154223657Y-89730233D01*
X154258036Y-89733554D01*
X154306235Y-89741111D01*
X154311912Y-89742089D01*
X154408826Y-89760346D01*
X154492661Y-89779549D01*
X154566724Y-89800692D01*
X154634322Y-89824769D01*
X154698762Y-89852773D01*
X154727838Y-89867036D01*
X154821369Y-89919842D01*
X154900022Y-89976545D01*
X154965156Y-90038815D01*
X155018127Y-90108325D01*
X155060293Y-90186745D01*
X155093013Y-90275747D01*
X155108978Y-90336226D01*
X155111885Y-90356222D01*
X155114804Y-90389653D01*
X155117563Y-90433569D01*
X155119989Y-90485019D01*
X155121909Y-90541051D01*
X155122623Y-90569742D01*
X155123839Y-90635365D01*
X155124246Y-90687190D01*
X155123752Y-90727791D01*
X155122265Y-90759740D01*
X155119691Y-90785612D01*
X155115938Y-90807980D01*
X155113687Y-90818243D01*
X155082094Y-90918086D01*
X155035806Y-91013780D01*
X154976316Y-91103749D01*
X154905112Y-91186414D01*
X154823686Y-91260200D01*
X154733527Y-91323529D01*
X154636125Y-91374825D01*
X154559871Y-91404239D01*
X154526651Y-91414091D01*
X154484807Y-91425060D01*
X154441815Y-91435217D01*
X154428774Y-91438036D01*
X154419171Y-91439992D01*
X154409305Y-91441786D01*
X154398460Y-91443425D01*
X154385923Y-91444915D01*
X154370977Y-91446264D01*
X154352907Y-91447479D01*
X154331000Y-91448567D01*
X154304539Y-91449535D01*
X154272810Y-91450391D01*
X154235097Y-91451141D01*
X154190686Y-91451792D01*
X154138862Y-91452352D01*
X154078910Y-91452828D01*
X154010114Y-91453226D01*
X153931760Y-91453555D01*
X153843133Y-91453820D01*
X153743517Y-91454029D01*
X153632199Y-91454189D01*
X153508461Y-91454308D01*
X153371591Y-91454392D01*
X153220872Y-91454449D01*
X153055590Y-91454485D01*
X152875030Y-91454507D01*
X152768802Y-91454517D01*
X152579489Y-91454536D01*
X152405877Y-91454567D01*
X152247282Y-91454617D01*
X152103018Y-91454690D01*
X151972399Y-91454795D01*
X151854741Y-91454937D01*
X151749358Y-91455123D01*
X151655564Y-91455360D01*
X151572674Y-91455653D01*
X151500003Y-91456010D01*
X151436865Y-91456437D01*
X151382576Y-91456940D01*
X151336449Y-91457527D01*
X151297799Y-91458202D01*
X151265941Y-91458974D01*
X151240190Y-91459848D01*
X151219860Y-91460830D01*
X151204265Y-91461929D01*
X151192721Y-91463149D01*
X151184542Y-91464497D01*
X151179043Y-91465980D01*
X151175538Y-91467605D01*
X151173342Y-91469377D01*
X151173108Y-91469629D01*
X151169423Y-91475142D01*
X151166463Y-91483797D01*
X151164152Y-91497275D01*
X151162411Y-91517257D01*
X151161163Y-91545424D01*
X151160330Y-91583457D01*
X151159836Y-91633037D01*
X151159601Y-91695844D01*
X151159548Y-91763327D01*
X151159576Y-91838259D01*
X151159726Y-91898518D01*
X151160099Y-91945820D01*
X151160796Y-91981881D01*
X151161916Y-92008413D01*
X151163561Y-92027134D01*
X151165831Y-92039757D01*
X151168826Y-92047998D01*
X151172647Y-92053571D01*
X151176793Y-92057649D01*
X151179749Y-92059964D01*
X151183806Y-92062040D01*
X151189833Y-92063894D01*
X151198694Y-92065541D01*
X151211257Y-92066994D01*
X151228389Y-92068270D01*
X151250955Y-92069383D01*
X151279823Y-92070348D01*
X151315859Y-92071180D01*
X151359930Y-92071895D01*
X151412902Y-92072506D01*
X151475641Y-92073029D01*
X151549015Y-92073480D01*
X151633890Y-92073872D01*
X151731133Y-92074221D01*
X151841610Y-92074542D01*
X151966187Y-92074850D01*
X152105732Y-92075159D01*
X152203035Y-92075364D01*
X152346143Y-92075583D01*
X152495221Y-92075661D01*
X152648225Y-92075606D01*
X152803111Y-92075422D01*
X152957836Y-92075117D01*
X153110355Y-92074697D01*
X153258626Y-92074169D01*
X153400605Y-92073538D01*
X153534247Y-92072812D01*
X153657509Y-92071996D01*
X153768348Y-92071098D01*
X153859322Y-92070184D01*
X153981167Y-92068822D01*
X154087922Y-92067593D01*
X154180884Y-92066398D01*
X154261348Y-92065139D01*
X154330610Y-92063717D01*
X154389967Y-92062032D01*
X154440715Y-92059987D01*
X154484149Y-92057483D01*
X154521565Y-92054420D01*
X154554259Y-92050700D01*
X154583528Y-92046224D01*
X154610667Y-92040893D01*
X154636973Y-92034609D01*
X154663740Y-92027273D01*
X154692266Y-92018786D01*
X154723846Y-92009050D01*
X154744225Y-92002744D01*
X154880154Y-91952381D01*
X155010865Y-91887308D01*
X155135132Y-91808707D01*
X155251730Y-91717760D01*
X155359432Y-91615651D01*
X155457013Y-91503562D01*
X155543246Y-91382675D01*
X155616906Y-91254173D01*
X155676767Y-91119239D01*
X155686065Y-91094129D01*
X155723378Y-90970900D01*
X155750472Y-90839526D01*
X155766886Y-90704361D01*
X155772158Y-90569757D01*
X155765827Y-90440067D01*
X155760367Y-90393581D01*
X155731043Y-90238128D01*
X155686979Y-90089835D01*
X155628160Y-89948671D01*
X155554573Y-89814607D01*
X155466204Y-89687616D01*
X155364324Y-89569023D01*
X155338234Y-89541066D01*
X155316888Y-89517391D01*
X155302501Y-89500514D01*
X155297290Y-89492969D01*
X155301692Y-89484363D01*
X155313506Y-89465641D01*
X155330649Y-89440042D01*
X155341434Y-89424430D01*
X155436983Y-89274269D01*
X155521986Y-89113294D01*
X155595315Y-88944106D01*
X155655840Y-88769301D01*
X155701635Y-88595097D01*
X155734402Y-88409750D01*
X155751421Y-88221614D01*
X155752790Y-88032083D01*
X155738607Y-87842548D01*
X155708967Y-87654403D01*
X155663969Y-87469041D01*
X155611905Y-87309769D01*
X155572271Y-87212372D01*
X155523112Y-87108159D01*
X155466810Y-87001343D01*
X155405744Y-86896139D01*
X155342296Y-86796760D01*
X155278844Y-86707420D01*
X155252610Y-86673710D01*
X155129362Y-86532847D01*
X154994424Y-86402112D01*
X154849135Y-86282331D01*
X154694833Y-86174333D01*
X154532858Y-86078944D01*
X154364549Y-85996994D01*
X154191246Y-85929310D01*
X154014287Y-85876718D01*
X153932861Y-85857996D01*
X153760795Y-85829317D01*
X153582828Y-85813403D01*
X153402929Y-85810324D01*
X153225068Y-85820151D01*
X153055762Y-85842511D01*
X152869392Y-85883072D01*
X152688181Y-85938818D01*
X152512963Y-86009128D01*
X152344572Y-86093378D01*
X152183841Y-86190950D01*
X152031603Y-86301220D01*
X151888693Y-86423569D01*
X151755944Y-86557373D01*
X151634190Y-86702013D01*
X151524264Y-86856866D01*
X151426999Y-87021312D01*
X151397219Y-87078782D01*
X151317621Y-87254627D01*
X151253803Y-87432897D01*
X151205166Y-87615520D01*
X151171111Y-87804427D01*
X151170542Y-87808516D01*
X151164824Y-87862155D01*
X151160468Y-87928040D01*
X151157506Y-88002245D01*
X151155966Y-88080846D01*
X151155880Y-88159917D01*
X151157279Y-88235534D01*
G36*
X156125724Y-95960037D02*
G01*
X156157393Y-96021752D01*
X156182630Y-96070358D01*
X156202373Y-96107385D01*
X156217560Y-96134361D01*
X156229129Y-96152814D01*
X156238017Y-96164273D01*
X156245163Y-96170267D01*
X156251504Y-96172323D01*
X156255935Y-96172241D01*
X156276419Y-96170032D01*
X156276556Y-92245323D01*
X156276555Y-91987013D01*
X156276538Y-91730529D01*
X156276502Y-91476477D01*
X156276450Y-91225465D01*
X156276382Y-90978098D01*
X156276298Y-90734985D01*
X156276199Y-90496730D01*
X156276085Y-90263941D01*
X156275958Y-90037225D01*
X156275817Y-89817189D01*
X156275663Y-89604438D01*
X156275496Y-89399581D01*
X156275318Y-89203222D01*
X156275129Y-89015970D01*
X156274928Y-88838431D01*
X156274718Y-88671211D01*
X156274498Y-88514917D01*
X156274269Y-88370157D01*
X156274032Y-88237536D01*
X156273786Y-88117661D01*
X156273534Y-88011139D01*
X156273274Y-87918577D01*
X156273008Y-87840582D01*
X156272736Y-87777759D01*
X156272459Y-87730716D01*
X156272459Y-87730677D01*
X156268225Y-87140742D01*
X156185280Y-86960145D01*
X156153494Y-86890967D01*
X156127759Y-86835313D01*
X156107253Y-86791829D01*
X156091155Y-86759163D01*
X156078644Y-86735962D01*
X156068897Y-86720872D01*
X156061095Y-86712541D01*
X156054416Y-86709616D01*
X156048037Y-86710744D01*
X156041139Y-86714571D01*
X156037588Y-86716851D01*
X156036862Y-86721469D01*
X156036158Y-86734570D01*
X156035476Y-86756438D01*
X156034813Y-86787360D01*
X156034170Y-86827620D01*
X156033545Y-86877503D01*
X156032937Y-86937296D01*
X156032346Y-87007283D01*
X156031770Y-87087749D01*
X156031208Y-87178980D01*
X156030659Y-87281261D01*
X156030123Y-87394877D01*
X156029598Y-87520113D01*
X156029084Y-87657255D01*
X156028579Y-87806587D01*
X156028082Y-87968396D01*
X156027593Y-88142966D01*
X156027110Y-88330583D01*
X156026633Y-88531532D01*
X156026161Y-88746097D01*
X156025691Y-88974565D01*
X156025225Y-89217221D01*
X156024760Y-89474349D01*
X156024296Y-89746235D01*
X156023831Y-90033165D01*
X156023365Y-90335423D01*
X156022896Y-90653295D01*
X156022425Y-90987066D01*
X156022087Y-91234248D01*
X156015997Y-95745625D01*
X156125724Y-95960037D01*
X156125724Y-95960037D01*
G37*
X156125724Y-95960037D02*
X156157393Y-96021752D01*
X156182630Y-96070358D01*
X156202373Y-96107385D01*
X156217560Y-96134361D01*
X156229129Y-96152814D01*
X156238017Y-96164273D01*
X156245163Y-96170267D01*
X156251504Y-96172323D01*
X156255935Y-96172241D01*
X156276419Y-96170032D01*
X156276556Y-92245323D01*
X156276555Y-91987013D01*
X156276538Y-91730529D01*
X156276502Y-91476477D01*
X156276450Y-91225465D01*
X156276382Y-90978098D01*
X156276298Y-90734985D01*
X156276199Y-90496730D01*
X156276085Y-90263941D01*
X156275958Y-90037225D01*
X156275817Y-89817189D01*
X156275663Y-89604438D01*
X156275496Y-89399581D01*
X156275318Y-89203222D01*
X156275129Y-89015970D01*
X156274928Y-88838431D01*
X156274718Y-88671211D01*
X156274498Y-88514917D01*
X156274269Y-88370157D01*
X156274032Y-88237536D01*
X156273786Y-88117661D01*
X156273534Y-88011139D01*
X156273274Y-87918577D01*
X156273008Y-87840582D01*
X156272736Y-87777759D01*
X156272459Y-87730716D01*
X156272459Y-87730677D01*
X156268225Y-87140742D01*
X156185280Y-86960145D01*
X156153494Y-86890967D01*
X156127759Y-86835313D01*
X156107253Y-86791829D01*
X156091155Y-86759163D01*
X156078644Y-86735962D01*
X156068897Y-86720872D01*
X156061095Y-86712541D01*
X156054416Y-86709616D01*
X156048037Y-86710744D01*
X156041139Y-86714571D01*
X156037588Y-86716851D01*
X156036862Y-86721469D01*
X156036158Y-86734570D01*
X156035476Y-86756438D01*
X156034813Y-86787360D01*
X156034170Y-86827620D01*
X156033545Y-86877503D01*
X156032937Y-86937296D01*
X156032346Y-87007283D01*
X156031770Y-87087749D01*
X156031208Y-87178980D01*
X156030659Y-87281261D01*
X156030123Y-87394877D01*
X156029598Y-87520113D01*
X156029084Y-87657255D01*
X156028579Y-87806587D01*
X156028082Y-87968396D01*
X156027593Y-88142966D01*
X156027110Y-88330583D01*
X156026633Y-88531532D01*
X156026161Y-88746097D01*
X156025691Y-88974565D01*
X156025225Y-89217221D01*
X156024760Y-89474349D01*
X156024296Y-89746235D01*
X156023831Y-90033165D01*
X156023365Y-90335423D01*
X156022896Y-90653295D01*
X156022425Y-90987066D01*
X156022087Y-91234248D01*
X156015997Y-95745625D01*
X156125724Y-95960037D01*
G36*
X156652959Y-94818216D02*
G01*
X156669808Y-94839635D01*
X156697624Y-94866932D01*
X156733580Y-94898021D01*
X156774848Y-94930819D01*
X156818602Y-94963239D01*
X156862012Y-94993196D01*
X156902252Y-95018607D01*
X156936495Y-95037387D01*
X156961912Y-95047449D01*
X156964655Y-95048053D01*
X157004864Y-95050384D01*
X157043950Y-95043585D01*
X157078619Y-95029295D01*
X157105577Y-95009153D01*
X157121530Y-94984798D01*
X157124451Y-94968542D01*
X157121777Y-94945333D01*
X157116398Y-94928971D01*
X157107161Y-94919195D01*
X157086965Y-94902100D01*
X157058329Y-94879684D01*
X157023772Y-94853947D01*
X157002923Y-94838936D01*
X156897502Y-94763948D01*
X156892170Y-94664784D01*
X156890293Y-94620727D01*
X156888704Y-94566053D01*
X156887534Y-94506534D01*
X156886908Y-94447940D01*
X156886838Y-94423778D01*
X156886838Y-94281936D01*
X156929854Y-94250525D01*
X156960992Y-94227938D01*
X156994419Y-94203916D01*
X157012743Y-94190863D01*
X157052615Y-94162613D01*
X157198730Y-94163971D01*
X157344846Y-94165329D01*
X157501596Y-94274617D01*
X157499427Y-94517495D01*
X157497258Y-94760374D01*
X157446987Y-94797429D01*
X157414308Y-94821460D01*
X157376431Y-94849229D01*
X157341409Y-94874831D01*
X157340559Y-94875452D01*
X157312953Y-94897392D01*
X157289740Y-94919110D01*
X157275013Y-94936683D01*
X157273088Y-94940071D01*
X157267348Y-94968347D01*
X157275906Y-94995162D01*
X157296674Y-95018683D01*
X157327567Y-95037079D01*
X157366498Y-95048519D01*
X157399932Y-95051433D01*
X157421941Y-95050434D01*
X157441333Y-95046015D01*
X157462708Y-95036366D01*
X157490670Y-95019674D01*
X157506448Y-95009500D01*
X157541994Y-94985645D01*
X157583951Y-94956487D01*
X157625699Y-94926661D01*
X157645637Y-94912049D01*
X157673391Y-94891515D01*
X157696028Y-94873862D01*
X157714066Y-94857203D01*
X157728025Y-94839656D01*
X157738422Y-94819336D01*
X157745775Y-94794358D01*
X157750602Y-94762837D01*
X157753422Y-94722890D01*
X157754754Y-94672633D01*
X157755114Y-94610179D01*
X157755022Y-94533646D01*
X157754992Y-94514397D01*
X157754840Y-94440305D01*
X157754535Y-94380754D01*
X157753977Y-94333902D01*
X157753063Y-94297902D01*
X157751691Y-94270909D01*
X157749761Y-94251080D01*
X157747171Y-94236569D01*
X157743818Y-94225532D01*
X157739602Y-94216122D01*
X157738440Y-94213883D01*
X157721350Y-94190892D01*
X157692744Y-94162524D01*
X157655631Y-94130988D01*
X157613019Y-94098492D01*
X157567918Y-94067248D01*
X157523337Y-94039463D01*
X157482283Y-94017349D01*
X157454593Y-94005438D01*
X157437351Y-93999489D01*
X157420932Y-93994929D01*
X157402883Y-93991575D01*
X157380751Y-93989242D01*
X157352085Y-93987747D01*
X157314431Y-93986906D01*
X157265337Y-93986535D01*
X157202351Y-93986452D01*
X157201130Y-93986452D01*
X157133207Y-93986671D01*
X157079423Y-93987410D01*
X157037536Y-93988787D01*
X157005302Y-93990921D01*
X156980477Y-93993932D01*
X156960820Y-93997940D01*
X156954933Y-93999545D01*
X156926960Y-94010835D01*
X156889824Y-94030302D01*
X156847028Y-94055724D01*
X156802075Y-94084877D01*
X156758466Y-94115541D01*
X156719704Y-94145493D01*
X156704257Y-94158603D01*
X156686751Y-94174079D01*
X156672579Y-94187724D01*
X156661370Y-94201412D01*
X156652756Y-94217014D01*
X156646366Y-94236404D01*
X156641831Y-94261456D01*
X156638782Y-94294042D01*
X156636849Y-94336036D01*
X156635662Y-94389310D01*
X156634851Y-94455738D01*
X156634289Y-94513196D01*
X156631643Y-94781844D01*
X156652959Y-94818216D01*
X156652959Y-94818216D01*
G37*
X156652959Y-94818216D02*
X156669808Y-94839635D01*
X156697624Y-94866932D01*
X156733580Y-94898021D01*
X156774848Y-94930819D01*
X156818602Y-94963239D01*
X156862012Y-94993196D01*
X156902252Y-95018607D01*
X156936495Y-95037387D01*
X156961912Y-95047449D01*
X156964655Y-95048053D01*
X157004864Y-95050384D01*
X157043950Y-95043585D01*
X157078619Y-95029295D01*
X157105577Y-95009153D01*
X157121530Y-94984798D01*
X157124451Y-94968542D01*
X157121777Y-94945333D01*
X157116398Y-94928971D01*
X157107161Y-94919195D01*
X157086965Y-94902100D01*
X157058329Y-94879684D01*
X157023772Y-94853947D01*
X157002923Y-94838936D01*
X156897502Y-94763948D01*
X156892170Y-94664784D01*
X156890293Y-94620727D01*
X156888704Y-94566053D01*
X156887534Y-94506534D01*
X156886908Y-94447940D01*
X156886838Y-94423778D01*
X156886838Y-94281936D01*
X156929854Y-94250525D01*
X156960992Y-94227938D01*
X156994419Y-94203916D01*
X157012743Y-94190863D01*
X157052615Y-94162613D01*
X157198730Y-94163971D01*
X157344846Y-94165329D01*
X157501596Y-94274617D01*
X157499427Y-94517495D01*
X157497258Y-94760374D01*
X157446987Y-94797429D01*
X157414308Y-94821460D01*
X157376431Y-94849229D01*
X157341409Y-94874831D01*
X157340559Y-94875452D01*
X157312953Y-94897392D01*
X157289740Y-94919110D01*
X157275013Y-94936683D01*
X157273088Y-94940071D01*
X157267348Y-94968347D01*
X157275906Y-94995162D01*
X157296674Y-95018683D01*
X157327567Y-95037079D01*
X157366498Y-95048519D01*
X157399932Y-95051433D01*
X157421941Y-95050434D01*
X157441333Y-95046015D01*
X157462708Y-95036366D01*
X157490670Y-95019674D01*
X157506448Y-95009500D01*
X157541994Y-94985645D01*
X157583951Y-94956487D01*
X157625699Y-94926661D01*
X157645637Y-94912049D01*
X157673391Y-94891515D01*
X157696028Y-94873862D01*
X157714066Y-94857203D01*
X157728025Y-94839656D01*
X157738422Y-94819336D01*
X157745775Y-94794358D01*
X157750602Y-94762837D01*
X157753422Y-94722890D01*
X157754754Y-94672633D01*
X157755114Y-94610179D01*
X157755022Y-94533646D01*
X157754992Y-94514397D01*
X157754840Y-94440305D01*
X157754535Y-94380754D01*
X157753977Y-94333902D01*
X157753063Y-94297902D01*
X157751691Y-94270909D01*
X157749761Y-94251080D01*
X157747171Y-94236569D01*
X157743818Y-94225532D01*
X157739602Y-94216122D01*
X157738440Y-94213883D01*
X157721350Y-94190892D01*
X157692744Y-94162524D01*
X157655631Y-94130988D01*
X157613019Y-94098492D01*
X157567918Y-94067248D01*
X157523337Y-94039463D01*
X157482283Y-94017349D01*
X157454593Y-94005438D01*
X157437351Y-93999489D01*
X157420932Y-93994929D01*
X157402883Y-93991575D01*
X157380751Y-93989242D01*
X157352085Y-93987747D01*
X157314431Y-93986906D01*
X157265337Y-93986535D01*
X157202351Y-93986452D01*
X157201130Y-93986452D01*
X157133207Y-93986671D01*
X157079423Y-93987410D01*
X157037536Y-93988787D01*
X157005302Y-93990921D01*
X156980477Y-93993932D01*
X156960820Y-93997940D01*
X156954933Y-93999545D01*
X156926960Y-94010835D01*
X156889824Y-94030302D01*
X156847028Y-94055724D01*
X156802075Y-94084877D01*
X156758466Y-94115541D01*
X156719704Y-94145493D01*
X156704257Y-94158603D01*
X156686751Y-94174079D01*
X156672579Y-94187724D01*
X156661370Y-94201412D01*
X156652756Y-94217014D01*
X156646366Y-94236404D01*
X156641831Y-94261456D01*
X156638782Y-94294042D01*
X156636849Y-94336036D01*
X156635662Y-94389310D01*
X156634851Y-94455738D01*
X156634289Y-94513196D01*
X156631643Y-94781844D01*
X156652959Y-94818216D01*
G36*
X156633627Y-90748783D02*
G01*
X156633989Y-90811736D01*
X156634258Y-90840668D01*
X156635083Y-90913250D01*
X156635966Y-90971322D01*
X156637027Y-91016763D01*
X156638383Y-91051450D01*
X156640156Y-91077262D01*
X156642464Y-91096075D01*
X156645427Y-91109768D01*
X156649164Y-91120218D01*
X156652463Y-91126903D01*
X156668031Y-91148819D01*
X156693357Y-91176855D01*
X156725772Y-91208738D01*
X156762605Y-91242193D01*
X156801187Y-91274948D01*
X156838849Y-91304727D01*
X156872921Y-91329256D01*
X156900734Y-91346263D01*
X156918186Y-91353252D01*
X156959830Y-91355898D01*
X157001207Y-91349607D01*
X157037930Y-91335798D01*
X157065616Y-91315887D01*
X157075672Y-91302350D01*
X157085285Y-91278397D01*
X157085332Y-91256845D01*
X157074605Y-91234720D01*
X157051895Y-91209045D01*
X157029386Y-91188387D01*
X156997694Y-91160336D01*
X156964677Y-91130658D01*
X156936570Y-91104966D01*
X156932087Y-91100800D01*
X156890935Y-91062407D01*
X156888338Y-90821028D01*
X156885741Y-90579650D01*
X156949790Y-90525617D01*
X156976969Y-90503055D01*
X156999431Y-90485098D01*
X157014313Y-90473993D01*
X157018681Y-90471501D01*
X157024917Y-90478039D01*
X157035917Y-90494989D01*
X157045310Y-90511447D01*
X157067096Y-90551476D01*
X157067185Y-90820754D01*
X157067272Y-90898826D01*
X157067659Y-90962628D01*
X157068620Y-91014277D01*
X157070427Y-91055888D01*
X157073355Y-91089580D01*
X157077677Y-91117469D01*
X157083666Y-91141671D01*
X157091596Y-91164304D01*
X157101740Y-91187484D01*
X157114372Y-91213327D01*
X157119128Y-91222790D01*
X157150607Y-91274000D01*
X157187684Y-91311778D01*
X157232430Y-91337304D01*
X157286915Y-91351759D01*
X157353209Y-91356323D01*
X157353306Y-91356323D01*
X157423426Y-91351546D01*
X157485844Y-91337717D01*
X157537573Y-91315583D01*
X157551813Y-91306567D01*
X157588346Y-91279365D01*
X157626557Y-91248162D01*
X157663423Y-91215715D01*
X157695920Y-91184779D01*
X157721026Y-91158110D01*
X157735209Y-91139354D01*
X157755354Y-91104980D01*
X157754689Y-90827119D01*
X157754247Y-90740602D01*
X157753360Y-90669778D01*
X157752004Y-90613961D01*
X157750155Y-90572463D01*
X157747789Y-90544594D01*
X157744883Y-90529669D01*
X157744447Y-90528606D01*
X157732134Y-90505683D01*
X157722433Y-90490577D01*
X157710596Y-90477605D01*
X157689044Y-90457184D01*
X157660501Y-90431611D01*
X157627688Y-90403183D01*
X157593330Y-90374195D01*
X157560149Y-90346946D01*
X157530869Y-90323730D01*
X157508213Y-90306845D01*
X157494904Y-90298588D01*
X157494676Y-90298497D01*
X157466613Y-90292641D01*
X157430717Y-90291590D01*
X157394746Y-90295113D01*
X157367946Y-90302321D01*
X157338442Y-90320933D01*
X157317633Y-90346118D01*
X157307606Y-90374003D01*
X157310449Y-90400712D01*
X157312536Y-90405185D01*
X157321438Y-90415914D01*
X157340314Y-90434956D01*
X157366710Y-90459950D01*
X157398168Y-90488533D01*
X157411057Y-90499948D01*
X157501354Y-90579346D01*
X157501354Y-90822881D01*
X157501168Y-90898064D01*
X157500575Y-90958204D01*
X157499520Y-91004643D01*
X157497950Y-91038724D01*
X157495811Y-91061786D01*
X157493050Y-91075172D01*
X157491113Y-91079068D01*
X157480891Y-91089282D01*
X157462626Y-91105559D01*
X157439838Y-91124981D01*
X157416045Y-91144634D01*
X157394766Y-91161601D01*
X157379520Y-91172965D01*
X157374067Y-91176064D01*
X157368730Y-91169410D01*
X157358778Y-91152301D01*
X157350703Y-91136931D01*
X157345498Y-91126245D01*
X157341245Y-91115605D01*
X157337800Y-91103220D01*
X157335020Y-91087299D01*
X157332761Y-91066055D01*
X157330882Y-91037695D01*
X157329238Y-91000431D01*
X157327687Y-90952471D01*
X157326084Y-90892028D01*
X157324287Y-90817309D01*
X157323936Y-90802383D01*
X157317000Y-90506969D01*
X157284225Y-90442874D01*
X157256675Y-90394155D01*
X157229613Y-90358351D01*
X157200179Y-90332332D01*
X157165516Y-90312972D01*
X157165511Y-90312970D01*
X157121514Y-90299625D01*
X157067871Y-90292898D01*
X157009854Y-90292628D01*
X156952736Y-90298654D01*
X156901789Y-90310814D01*
X156874548Y-90321896D01*
X156858632Y-90331712D01*
X156833374Y-90349295D01*
X156802223Y-90372171D01*
X156768627Y-90397865D01*
X156768032Y-90398330D01*
X156715192Y-90442635D01*
X156676528Y-90482233D01*
X156650969Y-90518421D01*
X156637442Y-90552496D01*
X156636396Y-90557445D01*
X156635287Y-90571840D01*
X156634439Y-90600397D01*
X156633869Y-90640889D01*
X156633592Y-90691093D01*
X156633627Y-90748783D01*
X156633627Y-90748783D01*
G37*
X156633627Y-90748783D02*
X156633989Y-90811736D01*
X156634258Y-90840668D01*
X156635083Y-90913250D01*
X156635966Y-90971322D01*
X156637027Y-91016763D01*
X156638383Y-91051450D01*
X156640156Y-91077262D01*
X156642464Y-91096075D01*
X156645427Y-91109768D01*
X156649164Y-91120218D01*
X156652463Y-91126903D01*
X156668031Y-91148819D01*
X156693357Y-91176855D01*
X156725772Y-91208738D01*
X156762605Y-91242193D01*
X156801187Y-91274948D01*
X156838849Y-91304727D01*
X156872921Y-91329256D01*
X156900734Y-91346263D01*
X156918186Y-91353252D01*
X156959830Y-91355898D01*
X157001207Y-91349607D01*
X157037930Y-91335798D01*
X157065616Y-91315887D01*
X157075672Y-91302350D01*
X157085285Y-91278397D01*
X157085332Y-91256845D01*
X157074605Y-91234720D01*
X157051895Y-91209045D01*
X157029386Y-91188387D01*
X156997694Y-91160336D01*
X156964677Y-91130658D01*
X156936570Y-91104966D01*
X156932087Y-91100800D01*
X156890935Y-91062407D01*
X156888338Y-90821028D01*
X156885741Y-90579650D01*
X156949790Y-90525617D01*
X156976969Y-90503055D01*
X156999431Y-90485098D01*
X157014313Y-90473993D01*
X157018681Y-90471501D01*
X157024917Y-90478039D01*
X157035917Y-90494989D01*
X157045310Y-90511447D01*
X157067096Y-90551476D01*
X157067185Y-90820754D01*
X157067272Y-90898826D01*
X157067659Y-90962628D01*
X157068620Y-91014277D01*
X157070427Y-91055888D01*
X157073355Y-91089580D01*
X157077677Y-91117469D01*
X157083666Y-91141671D01*
X157091596Y-91164304D01*
X157101740Y-91187484D01*
X157114372Y-91213327D01*
X157119128Y-91222790D01*
X157150607Y-91274000D01*
X157187684Y-91311778D01*
X157232430Y-91337304D01*
X157286915Y-91351759D01*
X157353209Y-91356323D01*
X157353306Y-91356323D01*
X157423426Y-91351546D01*
X157485844Y-91337717D01*
X157537573Y-91315583D01*
X157551813Y-91306567D01*
X157588346Y-91279365D01*
X157626557Y-91248162D01*
X157663423Y-91215715D01*
X157695920Y-91184779D01*
X157721026Y-91158110D01*
X157735209Y-91139354D01*
X157755354Y-91104980D01*
X157754689Y-90827119D01*
X157754247Y-90740602D01*
X157753360Y-90669778D01*
X157752004Y-90613961D01*
X157750155Y-90572463D01*
X157747789Y-90544594D01*
X157744883Y-90529669D01*
X157744447Y-90528606D01*
X157732134Y-90505683D01*
X157722433Y-90490577D01*
X157710596Y-90477605D01*
X157689044Y-90457184D01*
X157660501Y-90431611D01*
X157627688Y-90403183D01*
X157593330Y-90374195D01*
X157560149Y-90346946D01*
X157530869Y-90323730D01*
X157508213Y-90306845D01*
X157494904Y-90298588D01*
X157494676Y-90298497D01*
X157466613Y-90292641D01*
X157430717Y-90291590D01*
X157394746Y-90295113D01*
X157367946Y-90302321D01*
X157338442Y-90320933D01*
X157317633Y-90346118D01*
X157307606Y-90374003D01*
X157310449Y-90400712D01*
X157312536Y-90405185D01*
X157321438Y-90415914D01*
X157340314Y-90434956D01*
X157366710Y-90459950D01*
X157398168Y-90488533D01*
X157411057Y-90499948D01*
X157501354Y-90579346D01*
X157501354Y-90822881D01*
X157501168Y-90898064D01*
X157500575Y-90958204D01*
X157499520Y-91004643D01*
X157497950Y-91038724D01*
X157495811Y-91061786D01*
X157493050Y-91075172D01*
X157491113Y-91079068D01*
X157480891Y-91089282D01*
X157462626Y-91105559D01*
X157439838Y-91124981D01*
X157416045Y-91144634D01*
X157394766Y-91161601D01*
X157379520Y-91172965D01*
X157374067Y-91176064D01*
X157368730Y-91169410D01*
X157358778Y-91152301D01*
X157350703Y-91136931D01*
X157345498Y-91126245D01*
X157341245Y-91115605D01*
X157337800Y-91103220D01*
X157335020Y-91087299D01*
X157332761Y-91066055D01*
X157330882Y-91037695D01*
X157329238Y-91000431D01*
X157327687Y-90952471D01*
X157326084Y-90892028D01*
X157324287Y-90817309D01*
X157323936Y-90802383D01*
X157317000Y-90506969D01*
X157284225Y-90442874D01*
X157256675Y-90394155D01*
X157229613Y-90358351D01*
X157200179Y-90332332D01*
X157165516Y-90312972D01*
X157165511Y-90312970D01*
X157121514Y-90299625D01*
X157067871Y-90292898D01*
X157009854Y-90292628D01*
X156952736Y-90298654D01*
X156901789Y-90310814D01*
X156874548Y-90321896D01*
X156858632Y-90331712D01*
X156833374Y-90349295D01*
X156802223Y-90372171D01*
X156768627Y-90397865D01*
X156768032Y-90398330D01*
X156715192Y-90442635D01*
X156676528Y-90482233D01*
X156650969Y-90518421D01*
X156637442Y-90552496D01*
X156636396Y-90557445D01*
X156635287Y-90571840D01*
X156634439Y-90600397D01*
X156633869Y-90640889D01*
X156633592Y-90691093D01*
X156633627Y-90748783D01*
G36*
X156654051Y-89896762D02*
G01*
X156670622Y-89920333D01*
X156695411Y-89948563D01*
X156723650Y-89976115D01*
X156729842Y-89981547D01*
X156774940Y-90019942D01*
X156812776Y-90050611D01*
X156846037Y-90074454D01*
X156877412Y-90092372D01*
X156909589Y-90105265D01*
X156945254Y-90114033D01*
X156987097Y-90119578D01*
X157037804Y-90122800D01*
X157100064Y-90124600D01*
X157159852Y-90125618D01*
X157242230Y-90126565D01*
X157310542Y-90126229D01*
X157367092Y-90124035D01*
X157414185Y-90119409D01*
X157454127Y-90111777D01*
X157489222Y-90100565D01*
X157521775Y-90085201D01*
X157554092Y-90065108D01*
X157588477Y-90039715D01*
X157625839Y-90009598D01*
X157657587Y-89983594D01*
X157683473Y-89961733D01*
X157704106Y-89942033D01*
X157720097Y-89922513D01*
X157732055Y-89901188D01*
X157740590Y-89876077D01*
X157746314Y-89845197D01*
X157749836Y-89806565D01*
X157751765Y-89758199D01*
X157752714Y-89698115D01*
X157753290Y-89624331D01*
X157753519Y-89594710D01*
X157754097Y-89520240D01*
X157754414Y-89460307D01*
X157754380Y-89413059D01*
X157753903Y-89376647D01*
X157752892Y-89349221D01*
X157751258Y-89328931D01*
X157748909Y-89313926D01*
X157745755Y-89302356D01*
X157741705Y-89292371D01*
X157738358Y-89285471D01*
X157723174Y-89263032D01*
X157697458Y-89233708D01*
X157663834Y-89200381D01*
X157645967Y-89184083D01*
X157608862Y-89151334D01*
X157580711Y-89127471D01*
X157558333Y-89110369D01*
X157538547Y-89097902D01*
X157518172Y-89087943D01*
X157494027Y-89078367D01*
X157480243Y-89073310D01*
X157463498Y-89067480D01*
X157447736Y-89062956D01*
X157430650Y-89059572D01*
X157409929Y-89057167D01*
X157383266Y-89055577D01*
X157348352Y-89054639D01*
X157302877Y-89054190D01*
X157244534Y-89054067D01*
X157208062Y-89054078D01*
X157124365Y-89054464D01*
X157054804Y-89055937D01*
X157010289Y-89058412D01*
X157010289Y-89234194D01*
X157192322Y-89234292D01*
X157374354Y-89234390D01*
X157501354Y-89342446D01*
X157501354Y-89831925D01*
X157474725Y-89855945D01*
X157453366Y-89874668D01*
X157426307Y-89897677D01*
X157407279Y-89913498D01*
X157366461Y-89947032D01*
X157024033Y-89947032D01*
X156955436Y-89889267D01*
X156886838Y-89831501D01*
X156886838Y-89590659D01*
X156886713Y-89520793D01*
X156886687Y-89465213D01*
X156887288Y-89421824D01*
X156889042Y-89388532D01*
X156892476Y-89363242D01*
X156898116Y-89343857D01*
X156906489Y-89328284D01*
X156918122Y-89314428D01*
X156933541Y-89300192D01*
X156953272Y-89283483D01*
X156966999Y-89271747D01*
X157010289Y-89234194D01*
X157010289Y-89058412D01*
X156997139Y-89059144D01*
X156949124Y-89064734D01*
X156908517Y-89073354D01*
X156873074Y-89085653D01*
X156840551Y-89102279D01*
X156808706Y-89123880D01*
X156775294Y-89151105D01*
X156738073Y-89184600D01*
X156729834Y-89192239D01*
X156705001Y-89215353D01*
X156684810Y-89235203D01*
X156668784Y-89253759D01*
X156656441Y-89272990D01*
X156647301Y-89294866D01*
X156640884Y-89321355D01*
X156636710Y-89354427D01*
X156634298Y-89396052D01*
X156633169Y-89448198D01*
X156632843Y-89512835D01*
X156632838Y-89590043D01*
X156632838Y-89858782D01*
X156654051Y-89896762D01*
X156654051Y-89896762D01*
G37*
X156654051Y-89896762D02*
X156670622Y-89920333D01*
X156695411Y-89948563D01*
X156723650Y-89976115D01*
X156729842Y-89981547D01*
X156774940Y-90019942D01*
X156812776Y-90050611D01*
X156846037Y-90074454D01*
X156877412Y-90092372D01*
X156909589Y-90105265D01*
X156945254Y-90114033D01*
X156987097Y-90119578D01*
X157037804Y-90122800D01*
X157100064Y-90124600D01*
X157159852Y-90125618D01*
X157242230Y-90126565D01*
X157310542Y-90126229D01*
X157367092Y-90124035D01*
X157414185Y-90119409D01*
X157454127Y-90111777D01*
X157489222Y-90100565D01*
X157521775Y-90085201D01*
X157554092Y-90065108D01*
X157588477Y-90039715D01*
X157625839Y-90009598D01*
X157657587Y-89983594D01*
X157683473Y-89961733D01*
X157704106Y-89942033D01*
X157720097Y-89922513D01*
X157732055Y-89901188D01*
X157740590Y-89876077D01*
X157746314Y-89845197D01*
X157749836Y-89806565D01*
X157751765Y-89758199D01*
X157752714Y-89698115D01*
X157753290Y-89624331D01*
X157753519Y-89594710D01*
X157754097Y-89520240D01*
X157754414Y-89460307D01*
X157754380Y-89413059D01*
X157753903Y-89376647D01*
X157752892Y-89349221D01*
X157751258Y-89328931D01*
X157748909Y-89313926D01*
X157745755Y-89302356D01*
X157741705Y-89292371D01*
X157738358Y-89285471D01*
X157723174Y-89263032D01*
X157697458Y-89233708D01*
X157663834Y-89200381D01*
X157645967Y-89184083D01*
X157608862Y-89151334D01*
X157580711Y-89127471D01*
X157558333Y-89110369D01*
X157538547Y-89097902D01*
X157518172Y-89087943D01*
X157494027Y-89078367D01*
X157480243Y-89073310D01*
X157463498Y-89067480D01*
X157447736Y-89062956D01*
X157430650Y-89059572D01*
X157409929Y-89057167D01*
X157383266Y-89055577D01*
X157348352Y-89054639D01*
X157302877Y-89054190D01*
X157244534Y-89054067D01*
X157208062Y-89054078D01*
X157124365Y-89054464D01*
X157054804Y-89055937D01*
X157010289Y-89058412D01*
X157010289Y-89234194D01*
X157192322Y-89234292D01*
X157374354Y-89234390D01*
X157501354Y-89342446D01*
X157501354Y-89831925D01*
X157474725Y-89855945D01*
X157453366Y-89874668D01*
X157426307Y-89897677D01*
X157407279Y-89913498D01*
X157366461Y-89947032D01*
X157024033Y-89947032D01*
X156955436Y-89889267D01*
X156886838Y-89831501D01*
X156886838Y-89590659D01*
X156886713Y-89520793D01*
X156886687Y-89465213D01*
X156887288Y-89421824D01*
X156889042Y-89388532D01*
X156892476Y-89363242D01*
X156898116Y-89343857D01*
X156906489Y-89328284D01*
X156918122Y-89314428D01*
X156933541Y-89300192D01*
X156953272Y-89283483D01*
X156966999Y-89271747D01*
X157010289Y-89234194D01*
X157010289Y-89058412D01*
X156997139Y-89059144D01*
X156949124Y-89064734D01*
X156908517Y-89073354D01*
X156873074Y-89085653D01*
X156840551Y-89102279D01*
X156808706Y-89123880D01*
X156775294Y-89151105D01*
X156738073Y-89184600D01*
X156729834Y-89192239D01*
X156705001Y-89215353D01*
X156684810Y-89235203D01*
X156668784Y-89253759D01*
X156656441Y-89272990D01*
X156647301Y-89294866D01*
X156640884Y-89321355D01*
X156636710Y-89354427D01*
X156634298Y-89396052D01*
X156633169Y-89448198D01*
X156632843Y-89512835D01*
X156632838Y-89590043D01*
X156632838Y-89858782D01*
X156654051Y-89896762D01*
G36*
X156644311Y-87942709D02*
G01*
X156647542Y-87953013D01*
X156650207Y-87966462D01*
X156652359Y-87984598D01*
X156654049Y-88008963D01*
X156655330Y-88041098D01*
X156656253Y-88082547D01*
X156656871Y-88134851D01*
X156657234Y-88199553D01*
X156657397Y-88278194D01*
X156657419Y-88331455D01*
X156657373Y-88420481D01*
X156657430Y-88494751D01*
X156657882Y-88555895D01*
X156659019Y-88605543D01*
X156661134Y-88645325D01*
X156664518Y-88676870D01*
X156669461Y-88701810D01*
X156676256Y-88721774D01*
X156685195Y-88738391D01*
X156696568Y-88753293D01*
X156710667Y-88768108D01*
X156727783Y-88784467D01*
X156740598Y-88796636D01*
X156791190Y-88839609D01*
X156840028Y-88868480D01*
X156890643Y-88884662D01*
X156946565Y-88889567D01*
X156970850Y-88888711D01*
X157016218Y-88880937D01*
X157051293Y-88865002D01*
X157074670Y-88842426D01*
X157084949Y-88814728D01*
X157080727Y-88783429D01*
X157076659Y-88774034D01*
X157064894Y-88756597D01*
X157046874Y-88742634D01*
X157018172Y-88728906D01*
X157010911Y-88725963D01*
X156976738Y-88709477D01*
X156947673Y-88690234D01*
X156935120Y-88678719D01*
X156911419Y-88652193D01*
X156911419Y-88006322D01*
X157290371Y-88003630D01*
X157380722Y-88002929D01*
X157456154Y-88002184D01*
X157518132Y-88001339D01*
X157568125Y-88000333D01*
X157607600Y-87999111D01*
X157638023Y-87997614D01*
X157660861Y-87995785D01*
X157677583Y-87993565D01*
X157689655Y-87990896D01*
X157698544Y-87987722D01*
X157698977Y-87987528D01*
X157730677Y-87966665D01*
X157749808Y-87940151D01*
X157755565Y-87910934D01*
X157747140Y-87881960D01*
X157732822Y-87863828D01*
X157711052Y-87846700D01*
X157688667Y-87834187D01*
X157687224Y-87833618D01*
X157672841Y-87831431D01*
X157642130Y-87829558D01*
X157595148Y-87828000D01*
X157531953Y-87826757D01*
X157452601Y-87825830D01*
X157357149Y-87825221D01*
X157245653Y-87824930D01*
X157195299Y-87824903D01*
X156726440Y-87824903D01*
X156689881Y-87843339D01*
X156657219Y-87864825D01*
X156640100Y-87889385D01*
X156637737Y-87918735D01*
X156644311Y-87942709D01*
X156644311Y-87942709D01*
G37*
X156644311Y-87942709D02*
X156647542Y-87953013D01*
X156650207Y-87966462D01*
X156652359Y-87984598D01*
X156654049Y-88008963D01*
X156655330Y-88041098D01*
X156656253Y-88082547D01*
X156656871Y-88134851D01*
X156657234Y-88199553D01*
X156657397Y-88278194D01*
X156657419Y-88331455D01*
X156657373Y-88420481D01*
X156657430Y-88494751D01*
X156657882Y-88555895D01*
X156659019Y-88605543D01*
X156661134Y-88645325D01*
X156664518Y-88676870D01*
X156669461Y-88701810D01*
X156676256Y-88721774D01*
X156685195Y-88738391D01*
X156696568Y-88753293D01*
X156710667Y-88768108D01*
X156727783Y-88784467D01*
X156740598Y-88796636D01*
X156791190Y-88839609D01*
X156840028Y-88868480D01*
X156890643Y-88884662D01*
X156946565Y-88889567D01*
X156970850Y-88888711D01*
X157016218Y-88880937D01*
X157051293Y-88865002D01*
X157074670Y-88842426D01*
X157084949Y-88814728D01*
X157080727Y-88783429D01*
X157076659Y-88774034D01*
X157064894Y-88756597D01*
X157046874Y-88742634D01*
X157018172Y-88728906D01*
X157010911Y-88725963D01*
X156976738Y-88709477D01*
X156947673Y-88690234D01*
X156935120Y-88678719D01*
X156911419Y-88652193D01*
X156911419Y-88006322D01*
X157290371Y-88003630D01*
X157380722Y-88002929D01*
X157456154Y-88002184D01*
X157518132Y-88001339D01*
X157568125Y-88000333D01*
X157607600Y-87999111D01*
X157638023Y-87997614D01*
X157660861Y-87995785D01*
X157677583Y-87993565D01*
X157689655Y-87990896D01*
X157698544Y-87987722D01*
X157698977Y-87987528D01*
X157730677Y-87966665D01*
X157749808Y-87940151D01*
X157755565Y-87910934D01*
X157747140Y-87881960D01*
X157732822Y-87863828D01*
X157711052Y-87846700D01*
X157688667Y-87834187D01*
X157687224Y-87833618D01*
X157672841Y-87831431D01*
X157642130Y-87829558D01*
X157595148Y-87828000D01*
X157531953Y-87826757D01*
X157452601Y-87825830D01*
X157357149Y-87825221D01*
X157245653Y-87824930D01*
X157195299Y-87824903D01*
X156726440Y-87824903D01*
X156689881Y-87843339D01*
X156657219Y-87864825D01*
X156640100Y-87889385D01*
X156637737Y-87918735D01*
X156644311Y-87942709D01*
G36*
X156019970Y-85843705D02*
G01*
X156020755Y-85907501D01*
X156021565Y-85957059D01*
X156022606Y-85994525D01*
X156024085Y-86022048D01*
X156026209Y-86041775D01*
X156029184Y-86055853D01*
X156033216Y-86066429D01*
X156038512Y-86075652D01*
X156042903Y-86082190D01*
X156061444Y-86104453D01*
X156086628Y-86128866D01*
X156102524Y-86142018D01*
X156109214Y-86147084D01*
X156115921Y-86151745D01*
X156123537Y-86156189D01*
X156132956Y-86160600D01*
X156145071Y-86165166D01*
X156160778Y-86170073D01*
X156180968Y-86175506D01*
X156206537Y-86181652D01*
X156238377Y-86188698D01*
X156277382Y-86196828D01*
X156324446Y-86206230D01*
X156380463Y-86217090D01*
X156446326Y-86229594D01*
X156522929Y-86243928D01*
X156611166Y-86260278D01*
X156711930Y-86278831D01*
X156826114Y-86299773D01*
X156954614Y-86323289D01*
X157098322Y-86349567D01*
X157101247Y-86350102D01*
X157209614Y-86369875D01*
X157303135Y-86386745D01*
X157383077Y-86400779D01*
X157450709Y-86412045D01*
X157507301Y-86420613D01*
X157554121Y-86426551D01*
X157592437Y-86429926D01*
X157623518Y-86430808D01*
X157648632Y-86429264D01*
X157669048Y-86425363D01*
X157686036Y-86419174D01*
X157700862Y-86410765D01*
X157714797Y-86400204D01*
X157729108Y-86387559D01*
X157732822Y-86384146D01*
X157748695Y-86366270D01*
X157753812Y-86348328D01*
X157749618Y-86323785D01*
X157747644Y-86317032D01*
X157731287Y-86280984D01*
X157706403Y-86256707D01*
X157690193Y-86248004D01*
X157674516Y-86243164D01*
X157645127Y-86236100D01*
X157604470Y-86227321D01*
X157554989Y-86217337D01*
X157499129Y-86206657D01*
X157439903Y-86195889D01*
X157218677Y-86156695D01*
X157214395Y-85498713D01*
X157245213Y-85493277D01*
X157284775Y-85486014D01*
X157332063Y-85476877D01*
X157384575Y-85466399D01*
X157439813Y-85455107D01*
X157495274Y-85443531D01*
X157548459Y-85432203D01*
X157596866Y-85421652D01*
X157637996Y-85412407D01*
X157669348Y-85404999D01*
X157688421Y-85399958D01*
X157692653Y-85398450D01*
X157723981Y-85377741D01*
X157741334Y-85353545D01*
X157747124Y-85322349D01*
X157747161Y-85319077D01*
X157745583Y-85295763D01*
X157738718Y-85278252D01*
X157723371Y-85259963D01*
X157714042Y-85250860D01*
X157705754Y-85242952D01*
X157697795Y-85235903D01*
X157689349Y-85229833D01*
X157679601Y-85224862D01*
X157667736Y-85221108D01*
X157652938Y-85218692D01*
X157634393Y-85217732D01*
X157611284Y-85218349D01*
X157582798Y-85220661D01*
X157548118Y-85224788D01*
X157506430Y-85230850D01*
X157456918Y-85238966D01*
X157398768Y-85249256D01*
X157331163Y-85261838D01*
X157253289Y-85276833D01*
X157164330Y-85294359D01*
X157063472Y-85314537D01*
X156949899Y-85337485D01*
X156904852Y-85346642D01*
X156904852Y-85563484D01*
X156909007Y-85564307D01*
X156912301Y-85567905D01*
X156914831Y-85575975D01*
X156916696Y-85590212D01*
X156917996Y-85612311D01*
X156918827Y-85643967D01*
X156919290Y-85686877D01*
X156919482Y-85742735D01*
X156919502Y-85813238D01*
X156919501Y-85815435D01*
X156919327Y-85878810D01*
X156918888Y-85937458D01*
X156918222Y-85989219D01*
X156917368Y-86031931D01*
X156916362Y-86063431D01*
X156915243Y-86081558D01*
X156914780Y-86084555D01*
X156913099Y-86089479D01*
X156909856Y-86093014D01*
X156903273Y-86094993D01*
X156891571Y-86095245D01*
X156872969Y-86093601D01*
X156845690Y-86089893D01*
X156807954Y-86083951D01*
X156757982Y-86075607D01*
X156693996Y-86064690D01*
X156679327Y-86062178D01*
X156615632Y-86051174D01*
X156553483Y-86040269D01*
X156495803Y-86029986D01*
X156445517Y-86020852D01*
X156405547Y-86013393D01*
X156378838Y-86008139D01*
X156309193Y-85993645D01*
X156306968Y-85841067D01*
X156304743Y-85688488D01*
X156376613Y-85670387D01*
X156403995Y-85663888D01*
X156442398Y-85655329D01*
X156489414Y-85645197D01*
X156542638Y-85633980D01*
X156599664Y-85622163D01*
X156658085Y-85610234D01*
X156715495Y-85598681D01*
X156769487Y-85587989D01*
X156817655Y-85578646D01*
X156857594Y-85571139D01*
X156886896Y-85565955D01*
X156903156Y-85563581D01*
X156904852Y-85563484D01*
X156904852Y-85346642D01*
X156822796Y-85363324D01*
X156681347Y-85392172D01*
X156524738Y-85424150D01*
X156507768Y-85427615D01*
X156434528Y-85442701D01*
X156365799Y-85457112D01*
X156303349Y-85470459D01*
X156248945Y-85482351D01*
X156204355Y-85492400D01*
X156171346Y-85500217D01*
X156151686Y-85505413D01*
X156147252Y-85506987D01*
X156114801Y-85528178D01*
X156080331Y-85557500D01*
X156050388Y-85589116D01*
X156040105Y-85602577D01*
X156017522Y-85635165D01*
X156019970Y-85843705D01*
X156019970Y-85843705D01*
G37*
X156019970Y-85843705D02*
X156020755Y-85907501D01*
X156021565Y-85957059D01*
X156022606Y-85994525D01*
X156024085Y-86022048D01*
X156026209Y-86041775D01*
X156029184Y-86055853D01*
X156033216Y-86066429D01*
X156038512Y-86075652D01*
X156042903Y-86082190D01*
X156061444Y-86104453D01*
X156086628Y-86128866D01*
X156102524Y-86142018D01*
X156109214Y-86147084D01*
X156115921Y-86151745D01*
X156123537Y-86156189D01*
X156132956Y-86160600D01*
X156145071Y-86165166D01*
X156160778Y-86170073D01*
X156180968Y-86175506D01*
X156206537Y-86181652D01*
X156238377Y-86188698D01*
X156277382Y-86196828D01*
X156324446Y-86206230D01*
X156380463Y-86217090D01*
X156446326Y-86229594D01*
X156522929Y-86243928D01*
X156611166Y-86260278D01*
X156711930Y-86278831D01*
X156826114Y-86299773D01*
X156954614Y-86323289D01*
X157098322Y-86349567D01*
X157101247Y-86350102D01*
X157209614Y-86369875D01*
X157303135Y-86386745D01*
X157383077Y-86400779D01*
X157450709Y-86412045D01*
X157507301Y-86420613D01*
X157554121Y-86426551D01*
X157592437Y-86429926D01*
X157623518Y-86430808D01*
X157648632Y-86429264D01*
X157669048Y-86425363D01*
X157686036Y-86419174D01*
X157700862Y-86410765D01*
X157714797Y-86400204D01*
X157729108Y-86387559D01*
X157732822Y-86384146D01*
X157748695Y-86366270D01*
X157753812Y-86348328D01*
X157749618Y-86323785D01*
X157747644Y-86317032D01*
X157731287Y-86280984D01*
X157706403Y-86256707D01*
X157690193Y-86248004D01*
X157674516Y-86243164D01*
X157645127Y-86236100D01*
X157604470Y-86227321D01*
X157554989Y-86217337D01*
X157499129Y-86206657D01*
X157439903Y-86195889D01*
X157218677Y-86156695D01*
X157214395Y-85498713D01*
X157245213Y-85493277D01*
X157284775Y-85486014D01*
X157332063Y-85476877D01*
X157384575Y-85466399D01*
X157439813Y-85455107D01*
X157495274Y-85443531D01*
X157548459Y-85432203D01*
X157596866Y-85421652D01*
X157637996Y-85412407D01*
X157669348Y-85404999D01*
X157688421Y-85399958D01*
X157692653Y-85398450D01*
X157723981Y-85377741D01*
X157741334Y-85353545D01*
X157747124Y-85322349D01*
X157747161Y-85319077D01*
X157745583Y-85295763D01*
X157738718Y-85278252D01*
X157723371Y-85259963D01*
X157714042Y-85250860D01*
X157705754Y-85242952D01*
X157697795Y-85235903D01*
X157689349Y-85229833D01*
X157679601Y-85224862D01*
X157667736Y-85221108D01*
X157652938Y-85218692D01*
X157634393Y-85217732D01*
X157611284Y-85218349D01*
X157582798Y-85220661D01*
X157548118Y-85224788D01*
X157506430Y-85230850D01*
X157456918Y-85238966D01*
X157398768Y-85249256D01*
X157331163Y-85261838D01*
X157253289Y-85276833D01*
X157164330Y-85294359D01*
X157063472Y-85314537D01*
X156949899Y-85337485D01*
X156904852Y-85346642D01*
X156904852Y-85563484D01*
X156909007Y-85564307D01*
X156912301Y-85567905D01*
X156914831Y-85575975D01*
X156916696Y-85590212D01*
X156917996Y-85612311D01*
X156918827Y-85643967D01*
X156919290Y-85686877D01*
X156919482Y-85742735D01*
X156919502Y-85813238D01*
X156919501Y-85815435D01*
X156919327Y-85878810D01*
X156918888Y-85937458D01*
X156918222Y-85989219D01*
X156917368Y-86031931D01*
X156916362Y-86063431D01*
X156915243Y-86081558D01*
X156914780Y-86084555D01*
X156913099Y-86089479D01*
X156909856Y-86093014D01*
X156903273Y-86094993D01*
X156891571Y-86095245D01*
X156872969Y-86093601D01*
X156845690Y-86089893D01*
X156807954Y-86083951D01*
X156757982Y-86075607D01*
X156693996Y-86064690D01*
X156679327Y-86062178D01*
X156615632Y-86051174D01*
X156553483Y-86040269D01*
X156495803Y-86029986D01*
X156445517Y-86020852D01*
X156405547Y-86013393D01*
X156378838Y-86008139D01*
X156309193Y-85993645D01*
X156306968Y-85841067D01*
X156304743Y-85688488D01*
X156376613Y-85670387D01*
X156403995Y-85663888D01*
X156442398Y-85655329D01*
X156489414Y-85645197D01*
X156542638Y-85633980D01*
X156599664Y-85622163D01*
X156658085Y-85610234D01*
X156715495Y-85598681D01*
X156769487Y-85587989D01*
X156817655Y-85578646D01*
X156857594Y-85571139D01*
X156886896Y-85565955D01*
X156903156Y-85563581D01*
X156904852Y-85563484D01*
X156904852Y-85346642D01*
X156822796Y-85363324D01*
X156681347Y-85392172D01*
X156524738Y-85424150D01*
X156507768Y-85427615D01*
X156434528Y-85442701D01*
X156365799Y-85457112D01*
X156303349Y-85470459D01*
X156248945Y-85482351D01*
X156204355Y-85492400D01*
X156171346Y-85500217D01*
X156151686Y-85505413D01*
X156147252Y-85506987D01*
X156114801Y-85528178D01*
X156080331Y-85557500D01*
X156050388Y-85589116D01*
X156040105Y-85602577D01*
X156017522Y-85635165D01*
X156019970Y-85843705D01*
G36*
X156641104Y-95802560D02*
G01*
X156641769Y-95861372D01*
X156642933Y-95915093D01*
X156644599Y-95961070D01*
X156646766Y-95996653D01*
X156649435Y-96019189D01*
X156650201Y-96022548D01*
X156660269Y-96050004D01*
X156673156Y-96074699D01*
X156675152Y-96077656D01*
X156692372Y-96097230D01*
X156719773Y-96123192D01*
X156753939Y-96152787D01*
X156791453Y-96183258D01*
X156828898Y-96211850D01*
X156862855Y-96235808D01*
X156889909Y-96252376D01*
X156895032Y-96254964D01*
X156912539Y-96262805D01*
X156929050Y-96268544D01*
X156947645Y-96272584D01*
X156971406Y-96275325D01*
X157003414Y-96277170D01*
X157046752Y-96278518D01*
X157081925Y-96279309D01*
X157142829Y-96280320D01*
X157189789Y-96280248D01*
X157225234Y-96278753D01*
X157251592Y-96275499D01*
X157271288Y-96270149D01*
X157286751Y-96262365D01*
X157300408Y-96251809D01*
X157304122Y-96248419D01*
X157329290Y-96224909D01*
X157329290Y-95395742D01*
X157356717Y-95395742D01*
X157372724Y-95398010D01*
X157390551Y-95406076D01*
X157413380Y-95421828D01*
X157444396Y-95447156D01*
X157446846Y-95449242D01*
X157509548Y-95502742D01*
X157509548Y-95987162D01*
X157452193Y-96049407D01*
X157421692Y-96084551D01*
X157402847Y-96112204D01*
X157394565Y-96135171D01*
X157395751Y-96156255D01*
X157403306Y-96174641D01*
X157420221Y-96192513D01*
X157448051Y-96208503D01*
X157481335Y-96220188D01*
X157514610Y-96225147D01*
X157517269Y-96225181D01*
X157550814Y-96222334D01*
X157581541Y-96212571D01*
X157612925Y-96194062D01*
X157648436Y-96164974D01*
X157670270Y-96144495D01*
X157694132Y-96121434D01*
X157713537Y-96101713D01*
X157728946Y-96083368D01*
X157740818Y-96064437D01*
X157749613Y-96042958D01*
X157755791Y-96016967D01*
X157759810Y-95984502D01*
X157762131Y-95943600D01*
X157763213Y-95892297D01*
X157763515Y-95828632D01*
X157763499Y-95750642D01*
X157763498Y-95746342D01*
X157763384Y-95670100D01*
X157763024Y-95608523D01*
X157762344Y-95559892D01*
X157761270Y-95522486D01*
X157759728Y-95494584D01*
X157757645Y-95474466D01*
X157754947Y-95460413D01*
X157751559Y-95450702D01*
X157750725Y-95449000D01*
X157731604Y-95420995D01*
X157701615Y-95387545D01*
X157664030Y-95351489D01*
X157622121Y-95315665D01*
X157579159Y-95282910D01*
X157538416Y-95256063D01*
X157511800Y-95241753D01*
X157464484Y-95219581D01*
X157213821Y-95217007D01*
X157142491Y-95216334D01*
X157085483Y-95216007D01*
X157046032Y-95216110D01*
X157046032Y-95395742D01*
X157075290Y-95395742D01*
X157075290Y-96108581D01*
X157056453Y-96108581D01*
X157041300Y-96103253D01*
X157016982Y-96088453D01*
X156986256Y-96065952D01*
X156970449Y-96053274D01*
X156903282Y-95997968D01*
X156903254Y-95747686D01*
X156903225Y-95497405D01*
X156960000Y-95446573D01*
X156989063Y-95421510D01*
X157010298Y-95406098D01*
X157027282Y-95398223D01*
X157043592Y-95395773D01*
X157046032Y-95395742D01*
X157046032Y-95216110D01*
X157040735Y-95216124D01*
X157006182Y-95216784D01*
X156979762Y-95218084D01*
X156959412Y-95220123D01*
X156943069Y-95223000D01*
X156928670Y-95226813D01*
X156915358Y-95231234D01*
X156882439Y-95244360D01*
X156852137Y-95260419D01*
X156821378Y-95281609D01*
X156787089Y-95310123D01*
X156746196Y-95348158D01*
X156730938Y-95362968D01*
X156699175Y-95394783D01*
X156677431Y-95418871D01*
X156663405Y-95438318D01*
X156654801Y-95456206D01*
X156650373Y-95471064D01*
X156647563Y-95491266D01*
X156645247Y-95524940D01*
X156643425Y-95569432D01*
X156642099Y-95622093D01*
X156641270Y-95680268D01*
X156640938Y-95741308D01*
X156641104Y-95802560D01*
X156641104Y-95802560D01*
G37*
X156641104Y-95802560D02*
X156641769Y-95861372D01*
X156642933Y-95915093D01*
X156644599Y-95961070D01*
X156646766Y-95996653D01*
X156649435Y-96019189D01*
X156650201Y-96022548D01*
X156660269Y-96050004D01*
X156673156Y-96074699D01*
X156675152Y-96077656D01*
X156692372Y-96097230D01*
X156719773Y-96123192D01*
X156753939Y-96152787D01*
X156791453Y-96183258D01*
X156828898Y-96211850D01*
X156862855Y-96235808D01*
X156889909Y-96252376D01*
X156895032Y-96254964D01*
X156912539Y-96262805D01*
X156929050Y-96268544D01*
X156947645Y-96272584D01*
X156971406Y-96275325D01*
X157003414Y-96277170D01*
X157046752Y-96278518D01*
X157081925Y-96279309D01*
X157142829Y-96280320D01*
X157189789Y-96280248D01*
X157225234Y-96278753D01*
X157251592Y-96275499D01*
X157271288Y-96270149D01*
X157286751Y-96262365D01*
X157300408Y-96251809D01*
X157304122Y-96248419D01*
X157329290Y-96224909D01*
X157329290Y-95395742D01*
X157356717Y-95395742D01*
X157372724Y-95398010D01*
X157390551Y-95406076D01*
X157413380Y-95421828D01*
X157444396Y-95447156D01*
X157446846Y-95449242D01*
X157509548Y-95502742D01*
X157509548Y-95987162D01*
X157452193Y-96049407D01*
X157421692Y-96084551D01*
X157402847Y-96112204D01*
X157394565Y-96135171D01*
X157395751Y-96156255D01*
X157403306Y-96174641D01*
X157420221Y-96192513D01*
X157448051Y-96208503D01*
X157481335Y-96220188D01*
X157514610Y-96225147D01*
X157517269Y-96225181D01*
X157550814Y-96222334D01*
X157581541Y-96212571D01*
X157612925Y-96194062D01*
X157648436Y-96164974D01*
X157670270Y-96144495D01*
X157694132Y-96121434D01*
X157713537Y-96101713D01*
X157728946Y-96083368D01*
X157740818Y-96064437D01*
X157749613Y-96042958D01*
X157755791Y-96016967D01*
X157759810Y-95984502D01*
X157762131Y-95943600D01*
X157763213Y-95892297D01*
X157763515Y-95828632D01*
X157763499Y-95750642D01*
X157763498Y-95746342D01*
X157763384Y-95670100D01*
X157763024Y-95608523D01*
X157762344Y-95559892D01*
X157761270Y-95522486D01*
X157759728Y-95494584D01*
X157757645Y-95474466D01*
X157754947Y-95460413D01*
X157751559Y-95450702D01*
X157750725Y-95449000D01*
X157731604Y-95420995D01*
X157701615Y-95387545D01*
X157664030Y-95351489D01*
X157622121Y-95315665D01*
X157579159Y-95282910D01*
X157538416Y-95256063D01*
X157511800Y-95241753D01*
X157464484Y-95219581D01*
X157213821Y-95217007D01*
X157142491Y-95216334D01*
X157085483Y-95216007D01*
X157046032Y-95216110D01*
X157046032Y-95395742D01*
X157075290Y-95395742D01*
X157075290Y-96108581D01*
X157056453Y-96108581D01*
X157041300Y-96103253D01*
X157016982Y-96088453D01*
X156986256Y-96065952D01*
X156970449Y-96053274D01*
X156903282Y-95997968D01*
X156903254Y-95747686D01*
X156903225Y-95497405D01*
X156960000Y-95446573D01*
X156989063Y-95421510D01*
X157010298Y-95406098D01*
X157027282Y-95398223D01*
X157043592Y-95395773D01*
X157046032Y-95395742D01*
X157046032Y-95216110D01*
X157040735Y-95216124D01*
X157006182Y-95216784D01*
X156979762Y-95218084D01*
X156959412Y-95220123D01*
X156943069Y-95223000D01*
X156928670Y-95226813D01*
X156915358Y-95231234D01*
X156882439Y-95244360D01*
X156852137Y-95260419D01*
X156821378Y-95281609D01*
X156787089Y-95310123D01*
X156746196Y-95348158D01*
X156730938Y-95362968D01*
X156699175Y-95394783D01*
X156677431Y-95418871D01*
X156663405Y-95438318D01*
X156654801Y-95456206D01*
X156650373Y-95471064D01*
X156647563Y-95491266D01*
X156645247Y-95524940D01*
X156643425Y-95569432D01*
X156642099Y-95622093D01*
X156641270Y-95680268D01*
X156640938Y-95741308D01*
X156641104Y-95802560D01*
G36*
X156633899Y-93466744D02*
G01*
X156635615Y-93508636D01*
X156638724Y-93541522D01*
X156643515Y-93567246D01*
X156650275Y-93587654D01*
X156659292Y-93604589D01*
X156670856Y-93619897D01*
X156685255Y-93635423D01*
X156692742Y-93642978D01*
X156734365Y-93682024D01*
X156779663Y-93720117D01*
X156824772Y-93754293D01*
X156865825Y-93781591D01*
X156892780Y-93796312D01*
X156940096Y-93818484D01*
X157351822Y-93821014D01*
X157763548Y-93823545D01*
X157763548Y-93650516D01*
X157706053Y-93650516D01*
X157730704Y-93606837D01*
X157755354Y-93563159D01*
X157755354Y-93289876D01*
X157755402Y-93210215D01*
X157755174Y-93144989D01*
X157754118Y-93092245D01*
X157751679Y-93050033D01*
X157747303Y-93016401D01*
X157740436Y-92989399D01*
X157730525Y-92967077D01*
X157717014Y-92947482D01*
X157699350Y-92928663D01*
X157676980Y-92908671D01*
X157649348Y-92885554D01*
X157637801Y-92875919D01*
X157602054Y-92847181D01*
X157566019Y-92820284D01*
X157533867Y-92798220D01*
X157509770Y-92783984D01*
X157509548Y-92783874D01*
X157493122Y-92776044D01*
X157478070Y-92770241D01*
X157461543Y-92766109D01*
X157440691Y-92763294D01*
X157412664Y-92761440D01*
X157374614Y-92760191D01*
X157346552Y-92759642D01*
X157346552Y-92931101D01*
X157360220Y-92932694D01*
X157378090Y-92941366D01*
X157402675Y-92958640D01*
X157434489Y-92984359D01*
X157501067Y-93040097D01*
X157501211Y-93287273D01*
X157501354Y-93534449D01*
X157441951Y-93588295D01*
X157412801Y-93613935D01*
X157391665Y-93630024D01*
X157375031Y-93638660D01*
X157359389Y-93641942D01*
X157351735Y-93642232D01*
X157320922Y-93642323D01*
X157323058Y-93287952D01*
X157325193Y-92933581D01*
X157346552Y-92931101D01*
X157346552Y-92759642D01*
X157323691Y-92759194D01*
X157309682Y-92758959D01*
X157249035Y-92758247D01*
X157202334Y-92758671D01*
X157167154Y-92760679D01*
X157141066Y-92764721D01*
X157121646Y-92771246D01*
X157106466Y-92780701D01*
X157093100Y-92793537D01*
X157087414Y-92800078D01*
X157067096Y-92824225D01*
X157067096Y-93642323D01*
X157043946Y-93642323D01*
X157026819Y-93638154D01*
X157003756Y-93624780D01*
X156972672Y-93600901D01*
X156959154Y-93589516D01*
X156897513Y-93536710D01*
X156892176Y-93473571D01*
X156890581Y-93446266D01*
X156889176Y-93406079D01*
X156888037Y-93356514D01*
X156887240Y-93301076D01*
X156886860Y-93243269D01*
X156886838Y-93226585D01*
X156886838Y-93042739D01*
X156940814Y-92984063D01*
X156971449Y-92949714D01*
X156991486Y-92923833D01*
X157002200Y-92903594D01*
X157004866Y-92886171D01*
X157000760Y-92868737D01*
X156996877Y-92859785D01*
X156975893Y-92833293D01*
X156943788Y-92813676D01*
X156904880Y-92802325D01*
X156863490Y-92800632D01*
X156832487Y-92806837D01*
X156812871Y-92817364D01*
X156785763Y-92837291D01*
X156754399Y-92863635D01*
X156722017Y-92893410D01*
X156691855Y-92923632D01*
X156667152Y-92951316D01*
X156651144Y-92973479D01*
X156650542Y-92974548D01*
X156646742Y-92983286D01*
X156643651Y-92995488D01*
X156641172Y-93012910D01*
X156639206Y-93037308D01*
X156637656Y-93070439D01*
X156636425Y-93114059D01*
X156635416Y-93169924D01*
X156634531Y-93239791D01*
X156634225Y-93268583D01*
X156633492Y-93348562D01*
X156633288Y-93414001D01*
X156633899Y-93466744D01*
X156633899Y-93466744D01*
G37*
X156633899Y-93466744D02*
X156635615Y-93508636D01*
X156638724Y-93541522D01*
X156643515Y-93567246D01*
X156650275Y-93587654D01*
X156659292Y-93604589D01*
X156670856Y-93619897D01*
X156685255Y-93635423D01*
X156692742Y-93642978D01*
X156734365Y-93682024D01*
X156779663Y-93720117D01*
X156824772Y-93754293D01*
X156865825Y-93781591D01*
X156892780Y-93796312D01*
X156940096Y-93818484D01*
X157351822Y-93821014D01*
X157763548Y-93823545D01*
X157763548Y-93650516D01*
X157706053Y-93650516D01*
X157730704Y-93606837D01*
X157755354Y-93563159D01*
X157755354Y-93289876D01*
X157755402Y-93210215D01*
X157755174Y-93144989D01*
X157754118Y-93092245D01*
X157751679Y-93050033D01*
X157747303Y-93016401D01*
X157740436Y-92989399D01*
X157730525Y-92967077D01*
X157717014Y-92947482D01*
X157699350Y-92928663D01*
X157676980Y-92908671D01*
X157649348Y-92885554D01*
X157637801Y-92875919D01*
X157602054Y-92847181D01*
X157566019Y-92820284D01*
X157533867Y-92798220D01*
X157509770Y-92783984D01*
X157509548Y-92783874D01*
X157493122Y-92776044D01*
X157478070Y-92770241D01*
X157461543Y-92766109D01*
X157440691Y-92763294D01*
X157412664Y-92761440D01*
X157374614Y-92760191D01*
X157346552Y-92759642D01*
X157346552Y-92931101D01*
X157360220Y-92932694D01*
X157378090Y-92941366D01*
X157402675Y-92958640D01*
X157434489Y-92984359D01*
X157501067Y-93040097D01*
X157501211Y-93287273D01*
X157501354Y-93534449D01*
X157441951Y-93588295D01*
X157412801Y-93613935D01*
X157391665Y-93630024D01*
X157375031Y-93638660D01*
X157359389Y-93641942D01*
X157351735Y-93642232D01*
X157320922Y-93642323D01*
X157323058Y-93287952D01*
X157325193Y-92933581D01*
X157346552Y-92931101D01*
X157346552Y-92759642D01*
X157323691Y-92759194D01*
X157309682Y-92758959D01*
X157249035Y-92758247D01*
X157202334Y-92758671D01*
X157167154Y-92760679D01*
X157141066Y-92764721D01*
X157121646Y-92771246D01*
X157106466Y-92780701D01*
X157093100Y-92793537D01*
X157087414Y-92800078D01*
X157067096Y-92824225D01*
X157067096Y-93642323D01*
X157043946Y-93642323D01*
X157026819Y-93638154D01*
X157003756Y-93624780D01*
X156972672Y-93600901D01*
X156959154Y-93589516D01*
X156897513Y-93536710D01*
X156892176Y-93473571D01*
X156890581Y-93446266D01*
X156889176Y-93406079D01*
X156888037Y-93356514D01*
X156887240Y-93301076D01*
X156886860Y-93243269D01*
X156886838Y-93226585D01*
X156886838Y-93042739D01*
X156940814Y-92984063D01*
X156971449Y-92949714D01*
X156991486Y-92923833D01*
X157002200Y-92903594D01*
X157004866Y-92886171D01*
X157000760Y-92868737D01*
X156996877Y-92859785D01*
X156975893Y-92833293D01*
X156943788Y-92813676D01*
X156904880Y-92802325D01*
X156863490Y-92800632D01*
X156832487Y-92806837D01*
X156812871Y-92817364D01*
X156785763Y-92837291D01*
X156754399Y-92863635D01*
X156722017Y-92893410D01*
X156691855Y-92923632D01*
X156667152Y-92951316D01*
X156651144Y-92973479D01*
X156650542Y-92974548D01*
X156646742Y-92983286D01*
X156643651Y-92995488D01*
X156641172Y-93012910D01*
X156639206Y-93037308D01*
X156637656Y-93070439D01*
X156636425Y-93114059D01*
X156635416Y-93169924D01*
X156634531Y-93239791D01*
X156634225Y-93268583D01*
X156633492Y-93348562D01*
X156633288Y-93414001D01*
X156633899Y-93466744D01*
G36*
X156642282Y-87113572D02*
G01*
X156642571Y-87147606D01*
X156643258Y-87224002D01*
X156644060Y-87286020D01*
X156645543Y-87335664D01*
X156648272Y-87374937D01*
X156652812Y-87405841D01*
X156659728Y-87430382D01*
X156669585Y-87450560D01*
X156682950Y-87468381D01*
X156700386Y-87485847D01*
X156722459Y-87504961D01*
X156749735Y-87527728D01*
X156749850Y-87527824D01*
X156800317Y-87569540D01*
X156842128Y-87601518D01*
X156878748Y-87625046D01*
X156913644Y-87641413D01*
X156950281Y-87651906D01*
X156992127Y-87657815D01*
X157042646Y-87660428D01*
X157105306Y-87661032D01*
X157108261Y-87661032D01*
X157164789Y-87660593D01*
X157207733Y-87658911D01*
X157239878Y-87655440D01*
X157264013Y-87649632D01*
X157282924Y-87640943D01*
X157299398Y-87628824D01*
X157306758Y-87622107D01*
X157329290Y-87600611D01*
X157329290Y-86777905D01*
X157350084Y-86772687D01*
X157361496Y-86770372D01*
X157371697Y-86771000D01*
X157383512Y-86776168D01*
X157399769Y-86787473D01*
X157423294Y-86806511D01*
X157450430Y-86829387D01*
X157508452Y-86878548D01*
X157509548Y-87367798D01*
X157452193Y-87429213D01*
X157424777Y-87459579D01*
X157407404Y-87481809D01*
X157398107Y-87498914D01*
X157394917Y-87513904D01*
X157394838Y-87516930D01*
X157402471Y-87546935D01*
X157423603Y-87572323D01*
X157455589Y-87591274D01*
X157495783Y-87601971D01*
X157521042Y-87603677D01*
X157548854Y-87602203D01*
X157572708Y-87596531D01*
X157596021Y-87584788D01*
X157622210Y-87565101D01*
X157654691Y-87535595D01*
X157667217Y-87523536D01*
X157692002Y-87499611D01*
X157712136Y-87479472D01*
X157728100Y-87461134D01*
X157740372Y-87442616D01*
X157749433Y-87421936D01*
X157755762Y-87397110D01*
X157759837Y-87366156D01*
X157762140Y-87327092D01*
X157763148Y-87277935D01*
X157763342Y-87216702D01*
X157763201Y-87141412D01*
X157763178Y-87126730D01*
X157763046Y-87052586D01*
X157762796Y-86992970D01*
X157762316Y-86946025D01*
X157761491Y-86909890D01*
X157760209Y-86882709D01*
X157758355Y-86862621D01*
X157755815Y-86847769D01*
X157752478Y-86836294D01*
X157748228Y-86826337D01*
X157744360Y-86818722D01*
X157727858Y-86795153D01*
X157700830Y-86765360D01*
X157666376Y-86732223D01*
X157627594Y-86698620D01*
X157587585Y-86667431D01*
X157562806Y-86650092D01*
X157539926Y-86635403D01*
X157518861Y-86623631D01*
X157497470Y-86614456D01*
X157473615Y-86607555D01*
X157445153Y-86602607D01*
X157409947Y-86599289D01*
X157365854Y-86597280D01*
X157310736Y-86596258D01*
X157242452Y-86595901D01*
X157202318Y-86595871D01*
X157121173Y-86596020D01*
X157054182Y-86596929D01*
X157048652Y-86597165D01*
X157048652Y-86769164D01*
X157062329Y-86772909D01*
X157065493Y-86775510D01*
X157068102Y-86781615D01*
X157070210Y-86792652D01*
X157071869Y-86810051D01*
X157073130Y-86835241D01*
X157074045Y-86869651D01*
X157074667Y-86914712D01*
X157075047Y-86971852D01*
X157075237Y-87042502D01*
X157075290Y-87128090D01*
X157075290Y-87480774D01*
X157052731Y-87480774D01*
X157033393Y-87475367D01*
X157005369Y-87458752D01*
X156967660Y-87430333D01*
X156966706Y-87429564D01*
X156903241Y-87378355D01*
X156903233Y-87127407D01*
X156903225Y-86876460D01*
X156963854Y-86822198D01*
X156994785Y-86795342D01*
X157017196Y-86778569D01*
X157034136Y-86770351D01*
X157048652Y-86769164D01*
X157048652Y-86597165D01*
X156999112Y-86599288D01*
X156953731Y-86603789D01*
X156915806Y-86611123D01*
X156883104Y-86621982D01*
X156853393Y-86637056D01*
X156824438Y-86657038D01*
X156794008Y-86682619D01*
X156759871Y-86714489D01*
X156731966Y-86741500D01*
X156698758Y-86774678D01*
X156675857Y-86800067D01*
X156661080Y-86820487D01*
X156652247Y-86838761D01*
X156649230Y-86848542D01*
X156646183Y-86869735D01*
X156643968Y-86906697D01*
X156642582Y-86959566D01*
X156642021Y-87028479D01*
X156642282Y-87113572D01*
X156642282Y-87113572D01*
G37*
X156642282Y-87113572D02*
X156642571Y-87147606D01*
X156643258Y-87224002D01*
X156644060Y-87286020D01*
X156645543Y-87335664D01*
X156648272Y-87374937D01*
X156652812Y-87405841D01*
X156659728Y-87430382D01*
X156669585Y-87450560D01*
X156682950Y-87468381D01*
X156700386Y-87485847D01*
X156722459Y-87504961D01*
X156749735Y-87527728D01*
X156749850Y-87527824D01*
X156800317Y-87569540D01*
X156842128Y-87601518D01*
X156878748Y-87625046D01*
X156913644Y-87641413D01*
X156950281Y-87651906D01*
X156992127Y-87657815D01*
X157042646Y-87660428D01*
X157105306Y-87661032D01*
X157108261Y-87661032D01*
X157164789Y-87660593D01*
X157207733Y-87658911D01*
X157239878Y-87655440D01*
X157264013Y-87649632D01*
X157282924Y-87640943D01*
X157299398Y-87628824D01*
X157306758Y-87622107D01*
X157329290Y-87600611D01*
X157329290Y-86777905D01*
X157350084Y-86772687D01*
X157361496Y-86770372D01*
X157371697Y-86771000D01*
X157383512Y-86776168D01*
X157399769Y-86787473D01*
X157423294Y-86806511D01*
X157450430Y-86829387D01*
X157508452Y-86878548D01*
X157509548Y-87367798D01*
X157452193Y-87429213D01*
X157424777Y-87459579D01*
X157407404Y-87481809D01*
X157398107Y-87498914D01*
X157394917Y-87513904D01*
X157394838Y-87516930D01*
X157402471Y-87546935D01*
X157423603Y-87572323D01*
X157455589Y-87591274D01*
X157495783Y-87601971D01*
X157521042Y-87603677D01*
X157548854Y-87602203D01*
X157572708Y-87596531D01*
X157596021Y-87584788D01*
X157622210Y-87565101D01*
X157654691Y-87535595D01*
X157667217Y-87523536D01*
X157692002Y-87499611D01*
X157712136Y-87479472D01*
X157728100Y-87461134D01*
X157740372Y-87442616D01*
X157749433Y-87421936D01*
X157755762Y-87397110D01*
X157759837Y-87366156D01*
X157762140Y-87327092D01*
X157763148Y-87277935D01*
X157763342Y-87216702D01*
X157763201Y-87141412D01*
X157763178Y-87126730D01*
X157763046Y-87052586D01*
X157762796Y-86992970D01*
X157762316Y-86946025D01*
X157761491Y-86909890D01*
X157760209Y-86882709D01*
X157758355Y-86862621D01*
X157755815Y-86847769D01*
X157752478Y-86836294D01*
X157748228Y-86826337D01*
X157744360Y-86818722D01*
X157727858Y-86795153D01*
X157700830Y-86765360D01*
X157666376Y-86732223D01*
X157627594Y-86698620D01*
X157587585Y-86667431D01*
X157562806Y-86650092D01*
X157539926Y-86635403D01*
X157518861Y-86623631D01*
X157497470Y-86614456D01*
X157473615Y-86607555D01*
X157445153Y-86602607D01*
X157409947Y-86599289D01*
X157365854Y-86597280D01*
X157310736Y-86596258D01*
X157242452Y-86595901D01*
X157202318Y-86595871D01*
X157121173Y-86596020D01*
X157054182Y-86596929D01*
X157048652Y-86597165D01*
X157048652Y-86769164D01*
X157062329Y-86772909D01*
X157065493Y-86775510D01*
X157068102Y-86781615D01*
X157070210Y-86792652D01*
X157071869Y-86810051D01*
X157073130Y-86835241D01*
X157074045Y-86869651D01*
X157074667Y-86914712D01*
X157075047Y-86971852D01*
X157075237Y-87042502D01*
X157075290Y-87128090D01*
X157075290Y-87480774D01*
X157052731Y-87480774D01*
X157033393Y-87475367D01*
X157005369Y-87458752D01*
X156967660Y-87430333D01*
X156966706Y-87429564D01*
X156903241Y-87378355D01*
X156903233Y-87127407D01*
X156903225Y-86876460D01*
X156963854Y-86822198D01*
X156994785Y-86795342D01*
X157017196Y-86778569D01*
X157034136Y-86770351D01*
X157048652Y-86769164D01*
X157048652Y-86597165D01*
X156999112Y-86599288D01*
X156953731Y-86603789D01*
X156915806Y-86611123D01*
X156883104Y-86621982D01*
X156853393Y-86637056D01*
X156824438Y-86657038D01*
X156794008Y-86682619D01*
X156759871Y-86714489D01*
X156731966Y-86741500D01*
X156698758Y-86774678D01*
X156675857Y-86800067D01*
X156661080Y-86820487D01*
X156652247Y-86838761D01*
X156649230Y-86848542D01*
X156646183Y-86869735D01*
X156643968Y-86906697D01*
X156642582Y-86959566D01*
X156642021Y-87028479D01*
X156642282Y-87113572D01*
G36*
X156650679Y-92246494D02*
G01*
X156652465Y-92289102D01*
X156656099Y-92323047D01*
X156662097Y-92350258D01*
X156670975Y-92372666D01*
X156683249Y-92392201D01*
X156699437Y-92410793D01*
X156720054Y-92430372D01*
X156745617Y-92452870D01*
X156764017Y-92468991D01*
X156800932Y-92501013D01*
X156833353Y-92527026D01*
X156863557Y-92547651D01*
X156893819Y-92563514D01*
X156926418Y-92575236D01*
X156963628Y-92583440D01*
X157007726Y-92588750D01*
X157060989Y-92591788D01*
X157125693Y-92593179D01*
X157204115Y-92593543D01*
X157219116Y-92593548D01*
X157291737Y-92593363D01*
X157350310Y-92592606D01*
X157397170Y-92590975D01*
X157434652Y-92588167D01*
X157465093Y-92583881D01*
X157490829Y-92577814D01*
X157514195Y-92569664D01*
X157537527Y-92559129D01*
X157555327Y-92550049D01*
X157575046Y-92536749D01*
X157602093Y-92514598D01*
X157633427Y-92486537D01*
X157666008Y-92455508D01*
X157696797Y-92424453D01*
X157722753Y-92396312D01*
X157740836Y-92374027D01*
X157746406Y-92365171D01*
X157751978Y-92351543D01*
X157756228Y-92334089D01*
X157759424Y-92310220D01*
X157761832Y-92277349D01*
X157763719Y-92232886D01*
X157765118Y-92183871D01*
X157766138Y-92122283D01*
X157766432Y-92053731D01*
X157766021Y-91984929D01*
X157764927Y-91922589D01*
X157764172Y-91897097D01*
X157762225Y-91846259D01*
X157760203Y-91808991D01*
X157757702Y-91782477D01*
X157754316Y-91763902D01*
X157749642Y-91750452D01*
X157743275Y-91739311D01*
X157741016Y-91736058D01*
X157729178Y-91718315D01*
X157722890Y-91706656D01*
X157722580Y-91705332D01*
X157730357Y-91703819D01*
X157752020Y-91702493D01*
X157785070Y-91701430D01*
X157827006Y-91700710D01*
X157875329Y-91700410D01*
X157880306Y-91700406D01*
X157931729Y-91699952D01*
X157979490Y-91698719D01*
X158020397Y-91696851D01*
X158051257Y-91694494D01*
X158068744Y-91691831D01*
X158104668Y-91675876D01*
X158130363Y-91652338D01*
X158144092Y-91623999D01*
X158144119Y-91593641D01*
X158138897Y-91579451D01*
X158126013Y-91563202D01*
X158105683Y-91546192D01*
X158100215Y-91542580D01*
X158070806Y-91524290D01*
X157391387Y-91524290D01*
X157391387Y-91700452D01*
X157450467Y-91754373D01*
X157509548Y-91808295D01*
X157509548Y-92305240D01*
X157451196Y-92359265D01*
X157392843Y-92413290D01*
X157028955Y-92413290D01*
X156903225Y-92303420D01*
X156903225Y-91808704D01*
X157030225Y-91700648D01*
X157391387Y-91700452D01*
X157391387Y-91524290D01*
X156948290Y-91524290D01*
X156895032Y-91550496D01*
X156861407Y-91570228D01*
X156821004Y-91598764D01*
X156777978Y-91632699D01*
X156736481Y-91668629D01*
X156700670Y-91703150D01*
X156678611Y-91727830D01*
X156653322Y-91759305D01*
X156651243Y-92047378D01*
X156650584Y-92127562D01*
X156650224Y-92193290D01*
X156650679Y-92246494D01*
X156650679Y-92246494D01*
G37*
X156650679Y-92246494D02*
X156652465Y-92289102D01*
X156656099Y-92323047D01*
X156662097Y-92350258D01*
X156670975Y-92372666D01*
X156683249Y-92392201D01*
X156699437Y-92410793D01*
X156720054Y-92430372D01*
X156745617Y-92452870D01*
X156764017Y-92468991D01*
X156800932Y-92501013D01*
X156833353Y-92527026D01*
X156863557Y-92547651D01*
X156893819Y-92563514D01*
X156926418Y-92575236D01*
X156963628Y-92583440D01*
X157007726Y-92588750D01*
X157060989Y-92591788D01*
X157125693Y-92593179D01*
X157204115Y-92593543D01*
X157219116Y-92593548D01*
X157291737Y-92593363D01*
X157350310Y-92592606D01*
X157397170Y-92590975D01*
X157434652Y-92588167D01*
X157465093Y-92583881D01*
X157490829Y-92577814D01*
X157514195Y-92569664D01*
X157537527Y-92559129D01*
X157555327Y-92550049D01*
X157575046Y-92536749D01*
X157602093Y-92514598D01*
X157633427Y-92486537D01*
X157666008Y-92455508D01*
X157696797Y-92424453D01*
X157722753Y-92396312D01*
X157740836Y-92374027D01*
X157746406Y-92365171D01*
X157751978Y-92351543D01*
X157756228Y-92334089D01*
X157759424Y-92310220D01*
X157761832Y-92277349D01*
X157763719Y-92232886D01*
X157765118Y-92183871D01*
X157766138Y-92122283D01*
X157766432Y-92053731D01*
X157766021Y-91984929D01*
X157764927Y-91922589D01*
X157764172Y-91897097D01*
X157762225Y-91846259D01*
X157760203Y-91808991D01*
X157757702Y-91782477D01*
X157754316Y-91763902D01*
X157749642Y-91750452D01*
X157743275Y-91739311D01*
X157741016Y-91736058D01*
X157729178Y-91718315D01*
X157722890Y-91706656D01*
X157722580Y-91705332D01*
X157730357Y-91703819D01*
X157752020Y-91702493D01*
X157785070Y-91701430D01*
X157827006Y-91700710D01*
X157875329Y-91700410D01*
X157880306Y-91700406D01*
X157931729Y-91699952D01*
X157979490Y-91698719D01*
X158020397Y-91696851D01*
X158051257Y-91694494D01*
X158068744Y-91691831D01*
X158104668Y-91675876D01*
X158130363Y-91652338D01*
X158144092Y-91623999D01*
X158144119Y-91593641D01*
X158138897Y-91579451D01*
X158126013Y-91563202D01*
X158105683Y-91546192D01*
X158100215Y-91542580D01*
X158070806Y-91524290D01*
X157391387Y-91524290D01*
X157391387Y-91700452D01*
X157450467Y-91754373D01*
X157509548Y-91808295D01*
X157509548Y-92305240D01*
X157451196Y-92359265D01*
X157392843Y-92413290D01*
X157028955Y-92413290D01*
X156903225Y-92303420D01*
X156903225Y-91808704D01*
X157030225Y-91700648D01*
X157391387Y-91700452D01*
X157391387Y-91524290D01*
X156948290Y-91524290D01*
X156895032Y-91550496D01*
X156861407Y-91570228D01*
X156821004Y-91598764D01*
X156777978Y-91632699D01*
X156736481Y-91668629D01*
X156700670Y-91703150D01*
X156678611Y-91727830D01*
X156653322Y-91759305D01*
X156651243Y-92047378D01*
X156650584Y-92127562D01*
X156650224Y-92193290D01*
X156650679Y-92246494D01*
G36*
X126739445Y-109722035D02*
G01*
X126763914Y-109786749D01*
X126787715Y-109849690D01*
X126810719Y-109910517D01*
X126832797Y-109968890D01*
X126853822Y-110024470D01*
X126873663Y-110076915D01*
X126892193Y-110125887D01*
X126909282Y-110171045D01*
X126924802Y-110212048D01*
X126938625Y-110248557D01*
X126950621Y-110280232D01*
X126960661Y-110306732D01*
X126968618Y-110327718D01*
X126974362Y-110342849D01*
X126977765Y-110351785D01*
X126978702Y-110354214D01*
X126978806Y-110350861D01*
X126978910Y-110340372D01*
X126979013Y-110322865D01*
X126979115Y-110298463D01*
X126979215Y-110267285D01*
X126979315Y-110229451D01*
X126979413Y-110185083D01*
X126979511Y-110134299D01*
X126979606Y-110077221D01*
X126979701Y-110013969D01*
X126979794Y-109944663D01*
X126979886Y-109869423D01*
X126979975Y-109788371D01*
X126980064Y-109701625D01*
X126980151Y-109609307D01*
X126980236Y-109511537D01*
X126980319Y-109408435D01*
X126980400Y-109300122D01*
X126980479Y-109186717D01*
X126980557Y-109068341D01*
X126980632Y-108945115D01*
X126980706Y-108817159D01*
X126980777Y-108684593D01*
X126980846Y-108547538D01*
X126980912Y-108406113D01*
X126980977Y-108260440D01*
X126981038Y-108110638D01*
X126981098Y-107956827D01*
X126981155Y-107799129D01*
X126981209Y-107637664D01*
X126981261Y-107472551D01*
X126981310Y-107303911D01*
X126981356Y-107131865D01*
X126981399Y-106956533D01*
X126981440Y-106778035D01*
X126981477Y-106596491D01*
X126981512Y-106412022D01*
X126981543Y-106224749D01*
X126981571Y-106034790D01*
X126981596Y-105842268D01*
X126981618Y-105647302D01*
X126981637Y-105450012D01*
X126981652Y-105250519D01*
X126981664Y-105048943D01*
X126981672Y-104845404D01*
X126981677Y-104640024D01*
X126981678Y-104466857D01*
X126981672Y-98572243D01*
X126504986Y-97342877D01*
X126504078Y-103219995D01*
X126503170Y-109097114D01*
X126739445Y-109722035D01*
X126739445Y-109722035D01*
G37*
X126739445Y-109722035D02*
X126763914Y-109786749D01*
X126787715Y-109849690D01*
X126810719Y-109910517D01*
X126832797Y-109968890D01*
X126853822Y-110024470D01*
X126873663Y-110076915D01*
X126892193Y-110125887D01*
X126909282Y-110171045D01*
X126924802Y-110212048D01*
X126938625Y-110248557D01*
X126950621Y-110280232D01*
X126960661Y-110306732D01*
X126968618Y-110327718D01*
X126974362Y-110342849D01*
X126977765Y-110351785D01*
X126978702Y-110354214D01*
X126978806Y-110350861D01*
X126978910Y-110340372D01*
X126979013Y-110322865D01*
X126979115Y-110298463D01*
X126979215Y-110267285D01*
X126979315Y-110229451D01*
X126979413Y-110185083D01*
X126979511Y-110134299D01*
X126979606Y-110077221D01*
X126979701Y-110013969D01*
X126979794Y-109944663D01*
X126979886Y-109869423D01*
X126979975Y-109788371D01*
X126980064Y-109701625D01*
X126980151Y-109609307D01*
X126980236Y-109511537D01*
X126980319Y-109408435D01*
X126980400Y-109300122D01*
X126980479Y-109186717D01*
X126980557Y-109068341D01*
X126980632Y-108945115D01*
X126980706Y-108817159D01*
X126980777Y-108684593D01*
X126980846Y-108547538D01*
X126980912Y-108406113D01*
X126980977Y-108260440D01*
X126981038Y-108110638D01*
X126981098Y-107956827D01*
X126981155Y-107799129D01*
X126981209Y-107637664D01*
X126981261Y-107472551D01*
X126981310Y-107303911D01*
X126981356Y-107131865D01*
X126981399Y-106956533D01*
X126981440Y-106778035D01*
X126981477Y-106596491D01*
X126981512Y-106412022D01*
X126981543Y-106224749D01*
X126981571Y-106034790D01*
X126981596Y-105842268D01*
X126981618Y-105647302D01*
X126981637Y-105450012D01*
X126981652Y-105250519D01*
X126981664Y-105048943D01*
X126981672Y-104845404D01*
X126981677Y-104640024D01*
X126981678Y-104466857D01*
X126981672Y-98572243D01*
X126504986Y-97342877D01*
X126504078Y-103219995D01*
X126503170Y-109097114D01*
X126739445Y-109722035D01*
G36*
X127363586Y-110075485D02*
G01*
X127364707Y-110102574D01*
X127366518Y-110121994D01*
X127375619Y-110172393D01*
X127388907Y-110216878D01*
X127406418Y-110255490D01*
X127428192Y-110288269D01*
X127454266Y-110315257D01*
X127484677Y-110336493D01*
X127519464Y-110352019D01*
X127558665Y-110361876D01*
X127593558Y-110365725D01*
X127629843Y-110367743D01*
X129670915Y-109820879D01*
X129814094Y-109782516D01*
X129950434Y-109745984D01*
X130080104Y-109711236D01*
X130203275Y-109678227D01*
X130320116Y-109646909D01*
X130430798Y-109617238D01*
X130535492Y-109589165D01*
X130634367Y-109562645D01*
X130727593Y-109537632D01*
X130815341Y-109514079D01*
X130897781Y-109491941D01*
X130975084Y-109471170D01*
X131047419Y-109451721D01*
X131114956Y-109433546D01*
X131177867Y-109416601D01*
X131236321Y-109400838D01*
X131290488Y-109386212D01*
X131340539Y-109372675D01*
X131386643Y-109360182D01*
X131428972Y-109348687D01*
X131467695Y-109338143D01*
X131502982Y-109328503D01*
X131535004Y-109319722D01*
X131563931Y-109311753D01*
X131589933Y-109304550D01*
X131613181Y-109298066D01*
X131633844Y-109292256D01*
X131652093Y-109287072D01*
X131668098Y-109282470D01*
X131682029Y-109278401D01*
X131694057Y-109274821D01*
X131704351Y-109271682D01*
X131713083Y-109268939D01*
X131720421Y-109266545D01*
X131726537Y-109264454D01*
X131731601Y-109262620D01*
X131735782Y-109260995D01*
X131739252Y-109259535D01*
X131742180Y-109258192D01*
X131744736Y-109256921D01*
X131745236Y-109256662D01*
X131792892Y-109227946D01*
X131835169Y-109194370D01*
X131872034Y-109155981D01*
X131903454Y-109112826D01*
X131929396Y-109064952D01*
X131949828Y-109012407D01*
X131964715Y-108955237D01*
X131968081Y-108937277D01*
X131970924Y-108916495D01*
X131973380Y-108890550D01*
X131975352Y-108861527D01*
X131976741Y-108831511D01*
X131977449Y-108802586D01*
X131977378Y-108776838D01*
X131976533Y-108757643D01*
X131972322Y-108713290D01*
X131966744Y-108674565D01*
X131959491Y-108639917D01*
X131950257Y-108607793D01*
X131942552Y-108586246D01*
X131923797Y-108546655D01*
X131900233Y-108512426D01*
X131872069Y-108483726D01*
X131839515Y-108460719D01*
X131802782Y-108443571D01*
X131762077Y-108432447D01*
X131744133Y-108429647D01*
X131716557Y-108426223D01*
X129678643Y-108971938D01*
X129534305Y-109010586D01*
X129396806Y-109047398D01*
X129265978Y-109082421D01*
X129141650Y-109115704D01*
X129023654Y-109147293D01*
X128911820Y-109177236D01*
X128805980Y-109205581D01*
X128705964Y-109232375D01*
X128611603Y-109257666D01*
X128522728Y-109281500D01*
X128439170Y-109303927D01*
X128360759Y-109324992D01*
X128287326Y-109344745D01*
X128218702Y-109363231D01*
X128154718Y-109380499D01*
X128095205Y-109396597D01*
X128039993Y-109411571D01*
X127988914Y-109425469D01*
X127941798Y-109438339D01*
X127898476Y-109450229D01*
X127858778Y-109461185D01*
X127822536Y-109471255D01*
X127789581Y-109480488D01*
X127759742Y-109488929D01*
X127732852Y-109496628D01*
X127708741Y-109503631D01*
X127687239Y-109509986D01*
X127668178Y-109515740D01*
X127651388Y-109520941D01*
X127636700Y-109525636D01*
X127623945Y-109529874D01*
X127612954Y-109533700D01*
X127603557Y-109537164D01*
X127595586Y-109540313D01*
X127588871Y-109543193D01*
X127583243Y-109545853D01*
X127578532Y-109548339D01*
X127574571Y-109550701D01*
X127571188Y-109552984D01*
X127568217Y-109555237D01*
X127565486Y-109557507D01*
X127562827Y-109559841D01*
X127560070Y-109562288D01*
X127557048Y-109564894D01*
X127553589Y-109567707D01*
X127551484Y-109569327D01*
X127510785Y-109604504D01*
X127474942Y-109645047D01*
X127443946Y-109690966D01*
X127417794Y-109742272D01*
X127396478Y-109798975D01*
X127379994Y-109861085D01*
X127374015Y-109891571D01*
X127370516Y-109916098D01*
X127367646Y-109945388D01*
X127365462Y-109977705D01*
X127364019Y-110011316D01*
X127363375Y-110044487D01*
X127363586Y-110075485D01*
X127363586Y-110075485D01*
G37*
X127363586Y-110075485D02*
X127364707Y-110102574D01*
X127366518Y-110121994D01*
X127375619Y-110172393D01*
X127388907Y-110216878D01*
X127406418Y-110255490D01*
X127428192Y-110288269D01*
X127454266Y-110315257D01*
X127484677Y-110336493D01*
X127519464Y-110352019D01*
X127558665Y-110361876D01*
X127593558Y-110365725D01*
X127629843Y-110367743D01*
X129670915Y-109820879D01*
X129814094Y-109782516D01*
X129950434Y-109745984D01*
X130080104Y-109711236D01*
X130203275Y-109678227D01*
X130320116Y-109646909D01*
X130430798Y-109617238D01*
X130535492Y-109589165D01*
X130634367Y-109562645D01*
X130727593Y-109537632D01*
X130815341Y-109514079D01*
X130897781Y-109491941D01*
X130975084Y-109471170D01*
X131047419Y-109451721D01*
X131114956Y-109433546D01*
X131177867Y-109416601D01*
X131236321Y-109400838D01*
X131290488Y-109386212D01*
X131340539Y-109372675D01*
X131386643Y-109360182D01*
X131428972Y-109348687D01*
X131467695Y-109338143D01*
X131502982Y-109328503D01*
X131535004Y-109319722D01*
X131563931Y-109311753D01*
X131589933Y-109304550D01*
X131613181Y-109298066D01*
X131633844Y-109292256D01*
X131652093Y-109287072D01*
X131668098Y-109282470D01*
X131682029Y-109278401D01*
X131694057Y-109274821D01*
X131704351Y-109271682D01*
X131713083Y-109268939D01*
X131720421Y-109266545D01*
X131726537Y-109264454D01*
X131731601Y-109262620D01*
X131735782Y-109260995D01*
X131739252Y-109259535D01*
X131742180Y-109258192D01*
X131744736Y-109256921D01*
X131745236Y-109256662D01*
X131792892Y-109227946D01*
X131835169Y-109194370D01*
X131872034Y-109155981D01*
X131903454Y-109112826D01*
X131929396Y-109064952D01*
X131949828Y-109012407D01*
X131964715Y-108955237D01*
X131968081Y-108937277D01*
X131970924Y-108916495D01*
X131973380Y-108890550D01*
X131975352Y-108861527D01*
X131976741Y-108831511D01*
X131977449Y-108802586D01*
X131977378Y-108776838D01*
X131976533Y-108757643D01*
X131972322Y-108713290D01*
X131966744Y-108674565D01*
X131959491Y-108639917D01*
X131950257Y-108607793D01*
X131942552Y-108586246D01*
X131923797Y-108546655D01*
X131900233Y-108512426D01*
X131872069Y-108483726D01*
X131839515Y-108460719D01*
X131802782Y-108443571D01*
X131762077Y-108432447D01*
X131744133Y-108429647D01*
X131716557Y-108426223D01*
X129678643Y-108971938D01*
X129534305Y-109010586D01*
X129396806Y-109047398D01*
X129265978Y-109082421D01*
X129141650Y-109115704D01*
X129023654Y-109147293D01*
X128911820Y-109177236D01*
X128805980Y-109205581D01*
X128705964Y-109232375D01*
X128611603Y-109257666D01*
X128522728Y-109281500D01*
X128439170Y-109303927D01*
X128360759Y-109324992D01*
X128287326Y-109344745D01*
X128218702Y-109363231D01*
X128154718Y-109380499D01*
X128095205Y-109396597D01*
X128039993Y-109411571D01*
X127988914Y-109425469D01*
X127941798Y-109438339D01*
X127898476Y-109450229D01*
X127858778Y-109461185D01*
X127822536Y-109471255D01*
X127789581Y-109480488D01*
X127759742Y-109488929D01*
X127732852Y-109496628D01*
X127708741Y-109503631D01*
X127687239Y-109509986D01*
X127668178Y-109515740D01*
X127651388Y-109520941D01*
X127636700Y-109525636D01*
X127623945Y-109529874D01*
X127612954Y-109533700D01*
X127603557Y-109537164D01*
X127595586Y-109540313D01*
X127588871Y-109543193D01*
X127583243Y-109545853D01*
X127578532Y-109548339D01*
X127574571Y-109550701D01*
X127571188Y-109552984D01*
X127568217Y-109555237D01*
X127565486Y-109557507D01*
X127562827Y-109559841D01*
X127560070Y-109562288D01*
X127557048Y-109564894D01*
X127553589Y-109567707D01*
X127551484Y-109569327D01*
X127510785Y-109604504D01*
X127474942Y-109645047D01*
X127443946Y-109690966D01*
X127417794Y-109742272D01*
X127396478Y-109798975D01*
X127379994Y-109861085D01*
X127374015Y-109891571D01*
X127370516Y-109916098D01*
X127367646Y-109945388D01*
X127365462Y-109977705D01*
X127364019Y-110011316D01*
X127363375Y-110044487D01*
X127363586Y-110075485D01*
G36*
X127366759Y-108856426D02*
G01*
X127372419Y-108899116D01*
X127381169Y-108936996D01*
X127393152Y-108970713D01*
X127408511Y-109000913D01*
X127424054Y-109023942D01*
X127448852Y-109051476D01*
X127477294Y-109073267D01*
X127509792Y-109089515D01*
X127546756Y-109100422D01*
X127588599Y-109106187D01*
X127593558Y-109106518D01*
X127629843Y-109108707D01*
X129670915Y-108561754D01*
X129820312Y-108521716D01*
X129962838Y-108483511D01*
X130098632Y-108447102D01*
X130227835Y-108412451D01*
X130350585Y-108379519D01*
X130467024Y-108348270D01*
X130577292Y-108318664D01*
X130681527Y-108290665D01*
X130779871Y-108264234D01*
X130872463Y-108239333D01*
X130959443Y-108215925D01*
X131040951Y-108193971D01*
X131117128Y-108173434D01*
X131188112Y-108154276D01*
X131254045Y-108136459D01*
X131315066Y-108119944D01*
X131371316Y-108104695D01*
X131422933Y-108090673D01*
X131470059Y-108077841D01*
X131512832Y-108066159D01*
X131551394Y-108055592D01*
X131585884Y-108046099D01*
X131616442Y-108037645D01*
X131643208Y-108030190D01*
X131666323Y-108023698D01*
X131685925Y-108018129D01*
X131702155Y-108013447D01*
X131715154Y-108009612D01*
X131725060Y-108006588D01*
X131732015Y-108004337D01*
X131736158Y-108002820D01*
X131736959Y-108002460D01*
X131776598Y-107980128D01*
X131813209Y-107953494D01*
X131846727Y-107923184D01*
X131880918Y-107885151D01*
X131909642Y-107843900D01*
X131933052Y-107799025D01*
X131951302Y-107750118D01*
X131964542Y-107696772D01*
X131972926Y-107638582D01*
X131976576Y-107576563D01*
X131976951Y-107554865D01*
X131977110Y-107534268D01*
X131977052Y-107516500D01*
X131976779Y-107503289D01*
X131976533Y-107498528D01*
X131970812Y-107443320D01*
X131962445Y-107394438D01*
X131951259Y-107351385D01*
X131937078Y-107313663D01*
X131919729Y-107280776D01*
X131899037Y-107252225D01*
X131884755Y-107236782D01*
X131857200Y-107213106D01*
X131827604Y-107194994D01*
X131794598Y-107181783D01*
X131756812Y-107172812D01*
X131750086Y-107171703D01*
X131719243Y-107166893D01*
X129679986Y-107712832D01*
X129521400Y-107755294D01*
X129369754Y-107795911D01*
X129224972Y-107834703D01*
X129086981Y-107871690D01*
X128955707Y-107906891D01*
X128831075Y-107940328D01*
X128713011Y-107972020D01*
X128601441Y-108001987D01*
X128496292Y-108030249D01*
X128397487Y-108056826D01*
X128304954Y-108081739D01*
X128218619Y-108105007D01*
X128138406Y-108126650D01*
X128064242Y-108146688D01*
X127996053Y-108165142D01*
X127933765Y-108182031D01*
X127877302Y-108197376D01*
X127826592Y-108211196D01*
X127781559Y-108223512D01*
X127742131Y-108234344D01*
X127708231Y-108243711D01*
X127679787Y-108251634D01*
X127656724Y-108258132D01*
X127638968Y-108263226D01*
X127626445Y-108266937D01*
X127619080Y-108269282D01*
X127617143Y-108270026D01*
X127574977Y-108293959D01*
X127535039Y-108324141D01*
X127498167Y-108359696D01*
X127465202Y-108399749D01*
X127436984Y-108443424D01*
X127421171Y-108474235D01*
X127401322Y-108523362D01*
X127385840Y-108575655D01*
X127374566Y-108631890D01*
X127367342Y-108692847D01*
X127364129Y-108754023D01*
X127364043Y-108808277D01*
X127366759Y-108856426D01*
X127366759Y-108856426D01*
G37*
X127366759Y-108856426D02*
X127372419Y-108899116D01*
X127381169Y-108936996D01*
X127393152Y-108970713D01*
X127408511Y-109000913D01*
X127424054Y-109023942D01*
X127448852Y-109051476D01*
X127477294Y-109073267D01*
X127509792Y-109089515D01*
X127546756Y-109100422D01*
X127588599Y-109106187D01*
X127593558Y-109106518D01*
X127629843Y-109108707D01*
X129670915Y-108561754D01*
X129820312Y-108521716D01*
X129962838Y-108483511D01*
X130098632Y-108447102D01*
X130227835Y-108412451D01*
X130350585Y-108379519D01*
X130467024Y-108348270D01*
X130577292Y-108318664D01*
X130681527Y-108290665D01*
X130779871Y-108264234D01*
X130872463Y-108239333D01*
X130959443Y-108215925D01*
X131040951Y-108193971D01*
X131117128Y-108173434D01*
X131188112Y-108154276D01*
X131254045Y-108136459D01*
X131315066Y-108119944D01*
X131371316Y-108104695D01*
X131422933Y-108090673D01*
X131470059Y-108077841D01*
X131512832Y-108066159D01*
X131551394Y-108055592D01*
X131585884Y-108046099D01*
X131616442Y-108037645D01*
X131643208Y-108030190D01*
X131666323Y-108023698D01*
X131685925Y-108018129D01*
X131702155Y-108013447D01*
X131715154Y-108009612D01*
X131725060Y-108006588D01*
X131732015Y-108004337D01*
X131736158Y-108002820D01*
X131736959Y-108002460D01*
X131776598Y-107980128D01*
X131813209Y-107953494D01*
X131846727Y-107923184D01*
X131880918Y-107885151D01*
X131909642Y-107843900D01*
X131933052Y-107799025D01*
X131951302Y-107750118D01*
X131964542Y-107696772D01*
X131972926Y-107638582D01*
X131976576Y-107576563D01*
X131976951Y-107554865D01*
X131977110Y-107534268D01*
X131977052Y-107516500D01*
X131976779Y-107503289D01*
X131976533Y-107498528D01*
X131970812Y-107443320D01*
X131962445Y-107394438D01*
X131951259Y-107351385D01*
X131937078Y-107313663D01*
X131919729Y-107280776D01*
X131899037Y-107252225D01*
X131884755Y-107236782D01*
X131857200Y-107213106D01*
X131827604Y-107194994D01*
X131794598Y-107181783D01*
X131756812Y-107172812D01*
X131750086Y-107171703D01*
X131719243Y-107166893D01*
X129679986Y-107712832D01*
X129521400Y-107755294D01*
X129369754Y-107795911D01*
X129224972Y-107834703D01*
X129086981Y-107871690D01*
X128955707Y-107906891D01*
X128831075Y-107940328D01*
X128713011Y-107972020D01*
X128601441Y-108001987D01*
X128496292Y-108030249D01*
X128397487Y-108056826D01*
X128304954Y-108081739D01*
X128218619Y-108105007D01*
X128138406Y-108126650D01*
X128064242Y-108146688D01*
X127996053Y-108165142D01*
X127933765Y-108182031D01*
X127877302Y-108197376D01*
X127826592Y-108211196D01*
X127781559Y-108223512D01*
X127742131Y-108234344D01*
X127708231Y-108243711D01*
X127679787Y-108251634D01*
X127656724Y-108258132D01*
X127638968Y-108263226D01*
X127626445Y-108266937D01*
X127619080Y-108269282D01*
X127617143Y-108270026D01*
X127574977Y-108293959D01*
X127535039Y-108324141D01*
X127498167Y-108359696D01*
X127465202Y-108399749D01*
X127436984Y-108443424D01*
X127421171Y-108474235D01*
X127401322Y-108523362D01*
X127385840Y-108575655D01*
X127374566Y-108631890D01*
X127367342Y-108692847D01*
X127364129Y-108754023D01*
X127364043Y-108808277D01*
X127366759Y-108856426D01*
G36*
X127405790Y-107652906D02*
G01*
X127424353Y-107686097D01*
X127447599Y-107715679D01*
X127474457Y-107740491D01*
X127503855Y-107759377D01*
X127504534Y-107759723D01*
X127539130Y-107773555D01*
X127578788Y-107782727D01*
X127623016Y-107787249D01*
X127671320Y-107787130D01*
X127723208Y-107782382D01*
X127778188Y-107773014D01*
X127835766Y-107759037D01*
X127858255Y-107752509D01*
X127915924Y-107733340D01*
X127967125Y-107712649D01*
X128012555Y-107690069D01*
X128052909Y-107665233D01*
X128088886Y-107637774D01*
X128107324Y-107621167D01*
X128137329Y-107589267D01*
X128160973Y-107556523D01*
X128179127Y-107521490D01*
X128192661Y-107482719D01*
X128194277Y-107476757D01*
X128195620Y-107471527D01*
X128196790Y-107466417D01*
X128197795Y-107460929D01*
X128198643Y-107454566D01*
X128199342Y-107446829D01*
X128199898Y-107437222D01*
X128200319Y-107425245D01*
X128200614Y-107410402D01*
X128200789Y-107392194D01*
X128200851Y-107370124D01*
X128200810Y-107343694D01*
X128200671Y-107312407D01*
X128200442Y-107275764D01*
X128200132Y-107233267D01*
X128199747Y-107184420D01*
X128199382Y-107139291D01*
X128196871Y-106830853D01*
X128635039Y-106056162D01*
X128674397Y-105986589D01*
X128712842Y-105918655D01*
X128750219Y-105852631D01*
X128786373Y-105788790D01*
X128821151Y-105727405D01*
X128854397Y-105668748D01*
X128885956Y-105613091D01*
X128915675Y-105560707D01*
X128943398Y-105511868D01*
X128968970Y-105466846D01*
X128992238Y-105425913D01*
X129013046Y-105389343D01*
X129031240Y-105357407D01*
X129046665Y-105330377D01*
X129059166Y-105308527D01*
X129068589Y-105292128D01*
X129074779Y-105281453D01*
X129077582Y-105276774D01*
X129077716Y-105276589D01*
X129079079Y-105276481D01*
X129082399Y-105277188D01*
X129087879Y-105278786D01*
X129095719Y-105281354D01*
X129106120Y-105284971D01*
X129119283Y-105289713D01*
X129135410Y-105295660D01*
X129154701Y-105302888D01*
X129177357Y-105311478D01*
X129203580Y-105321505D01*
X129233570Y-105333049D01*
X129267529Y-105346188D01*
X129305658Y-105360999D01*
X129348157Y-105377561D01*
X129395228Y-105395952D01*
X129447072Y-105416249D01*
X129503889Y-105438532D01*
X129565882Y-105462877D01*
X129633250Y-105489364D01*
X129706196Y-105518070D01*
X129784920Y-105549073D01*
X129869623Y-105582451D01*
X129960506Y-105618283D01*
X130057770Y-105656646D01*
X130142198Y-105689956D01*
X131202172Y-106108207D01*
X131202172Y-106489937D01*
X131218120Y-106517076D01*
X131243665Y-106554833D01*
X131272463Y-106586400D01*
X131305102Y-106612340D01*
X131338243Y-106631334D01*
X131363408Y-106642404D01*
X131387602Y-106650256D01*
X131412671Y-106655218D01*
X131440461Y-106657617D01*
X131472818Y-106657781D01*
X131484994Y-106657393D01*
X131514728Y-106655673D01*
X131541569Y-106652730D01*
X131567576Y-106648162D01*
X131594810Y-106641563D01*
X131625332Y-106632529D01*
X131645857Y-106625847D01*
X131707020Y-106602524D01*
X131762314Y-106575348D01*
X131811611Y-106544392D01*
X131854782Y-106509733D01*
X131868118Y-106497043D01*
X131901885Y-106459390D01*
X131929119Y-106419800D01*
X131950503Y-106377117D01*
X131966718Y-106330184D01*
X131966821Y-106329815D01*
X131976872Y-106293843D01*
X131976872Y-105550356D01*
X130743760Y-105052845D01*
X130653014Y-105016229D01*
X130563976Y-104980294D01*
X130476881Y-104945136D01*
X130391968Y-104910850D01*
X130309471Y-104877532D01*
X130229629Y-104845278D01*
X130152676Y-104814185D01*
X130078851Y-104784346D01*
X130008390Y-104755859D01*
X129941528Y-104728819D01*
X129878504Y-104703321D01*
X129819553Y-104679462D01*
X129764912Y-104657337D01*
X129714817Y-104637042D01*
X129669506Y-104618673D01*
X129629214Y-104602325D01*
X129594179Y-104588094D01*
X129564636Y-104576076D01*
X129540823Y-104566367D01*
X129522977Y-104559062D01*
X129511333Y-104554258D01*
X129506128Y-104552049D01*
X129505866Y-104551917D01*
X129505872Y-104550001D01*
X129507565Y-104545202D01*
X129511087Y-104537257D01*
X129516579Y-104525898D01*
X129524182Y-104510859D01*
X129534038Y-104491875D01*
X129546289Y-104468678D01*
X129561075Y-104441004D01*
X129578539Y-104408585D01*
X129598822Y-104371156D01*
X129622065Y-104328450D01*
X129648410Y-104280202D01*
X129677998Y-104226145D01*
X129710971Y-104166012D01*
X129711151Y-104165686D01*
X129742759Y-104108100D01*
X129771079Y-104056546D01*
X129796304Y-104010689D01*
X129818626Y-103970193D01*
X129838237Y-103934722D01*
X129855329Y-103903941D01*
X129870096Y-103877513D01*
X129882729Y-103855102D01*
X129893421Y-103836374D01*
X129902364Y-103820991D01*
X129909751Y-103808619D01*
X129915774Y-103798922D01*
X129920625Y-103791564D01*
X129924498Y-103786208D01*
X129927583Y-103782520D01*
X129930074Y-103780163D01*
X129932163Y-103778802D01*
X129933044Y-103778417D01*
X129937547Y-103777077D01*
X129948751Y-103773904D01*
X129966358Y-103768980D01*
X129990070Y-103762388D01*
X130019589Y-103754208D01*
X130054617Y-103744524D01*
X130094854Y-103733418D01*
X130140004Y-103720971D01*
X130189766Y-103707266D01*
X130243844Y-103692385D01*
X130301939Y-103676410D01*
X130363752Y-103659422D01*
X130428986Y-103641505D01*
X130497342Y-103622741D01*
X130568521Y-103603210D01*
X130642226Y-103582996D01*
X130718157Y-103562181D01*
X130796018Y-103540846D01*
X130839315Y-103528986D01*
X130918221Y-103507359D01*
X130995419Y-103486170D01*
X131070607Y-103465503D01*
X131143482Y-103445442D01*
X131213743Y-103426072D01*
X131281087Y-103407475D01*
X131345212Y-103389737D01*
X131405818Y-103372941D01*
X131462601Y-103357171D01*
X131515259Y-103342512D01*
X131563492Y-103329046D01*
X131606996Y-103316859D01*
X131645470Y-103306034D01*
X131678611Y-103296656D01*
X131706118Y-103288808D01*
X131727690Y-103282574D01*
X131743023Y-103278038D01*
X131751815Y-103275285D01*
X131753715Y-103274580D01*
X131777515Y-103261791D01*
X131803940Y-103245015D01*
X131830877Y-103225759D01*
X131856213Y-103205533D01*
X131877562Y-103186117D01*
X131913150Y-103145998D01*
X131942441Y-103102291D01*
X131965447Y-103054969D01*
X131982180Y-103004007D01*
X131992653Y-102949379D01*
X131993009Y-102946581D01*
X131994582Y-102928774D01*
X131995636Y-102906342D01*
X131996146Y-102881690D01*
X131996088Y-102857224D01*
X131995437Y-102835350D01*
X131994285Y-102819486D01*
X131991255Y-102800989D01*
X131986149Y-102779190D01*
X131979741Y-102756823D01*
X131972803Y-102736623D01*
X131967128Y-102723328D01*
X131948079Y-102691157D01*
X131925319Y-102664682D01*
X131898523Y-102643724D01*
X131867368Y-102628105D01*
X131831528Y-102617648D01*
X131790680Y-102612175D01*
X131762786Y-102611207D01*
X131715615Y-102611102D01*
X129679986Y-103156693D01*
X127644358Y-103702283D01*
X127608502Y-103725855D01*
X127563692Y-103758953D01*
X127525178Y-103795330D01*
X127492710Y-103835363D01*
X127466037Y-103879430D01*
X127444908Y-103927908D01*
X127429073Y-103981174D01*
X127424349Y-104002966D01*
X127420568Y-104027237D01*
X127417817Y-104055288D01*
X127416109Y-104085488D01*
X127415460Y-104116202D01*
X127415884Y-104145797D01*
X127417396Y-104172641D01*
X127420010Y-104195100D01*
X127422523Y-104207414D01*
X127436303Y-104247346D01*
X127455339Y-104282275D01*
X127479623Y-104312192D01*
X127509145Y-104337089D01*
X127543895Y-104356956D01*
X127583865Y-104371783D01*
X127594064Y-104374548D01*
X127610317Y-104378394D01*
X127625085Y-104381396D01*
X127636192Y-104383134D01*
X127639896Y-104383400D01*
X127644467Y-104382487D01*
X127655709Y-104379807D01*
X127673275Y-104375450D01*
X127696818Y-104369507D01*
X127725993Y-104362066D01*
X127760455Y-104353217D01*
X127799856Y-104343051D01*
X127843852Y-104331656D01*
X127892095Y-104319123D01*
X127944241Y-104305542D01*
X127999944Y-104291002D01*
X128058857Y-104275593D01*
X128120634Y-104259404D01*
X128184929Y-104242526D01*
X128251398Y-104225048D01*
X128319692Y-104207060D01*
X128325709Y-104205474D01*
X128393988Y-104187479D01*
X128460378Y-104169995D01*
X128524538Y-104153111D01*
X128586131Y-104136915D01*
X128644817Y-104121496D01*
X128700256Y-104106943D01*
X128752109Y-104093345D01*
X128800037Y-104080791D01*
X128843701Y-104069369D01*
X128882762Y-104059168D01*
X128916879Y-104050277D01*
X128945715Y-104042785D01*
X128968929Y-104036780D01*
X128986182Y-104032352D01*
X128997135Y-104029590D01*
X129001450Y-104028581D01*
X129001504Y-104028581D01*
X128999800Y-104031776D01*
X128994639Y-104041090D01*
X128986133Y-104056323D01*
X128974396Y-104077274D01*
X128959540Y-104103745D01*
X128941678Y-104135534D01*
X128920923Y-104172443D01*
X128897386Y-104214270D01*
X128871182Y-104260817D01*
X128842422Y-104311883D01*
X128811219Y-104367269D01*
X128777687Y-104426774D01*
X128741937Y-104490199D01*
X128704082Y-104557343D01*
X128664235Y-104628007D01*
X128622509Y-104701992D01*
X128579016Y-104779095D01*
X128533869Y-104859119D01*
X128487181Y-104941864D01*
X128439064Y-105027128D01*
X128389631Y-105114712D01*
X128338995Y-105204417D01*
X128287268Y-105296043D01*
X128234563Y-105389388D01*
X128202273Y-105446571D01*
X127402125Y-106863528D01*
X127398589Y-107246506D01*
X127395053Y-107629483D01*
X127405790Y-107652906D01*
X127405790Y-107652906D01*
G37*
X127405790Y-107652906D02*
X127424353Y-107686097D01*
X127447599Y-107715679D01*
X127474457Y-107740491D01*
X127503855Y-107759377D01*
X127504534Y-107759723D01*
X127539130Y-107773555D01*
X127578788Y-107782727D01*
X127623016Y-107787249D01*
X127671320Y-107787130D01*
X127723208Y-107782382D01*
X127778188Y-107773014D01*
X127835766Y-107759037D01*
X127858255Y-107752509D01*
X127915924Y-107733340D01*
X127967125Y-107712649D01*
X128012555Y-107690069D01*
X128052909Y-107665233D01*
X128088886Y-107637774D01*
X128107324Y-107621167D01*
X128137329Y-107589267D01*
X128160973Y-107556523D01*
X128179127Y-107521490D01*
X128192661Y-107482719D01*
X128194277Y-107476757D01*
X128195620Y-107471527D01*
X128196790Y-107466417D01*
X128197795Y-107460929D01*
X128198643Y-107454566D01*
X128199342Y-107446829D01*
X128199898Y-107437222D01*
X128200319Y-107425245D01*
X128200614Y-107410402D01*
X128200789Y-107392194D01*
X128200851Y-107370124D01*
X128200810Y-107343694D01*
X128200671Y-107312407D01*
X128200442Y-107275764D01*
X128200132Y-107233267D01*
X128199747Y-107184420D01*
X128199382Y-107139291D01*
X128196871Y-106830853D01*
X128635039Y-106056162D01*
X128674397Y-105986589D01*
X128712842Y-105918655D01*
X128750219Y-105852631D01*
X128786373Y-105788790D01*
X128821151Y-105727405D01*
X128854397Y-105668748D01*
X128885956Y-105613091D01*
X128915675Y-105560707D01*
X128943398Y-105511868D01*
X128968970Y-105466846D01*
X128992238Y-105425913D01*
X129013046Y-105389343D01*
X129031240Y-105357407D01*
X129046665Y-105330377D01*
X129059166Y-105308527D01*
X129068589Y-105292128D01*
X129074779Y-105281453D01*
X129077582Y-105276774D01*
X129077716Y-105276589D01*
X129079079Y-105276481D01*
X129082399Y-105277188D01*
X129087879Y-105278786D01*
X129095719Y-105281354D01*
X129106120Y-105284971D01*
X129119283Y-105289713D01*
X129135410Y-105295660D01*
X129154701Y-105302888D01*
X129177357Y-105311478D01*
X129203580Y-105321505D01*
X129233570Y-105333049D01*
X129267529Y-105346188D01*
X129305658Y-105360999D01*
X129348157Y-105377561D01*
X129395228Y-105395952D01*
X129447072Y-105416249D01*
X129503889Y-105438532D01*
X129565882Y-105462877D01*
X129633250Y-105489364D01*
X129706196Y-105518070D01*
X129784920Y-105549073D01*
X129869623Y-105582451D01*
X129960506Y-105618283D01*
X130057770Y-105656646D01*
X130142198Y-105689956D01*
X131202172Y-106108207D01*
X131202172Y-106489937D01*
X131218120Y-106517076D01*
X131243665Y-106554833D01*
X131272463Y-106586400D01*
X131305102Y-106612340D01*
X131338243Y-106631334D01*
X131363408Y-106642404D01*
X131387602Y-106650256D01*
X131412671Y-106655218D01*
X131440461Y-106657617D01*
X131472818Y-106657781D01*
X131484994Y-106657393D01*
X131514728Y-106655673D01*
X131541569Y-106652730D01*
X131567576Y-106648162D01*
X131594810Y-106641563D01*
X131625332Y-106632529D01*
X131645857Y-106625847D01*
X131707020Y-106602524D01*
X131762314Y-106575348D01*
X131811611Y-106544392D01*
X131854782Y-106509733D01*
X131868118Y-106497043D01*
X131901885Y-106459390D01*
X131929119Y-106419800D01*
X131950503Y-106377117D01*
X131966718Y-106330184D01*
X131966821Y-106329815D01*
X131976872Y-106293843D01*
X131976872Y-105550356D01*
X130743760Y-105052845D01*
X130653014Y-105016229D01*
X130563976Y-104980294D01*
X130476881Y-104945136D01*
X130391968Y-104910850D01*
X130309471Y-104877532D01*
X130229629Y-104845278D01*
X130152676Y-104814185D01*
X130078851Y-104784346D01*
X130008390Y-104755859D01*
X129941528Y-104728819D01*
X129878504Y-104703321D01*
X129819553Y-104679462D01*
X129764912Y-104657337D01*
X129714817Y-104637042D01*
X129669506Y-104618673D01*
X129629214Y-104602325D01*
X129594179Y-104588094D01*
X129564636Y-104576076D01*
X129540823Y-104566367D01*
X129522977Y-104559062D01*
X129511333Y-104554258D01*
X129506128Y-104552049D01*
X129505866Y-104551917D01*
X129505872Y-104550001D01*
X129507565Y-104545202D01*
X129511087Y-104537257D01*
X129516579Y-104525898D01*
X129524182Y-104510859D01*
X129534038Y-104491875D01*
X129546289Y-104468678D01*
X129561075Y-104441004D01*
X129578539Y-104408585D01*
X129598822Y-104371156D01*
X129622065Y-104328450D01*
X129648410Y-104280202D01*
X129677998Y-104226145D01*
X129710971Y-104166012D01*
X129711151Y-104165686D01*
X129742759Y-104108100D01*
X129771079Y-104056546D01*
X129796304Y-104010689D01*
X129818626Y-103970193D01*
X129838237Y-103934722D01*
X129855329Y-103903941D01*
X129870096Y-103877513D01*
X129882729Y-103855102D01*
X129893421Y-103836374D01*
X129902364Y-103820991D01*
X129909751Y-103808619D01*
X129915774Y-103798922D01*
X129920625Y-103791564D01*
X129924498Y-103786208D01*
X129927583Y-103782520D01*
X129930074Y-103780163D01*
X129932163Y-103778802D01*
X129933044Y-103778417D01*
X129937547Y-103777077D01*
X129948751Y-103773904D01*
X129966358Y-103768980D01*
X129990070Y-103762388D01*
X130019589Y-103754208D01*
X130054617Y-103744524D01*
X130094854Y-103733418D01*
X130140004Y-103720971D01*
X130189766Y-103707266D01*
X130243844Y-103692385D01*
X130301939Y-103676410D01*
X130363752Y-103659422D01*
X130428986Y-103641505D01*
X130497342Y-103622741D01*
X130568521Y-103603210D01*
X130642226Y-103582996D01*
X130718157Y-103562181D01*
X130796018Y-103540846D01*
X130839315Y-103528986D01*
X130918221Y-103507359D01*
X130995419Y-103486170D01*
X131070607Y-103465503D01*
X131143482Y-103445442D01*
X131213743Y-103426072D01*
X131281087Y-103407475D01*
X131345212Y-103389737D01*
X131405818Y-103372941D01*
X131462601Y-103357171D01*
X131515259Y-103342512D01*
X131563492Y-103329046D01*
X131606996Y-103316859D01*
X131645470Y-103306034D01*
X131678611Y-103296656D01*
X131706118Y-103288808D01*
X131727690Y-103282574D01*
X131743023Y-103278038D01*
X131751815Y-103275285D01*
X131753715Y-103274580D01*
X131777515Y-103261791D01*
X131803940Y-103245015D01*
X131830877Y-103225759D01*
X131856213Y-103205533D01*
X131877562Y-103186117D01*
X131913150Y-103145998D01*
X131942441Y-103102291D01*
X131965447Y-103054969D01*
X131982180Y-103004007D01*
X131992653Y-102949379D01*
X131993009Y-102946581D01*
X131994582Y-102928774D01*
X131995636Y-102906342D01*
X131996146Y-102881690D01*
X131996088Y-102857224D01*
X131995437Y-102835350D01*
X131994285Y-102819486D01*
X131991255Y-102800989D01*
X131986149Y-102779190D01*
X131979741Y-102756823D01*
X131972803Y-102736623D01*
X131967128Y-102723328D01*
X131948079Y-102691157D01*
X131925319Y-102664682D01*
X131898523Y-102643724D01*
X131867368Y-102628105D01*
X131831528Y-102617648D01*
X131790680Y-102612175D01*
X131762786Y-102611207D01*
X131715615Y-102611102D01*
X129679986Y-103156693D01*
X127644358Y-103702283D01*
X127608502Y-103725855D01*
X127563692Y-103758953D01*
X127525178Y-103795330D01*
X127492710Y-103835363D01*
X127466037Y-103879430D01*
X127444908Y-103927908D01*
X127429073Y-103981174D01*
X127424349Y-104002966D01*
X127420568Y-104027237D01*
X127417817Y-104055288D01*
X127416109Y-104085488D01*
X127415460Y-104116202D01*
X127415884Y-104145797D01*
X127417396Y-104172641D01*
X127420010Y-104195100D01*
X127422523Y-104207414D01*
X127436303Y-104247346D01*
X127455339Y-104282275D01*
X127479623Y-104312192D01*
X127509145Y-104337089D01*
X127543895Y-104356956D01*
X127583865Y-104371783D01*
X127594064Y-104374548D01*
X127610317Y-104378394D01*
X127625085Y-104381396D01*
X127636192Y-104383134D01*
X127639896Y-104383400D01*
X127644467Y-104382487D01*
X127655709Y-104379807D01*
X127673275Y-104375450D01*
X127696818Y-104369507D01*
X127725993Y-104362066D01*
X127760455Y-104353217D01*
X127799856Y-104343051D01*
X127843852Y-104331656D01*
X127892095Y-104319123D01*
X127944241Y-104305542D01*
X127999944Y-104291002D01*
X128058857Y-104275593D01*
X128120634Y-104259404D01*
X128184929Y-104242526D01*
X128251398Y-104225048D01*
X128319692Y-104207060D01*
X128325709Y-104205474D01*
X128393988Y-104187479D01*
X128460378Y-104169995D01*
X128524538Y-104153111D01*
X128586131Y-104136915D01*
X128644817Y-104121496D01*
X128700256Y-104106943D01*
X128752109Y-104093345D01*
X128800037Y-104080791D01*
X128843701Y-104069369D01*
X128882762Y-104059168D01*
X128916879Y-104050277D01*
X128945715Y-104042785D01*
X128968929Y-104036780D01*
X128986182Y-104032352D01*
X128997135Y-104029590D01*
X129001450Y-104028581D01*
X129001504Y-104028581D01*
X128999800Y-104031776D01*
X128994639Y-104041090D01*
X128986133Y-104056323D01*
X128974396Y-104077274D01*
X128959540Y-104103745D01*
X128941678Y-104135534D01*
X128920923Y-104172443D01*
X128897386Y-104214270D01*
X128871182Y-104260817D01*
X128842422Y-104311883D01*
X128811219Y-104367269D01*
X128777687Y-104426774D01*
X128741937Y-104490199D01*
X128704082Y-104557343D01*
X128664235Y-104628007D01*
X128622509Y-104701992D01*
X128579016Y-104779095D01*
X128533869Y-104859119D01*
X128487181Y-104941864D01*
X128439064Y-105027128D01*
X128389631Y-105114712D01*
X128338995Y-105204417D01*
X128287268Y-105296043D01*
X128234563Y-105389388D01*
X128202273Y-105446571D01*
X127402125Y-106863528D01*
X127398589Y-107246506D01*
X127395053Y-107629483D01*
X127405790Y-107652906D01*
G36*
X127406679Y-101433175D02*
G01*
X127406689Y-101520993D01*
X127406711Y-101602725D01*
X127406748Y-101678607D01*
X127406804Y-101748874D01*
X127406882Y-101813759D01*
X127406986Y-101873496D01*
X127407119Y-101928322D01*
X127407284Y-101978469D01*
X127407485Y-102024172D01*
X127407725Y-102065667D01*
X127408009Y-102103187D01*
X127408339Y-102136966D01*
X127408718Y-102167240D01*
X127409151Y-102194242D01*
X127409640Y-102218207D01*
X127410190Y-102239370D01*
X127410803Y-102257965D01*
X127411483Y-102274227D01*
X127412234Y-102288390D01*
X127413059Y-102300687D01*
X127413961Y-102311355D01*
X127414944Y-102320628D01*
X127416012Y-102328738D01*
X127417167Y-102335923D01*
X127418413Y-102342415D01*
X127419754Y-102348449D01*
X127421194Y-102354260D01*
X127422735Y-102360081D01*
X127424381Y-102366149D01*
X127426136Y-102372696D01*
X127426715Y-102374910D01*
X127432461Y-102395169D01*
X127439576Y-102417632D01*
X127446748Y-102438200D01*
X127448487Y-102442803D01*
X127455506Y-102463202D01*
X127459863Y-102480737D01*
X127461115Y-102492065D01*
X127461878Y-102501121D01*
X127464555Y-102511117D01*
X127469728Y-102523611D01*
X127477976Y-102540163D01*
X127481609Y-102547036D01*
X127523870Y-102619089D01*
X127570839Y-102685740D01*
X127622408Y-102746890D01*
X127678470Y-102802444D01*
X127738918Y-102852302D01*
X127803646Y-102896369D01*
X127872547Y-102934546D01*
X127939140Y-102964228D01*
X128007158Y-102988189D01*
X128080136Y-103008077D01*
X128156846Y-103023618D01*
X128236064Y-103034534D01*
X128262659Y-103037083D01*
X128291770Y-103038968D01*
X128326378Y-103040222D01*
X128364754Y-103040856D01*
X128405165Y-103040881D01*
X128445880Y-103040308D01*
X128485170Y-103039148D01*
X128521302Y-103037412D01*
X128550720Y-103035275D01*
X128616815Y-103029402D01*
X128825458Y-102973630D01*
X128865013Y-102963114D01*
X128904017Y-102952853D01*
X128941634Y-102943059D01*
X128977025Y-102933947D01*
X129009352Y-102925730D01*
X129037778Y-102918621D01*
X129061465Y-102912833D01*
X129079575Y-102908580D01*
X129088529Y-102906622D01*
X129161489Y-102889960D01*
X129236429Y-102869847D01*
X129308058Y-102847795D01*
X129419928Y-102807358D01*
X129527892Y-102760951D01*
X129631997Y-102708534D01*
X129732289Y-102650068D01*
X129828813Y-102585515D01*
X129921616Y-102514834D01*
X130010744Y-102437987D01*
X130096243Y-102354936D01*
X130178158Y-102265639D01*
X130256537Y-102170059D01*
X130331425Y-102068157D01*
X130402867Y-101959893D01*
X130454363Y-101874243D01*
X130465126Y-101855457D01*
X130473774Y-101839755D01*
X130480921Y-101825689D01*
X130487181Y-101811813D01*
X130493167Y-101796681D01*
X130499492Y-101778848D01*
X130506771Y-101756865D01*
X130514907Y-101731513D01*
X130522715Y-101707315D01*
X130530138Y-101684850D01*
X130536794Y-101665233D01*
X130542300Y-101649580D01*
X130546275Y-101639005D01*
X130547869Y-101635356D01*
X130550705Y-101628270D01*
X130554987Y-101615501D01*
X130560301Y-101598382D01*
X130566235Y-101578245D01*
X130572285Y-101556743D01*
X130590736Y-101489614D01*
X130592561Y-100314050D01*
X130594386Y-99138485D01*
X131082429Y-99007594D01*
X131166308Y-98985057D01*
X131243290Y-98964289D01*
X131313506Y-98945254D01*
X131377089Y-98927913D01*
X131434169Y-98912231D01*
X131484878Y-98898172D01*
X131529349Y-98885698D01*
X131567713Y-98874773D01*
X131600101Y-98865360D01*
X131626646Y-98857423D01*
X131647479Y-98850925D01*
X131655743Y-98848221D01*
X131741015Y-98819741D01*
X131775900Y-98789478D01*
X131800270Y-98767437D01*
X131826039Y-98742562D01*
X131851538Y-98716563D01*
X131875103Y-98691153D01*
X131895064Y-98668044D01*
X131899590Y-98662458D01*
X131930514Y-98619643D01*
X131955622Y-98576344D01*
X131974719Y-98533111D01*
X131987612Y-98490494D01*
X131994108Y-98449042D01*
X131994013Y-98409304D01*
X131992728Y-98398201D01*
X131983651Y-98359239D01*
X131967492Y-98319578D01*
X131944362Y-98279484D01*
X131941549Y-98275283D01*
X131931010Y-98261470D01*
X131916349Y-98244572D01*
X131899052Y-98226110D01*
X131880606Y-98207602D01*
X131862499Y-98190569D01*
X131846218Y-98176528D01*
X131840452Y-98172017D01*
X131830473Y-98164931D01*
X131821432Y-98159906D01*
X131811246Y-98156156D01*
X131797834Y-98152899D01*
X131781211Y-98149730D01*
X131742276Y-98142708D01*
X129852974Y-98648854D01*
X129800636Y-98662874D01*
X129800636Y-99351310D01*
X129801089Y-99352417D01*
X129801512Y-99356188D01*
X129801907Y-99362830D01*
X129802275Y-99372550D01*
X129802615Y-99385553D01*
X129802931Y-99402047D01*
X129803221Y-99422237D01*
X129803487Y-99446330D01*
X129803730Y-99474534D01*
X129803950Y-99507053D01*
X129804149Y-99544095D01*
X129804327Y-99585867D01*
X129804486Y-99632574D01*
X129804625Y-99684423D01*
X129804747Y-99741621D01*
X129804851Y-99804374D01*
X129804939Y-99872889D01*
X129805012Y-99947372D01*
X129805070Y-100028030D01*
X129805114Y-100115069D01*
X129805145Y-100208696D01*
X129805164Y-100309116D01*
X129805171Y-100416538D01*
X129805172Y-100443621D01*
X129805169Y-100550406D01*
X129805158Y-100650171D01*
X129805140Y-100743153D01*
X129805112Y-100829590D01*
X129805074Y-100909718D01*
X129805024Y-100983775D01*
X129804961Y-101051998D01*
X129804884Y-101114624D01*
X129804792Y-101171890D01*
X129804684Y-101224033D01*
X129804558Y-101271291D01*
X129804414Y-101313901D01*
X129804250Y-101352099D01*
X129804065Y-101386123D01*
X129803858Y-101416211D01*
X129803627Y-101442599D01*
X129803373Y-101465524D01*
X129803093Y-101485224D01*
X129802786Y-101501936D01*
X129802451Y-101515896D01*
X129802088Y-101527343D01*
X129801694Y-101536513D01*
X129801269Y-101543644D01*
X129800811Y-101548972D01*
X129800320Y-101552735D01*
X129799795Y-101555170D01*
X129799768Y-101555259D01*
X129796906Y-101568570D01*
X129794932Y-101585145D01*
X129794325Y-101598665D01*
X129791296Y-101628077D01*
X129782326Y-101661473D01*
X129767462Y-101698738D01*
X129746753Y-101739760D01*
X129720246Y-101784424D01*
X129706798Y-101805143D01*
X129658485Y-101871484D01*
X129605299Y-101932500D01*
X129547205Y-101988217D01*
X129484167Y-102038662D01*
X129416149Y-102083859D01*
X129343116Y-102123837D01*
X129265032Y-102158619D01*
X129189248Y-102185879D01*
X129169056Y-102192689D01*
X129145313Y-102201162D01*
X129121163Y-102210154D01*
X129102163Y-102217552D01*
X129029356Y-102245131D01*
X128960607Y-102267892D01*
X128894843Y-102286144D01*
X128830990Y-102300201D01*
X128796429Y-102306235D01*
X128772580Y-102309276D01*
X128744497Y-102311673D01*
X128714041Y-102313370D01*
X128683077Y-102314314D01*
X128653467Y-102314452D01*
X128627074Y-102313729D01*
X128605761Y-102312093D01*
X128603407Y-102311803D01*
X128542957Y-102300832D01*
X128486574Y-102284115D01*
X128434056Y-102261511D01*
X128385203Y-102232878D01*
X128339812Y-102198075D01*
X128297683Y-102156961D01*
X128258614Y-102109396D01*
X128222404Y-102055237D01*
X128211979Y-102037528D01*
X128199529Y-102015757D01*
X128197189Y-101090471D01*
X128196898Y-100980631D01*
X128196600Y-100877950D01*
X128196294Y-100782331D01*
X128195980Y-100693677D01*
X128195656Y-100611891D01*
X128195322Y-100536875D01*
X128194977Y-100468531D01*
X128194621Y-100406763D01*
X128194253Y-100351473D01*
X128193873Y-100302563D01*
X128193479Y-100259936D01*
X128193072Y-100223494D01*
X128192649Y-100193141D01*
X128192212Y-100168779D01*
X128191759Y-100150310D01*
X128191289Y-100137637D01*
X128190809Y-100130714D01*
X128189888Y-100119593D01*
X128188942Y-100102190D01*
X128188001Y-100079481D01*
X128187097Y-100052442D01*
X128186261Y-100022047D01*
X128185524Y-99989272D01*
X128184918Y-99955093D01*
X128184705Y-99940214D01*
X128182641Y-99784186D01*
X128989371Y-99568505D01*
X129064125Y-99548518D01*
X129137047Y-99529018D01*
X129207825Y-99510090D01*
X129276148Y-99491815D01*
X129341703Y-99474278D01*
X129404180Y-99457562D01*
X129463265Y-99441751D01*
X129518648Y-99426927D01*
X129570018Y-99413176D01*
X129617061Y-99400579D01*
X129659467Y-99389220D01*
X129696924Y-99379184D01*
X129729120Y-99370552D01*
X129755743Y-99363409D01*
X129776482Y-99357839D01*
X129791025Y-99353924D01*
X129799061Y-99351748D01*
X129800636Y-99351310D01*
X129800636Y-98662874D01*
X129714433Y-98685966D01*
X129582724Y-98721245D01*
X129457670Y-98754739D01*
X129339094Y-98786498D01*
X129226819Y-98816573D01*
X129120668Y-98845011D01*
X129020465Y-98871864D01*
X128926032Y-98897180D01*
X128837193Y-98921009D01*
X128753771Y-98943401D01*
X128675589Y-98964405D01*
X128602470Y-98984071D01*
X128534238Y-99002448D01*
X128470715Y-99019586D01*
X128411725Y-99035535D01*
X128357090Y-99050345D01*
X128306635Y-99064064D01*
X128260182Y-99076742D01*
X128217555Y-99088429D01*
X128178576Y-99099175D01*
X128143069Y-99109029D01*
X128110856Y-99118040D01*
X128081762Y-99126259D01*
X128055609Y-99133734D01*
X128032220Y-99140516D01*
X128011419Y-99146654D01*
X127993028Y-99152198D01*
X127976871Y-99157197D01*
X127962772Y-99161700D01*
X127950552Y-99165758D01*
X127940036Y-99169419D01*
X127931046Y-99172734D01*
X127923406Y-99175752D01*
X127916939Y-99178523D01*
X127911467Y-99181096D01*
X127906815Y-99183521D01*
X127902806Y-99185847D01*
X127899261Y-99188124D01*
X127896006Y-99190402D01*
X127892862Y-99192730D01*
X127889653Y-99195157D01*
X127886202Y-99197734D01*
X127882332Y-99200510D01*
X127880215Y-99201968D01*
X127865376Y-99211040D01*
X127849698Y-99219056D01*
X127836285Y-99224448D01*
X127834858Y-99224878D01*
X127819241Y-99231680D01*
X127799477Y-99244355D01*
X127775621Y-99262858D01*
X127747728Y-99287144D01*
X127715852Y-99317169D01*
X127693323Y-99339440D01*
X127632652Y-99404571D01*
X127577473Y-99472721D01*
X127527244Y-99544691D01*
X127481422Y-99621285D01*
X127439463Y-99703306D01*
X127422983Y-99739293D01*
X127406686Y-99776050D01*
X127406686Y-101016368D01*
X127406684Y-101130869D01*
X127406680Y-101238348D01*
X127406677Y-101339038D01*
X127406679Y-101433175D01*
X127406679Y-101433175D01*
G37*
X127406679Y-101433175D02*
X127406689Y-101520993D01*
X127406711Y-101602725D01*
X127406748Y-101678607D01*
X127406804Y-101748874D01*
X127406882Y-101813759D01*
X127406986Y-101873496D01*
X127407119Y-101928322D01*
X127407284Y-101978469D01*
X127407485Y-102024172D01*
X127407725Y-102065667D01*
X127408009Y-102103187D01*
X127408339Y-102136966D01*
X127408718Y-102167240D01*
X127409151Y-102194242D01*
X127409640Y-102218207D01*
X127410190Y-102239370D01*
X127410803Y-102257965D01*
X127411483Y-102274227D01*
X127412234Y-102288390D01*
X127413059Y-102300687D01*
X127413961Y-102311355D01*
X127414944Y-102320628D01*
X127416012Y-102328738D01*
X127417167Y-102335923D01*
X127418413Y-102342415D01*
X127419754Y-102348449D01*
X127421194Y-102354260D01*
X127422735Y-102360081D01*
X127424381Y-102366149D01*
X127426136Y-102372696D01*
X127426715Y-102374910D01*
X127432461Y-102395169D01*
X127439576Y-102417632D01*
X127446748Y-102438200D01*
X127448487Y-102442803D01*
X127455506Y-102463202D01*
X127459863Y-102480737D01*
X127461115Y-102492065D01*
X127461878Y-102501121D01*
X127464555Y-102511117D01*
X127469728Y-102523611D01*
X127477976Y-102540163D01*
X127481609Y-102547036D01*
X127523870Y-102619089D01*
X127570839Y-102685740D01*
X127622408Y-102746890D01*
X127678470Y-102802444D01*
X127738918Y-102852302D01*
X127803646Y-102896369D01*
X127872547Y-102934546D01*
X127939140Y-102964228D01*
X128007158Y-102988189D01*
X128080136Y-103008077D01*
X128156846Y-103023618D01*
X128236064Y-103034534D01*
X128262659Y-103037083D01*
X128291770Y-103038968D01*
X128326378Y-103040222D01*
X128364754Y-103040856D01*
X128405165Y-103040881D01*
X128445880Y-103040308D01*
X128485170Y-103039148D01*
X128521302Y-103037412D01*
X128550720Y-103035275D01*
X128616815Y-103029402D01*
X128825458Y-102973630D01*
X128865013Y-102963114D01*
X128904017Y-102952853D01*
X128941634Y-102943059D01*
X128977025Y-102933947D01*
X129009352Y-102925730D01*
X129037778Y-102918621D01*
X129061465Y-102912833D01*
X129079575Y-102908580D01*
X129088529Y-102906622D01*
X129161489Y-102889960D01*
X129236429Y-102869847D01*
X129308058Y-102847795D01*
X129419928Y-102807358D01*
X129527892Y-102760951D01*
X129631997Y-102708534D01*
X129732289Y-102650068D01*
X129828813Y-102585515D01*
X129921616Y-102514834D01*
X130010744Y-102437987D01*
X130096243Y-102354936D01*
X130178158Y-102265639D01*
X130256537Y-102170059D01*
X130331425Y-102068157D01*
X130402867Y-101959893D01*
X130454363Y-101874243D01*
X130465126Y-101855457D01*
X130473774Y-101839755D01*
X130480921Y-101825689D01*
X130487181Y-101811813D01*
X130493167Y-101796681D01*
X130499492Y-101778848D01*
X130506771Y-101756865D01*
X130514907Y-101731513D01*
X130522715Y-101707315D01*
X130530138Y-101684850D01*
X130536794Y-101665233D01*
X130542300Y-101649580D01*
X130546275Y-101639005D01*
X130547869Y-101635356D01*
X130550705Y-101628270D01*
X130554987Y-101615501D01*
X130560301Y-101598382D01*
X130566235Y-101578245D01*
X130572285Y-101556743D01*
X130590736Y-101489614D01*
X130592561Y-100314050D01*
X130594386Y-99138485D01*
X131082429Y-99007594D01*
X131166308Y-98985057D01*
X131243290Y-98964289D01*
X131313506Y-98945254D01*
X131377089Y-98927913D01*
X131434169Y-98912231D01*
X131484878Y-98898172D01*
X131529349Y-98885698D01*
X131567713Y-98874773D01*
X131600101Y-98865360D01*
X131626646Y-98857423D01*
X131647479Y-98850925D01*
X131655743Y-98848221D01*
X131741015Y-98819741D01*
X131775900Y-98789478D01*
X131800270Y-98767437D01*
X131826039Y-98742562D01*
X131851538Y-98716563D01*
X131875103Y-98691153D01*
X131895064Y-98668044D01*
X131899590Y-98662458D01*
X131930514Y-98619643D01*
X131955622Y-98576344D01*
X131974719Y-98533111D01*
X131987612Y-98490494D01*
X131994108Y-98449042D01*
X131994013Y-98409304D01*
X131992728Y-98398201D01*
X131983651Y-98359239D01*
X131967492Y-98319578D01*
X131944362Y-98279484D01*
X131941549Y-98275283D01*
X131931010Y-98261470D01*
X131916349Y-98244572D01*
X131899052Y-98226110D01*
X131880606Y-98207602D01*
X131862499Y-98190569D01*
X131846218Y-98176528D01*
X131840452Y-98172017D01*
X131830473Y-98164931D01*
X131821432Y-98159906D01*
X131811246Y-98156156D01*
X131797834Y-98152899D01*
X131781211Y-98149730D01*
X131742276Y-98142708D01*
X129852974Y-98648854D01*
X129800636Y-98662874D01*
X129800636Y-99351310D01*
X129801089Y-99352417D01*
X129801512Y-99356188D01*
X129801907Y-99362830D01*
X129802275Y-99372550D01*
X129802615Y-99385553D01*
X129802931Y-99402047D01*
X129803221Y-99422237D01*
X129803487Y-99446330D01*
X129803730Y-99474534D01*
X129803950Y-99507053D01*
X129804149Y-99544095D01*
X129804327Y-99585867D01*
X129804486Y-99632574D01*
X129804625Y-99684423D01*
X129804747Y-99741621D01*
X129804851Y-99804374D01*
X129804939Y-99872889D01*
X129805012Y-99947372D01*
X129805070Y-100028030D01*
X129805114Y-100115069D01*
X129805145Y-100208696D01*
X129805164Y-100309116D01*
X129805171Y-100416538D01*
X129805172Y-100443621D01*
X129805169Y-100550406D01*
X129805158Y-100650171D01*
X129805140Y-100743153D01*
X129805112Y-100829590D01*
X129805074Y-100909718D01*
X129805024Y-100983775D01*
X129804961Y-101051998D01*
X129804884Y-101114624D01*
X129804792Y-101171890D01*
X129804684Y-101224033D01*
X129804558Y-101271291D01*
X129804414Y-101313901D01*
X129804250Y-101352099D01*
X129804065Y-101386123D01*
X129803858Y-101416211D01*
X129803627Y-101442599D01*
X129803373Y-101465524D01*
X129803093Y-101485224D01*
X129802786Y-101501936D01*
X129802451Y-101515896D01*
X129802088Y-101527343D01*
X129801694Y-101536513D01*
X129801269Y-101543644D01*
X129800811Y-101548972D01*
X129800320Y-101552735D01*
X129799795Y-101555170D01*
X129799768Y-101555259D01*
X129796906Y-101568570D01*
X129794932Y-101585145D01*
X129794325Y-101598665D01*
X129791296Y-101628077D01*
X129782326Y-101661473D01*
X129767462Y-101698738D01*
X129746753Y-101739760D01*
X129720246Y-101784424D01*
X129706798Y-101805143D01*
X129658485Y-101871484D01*
X129605299Y-101932500D01*
X129547205Y-101988217D01*
X129484167Y-102038662D01*
X129416149Y-102083859D01*
X129343116Y-102123837D01*
X129265032Y-102158619D01*
X129189248Y-102185879D01*
X129169056Y-102192689D01*
X129145313Y-102201162D01*
X129121163Y-102210154D01*
X129102163Y-102217552D01*
X129029356Y-102245131D01*
X128960607Y-102267892D01*
X128894843Y-102286144D01*
X128830990Y-102300201D01*
X128796429Y-102306235D01*
X128772580Y-102309276D01*
X128744497Y-102311673D01*
X128714041Y-102313370D01*
X128683077Y-102314314D01*
X128653467Y-102314452D01*
X128627074Y-102313729D01*
X128605761Y-102312093D01*
X128603407Y-102311803D01*
X128542957Y-102300832D01*
X128486574Y-102284115D01*
X128434056Y-102261511D01*
X128385203Y-102232878D01*
X128339812Y-102198075D01*
X128297683Y-102156961D01*
X128258614Y-102109396D01*
X128222404Y-102055237D01*
X128211979Y-102037528D01*
X128199529Y-102015757D01*
X128197189Y-101090471D01*
X128196898Y-100980631D01*
X128196600Y-100877950D01*
X128196294Y-100782331D01*
X128195980Y-100693677D01*
X128195656Y-100611891D01*
X128195322Y-100536875D01*
X128194977Y-100468531D01*
X128194621Y-100406763D01*
X128194253Y-100351473D01*
X128193873Y-100302563D01*
X128193479Y-100259936D01*
X128193072Y-100223494D01*
X128192649Y-100193141D01*
X128192212Y-100168779D01*
X128191759Y-100150310D01*
X128191289Y-100137637D01*
X128190809Y-100130714D01*
X128189888Y-100119593D01*
X128188942Y-100102190D01*
X128188001Y-100079481D01*
X128187097Y-100052442D01*
X128186261Y-100022047D01*
X128185524Y-99989272D01*
X128184918Y-99955093D01*
X128184705Y-99940214D01*
X128182641Y-99784186D01*
X128989371Y-99568505D01*
X129064125Y-99548518D01*
X129137047Y-99529018D01*
X129207825Y-99510090D01*
X129276148Y-99491815D01*
X129341703Y-99474278D01*
X129404180Y-99457562D01*
X129463265Y-99441751D01*
X129518648Y-99426927D01*
X129570018Y-99413176D01*
X129617061Y-99400579D01*
X129659467Y-99389220D01*
X129696924Y-99379184D01*
X129729120Y-99370552D01*
X129755743Y-99363409D01*
X129776482Y-99357839D01*
X129791025Y-99353924D01*
X129799061Y-99351748D01*
X129800636Y-99351310D01*
X129800636Y-98662874D01*
X129714433Y-98685966D01*
X129582724Y-98721245D01*
X129457670Y-98754739D01*
X129339094Y-98786498D01*
X129226819Y-98816573D01*
X129120668Y-98845011D01*
X129020465Y-98871864D01*
X128926032Y-98897180D01*
X128837193Y-98921009D01*
X128753771Y-98943401D01*
X128675589Y-98964405D01*
X128602470Y-98984071D01*
X128534238Y-99002448D01*
X128470715Y-99019586D01*
X128411725Y-99035535D01*
X128357090Y-99050345D01*
X128306635Y-99064064D01*
X128260182Y-99076742D01*
X128217555Y-99088429D01*
X128178576Y-99099175D01*
X128143069Y-99109029D01*
X128110856Y-99118040D01*
X128081762Y-99126259D01*
X128055609Y-99133734D01*
X128032220Y-99140516D01*
X128011419Y-99146654D01*
X127993028Y-99152198D01*
X127976871Y-99157197D01*
X127962772Y-99161700D01*
X127950552Y-99165758D01*
X127940036Y-99169419D01*
X127931046Y-99172734D01*
X127923406Y-99175752D01*
X127916939Y-99178523D01*
X127911467Y-99181096D01*
X127906815Y-99183521D01*
X127902806Y-99185847D01*
X127899261Y-99188124D01*
X127896006Y-99190402D01*
X127892862Y-99192730D01*
X127889653Y-99195157D01*
X127886202Y-99197734D01*
X127882332Y-99200510D01*
X127880215Y-99201968D01*
X127865376Y-99211040D01*
X127849698Y-99219056D01*
X127836285Y-99224448D01*
X127834858Y-99224878D01*
X127819241Y-99231680D01*
X127799477Y-99244355D01*
X127775621Y-99262858D01*
X127747728Y-99287144D01*
X127715852Y-99317169D01*
X127693323Y-99339440D01*
X127632652Y-99404571D01*
X127577473Y-99472721D01*
X127527244Y-99544691D01*
X127481422Y-99621285D01*
X127439463Y-99703306D01*
X127422983Y-99739293D01*
X127406686Y-99776050D01*
X127406686Y-101016368D01*
X127406684Y-101130869D01*
X127406680Y-101238348D01*
X127406677Y-101339038D01*
X127406679Y-101433175D01*
D12*
X145740000Y-116950000D02*
X145640000Y-117450000D01*
X146040000Y-115650000D02*
X145740000Y-116950000D01*
X146240000Y-114150000D02*
X146040000Y-115650000D01*
X146340000Y-112850000D02*
X146240000Y-114150000D01*
X146340000Y-111050000D02*
X146340000Y-112850000D01*
X146240000Y-109750000D02*
X146340000Y-111050000D01*
X146140000Y-108950000D02*
X146240000Y-109750000D01*
X145840000Y-107250000D02*
X146140000Y-108950000D01*
X145640000Y-106450000D02*
X145840000Y-107250000D01*
X145040000Y-106950000D02*
X145040000Y-116950000D01*
X146540000Y-106450000D02*
X145540000Y-106450000D01*
X146540000Y-117450000D02*
X145540000Y-117450000D01*
X146540000Y-105040000D02*
X146540000Y-118860000D01*
X160460000Y-118860000D02*
X160460000Y-105040000D01*
X157760000Y-118860000D02*
X160460000Y-118860000D01*
X146540000Y-118860000D02*
X146940000Y-118860000D01*
X149460000Y-118860000D02*
X155240000Y-118860000D01*
X157760000Y-105040000D02*
X160460000Y-105040000D01*
X149460000Y-105040000D02*
X155240000Y-105040000D01*
X146540000Y-105040000D02*
X146940000Y-105040000D01*
X145540000Y-117450000D02*
G75*
G02X145040000Y-116950000I0J500000D01*
G01*
X145040000Y-106950000D02*
G75*
G02X145540000Y-106450000I500000J0D01*
G01*
X163940000Y-113391422D02*
X163940000Y-113908578D01*
X165360000Y-113391422D02*
X165360000Y-113908578D01*
X169600000Y-99165000D02*
X173485000Y-99165000D01*
X173485000Y-99165000D02*
X173485000Y-101435000D01*
X173485000Y-101435000D02*
X169600000Y-101435000D01*
X173485000Y-98185000D02*
X169600000Y-98185000D01*
X173485000Y-95915000D02*
X173485000Y-98185000D01*
X169600000Y-95915000D02*
X173485000Y-95915000D01*
X169600000Y-92915000D02*
X173485000Y-92915000D01*
X173485000Y-92915000D02*
X173485000Y-95185000D01*
X173485000Y-95185000D02*
X169600000Y-95185000D01*
X138700000Y-78250000D02*
X148700000Y-78250000D01*
X138700000Y-78250000D02*
X138700000Y-91250000D01*
X148700000Y-78250000D02*
X148700000Y-91250000D01*
X138700000Y-91250000D02*
X148700000Y-91250000D01*
X166441422Y-99590000D02*
X166958578Y-99590000D01*
X166441422Y-101010000D02*
X166958578Y-101010000D01*
X166441422Y-96340000D02*
X166958578Y-96340000D01*
X166441422Y-97760000D02*
X166958578Y-97760000D01*
X135100000Y-85500000D02*
X135100000Y-94000000D01*
X125100000Y-85500000D02*
X135100000Y-85500000D01*
X125100000Y-94000000D02*
X135100000Y-94000000D01*
X125100000Y-85500000D02*
X125100000Y-94000000D01*
X166391422Y-94660000D02*
X166908578Y-94660000D01*
X166391422Y-93240000D02*
X166908578Y-93240000D01*
D13*
X143302380Y-111616666D02*
X144016666Y-111616666D01*
X144159523Y-111569047D01*
X144254761Y-111473809D01*
X144302380Y-111330952D01*
X144302380Y-111235714D01*
X143302380Y-111997619D02*
X143302380Y-112616666D01*
X143683333Y-112283333D01*
X143683333Y-112426190D01*
X143730952Y-112521428D01*
X143778571Y-112569047D01*
X143873809Y-112616666D01*
X144111904Y-112616666D01*
X144207142Y-112569047D01*
X144254761Y-112521428D01*
X144302380Y-112426190D01*
X144302380Y-112140476D01*
X144254761Y-112045238D01*
X144207142Y-111997619D01*
X165007142Y-116383333D02*
X165054761Y-116335714D01*
X165102380Y-116192857D01*
X165102380Y-116097619D01*
X165054761Y-115954761D01*
X164959523Y-115859523D01*
X164864285Y-115811904D01*
X164673809Y-115764285D01*
X164530952Y-115764285D01*
X164340476Y-115811904D01*
X164245238Y-115859523D01*
X164150000Y-115954761D01*
X164102380Y-116097619D01*
X164102380Y-116192857D01*
X164150000Y-116335714D01*
X164197619Y-116383333D01*
X164102380Y-117240476D02*
X164102380Y-117050000D01*
X164150000Y-116954761D01*
X164197619Y-116907142D01*
X164340476Y-116811904D01*
X164530952Y-116764285D01*
X164911904Y-116764285D01*
X165007142Y-116811904D01*
X165054761Y-116859523D01*
X165102380Y-116954761D01*
X165102380Y-117145238D01*
X165054761Y-117240476D01*
X165007142Y-117288095D01*
X164911904Y-117335714D01*
X164673809Y-117335714D01*
X164578571Y-117288095D01*
X164530952Y-117240476D01*
X164483333Y-117145238D01*
X164483333Y-116954761D01*
X164530952Y-116859523D01*
X164578571Y-116811904D01*
X164673809Y-116764285D01*
X169288095Y-99102380D02*
X169288095Y-98102380D01*
X169050000Y-98102380D01*
X168907142Y-98150000D01*
X168811904Y-98245238D01*
X168764285Y-98340476D01*
X168716666Y-98530952D01*
X168716666Y-98673809D01*
X168764285Y-98864285D01*
X168811904Y-98959523D01*
X168907142Y-99054761D01*
X169050000Y-99102380D01*
X169288095Y-99102380D01*
X167764285Y-99102380D02*
X168335714Y-99102380D01*
X168050000Y-99102380D02*
X168050000Y-98102380D01*
X168145238Y-98245238D01*
X168240476Y-98340476D01*
X168335714Y-98388095D01*
X169188095Y-96102380D02*
X169188095Y-95102380D01*
X168950000Y-95102380D01*
X168807142Y-95150000D01*
X168711904Y-95245238D01*
X168664285Y-95340476D01*
X168616666Y-95530952D01*
X168616666Y-95673809D01*
X168664285Y-95864285D01*
X168711904Y-95959523D01*
X168807142Y-96054761D01*
X168950000Y-96102380D01*
X169188095Y-96102380D01*
X168235714Y-95197619D02*
X168188095Y-95150000D01*
X168092857Y-95102380D01*
X167854761Y-95102380D01*
X167759523Y-95150000D01*
X167711904Y-95197619D01*
X167664285Y-95292857D01*
X167664285Y-95388095D01*
X167711904Y-95530952D01*
X168283333Y-96102380D01*
X167664285Y-96102380D01*
X169388095Y-92802380D02*
X169388095Y-91802380D01*
X169150000Y-91802380D01*
X169007142Y-91850000D01*
X168911904Y-91945238D01*
X168864285Y-92040476D01*
X168816666Y-92230952D01*
X168816666Y-92373809D01*
X168864285Y-92564285D01*
X168911904Y-92659523D01*
X169007142Y-92754761D01*
X169150000Y-92802380D01*
X169388095Y-92802380D01*
X168483333Y-91802380D02*
X167864285Y-91802380D01*
X168197619Y-92183333D01*
X168054761Y-92183333D01*
X167959523Y-92230952D01*
X167911904Y-92278571D01*
X167864285Y-92373809D01*
X167864285Y-92611904D01*
X167911904Y-92707142D01*
X167959523Y-92754761D01*
X168054761Y-92802380D01*
X168340476Y-92802380D01*
X168435714Y-92754761D01*
X168483333Y-92707142D01*
X143983333Y-76502380D02*
X143983333Y-77216666D01*
X144030952Y-77359523D01*
X144126190Y-77454761D01*
X144269047Y-77502380D01*
X144364285Y-77502380D01*
X142983333Y-77502380D02*
X143554761Y-77502380D01*
X143269047Y-77502380D02*
X143269047Y-76502380D01*
X143364285Y-76645238D01*
X143459523Y-76740476D01*
X143554761Y-76788095D01*
X164716666Y-99202380D02*
X165050000Y-98726190D01*
X165288095Y-99202380D02*
X165288095Y-98202380D01*
X164907142Y-98202380D01*
X164811904Y-98250000D01*
X164764285Y-98297619D01*
X164716666Y-98392857D01*
X164716666Y-98535714D01*
X164764285Y-98630952D01*
X164811904Y-98678571D01*
X164907142Y-98726190D01*
X165288095Y-98726190D01*
X164383333Y-98202380D02*
X163764285Y-98202380D01*
X164097619Y-98583333D01*
X163954761Y-98583333D01*
X163859523Y-98630952D01*
X163811904Y-98678571D01*
X163764285Y-98773809D01*
X163764285Y-99011904D01*
X163811904Y-99107142D01*
X163859523Y-99154761D01*
X163954761Y-99202380D01*
X164240476Y-99202380D01*
X164335714Y-99154761D01*
X164383333Y-99107142D01*
X164616666Y-96002380D02*
X164950000Y-95526190D01*
X165188095Y-96002380D02*
X165188095Y-95002380D01*
X164807142Y-95002380D01*
X164711904Y-95050000D01*
X164664285Y-95097619D01*
X164616666Y-95192857D01*
X164616666Y-95335714D01*
X164664285Y-95430952D01*
X164711904Y-95478571D01*
X164807142Y-95526190D01*
X165188095Y-95526190D01*
X163759523Y-95335714D02*
X163759523Y-96002380D01*
X163997619Y-94954761D02*
X164235714Y-95669047D01*
X163616666Y-95669047D01*
X131483333Y-84954761D02*
X131340476Y-85002380D01*
X131102380Y-85002380D01*
X131007142Y-84954761D01*
X130959523Y-84907142D01*
X130911904Y-84811904D01*
X130911904Y-84716666D01*
X130959523Y-84621428D01*
X131007142Y-84573809D01*
X131102380Y-84526190D01*
X131292857Y-84478571D01*
X131388095Y-84430952D01*
X131435714Y-84383333D01*
X131483333Y-84288095D01*
X131483333Y-84192857D01*
X131435714Y-84097619D01*
X131388095Y-84050000D01*
X131292857Y-84002380D01*
X131054761Y-84002380D01*
X130911904Y-84050000D01*
X130578571Y-84002380D02*
X130340476Y-85002380D01*
X130150000Y-84288095D01*
X129959523Y-85002380D01*
X129721428Y-84002380D01*
X128816666Y-85002380D02*
X129388095Y-85002380D01*
X129102380Y-85002380D02*
X129102380Y-84002380D01*
X129197619Y-84145238D01*
X129292857Y-84240476D01*
X129388095Y-84288095D01*
X164816666Y-92902380D02*
X165150000Y-92426190D01*
X165388095Y-92902380D02*
X165388095Y-91902380D01*
X165007142Y-91902380D01*
X164911904Y-91950000D01*
X164864285Y-91997619D01*
X164816666Y-92092857D01*
X164816666Y-92235714D01*
X164864285Y-92330952D01*
X164911904Y-92378571D01*
X165007142Y-92426190D01*
X165388095Y-92426190D01*
X163911904Y-91902380D02*
X164388095Y-91902380D01*
X164435714Y-92378571D01*
X164388095Y-92330952D01*
X164292857Y-92283333D01*
X164054761Y-92283333D01*
X163959523Y-92330952D01*
X163911904Y-92378571D01*
X163864285Y-92473809D01*
X163864285Y-92711904D01*
X163911904Y-92807142D01*
X163959523Y-92854761D01*
X164054761Y-92902380D01*
X164292857Y-92902380D01*
X164388095Y-92854761D01*
X164435714Y-92807142D01*
M02*
